<svg xmlns="http://www.w3.org/2000/svg" xmlns:xlink="http://www.w3.org/1999/xlink" version="1.1"><metadata>Created by FontForge 20161013 at Sun Jul 23 14:11:40 2017 By ,,, Copyright (c)2016. Cerebri Sans is a trademark of Alfredo Marco Pradil. All rights reserved.</metadata><defs><font id="CerebriSans-Book" horiz-adv-x="0"><font-face x-height="990" ascent="1536" bbox="-1642 -561 2781 2334" cap-height="1414" descent="-512" font-family="Cerebri Sans Book" font-stretch="normal" font-weight="400" panose-1="0 0 5 0 0 0 0 0 0 0" underline-position="-388" underline-thickness="102" unicode-range="U+0020-FB02" units-per-em="2048"/><glyph d="M226 1181q0 91 21 156t55.5 103t90.5 60t113.5 29t137.5 7v-159q-33 0 -48 -0.5t-44 -4t-44 -10.5t-35.5 -21.5t-30.5 -35t-17.5 -53t-7.5 -74.5v-188h227v-151h-227v-839h-191v839h-191v151h191v191zM937 1209q-51 0 -88.5 37t-37.5 88t37.5 87.5t88.5 36.5t87.5 -36.5 t36.5 -87.5q0 -52 -36.5 -88.5t-87.5 -36.5zM839 0v990h193v-990h-193z" glyph-name="fi" horiz-adv-x="1204" unicode="fi"/><glyph d="M226 1181q0 91 21 156t55.5 103t90.5 60t113.5 29t137.5 7v-159q-33 0 -48 -0.5t-44 -4t-44 -10.5t-35.5 -21.5t-30.5 -35t-17.5 -53t-7.5 -74.5v-188h227v-151h-227v-839h-191v839h-191v151h191v191zM839 1536h193v-1536h-193v1536z" glyph-name="fl" horiz-adv-x="1204" unicode="fl"/><glyph d="M226 0v839h-191v151h191v191q0 91 21 156t55.5 103t90.5 60t113.5 29t137.5 7v-159q-33 0 -48 -0.5t-44 -4t-44 -10.5t-35.5 -21.5t-30.5 -35t-17.5 -53t-7.5 -74.5v-188h452v191q0 91 21 156t55 103t90.5 60t113.5 29t137 7v-159q-33 0 -48 -0.5t-44 -4t-43.5 -10.5 t-35 -21.5t-30.5 -35t-17.5 -53t-7.5 -74.5v-188h226v-151h-226v-839h-191v839h-452v-839h-191z" glyph-name="f_f" horiz-adv-x="1309" unicode="ff"/><glyph d="M197 0v1536h858v-1536h-858zM346 149h560v1238h-560v-1238z" glyph-name=".notdef" horiz-adv-x="1252"/><glyph glyph-name=".null"/><glyph glyph-name="nonmarkingreturn" horiz-adv-x="682"/><glyph glyph-name="space" horiz-adv-x="532"/><glyph d="M246 410l-15 1004h192l-14 -1004h-163zM327 -20q-50 0 -87 36.5t-37 87.5q0 52 36.5 88.5t87.5 36.5q52 0 88.5 -36.5t36.5 -88.5q0 -51 -36.5 -87.5t-88.5 -36.5z" glyph-name="exclam" horiz-adv-x="656" unicode="!"/><glyph d="M248 768l-19 646h183l-14 -646h-150zM601 768l-14 646h181l-18 -646h-149z" glyph-name="quotedbl" horiz-adv-x="998" unicode="&quot;"/><glyph d="M331 0l48 342h-279l19 145h281l64 440h-282l23 144h276l53 347h141l-47 -347h364l49 347h145l-51 -347h283l-23 -144h-279l-61 -440h278l-20 -145h-278l-53 -342h-142l49 342h-366l-49 -342h-143zM544 487h365l64 440h-368z" glyph-name="numbersign" horiz-adv-x="1517" unicode="#"/><glyph d="M1209 388q0 -98 -36.5 -175t-102 -125t-148.5 -75t-182 -32v-131h-97v131q-196 12 -330.5 112.5t-167.5 267.5l203 48q21 -108 100.5 -175t194.5 -81v491l-16 4q-44 12 -73 21t-70 23t-68.5 26.5t-61 31.5t-55.5 38.5t-44.5 46t-35.5 56t-21.5 67t-8.5 79.5 q0 124 62.5 213.5t163.5 133.5t228 48v133h97v-136q112 -10 202.5 -49t157 -114.5t89.5 -180.5l-193 -50q-22 97 -89.5 153t-166.5 70v-460q46 -13 75 -21t73 -23t72.5 -27.5t65.5 -32.5t61 -40.5t49.5 -49t39.5 -60t23.5 -71.5t9.5 -85zM389 1040q0 -85 65 -132t189 -83 v437q-109 -7 -181.5 -62t-72.5 -160zM740 151q119 8 192.5 64.5t71.5 165.5q-1 48 -20.5 86t-58.5 65.5t-81.5 46.5t-103.5 37v-465z" glyph-name="dollar" horiz-adv-x="1364" unicode="$"/><glyph d="M412 838q-123 0 -209.5 87.5t-86.5 211.5q0 122 87 209.5t209 87.5q124 0 210.5 -87.5t86.5 -209.5q0 -124 -86.5 -211.5t-210.5 -87.5zM314 -1l751 1417h172l-751 -1417h-172zM412 975q69 0 115.5 47.5t46.5 114.5t-47.5 114t-114.5 47q-66 0 -114 -47t-48 -114 q0 -68 47.5 -115t114.5 -47zM1151 -18q-124 0 -211 87.5t-87 210.5t87.5 210t210.5 87q122 0 208 -87t86 -210t-86 -210.5t-208 -87.5zM1151 118q66 0 114 48t48 114q0 67 -48 114.5t-114 47.5q-69 0 -116 -47t-47 -115q0 -67 47.5 -114.5t115.5 -47.5z" glyph-name="percent" horiz-adv-x="1561" unicode="%"/><glyph d="M1386 0h-227l-111 144q-213 -164 -469 -164q-201 0 -329 101t-128 285q0 62 17.5 115.5t45.5 96t81.5 89.5t107 84t139.5 92q-85 113 -119.5 181t-34.5 136q0 126 99 202q92 72 237 72q148 0 243 -75t95 -201q0 -97 -65.5 -177.5t-211.5 -171.5l310 -398q133 187 133 392 h179q0 -145 -53 -283t-148 -252zM583 1256q-40 -40 -40 -105q0 -45 22 -84t88 -126l13 -17q97 62 144 117t47 117q0 65 -46.5 103t-112.5 38q-69 0 -115 -43zM586 143q197 0 359 136l-337 441q-69 -43 -105.5 -68t-81.5 -61t-66.5 -65.5t-36.5 -69t-15 -84.5 q0 -112 78.5 -170.5t204.5 -58.5z" glyph-name="ampersand" horiz-adv-x="1524" unicode="&amp;"/><glyph d="M246 768l-13 646h181l-19 -646h-149z" glyph-name="quotesingle" horiz-adv-x="644" unicode="'"/><glyph d="M535 -496q-197 129 -309.5 412.5t-112.5 662.5q0 376 113 660.5t309 413.5l104 -127q-163 -105 -259.5 -356.5t-96.5 -590.5q0 -341 96 -591t260 -355z" glyph-name="parenleft" horiz-adv-x="679" unicode="("/><glyph d="M144 -496l-104 129q164 105 260 355t96 591q0 339 -96.5 590.5t-259.5 356.5l104 127q196 -129 309 -413.5t113 -660.5q0 -379 -112.5 -662.5t-309.5 -412.5z" glyph-name="parenright" horiz-adv-x="679" unicode=")"/><glyph d="M366 891l-97 59l151 200q16 22 7.5 37t-34.5 11l-254 -25v111l254 -27q26 -4 35 11.5t-8 36.5l-151 204l97 55l103 -229q11 -25 28 -25t27 25l102 229l99 -55l-153 -204q-17 -21 -8 -36.5t36 -11.5l253 27v-111l-253 25q-27 4 -35.5 -11t8.5 -37l152 -200l-99 -59 l-102 229q-10 26 -27 26.5t-28 -26.5z" glyph-name="asterisk" horiz-adv-x="992" unicode="*"/><glyph d="M526 206v402h-402v154h402v401h154v-401h401v-154h-401v-402h-154z" glyph-name="plus" horiz-adv-x="1205" unicode="+"/><glyph d="M318 -362h-140l123 626h200z" glyph-name="comma" horiz-adv-x="653" unicode=","/><glyph d="M167 453v159h717v-159h-717z" glyph-name="hyphen" horiz-adv-x="1051" unicode="-"/><glyph d="M328 -20q-51 0 -87.5 36.5t-36.5 87.5q0 50 37 87.5t87 37.5q51 0 88 -37.5t37 -87.5q0 -51 -37 -87.5t-88 -36.5z" glyph-name="period" horiz-adv-x="659" unicode="."/><glyph d="M-7 -377l993 1913h184l-993 -1913h-184z" glyph-name="slash" horiz-adv-x="1162" unicode="/"/><glyph d="M583 -19q-229 0 -353.5 184.5t-124.5 542.5t123 541.5t355 183.5q230 0 353.5 -183.5t123.5 -541.5t-124.5 -542.5t-352.5 -184.5zM583 158q138 0 211.5 137t73.5 413q0 278 -74.5 413t-210.5 135q-137 0 -211 -134.5t-74 -413.5q0 -277 73 -413.5t212 -136.5z" glyph-name="zero" horiz-adv-x="1164" unicode="0"/><glyph d="M585 1414h180v-1414h-191v1206l-336 -295v204z" glyph-name="one" horiz-adv-x="1164" unicode="1"/><glyph d="M374 175h687v-175h-961v145l566 584q88 90 122 161t34 140q0 115 -68 178.5t-178 63.5q-117 0 -185.5 -69.5t-68.5 -218.5v-105l-192 18v85q0 220 121 336.5t325 116.5q191 0 313 -107.5t122 -294.5q0 -110 -47.5 -202.5t-151.5 -200.5z" glyph-name="two" horiz-adv-x="1164" unicode="2"/><glyph d="M574 -19q-477 0 -477 506l195 10q0 -174 62.5 -259t219.5 -85q131 0 210.5 73t79.5 191q0 122 -76.5 192t-193.5 70h-68v159h66q87 0 148 63t61 155t-65 149t-165 57q-124 0 -173.5 -73.5t-49.5 -203.5l-195 7q0 213 108.5 327t307.5 114q177 0 295.5 -104t118.5 -259 q0 -105 -56.5 -184t-138.5 -113q119 -34 195.5 -127t76.5 -237q0 -192 -136 -310t-350 -118z" glyph-name="three" horiz-adv-x="1164" unicode="3"/><glyph d="M1120 457v-176h-210v-281h-192v281h-672v177l573 956h291v-957h210zM241 457h477v822z" glyph-name="four" horiz-adv-x="1164" unicode="4"/><glyph d="M550 911q261 0 390 -118t129 -332q0 -213 -132.5 -346.5t-345.5 -133.5q-95 0 -180.5 29t-151.5 83t-105 139.5t-39 190.5q0 20 4 72l196 15q-8 -45 -8 -76q0 -71 24 -125.5t65 -86t89.5 -47t101.5 -15.5q132 0 210.5 82t78.5 212q0 136 -83.5 213t-265.5 77h-360l83 669 h757v-177h-593l-40 -325h176z" glyph-name="five" horiz-adv-x="1164" unicode="5"/><glyph d="M1076 472q1 -107 -37.5 -199t-106 -155t-158 -99t-191.5 -36q-138 0 -251.5 60t-180 170t-66.5 249q0 174 123 340l468 612h224l-387 -491q54 14 111 14q118 0 219 -55t166 -163t67 -247zM578 161q137 0 224.5 86.5t85.5 228.5q-1 143 -88.5 228t-222.5 85t-223 -92.5 t-87 -226.5q1 -144 87 -226.5t224 -82.5z" glyph-name="six" horiz-adv-x="1164" unicode="6"/><glyph d="M100 1414h972v-157l-682 -1257h-219l687 1238h-758v176z" glyph-name="seven" horiz-adv-x="1164" unicode="7"/><glyph d="M584 -19q-209 0 -347.5 117t-138.5 309q0 133 69.5 229.5t188.5 142.5q-85 45 -135 122t-50 172q0 158 117 259t296 101q176 0 293 -101t117 -259q0 -95 -49 -172t-133 -122q118 -46 187.5 -143t69.5 -229q0 -192 -138 -309t-347 -117zM584 841q97 0 165 64t68 157 q0 91 -68 153.5t-165 62.5q-99 0 -166 -62t-67 -154q0 -93 67 -157t166 -64zM584 157q125 0 208.5 74.5t83.5 197.5q0 121 -83.5 194t-208.5 73q-126 0 -210 -73t-84 -194q0 -123 83.5 -197.5t210.5 -74.5z" glyph-name="eight" horiz-adv-x="1164" unicode="8"/><glyph d="M580 1430q211 0 354.5 -134.5t143.5 -343.5q0 -176 -124 -341l-467 -611h-228l386 490q-49 -13 -108 -13q-116 0 -217 55t-166 163t-67 247q-2 214 142 351t351 137zM587 624q135 0 222.5 93t85.5 227q-1 143 -87 226t-223 83q-136 0 -224 -86.5t-87 -228.5t89.5 -228 t223.5 -86z" glyph-name="nine" horiz-adv-x="1164" unicode="9"/><glyph d="M317 669q-51 0 -87.5 36.5t-36.5 88.5q0 50 37 87t87 37q51 0 88 -37t37 -87q0 -52 -37 -88.5t-88 -36.5zM317 -20q-51 0 -87.5 36.5t-36.5 87.5q0 50 37 87.5t87 37.5q51 0 88 -37.5t37 -87.5q0 -51 -37 -87.5t-88 -36.5z" glyph-name="colon" horiz-adv-x="638" unicode=":"/><glyph d="M353 669q-51 0 -88.5 37t-37.5 88q0 50 37.5 87t88.5 37q50 0 87.5 -37t37.5 -87q0 -51 -37.5 -88t-87.5 -37zM146 -362l123 626h200l-184 -626h-139z" glyph-name="semicolon" horiz-adv-x="653" unicode=";"/><glyph d="M1241 1377v-172l-969 -488l969 -490v-174l-1131 572v184z" glyph-name="less" horiz-adv-x="1383" unicode="&lt;"/><glyph d="M257 823v154h784v-154h-784zM257 409v154h784v-154h-784z" glyph-name="equal" horiz-adv-x="1298" unicode="="/><glyph d="M142 1377l1130 -568v-184l-1130 -572v174l969 490l-969 488v172z" glyph-name="greater" horiz-adv-x="1383" unicode="&gt;"/><glyph d="M434 402v123q0 50 12.5 87t41 66t60.5 49.5t84 46.5q130 63 130 237q0 120 -69.5 191.5t-179.5 71.5q-109 0 -179 -75.5t-70 -191.5q0 -33 9 -83l-169 18q-7 41 -7 84q0 180 115.5 294t298.5 114q185 0 303 -115.5t118 -304.5q0 -147 -64 -236.5t-162 -129.5 q-56 -23 -82.5 -54t-26.5 -85v-107h-163zM521 -20q-51 0 -87.5 36.5t-36.5 87.5t37 87.5t87 36.5t86 -36.5t36 -87.5t-36 -87.5t-86 -36.5z" glyph-name="question" horiz-adv-x="1043" unicode="?"/><glyph d="M897 -204q-153 0 -291.5 59t-239 159.5t-160 239.5t-59.5 293q0 152 58 289.5t157.5 238.5t239.5 160.5t297 59.5q155 0 293.5 -58.5t238 -159.5t157.5 -242.5t58 -300.5q0 -106 -25.5 -185.5t-70.5 -124.5t-100 -67t-119 -22q-90 0 -154 34t-94 99h-9 q-91 -120 -257 -120q-107 0 -176 55t-69 159q0 55 21 97t61 69t87.5 44t110.5 29l201 40v49q0 78 -43.5 113t-115.5 35q-146 0 -170 -125l-137 34q21 95 101 146.5t206 51.5q62 0 114.5 -14t97 -44.5t69.5 -84.5t25 -128v-289q0 -66 34.5 -102t102.5 -36q86 0 135 67t49 209 q0 186 -83 334.5t-225 230t-314 81.5q-131 0 -247.5 -49t-199 -132.5t-131 -198.5t-48.5 -241q0 -128 49.5 -244t133.5 -199.5t200 -133t245 -49.5q168 0 314 86l58 -109q-169 -103 -376 -103zM852 256q36 0 70.5 10t67.5 32t53 64t20 99v85l-180 -38q-88 -19 -126.5 -48.5 t-38.5 -85.5q0 -58 36 -88t98 -30z" glyph-name="at" horiz-adv-x="1789" unicode="@"/><glyph d="M1130 0l-118 330h-632l-118 -330h-207l521 1414h240l521 -1414h-207zM442 504h508l-254 713z" glyph-name="A" horiz-adv-x="1392" unicode="A"/><glyph d="M900 740q130 -33 204.5 -122t74.5 -232q0 -173 -110 -279.5t-298 -106.5h-556v1414h434q194 0 310 -103.5t116 -272.5q0 -102 -45 -180t-130 -118zM889 1025q0 94 -64.5 155.5t-176.5 61.5h-240v-440h271q94 0 152 64t58 159zM737 175q116 0 182 67t66 164 q0 102 -68.5 168t-191.5 66h-317v-465h329z" glyph-name="B" horiz-adv-x="1285" unicode="B"/><glyph d="M824 -19q-201 0 -360.5 86.5t-253 253t-93.5 387.5q0 165 54 302.5t149 229.5t224.5 142.5t279.5 50.5q215 0 383 -101.5t249 -283.5l-184 -73q-61 129 -179.5 199.5t-268.5 70.5q-107 0 -199.5 -36.5t-161.5 -103.5t-108.5 -169.5t-39.5 -227.5q0 -126 39.5 -228.5 t108.5 -170t161.5 -104t199.5 -36.5q150 0 268.5 70.5t179.5 199.5l184 -74q-82 -181 -249.5 -282.5t-382.5 -101.5z" glyph-name="C" horiz-adv-x="1538" unicode="C"/><glyph d="M215 0v1414h466q160 0 285.5 -52t206 -146t122.5 -223t42 -285q0 -211 -72 -368.5t-221.5 -248.5t-362.5 -91h-466zM414 180h259q226 0 341 139.5t115 388.5q0 248 -115 387.5t-341 139.5h-259v-1055z" glyph-name="D" horiz-adv-x="1459" unicode="D"/><glyph d="M984 1235h-566v-440h499v-178h-499v-437h566v-180h-769v1414h769v-179z" glyph-name="E" horiz-adv-x="1106" unicode="E"/><glyph d="M992 1235h-574v-439h499v-179h-499v-617h-203v1414h777v-179z" glyph-name="F" horiz-adv-x="1070" unicode="F"/><glyph d="M817 -19q-148 0 -276.5 50t-222.5 141.5t-147.5 228t-53.5 302.5q0 222 93.5 389.5t253 254t360.5 86.5q198 0 356.5 -85t248.5 -245l-176 -94q-65 121 -177 182t-252 61q-108 0 -200 -36.5t-160.5 -104t-107.5 -171.5t-39 -233q0 -254 143 -400.5t371 -146.5 q186 0 311.5 104t149.5 299h-462v166h655v-729h-162v254q-71 -131 -200 -202t-306 -71z" glyph-name="G" horiz-adv-x="1632" unicode="G"/><glyph d="M1111 1414h199v-1414h-199v620h-695v-620h-201v1414h201v-617h695v617z" glyph-name="H" horiz-adv-x="1526" unicode="H"/><glyph d="M215 0v1414h199v-1414h-199z" glyph-name="I" horiz-adv-x="630" unicode="I"/><glyph d="M365 -19q-163 0 -320 85l86 168q104 -70 217 -70q111 0 172 74t61 210v966h200v-1002q0 -200 -113.5 -315.5t-302.5 -115.5z" glyph-name="J" horiz-adv-x="975" unicode="J"/><glyph d="M1032 0l-496 645h-122v-645h-199v1414h199v-591h120l482 591h244l-554 -674l581 -740h-255z" glyph-name="K" horiz-adv-x="1337" unicode="K"/><glyph d="M414 180h483v-180h-682v1414h199v-1234z" glyph-name="L" horiz-adv-x="952" unicode="L"/><glyph d="M1732 0h-195l-93 1150l-437 -1150h-121l-434 1146l-95 -1146h-196l109 1414h269l407 -1069l409 1069h269z" glyph-name="M" horiz-adv-x="1893" unicode="M"/><glyph d="M1168 1414h198v-1414h-215l-739 1122v-1122h-197v1414h213l740 -1117v1117z" glyph-name="N" horiz-adv-x="1581" unicode="N"/><glyph d="M824 -19q-201 0 -360.5 86.5t-253 253.5t-93.5 387q0 165 54 302.5t149 229.5t224.5 142.5t279.5 50.5q149 0 278.5 -50.5t224 -142.5t149 -229.5t54.5 -302.5q0 -166 -54.5 -303.5t-149 -229.5t-224 -143t-278.5 -51zM824 168q106 0 198.5 36.5t161 104t108 170.5 t39.5 229q0 125 -39.5 227.5t-108 169.5t-161 103.5t-198.5 36.5q-107 0 -199.5 -36.5t-161.5 -103.5t-108.5 -169.5t-39.5 -227.5q0 -126 39.5 -229t108.5 -170.5t161.5 -104t199.5 -36.5z" glyph-name="O" horiz-adv-x="1647" unicode="O"/><glyph d="M760 1414q190 0 308 -126t118 -312q0 -187 -117.5 -310.5t-308.5 -123.5h-346v-542h-199v1414h545zM730 714q122 0 190.5 72t68.5 193q0 117 -68.5 190.5t-190.5 73.5h-316v-529h316z" glyph-name="P" horiz-adv-x="1274" unicode="P"/><glyph d="M1581 -69l-177 -62l-194 212q-169 -100 -383 -100q-151 0 -281.5 50.5t-226 143t-150 230t-54.5 303.5q0 165 54.5 302.5t150 229.5t226 142.5t281.5 50.5q150 0 280 -50.5t225.5 -142.5t150.5 -229.5t55 -302.5q0 -320 -193 -521zM313 708q0 -129 40 -233.5t109.5 -173 t163 -105t201.5 -36.5t200.5 36.5t162 105t109 173t39.5 233.5q0 125 -39.5 227.5t-108.5 169.5t-162 103.5t-201 36.5t-201.5 -36.5t-163 -103.5t-109.5 -169.5t-40 -227.5z" glyph-name="Q" horiz-adv-x="1670" unicode="Q"/><glyph d="M978 0l-366 636h-198v-636h-199v1414h476q108 0 192 -31.5t135.5 -87t77.5 -127.5t26 -157q0 -148 -82 -245t-228 -122l399 -644h-233zM414 1242v-454h250q133 0 200 60.5t67 165.5q0 104 -67 166t-200 62h-250z" glyph-name="R" horiz-adv-x="1286" unicode="R"/><glyph d="M658 -19q-223 0 -373 101t-186 280l203 48q24 -122 122 -191t241 -69q59 0 110 12.5t93.5 39t66.5 73t23 107.5q-1 48 -24.5 86.5t-46.5 61t-87.5 49t-92 34.5t-113.5 32q-9 3 -13 4q-57 16 -94 27t-88 30.5t-83.5 39t-68.5 49t-56.5 63t-34 80t-13.5 100.5 q0 77 24.5 142t68 111t103.5 78.5t130 48t148 15.5q96 0 180.5 -20.5t155.5 -62t121 -109t69 -156.5l-193 -49q-25 113 -112.5 170t-211.5 57q-75 0 -136.5 -21t-104 -73t-42.5 -129q0 -31 10 -57t24.5 -45t43 -37.5t51 -30t64.5 -25.5t68 -21.5t76 -20.5q91 -25 139.5 -40 t125 -50t116 -74t71 -104t31.5 -147q0 -83 -27 -151.5t-74 -115.5t-111.5 -79t-138 -46.5t-154.5 -14.5z" glyph-name="S" horiz-adv-x="1275" unicode="S"/><glyph d="M968 1414v-179h-358v-1235h-197v1235h-359v179h914z" glyph-name="T" horiz-adv-x="1022" unicode="T"/><glyph d="M706 -19q-148 0 -264.5 55.5t-186 168.5t-69.5 268v941h199v-913q0 -168 89 -254t232 -86t233.5 86.5t90.5 253.5v913h199v-941q0 -155 -70 -268t-187 -168.5t-266 -55.5z" glyph-name="U" horiz-adv-x="1415" unicode="U"/><glyph d="M1091 1414h210l-520 -1414h-208l-518 1414h209l414 -1170z" glyph-name="V" horiz-adv-x="1356" unicode="V"/><glyph d="M465 0l-399 1414h207l326 -1150l346 1150h174l346 -1150l327 1150h206l-399 -1414h-239l-328 1052l-328 -1052h-239z" glyph-name="W" horiz-adv-x="2064" unicode="W"/><glyph d="M52 0l551 738l-527 676h241l405 -534l403 534h242l-528 -676l551 -738h-252l-416 583l-417 -583h-253z" glyph-name="X" horiz-adv-x="1443" unicode="X"/><glyph d="M1172 1414l-465 -740v-674h-201v673l-466 741h226l340 -561l341 561h225z" glyph-name="Y" horiz-adv-x="1212" unicode="Y"/><glyph d="M341 180h799v-180h-1043v161l781 1074h-779v179h1017v-163z" glyph-name="Z" horiz-adv-x="1232" unicode="Z"/><glyph d="M172 -512v2048h432v-141h-263v-1766h263v-141h-432z" glyph-name="bracketleft" horiz-adv-x="656" unicode="["/><glyph d="M986 -377l-993 1913h184l993 -1913h-184z" glyph-name="backslash" horiz-adv-x="1162" unicode="\"/><glyph d="M480 -512h-432v141h263v1766h-263v141h432v-2048z" glyph-name="bracketright" horiz-adv-x="652" unicode="]"/><glyph d="M1300 283h-166l-435 960l-436 -960h-165l512 1131h178z" glyph-name="asciicircum" horiz-adv-x="1398" unicode="^"/><glyph d="M167 -159v159h1024v-159h-1024z" glyph-name="underscore" horiz-adv-x="1358" unicode="_"/><glyph d="M298 1224l-224 260l100 73l253 -333h-129z" glyph-name="grave" horiz-adv-x="483" unicode="`"/><glyph d="M402 -19q-85 0 -151.5 27t-109 89.5t-42.5 154.5q0 75 27.5 130t82 90t117 56t149.5 36l156 27q90 17 90 91q0 95 -60 139.5t-150 44.5q-92 0 -152 -44t-71 -137l-173 35q24 144 127.5 216t277.5 72q63 0 117 -10t104.5 -35t86 -63.5t57 -99t21.5 -137.5v-401 q0 -74 22.5 -100.5t76.5 -26.5h15v-135h-93q-163 0 -192 133h-9q-56 -78 -141.5 -115t-182.5 -37zM446 134q128 0 208.5 91.5t80.5 246.5l-259 -53q-96 -16 -143 -51.5t-47 -100.5q0 -67 44.5 -100t115.5 -33z" glyph-name="a" horiz-adv-x="1086" unicode="a"/><glyph d="M706 1010q127 0 232.5 -62.5t168.5 -181t63 -271.5q0 -231 -133.5 -373.5t-330.5 -142.5q-115 0 -206.5 54t-137.5 147l-5 -180h-185v1536h191l1 -722q47 91 138 143.5t204 52.5zM664 143q133 0 223.5 97.5t90.5 254.5t-90.5 254t-223.5 97q-132 0 -223 -100.5 t-91 -250.5q0 -151 90.5 -251.5t223.5 -100.5z" glyph-name="b" horiz-adv-x="1262" unicode="b"/><glyph d="M589 -18q-218 0 -359.5 142.5t-141.5 371.5t141.5 371.5t359.5 142.5q170 0 292.5 -88t166.5 -246l-179 -27q-33 98 -107.5 150.5t-174.5 52.5q-134 0 -220.5 -98t-86.5 -258q0 -159 86.5 -257.5t220.5 -98.5q100 0 174.5 52.5t107.5 150.5l179 -27 q-44 -157 -167.5 -245.5t-291.5 -88.5z" glyph-name="c" horiz-adv-x="1123" unicode="c"/><glyph d="M898 1536h192v-1536h-185l-5 180q-46 -93 -138 -147t-205 -54q-95 0 -180 36.5t-148.5 102.5t-100.5 163.5t-37 213.5q0 153 63.5 271.5t169.5 181t233 62.5q112 0 203 -52.5t138 -143.5v722zM598 143q133 0 223 100.5t90 251.5t-90.5 251t-222.5 100q-134 0 -224.5 -97 t-90.5 -254t90.5 -254.5t224.5 -97.5z" glyph-name="d" horiz-adv-x="1262" unicode="d"/><glyph d="M1050 514l-3 -51h-767q5 -157 92 -241t217 -84q88 0 158 45t108 126l174 -34q-52 -137 -169.5 -215.5t-268.5 -78.5q-224 0 -361.5 137.5t-137.5 376.5q0 238 138 376.5t355 138.5q210 0 337 -127t128 -369zM586 864q-118 0 -197 -64.5t-101 -190.5h569q-12 125 -85 190 t-186 65z" glyph-name="e" horiz-adv-x="1140" unicode="e"/><glyph d="M644 1377q-33 0 -48 -0.5t-44 -4t-44 -10.5t-35.5 -21.5t-30.5 -35t-17.5 -53t-7.5 -74.5v-188h227v-151h-227v-839h-191v839h-191v151h191v191q0 91 21 156t55.5 103t90.5 60t113.5 29t137.5 7v-159z" glyph-name="f" horiz-adv-x="667" unicode="f"/><glyph d="M883 990h185v-935q0 -256 -129.5 -390.5t-359.5 -134.5q-364 0 -487 304l160 76q86 -223 320 -223q149 0 226.5 93.5t77.5 262.5v173q-46 -84 -138 -135.5t-202 -51.5q-92 0 -175 36.5t-144 100.5t-97 156.5t-36 198.5q0 213 132.5 351t321.5 138q112 0 204 -53t137 -141 zM580 191q130 0 220.5 97.5t90.5 232.5q0 136 -90 233t-221 97q-130 0 -219.5 -94.5t-89.5 -235.5q0 -140 90 -235t219 -95z" glyph-name="g" horiz-adv-x="1240" unicode="g"/><glyph d="M667 1010q155 0 247.5 -92.5t92.5 -265.5v-652h-193v617q0 120 -58.5 176.5t-151.5 56.5q-103 0 -171 -66t-69 -199v-585h-192v1536h192v-673q48 70 126 108.5t177 38.5z" glyph-name="h" horiz-adv-x="1159" unicode="h"/><glyph d="M270 1209q-51 0 -88.5 37t-37.5 88t37.5 87.5t88.5 36.5t87.5 -36.5t36.5 -87.5q0 -52 -37 -88.5t-87 -36.5zM172 0v990h193v-990h-193z" glyph-name="i" horiz-adv-x="537" unicode="i"/><glyph d="M271 1209q-51 0 -88.5 37t-37.5 88t37.5 87.5t88.5 36.5t87.5 -36.5t36.5 -87.5q0 -52 -36.5 -88.5t-87.5 -36.5zM-52 -463v160q136 0 180 64.5t44 256.5v972h194v-972q0 -262 -95 -371.5t-323 -109.5z" glyph-name="j" horiz-adv-x="538" unicode="j"/><glyph d="M806 0l-364 451h-77v-451h-193v1536h193v-942h71l338 396h225l-397 -453l447 -537h-243z" glyph-name="k" horiz-adv-x="1064" unicode="k"/><glyph d="M172 0v1536h193v-1536h-193z" glyph-name="l" horiz-adv-x="537" unicode="l"/><glyph d="M1212 1010q146 0 234.5 -83.5t88.5 -235.5v-691h-192v640q0 104 -52.5 157t-132.5 53q-92 0 -149 -61.5t-57 -185.5v-603h-195v633q0 107 -53 162t-135 55q-91 0 -148.5 -63t-57.5 -191v-596h-191v990h191v-126q93 146 274 146q98 0 172 -41t111 -119q46 78 121 119 t171 41z" glyph-name="m" horiz-adv-x="1690" unicode="m"/><glyph d="M660 1010q160 0 253.5 -89.5t93.5 -253.5v-667h-193v624q0 115 -58.5 170.5t-150.5 55.5q-106 0 -173 -66.5t-68 -198.5v-585h-192v990h192v-122q48 68 124.5 105t171.5 37z" glyph-name="n" horiz-adv-x="1160" unicode="n"/><glyph d="M597 -19q-221 0 -364 140.5t-143 374.5t142.5 374t364.5 140t364 -140t142 -374t-142 -374.5t-364 -140.5zM595 139q138 0 228 98.5t90 258.5t-90 258t-228 98q-136 0 -225 -98t-89 -258t89 -258.5t225 -98.5z" glyph-name="o" horiz-adv-x="1193" unicode="o"/><glyph d="M705 1010q197 0 330.5 -141.5t133.5 -373.5q0 -117 -36.5 -215t-99.5 -163.5t-147.5 -101.5t-180.5 -36q-112 0 -203 52.5t-138 142.5v-670h-192v1486h185l5 -181q46 93 138 147t205 54zM665 143q132 0 222 96t90 256q0 158 -90 254t-222 96q-134 0 -225 -100t-91 -250 q0 -151 91 -251.5t225 -100.5z" glyph-name="p" horiz-adv-x="1262" unicode="p"/><glyph d="M904 990h185v-1486h-193v667q-47 -89 -138 -140.5t-201 -51.5q-96 0 -180.5 36t-148 101.5t-100.5 163.5t-37 215q0 232 134.5 373.5t331.5 141.5q112 0 204 -53.5t138 -144.5zM595 143q135 0 225.5 100t90.5 252q0 150 -91 250t-225 100q-132 0 -222 -96t-90 -254 q0 -160 90 -256t222 -96z" glyph-name="q" horiz-adv-x="1260" unicode="q"/><glyph d="M358 818q36 80 123 131t192 52v-178q-153 0 -231 -71t-78 -231v-521h-192v990h186v-172z" glyph-name="r" horiz-adv-x="700" unicode="r"/><glyph d="M491 -19q-163 0 -271 71t-131 204l165 47q18 -87 80.5 -133.5t155.5 -46.5q80 0 135 34.5t53 109.5q-1 24 -8 44t-25 35.5t-34 26.5t-48 22.5t-52.5 18.5t-63 19t-65.5 19q-60 18 -100 36t-82 49t-63 78t-21 110q0 140 100 211.5t256 71.5q145 0 244.5 -64.5 t122.5 -194.5l-155 -38q-17 81 -74.5 120.5t-136.5 39.5q-74 0 -126.5 -32.5t-52.5 -99.5q0 -35 17 -61t51 -43t69 -28t86 -24q14 -3 21 -5q57 -14 95 -26.5t85.5 -37t76.5 -54t49 -77.5t20 -108q0 -62 -20 -112t-54.5 -83.5t-82.5 -56t-101.5 -32.5t-114.5 -10z" glyph-name="s" horiz-adv-x="953" unicode="s"/><glyph d="M497 0q-126 0 -198 72.5t-72 203.5v563h-202v151h73q78 0 111.5 36t33.5 122v171h177v-329h224v-151h-224v-543q0 -69 36.5 -107t96.5 -38h91v-151h-147z" glyph-name="t" horiz-adv-x="717" unicode="t"/><glyph d="M795 990h192v-990h-183l-5 128q-48 -70 -125.5 -108.5t-174.5 -38.5q-160 0 -253.5 89.5t-93.5 253.5v666h193v-624q0 -114 59 -169.5t151 -55.5q106 0 172.5 66t67.5 199v584z" glyph-name="u" horiz-adv-x="1159" unicode="u"/><glyph d="M794 990h205l-406 -990h-165l-404 990h204l283 -768z" glyph-name="v" horiz-adv-x="1023" unicode="v"/><glyph d="M1388 990h201l-342 -991h-175l-262 744l-263 -744h-176l-336 991h199l238 -740l263 740h148l263 -739z" glyph-name="w" horiz-adv-x="1622" unicode="w"/><glyph d="M32 0l386 496l-386 494h238l266 -367l266 367h235l-387 -495l387 -495h-236l-265 366l-267 -366h-237z" glyph-name="x" horiz-adv-x="1069" unicode="x"/><glyph d="M789 990h202l-581 -1456h-198l204 491l-389 965h212l273 -750z" glyph-name="y" horiz-adv-x="1018" unicode="y"/><glyph d="M846 990l-511 -836h509v-154h-794l507 836h-476v154h765z" glyph-name="z" horiz-adv-x="908" unicode="z"/><glyph d="M468 -504q-112 0 -180 68t-68 175v429q0 137 -28.5 193t-125.5 96v117q97 39 125.5 96t28.5 195v427q0 107 68 175.5t180 68.5h94v-133h-60q-52 0 -80 -37t-28 -106v-410q0 -50 -3.5 -86t-15.5 -75.5t-33.5 -68.5t-58 -56.5t-88.5 -47.5q52 -20 88.5 -47.5t58 -56.5 t33.5 -69t15.5 -76t3.5 -86v-412q0 -70 26 -104.5t82 -34.5h60v-134h-94z" glyph-name="braceleft" horiz-adv-x="634" unicode="{"/><glyph d="M257 -307v1843h126v-1843h-126z" glyph-name="bar" horiz-adv-x="640" unicode="|"/><glyph d="M163 -504h-94v134h60q56 0 82 34.5t26 104.5v412q0 50 3.5 86t15.5 76t33.5 69t58 56.5t88.5 47.5q-52 20 -88.5 47.5t-58 56.5t-33.5 68.5t-15.5 75.5t-3.5 86v410q0 69 -28 106t-80 37h-60v133h94q112 0 180 -68.5t68 -175.5v-427q0 -138 28.5 -195t125.5 -96v-117 q-97 -40 -125.5 -96t-28.5 -193v-429q0 -107 -68 -175t-180 -68z" glyph-name="braceright" horiz-adv-x="631" unicode="}"/><glyph d="M927 345q-41 0 -80.5 12t-63 24t-56 40.5t-41 38t-36.5 39.5q-38 42 -70 62t-69 20q-75 0 -119 -62.5t-46 -153.5h-146q-5 162 81.5 262t232.5 100q83 0 140.5 -36.5t115.5 -111.5q25 -31 41 -47t44 -30.5t60 -14.5q71 0 118 59.5t43 155.5h144q10 -153 -74 -255 t-219 -102z" glyph-name="asciitilde" horiz-adv-x="1423" unicode="~"/><glyph d="M327 1010q52 0 88.5 -36.5t36.5 -87.5q0 -52 -36.5 -88.5t-88.5 -36.5q-51 0 -87.5 36.5t-36.5 88.5q0 51 37 87.5t87 36.5zM246 580h163l14 -1004h-192z" glyph-name="exclamdown" horiz-adv-x="656" unicode="¡"/><glyph d="M665 386q81 0 150 41.5t116 114.5l134 -113q-63 -88 -152.5 -141.5t-195.5 -63.5v-224h-119v225q-194 25 -319.5 176t-125.5 369t125.5 369t319.5 176v221h119v-220q106 -10 195.5 -63.5t152.5 -141.5l-134 -113q-47 73 -116 114.5t-150 41.5q-139 0 -234 -108t-95 -276 t95 -276t234 -108z" glyph-name="cent" horiz-adv-x="1193" unicode="¢"/><glyph d="M163 0v125l60 8q94 11 94 108v373h-154v148h154v212q0 202 127.5 332t328.5 130q165 0 279 -97.5t114 -269.5q0 -35 -6 -73l-168 -36q10 53 10 85q0 104 -67 162.5t-165 58.5q-125 0 -199 -78t-74 -214v-212h324v-148h-324v-444h673v-170h-1007z" glyph-name="sterling" horiz-adv-x="1340" unicode="£"/><glyph d="M328 267l-104 110l104 103q-86 116 -86 263t87 263l-103 102l104 110l105 -107q121 89 266 89q147 0 262 -88l105 105l105 -105l-103 -104q87 -118 87 -265q0 -145 -87 -264l102 -102l-104 -110l-105 107q-115 -87 -264 -87q-147 0 -266 87zM699 434q129 0 219 91.5 t90 218.5t-90 217t-218 90q-129 0 -219.5 -91.5t-90.5 -220.5q0 -128 91 -216.5t218 -88.5z" glyph-name="currency" horiz-adv-x="1397" unicode="¤"/><glyph d="M619 0v243h-394v127h394v210h-394v127h371l-459 707h224l357 -565l356 565h224l-459 -707h369v-127h-391v-210h391v-127h-391v-243h-198z" glyph-name="yen" horiz-adv-x="1434" unicode="¥"/><glyph d="M257 799v737h126v-737h-126zM257 -307v737h126v-737h-126z" glyph-name="brokenbar" horiz-adv-x="640" unicode="¦"/><glyph d="M1167 417q0 -150 -89 -245q89 -87 89 -229q0 -99 -39 -175t-108 -121.5t-156.5 -68.5t-190.5 -23q-203 0 -344 96.5t-176 263.5l174 42q25 -118 121.5 -186t229.5 -68q65 0 120 13t100 39.5t70 73.5t24 110q0 28 -8 52.5t-17.5 43.5t-31 37t-36.5 30.5t-48.5 26.5 t-51 21.5t-59 20t-59 17.5t-63.5 17q-56 15 -91.5 25.5t-85 29t-80.5 37t-66 47t-55 60.5t-33 76.5t-13 96.5q0 150 98 242q-98 87 -98 232q0 122 63 209t163.5 127.5t224.5 40.5t225.5 -34t176.5 -109.5t99 -185.5l-166 -44q-26 112 -114.5 168.5t-213.5 56.5 q-55 0 -104.5 -12.5t-90.5 -38.5t-65.5 -71.5t-24.5 -104.5q0 -44 19 -78.5t45 -56.5t76.5 -43.5t87.5 -32t104 -28.5h1l1 -1h1q186 -49 266 -89q178 -90 197 -262q2 -22 2 -45zM367 579q0 -44 19 -78.5t45 -56.5t76.5 -43.5t87.5 -32t104 -28.5q162 -42 237 -75 q57 53 56 148q0 28 -8 52.5t-17.5 43.5t-31 37t-36.5 30.5t-48.5 26.5t-51 21.5t-59 20t-59 17.5t-63.5 17q-115 31 -176 54q-75 -54 -75 -154z" glyph-name="section" horiz-adv-x="1340" unicode="§"/><glyph d="M262 1209q-51 0 -88.5 37t-37.5 88t37.5 87.5t88.5 36.5t87.5 -36.5t36.5 -87.5q0 -52 -37 -88.5t-87 -36.5zM646 1209q-52 0 -89 36.5t-37 88.5t37 88t89 36q51 0 87.5 -36.5t36.5 -87.5q0 -52 -37 -88.5t-87 -36.5z" glyph-name="dieresis" horiz-adv-x="907" unicode="¨"/><glyph d="M879 -20q-148 0 -283.5 58t-233.5 156.5t-156 234t-58 283.5t58 283.5t156 233.5t233.5 156.5t283.5 58.5q149 0 284.5 -58.5t234 -156.5t156.5 -233.5t58 -283.5t-58 -283.5t-156.5 -234t-234 -156.5t-284.5 -58zM879 95q169 0 311 82t224 224t82 311q0 168 -82 310 t-224 224t-311 82t-310.5 -82t-223.5 -224t-82 -310q0 -169 82 -311t223.5 -224t310.5 -82zM880 292q-171 0 -293 121.5t-122 294.5q0 172 121.5 293t293.5 121q91 0 175 -38.5t141 -106.5l-95 -80q-40 49 -98 76.5t-123 27.5q-121 0 -205 -84.5t-84 -208.5t84 -208.5 t205 -84.5q65 0 123 27t98 76l95 -81q-57 -68 -141 -106.5t-175 -38.5z" glyph-name="copyright" horiz-adv-x="1760" unicode="©"/><glyph d="M660 1414h119v-615h-119v114q-40 -59 -101.5 -92.5t-136.5 -33.5q-129 0 -219 93t-90 227q0 133 90.5 226t218.5 93q75 0 136.5 -34t101.5 -93v115zM445 891q89 0 152 63t63 153q0 88 -63 150t-152 62t-151.5 -62t-62.5 -150q0 -90 62.5 -153t151.5 -63z" glyph-name="ordfeminine" horiz-adv-x="961" unicode="ª"/><glyph d="M379 237l-312 377l312 376h161l-311 -376l311 -377h-161zM774 237l-312 377l312 376h162l-311 -376l311 -377h-162z" glyph-name="guillemotleft" horiz-adv-x="1014" unicode="«"/><glyph d="M1242 306v524h-1112v160h1271v-684h-159z" glyph-name="logicalnot" horiz-adv-x="1658" unicode="¬"/><glyph d="M167 469v169h717v-169h-717z" glyph-name="uni00AD" horiz-adv-x="1051" unicode="­"/><glyph d="M890 1444q149 0 284.5 -58.5t234 -156.5t156.5 -233.5t58 -283.5t-58 -283.5t-156.5 -234t-234 -156.5t-284.5 -58q-148 0 -283.5 58t-233.5 156.5t-156 234t-58 283.5t58 283.5t156 233.5t233.5 156.5t283.5 58.5zM890 95q169 0 311 82t224 224t82 311q0 168 -82 310 t-224 224t-311 82t-310.5 -82t-223.5 -224t-82 -310q0 -169 82 -311t223.5 -224t310.5 -82zM1209 894q0 -74 -39.5 -133t-104.5 -87l173 -392h-135l-158 371h-182v-371h-123v859h323q103 0 174.5 -72t71.5 -175zM763 1026v-267h184q59 0 99.5 38.5t40.5 95.5q0 58 -40 95.5 t-100 37.5h-184z" glyph-name="registered" horiz-adv-x="1782" unicode="®"/><glyph d="M168 1250v121h649v-121h-649z" glyph-name="macron" horiz-adv-x="985" unicode="¯"/><glyph d="M481 853q-121 0 -205.5 85t-84.5 206t84.5 205.5t205.5 84.5t206 -84.5t85 -205.5t-85 -206t-206 -85zM481 966q74 0 126 51.5t52 126.5q0 74 -52 126.5t-126 52.5q-73 0 -125 -52.5t-52 -126.5q0 -75 51.5 -126.5t125.5 -51.5z" glyph-name="degree" horiz-adv-x="964" unicode="°"/><glyph d="M555 344v401h-401v155h401v402h156v-402h400v-155h-400v-401h-156zM145 2v156h953v-156h-953z" glyph-name="plusminus" horiz-adv-x="1257" unicode="±"/><glyph d="M56 1224l253 333l100 -73l-224 -260h-129z" glyph-name="acute" horiz-adv-x="483" unicode="´"/><glyph d="M984 990h170v-990h-170v152q-56 -80 -142 -126t-185 -46q-139 0 -247 86v-578h-153v1502h172v-586q0 -113 80 -192.5t193 -79.5q117 0 199.5 79.5t82.5 192.5v586z" glyph-name="uni00B5" horiz-adv-x="1357" unicode="µ"/><glyph d="M533 -307v1035h-60q-171 0 -268 89.5t-97 254.5t96.5 253.5t268.5 88.5h164v-1721h-104zM829 -307v1721h106v-1721h-106z" glyph-name="paragraph" horiz-adv-x="1192" unicode="¶"/><glyph d="M310 638q-41 0 -70 28.5t-29 70.5q0 40 29 69t70 29q39 0 68.5 -29t29.5 -69q0 -41 -29.5 -70t-68.5 -29z" glyph-name="periodcentered" horiz-adv-x="618" unicode="·"/><glyph d="M310 -532q-75 0 -141 38.5t-96 95.5l93 37q21 -32 61.5 -52.5t79.5 -20.5q48 0 81.5 32.5t33.5 82.5q0 51 -33.5 80.5t-86.5 29.5q-41 0 -79 -23l-80 51l112 220h101l-87 -174q42 7 53 7q87 0 143.5 -53.5t56.5 -137.5q0 -90 -61 -151.5t-151 -61.5z" glyph-name="cedilla" horiz-adv-x="611" unicode="¸"/><glyph d="M441 795q-138 0 -235 93.5t-97 226.5t97 226t235 93q141 0 238 -93t97 -226q0 -134 -97 -227t-238 -93zM441 900q89 0 152.5 62.5t63.5 152.5q0 88 -63.5 150t-152.5 62t-151.5 -62t-62.5 -150q0 -90 62.5 -152.5t151.5 -62.5z" glyph-name="ordmasculine" horiz-adv-x="886" unicode="º"/><glyph d="M78 237l312 377l-312 376h162l311 -376l-311 -377h-162zM473 237l312 377l-312 376h163l311 -376l-311 -377h-163z" glyph-name="guillemotright" horiz-adv-x="1014" unicode="»"/><glyph d="M344 492h-125v797l-214 -165l-1 124l223 166h117v-922zM1018 1414h137l-797 -1414h-137zM1495 293v-98h-101v-195h-121v195h-435v100l395 627h161v-629h101zM952 293h321v524z" glyph-name="onequarter" horiz-adv-x="1551" unicode="¼"/><glyph d="M344 492h-125v797l-214 -165l-1 124l223 166h117v-922zM1018 1414h137l-797 -1414h-137zM1063 102h496v-102h-627v118q204 164 309.5 265.5t137.5 157t32 112.5q0 89 -46.5 132.5t-116.5 41.5q-77 -2 -119.5 -50.5t-44.5 -124.5h-129q1 125 85.5 204.5t214.5 79.5 q120 0 197.5 -73t80.5 -193q3 -124 -99.5 -248.5t-370.5 -319.5z" glyph-name="onehalf" horiz-adv-x="1613" unicode="½"/><glyph d="M635 775q0 -120 -86.5 -203.5t-212.5 -83.5q-124 0 -209.5 77.5t-85.5 192.5h128q0 -71 48.5 -116t119.5 -45q74 0 122 49t48 127q0 76 -50 123t-131 47h-58v101h51q67 0 107.5 40t40.5 106q0 62 -38.5 100.5t-96.5 38.5q-59 0 -97 -38t-38 -104l-125 1q0 108 74 177 t186 69q108 0 180 -68t72 -172q0 -122 -102 -184q71 -34 112 -95t41 -140zM1236 1414h137l-797 -1414h-137zM1713 293v-98h-101v-195h-121v195h-435v100l395 627h161v-629h101zM1170 293h321v524z" glyph-name="threequarters" horiz-adv-x="1769" unicode="¾"/><glyph d="M508 1010q51 0 87.5 -36.5t36.5 -87.5t-37 -87.5t-87 -36.5t-86 36.5t-36 87.5t36 87.5t86 36.5zM595 588v-123q0 -50 -12.5 -87t-41 -66t-60.5 -49.5t-84 -46.5q-130 -63 -130 -237q0 -120 69.5 -191.5t179.5 -71.5q109 0 179 75.5t70 191.5q0 33 -9 83l169 -18 q7 -41 7 -84q0 -180 -115.5 -294t-298.5 -114q-185 0 -303 115.5t-118 304.5q0 147 64 236.5t162 129.5q56 23 82.5 54t26.5 85v107h163z" glyph-name="questiondown" horiz-adv-x="1043" unicode="¿"/><glyph d="M761 1558h-129l-224 260l100 73zM1130 0l-118 330h-632l-118 -330h-207l521 1414h240l521 -1414h-207zM442 504h508l-254 713z" glyph-name="Agrave" horiz-adv-x="1392" unicode="À"/><glyph d="M979 1818l-224 -260h-129l253 333zM1130 0l-118 330h-632l-118 -330h-207l521 1414h240l521 -1414h-207zM442 504h508l-254 713z" glyph-name="Aacute" horiz-adv-x="1392" unicode="Á"/><glyph d="M695 1763l-154 -205h-127l214 296h135l214 -296h-129zM1130 0l-118 330h-632l-118 -330h-207l521 1414h240l521 -1414h-207zM442 504h508l-254 713z" glyph-name="Acircumflex" horiz-adv-x="1392" unicode="Â"/><glyph d="M567 1721q-50 0 -77.5 -42t-27.5 -109h-104q0 109 56 178t151 69q98 0 166 -90q2 -2 12 -14.5t13 -16t12.5 -13t15.5 -13t15 -9t19 -7.5t21 -2q49 0 75 39.5t26 108.5h107q0 -107 -55.5 -176t-152.5 -69q-62 0 -100 25t-70 68q-18 25 -28.5 37t-30.5 24t-43 12zM1130 0 l-118 330h-632l-118 -330h-207l521 1414h240l521 -1414h-207zM442 504h508l-254 713z" glyph-name="Atilde" horiz-adv-x="1392" unicode="Ã"/><glyph d="M505 1536q-51 0 -88.5 37t-37.5 88t37.5 87.5t88.5 36.5t87.5 -36.5t36.5 -87.5t-36.5 -88t-87.5 -37zM889 1536q-52 0 -89 36.5t-37 88.5t37 88t89 36q51 0 87.5 -36.5t36.5 -87.5t-36.5 -88t-87.5 -37zM1130 0l-118 330h-632l-118 -330h-207l521 1414h240l521 -1414 h-207zM442 504h508l-254 713z" glyph-name="Adieresis" horiz-adv-x="1392" unicode="Ä"/><glyph d="M696 1558q-90 0 -153.5 63.5t-63.5 151.5q0 89 63.5 151.5t153.5 62.5q87 0 149.5 -63t62.5 -151t-62.5 -151.5t-149.5 -63.5zM696 1900q-52 0 -88 -37.5t-36 -89.5q0 -54 35.5 -89t88.5 -35q52 0 87.5 35.5t35.5 88.5q0 52 -36 89.5t-87 37.5zM1130 0l-118 330h-632 l-118 -330h-207l521 1414h240l521 -1414h-207zM442 504h508l-254 713z" glyph-name="Aring" horiz-adv-x="1392" unicode="Å"/><glyph d="M55 0l515 1414h1096v-179h-600v-439h524v-179h-524v-437h600v-180h-799v330h-488l-116 -330h-208zM439 504h428v731h-170z" glyph-name="AE" horiz-adv-x="1787" unicode="Æ"/><glyph d="M824 169q150 0 268.5 70.5t179.5 199.5l184 -74q-78 -172 -233.5 -272.5t-355.5 -110.5l-59 -117q42 7 53 7q87 0 143.5 -53.5t56.5 -137.5q0 -90 -61 -151.5t-151 -61.5q-75 0 -141 38.5t-96 95.5l93 37q21 -32 61.5 -52.5t79.5 -20.5q48 0 81.5 32.5t33.5 82.5 q0 51 -33.5 80.5t-86.5 29.5q-41 0 -79 -23l-80 51l83 164q-139 10 -257.5 64.5t-205.5 146t-136 224t-49 290.5q0 165 54 302.5t149 229.5t224.5 142.5t279.5 50.5q215 0 383 -101.5t249 -283.5l-184 -73q-61 129 -179.5 199.5t-268.5 70.5q-107 0 -199.5 -36.5 t-161.5 -103.5t-108.5 -169.5t-39.5 -227.5q0 -126 39.5 -228.5t108.5 -170t161.5 -104t199.5 -36.5z" glyph-name="Ccedilla" horiz-adv-x="1538" unicode="Ç"/><glyph d="M668 1558h-129l-224 260l100 73zM984 1235h-566v-440h499v-178h-499v-437h566v-180h-769v1414h769v-179z" glyph-name="Egrave" horiz-adv-x="1106" unicode="È"/><glyph d="M886 1818l-224 -260h-129l253 333zM984 1235h-566v-440h499v-178h-499v-437h566v-180h-769v1414h769v-179z" glyph-name="Eacute" horiz-adv-x="1106" unicode="É"/><glyph d="M602 1763l-154 -205h-127l214 296h135l214 -296h-129zM984 1235h-566v-440h499v-178h-499v-437h566v-180h-769v1414h769v-179z" glyph-name="Ecircumflex" horiz-adv-x="1106" unicode="Ê"/><glyph d="M412 1536q-51 0 -88.5 37t-37.5 88t37.5 87.5t88.5 36.5t87.5 -36.5t36.5 -87.5t-37 -88t-87 -37zM796 1536q-52 0 -89 36.5t-37 88.5t37 88t89 36q51 0 87.5 -36.5t36.5 -87.5t-37 -88t-87 -37zM984 1235h-566v-440h499v-178h-499v-437h566v-180h-769v1414h769v-179z" glyph-name="Edieresis" horiz-adv-x="1106" unicode="Ë"/><glyph d="M250 1558l-224 260l100 73l253 -333h-129zM215 0v1414h199v-1414h-199z" glyph-name="Igrave" horiz-adv-x="630" unicode="Ì"/><glyph d="M244 1558l253 333l100 -73l-224 -260h-129zM215 0v1414h199v-1414h-199z" glyph-name="Iacute" horiz-adv-x="630" unicode="Í"/><glyph d="M159 1558h-127l214 296h135l214 -296h-129l-153 205zM215 0v1414h199v-1414h-199z" glyph-name="Icircumflex" horiz-adv-x="630" unicode="Î"/><glyph d="M123 1536q-51 0 -88.5 37t-37.5 88t37.5 87.5t88.5 36.5t87.5 -36.5t36.5 -87.5t-36.5 -88t-87.5 -37zM507 1536q-52 0 -89 36.5t-37 88.5t37 88t89 36q51 0 87.5 -36.5t36.5 -87.5t-36.5 -88t-87.5 -37zM215 0v1414h199v-1414h-199z" glyph-name="Idieresis" horiz-adv-x="630" unicode="Ï"/><glyph d="M681 1414q160 0 285.5 -52t206 -146t122.5 -223t42 -285q0 -211 -72 -368.5t-221.5 -248.5t-362.5 -91h-466v646h-161v125h161v643h466zM673 180q226 0 341 139.5t115 388.5q0 248 -115 387.5t-341 139.5h-259v-464h260v-125h-260v-466h259z" glyph-name="Eth" horiz-adv-x="1459" unicode="Ð"/><glyph d="M662 1721q-50 0 -77.5 -42t-27.5 -109h-104q0 109 56 178t151 69q98 0 166 -90q2 -2 12 -14.5t13 -16t12.5 -13t15.5 -13t15 -9t19 -7.5t21 -2q49 0 75 39.5t26 108.5h107q0 -107 -55.5 -176t-152.5 -69q-62 0 -100 25t-70 68q-18 25 -28.5 37t-30.5 24t-43 12z M1168 1414h198v-1414h-215l-739 1122v-1122h-197v1414h213l740 -1117v1117z" glyph-name="Ntilde" horiz-adv-x="1581" unicode="Ñ"/><glyph d="M760 1558l-224 260l100 73l253 -333h-129zM824 -19q-201 0 -360.5 86.5t-253 253.5t-93.5 387q0 165 54 302.5t149 229.5t224.5 142.5t279.5 50.5q149 0 278.5 -50.5t224 -142.5t149 -229.5t54.5 -302.5q0 -166 -54.5 -303.5t-149 -229.5t-224 -143t-278.5 -51zM824 168 q106 0 198.5 36.5t161 104t108 170.5t39.5 229q0 125 -39.5 227.5t-108 169.5t-161 103.5t-198.5 36.5q-107 0 -199.5 -36.5t-161.5 -103.5t-108.5 -169.5t-39.5 -227.5q0 -126 39.5 -229t108.5 -170.5t161.5 -104t199.5 -36.5z" glyph-name="Ograve" horiz-adv-x="1647" unicode="Ò"/><glyph d="M754 1558l253 333l100 -73l-224 -260h-129zM824 -19q-201 0 -360.5 86.5t-253 253.5t-93.5 387q0 165 54 302.5t149 229.5t224.5 142.5t279.5 50.5q149 0 278.5 -50.5t224 -142.5t149 -229.5t54.5 -302.5q0 -166 -54.5 -303.5t-149 -229.5t-224 -143t-278.5 -51zM824 168 q106 0 198.5 36.5t161 104t108 170.5t39.5 229q0 125 -39.5 227.5t-108 169.5t-161 103.5t-198.5 36.5q-107 0 -199.5 -36.5t-161.5 -103.5t-108.5 -169.5t-39.5 -227.5q0 -126 39.5 -229t108.5 -170.5t161.5 -104t199.5 -36.5z" glyph-name="Oacute" horiz-adv-x="1647" unicode="Ó"/><glyph d="M669 1558h-127l214 296h135l214 -296h-129l-153 205zM824 -19q-201 0 -360.5 86.5t-253 253.5t-93.5 387q0 165 54 302.5t149 229.5t224.5 142.5t279.5 50.5q149 0 278.5 -50.5t224 -142.5t149 -229.5t54.5 -302.5q0 -166 -54.5 -303.5t-149 -229.5t-224 -143t-278.5 -51 zM824 168q106 0 198.5 36.5t161 104t108 170.5t39.5 229q0 125 -39.5 227.5t-108 169.5t-161 103.5t-198.5 36.5q-107 0 -199.5 -36.5t-161.5 -103.5t-108.5 -169.5t-39.5 -227.5q0 -126 39.5 -229t108.5 -170.5t161.5 -104t199.5 -36.5z" glyph-name="Ocircumflex" horiz-adv-x="1647" unicode="Ô"/><glyph d="M967 1555q-62 0 -100 25t-70 68q-18 25 -28.5 37t-30.5 24t-43 12q-50 0 -77.5 -42t-27.5 -109h-104q0 109 56 178t151 69q98 0 166 -90q2 -2 12 -14.5t13 -16t12.5 -13t15.5 -13t15 -9t19 -7.5t21 -2q49 0 75 39.5t26 108.5h107q0 -107 -55.5 -176t-152.5 -69zM824 -19 q-201 0 -360.5 86.5t-253 253.5t-93.5 387q0 165 54 302.5t149 229.5t224.5 142.5t279.5 50.5q149 0 278.5 -50.5t224 -142.5t149 -229.5t54.5 -302.5q0 -166 -54.5 -303.5t-149 -229.5t-224 -143t-278.5 -51zM824 168q106 0 198.5 36.5t161 104t108 170.5t39.5 229 q0 125 -39.5 227.5t-108 169.5t-161 103.5t-198.5 36.5q-107 0 -199.5 -36.5t-161.5 -103.5t-108.5 -169.5t-39.5 -227.5q0 -126 39.5 -229t108.5 -170.5t161.5 -104t199.5 -36.5z" glyph-name="Otilde" horiz-adv-x="1647" unicode="Õ"/><glyph d="M633 1536q-51 0 -88.5 37t-37.5 88t37.5 87.5t88.5 36.5t87.5 -36.5t36.5 -87.5t-36.5 -88t-87.5 -37zM1017 1536q-52 0 -89 36.5t-37 88.5t37 88t89 36q51 0 87.5 -36.5t36.5 -87.5t-36.5 -88t-87.5 -37zM824 -19q-201 0 -360.5 86.5t-253 253.5t-93.5 387 q0 165 54 302.5t149 229.5t224.5 142.5t279.5 50.5q149 0 278.5 -50.5t224 -142.5t149 -229.5t54.5 -302.5q0 -166 -54.5 -303.5t-149 -229.5t-224 -143t-278.5 -51zM824 168q106 0 198.5 36.5t161 104t108 170.5t39.5 229q0 125 -39.5 227.5t-108 169.5t-161 103.5 t-198.5 36.5q-107 0 -199.5 -36.5t-161.5 -103.5t-108.5 -169.5t-39.5 -227.5q0 -126 39.5 -229t108.5 -170.5t161.5 -104t199.5 -36.5z" glyph-name="Odieresis" horiz-adv-x="1647" unicode="Ö"/><glyph d="M257 278l-109 111l278 279l-278 279l109 109l280 -277l277 276l111 -108l-279 -279l279 -279l-111 -109l-277 278z" glyph-name="multiply" horiz-adv-x="1073" unicode="×"/><glyph d="M1287 1276q115 -96 179 -241t64 -327q0 -166 -54.5 -303.5t-149 -229.5t-224 -143t-278.5 -51q-209 0 -373 95l-131 -188l-96 56l136 195q-115 97 -179 242t-64 327q0 165 54 302.5t149 229.5t224.5 142.5t279.5 50.5q207 0 372 -94l132 190l94 -59zM315 708 q0 -259 157 -408l613 880q-115 65 -261 65q-107 0 -199.5 -36.5t-161.5 -103.5t-108.5 -169.5t-39.5 -227.5zM824 168q106 0 198.5 36.5t161 104t108 170.5t39.5 229q0 257 -157 406l-613 -880q118 -66 263 -66z" glyph-name="Oslash" horiz-adv-x="1647" unicode="Ø"/><glyph d="M642 1558l-224 260l100 73l253 -333h-129zM706 -19q-148 0 -264.5 55.5t-186 168.5t-69.5 268v941h199v-913q0 -168 89 -254t232 -86t233.5 86.5t90.5 253.5v913h199v-941q0 -155 -70 -268t-187 -168.5t-266 -55.5z" glyph-name="Ugrave" horiz-adv-x="1415" unicode="Ù"/><glyph d="M636 1558l253 333l100 -73l-224 -260h-129zM706 -19q-148 0 -264.5 55.5t-186 168.5t-69.5 268v941h199v-913q0 -168 89 -254t232 -86t233.5 86.5t90.5 253.5v913h199v-941q0 -155 -70 -268t-187 -168.5t-266 -55.5z" glyph-name="Uacute" horiz-adv-x="1415" unicode="Ú"/><glyph d="M551 1558h-127l214 296h135l214 -296h-129l-153 205zM706 -19q-148 0 -264.5 55.5t-186 168.5t-69.5 268v941h199v-913q0 -168 89 -254t232 -86t233.5 86.5t90.5 253.5v913h199v-941q0 -155 -70 -268t-187 -168.5t-266 -55.5z" glyph-name="Ucircumflex" horiz-adv-x="1415" unicode="Û"/><glyph d="M515 1536q-51 0 -88.5 37t-37.5 88t37.5 87.5t88.5 36.5t87.5 -36.5t36.5 -87.5t-36.5 -88t-87.5 -37zM899 1536q-52 0 -89 36.5t-37 88.5t37 88t89 36q51 0 87.5 -36.5t36.5 -87.5t-36.5 -88t-87.5 -37zM706 -19q-148 0 -264.5 55.5t-186 168.5t-69.5 268v941h199v-913 q0 -168 89 -254t232 -86t233.5 86.5t90.5 253.5v913h199v-941q0 -155 -70 -268t-187 -168.5t-266 -55.5z" glyph-name="Udieresis" horiz-adv-x="1415" unicode="Ü"/><glyph d="M890 1818l-224 -260h-129l253 333zM1172 1414l-465 -740v-674h-201v673l-466 741h226l340 -561l341 561h225z" glyph-name="Yacute" horiz-adv-x="1212" unicode="Ý"/><glyph d="M738 1321q162 0 276 -127.5t114 -309.5q0 -178 -114 -302.5t-276 -124.5h-331v-457h-192v1529h192v-208h331zM728 632q93 0 157 75t64 182q0 109 -64 183t-157 74h-321v-514h321z" glyph-name="Thorn" horiz-adv-x="1215" unicode="Þ"/><glyph d="M172 0v1019q0 145 35.5 251t99.5 167.5t144.5 90t179.5 28.5q194 0 316.5 -105.5t122.5 -265.5q0 -59 -16.5 -106t-40.5 -77t-48 -56t-40.5 -57.5t-16.5 -67.5q0 -38 25 -71.5t61 -64t71.5 -68.5t60.5 -102t25 -148q0 -72 -24.5 -137.5t-70.5 -117t-117.5 -82 t-159.5 -30.5h-193v150h143q103 0 167 64.5t64 158.5q0 50 -13 90t-33.5 66.5t-45.5 49.5t-50 45t-45.5 46t-33.5 58.5t-13 77.5q0 55 17 97.5t41 70.5t47.5 55t40.5 64.5t17 85.5q0 97 -69.5 159.5t-184.5 62.5q-275 0 -275 -352v-1049h-188z" glyph-name="germandbls" horiz-adv-x="1223" unicode="ß"/><glyph d="M482 1155l-224 260l100 73l253 -333h-129zM402 -19q-85 0 -151.5 27t-109 89.5t-42.5 154.5q0 75 27.5 130t82 90t117 56t149.5 36l156 27q90 17 90 91q0 95 -60 139.5t-150 44.5q-92 0 -152 -44t-71 -137l-173 35q24 144 127.5 216t277.5 72q63 0 117 -10t104.5 -35 t86 -63.5t57 -99t21.5 -137.5v-401q0 -74 22.5 -100.5t76.5 -26.5h15v-135h-93q-163 0 -192 133h-9q-56 -78 -141.5 -115t-182.5 -37zM446 134q128 0 208.5 91.5t80.5 246.5l-259 -53q-96 -16 -143 -51.5t-47 -100.5q0 -67 44.5 -100t115.5 -33z" glyph-name="agrave" horiz-adv-x="1086" unicode="à"/><glyph d="M476 1155l253 333l100 -73l-224 -260h-129zM402 -19q-85 0 -151.5 27t-109 89.5t-42.5 154.5q0 75 27.5 130t82 90t117 56t149.5 36l156 27q90 17 90 91q0 95 -60 139.5t-150 44.5q-92 0 -152 -44t-71 -137l-173 35q24 144 127.5 216t277.5 72q63 0 117 -10t104.5 -35 t86 -63.5t57 -99t21.5 -137.5v-401q0 -74 22.5 -100.5t76.5 -26.5h15v-135h-93q-163 0 -192 133h-9q-56 -78 -141.5 -115t-182.5 -37zM446 134q128 0 208.5 91.5t80.5 246.5l-259 -53q-96 -16 -143 -51.5t-47 -100.5q0 -67 44.5 -100t115.5 -33z" glyph-name="aacute" horiz-adv-x="1086" unicode="á"/><glyph d="M391 1171h-127l214 296h135l214 -296h-129l-153 205zM402 -19q-85 0 -151.5 27t-109 89.5t-42.5 154.5q0 75 27.5 130t82 90t117 56t149.5 36l156 27q90 17 90 91q0 95 -60 139.5t-150 44.5q-92 0 -152 -44t-71 -137l-173 35q24 144 127.5 216t277.5 72q63 0 117 -10 t104.5 -35t86 -63.5t57 -99t21.5 -137.5v-401q0 -74 22.5 -100.5t76.5 -26.5h15v-135h-93q-163 0 -192 133h-9q-56 -78 -141.5 -115t-182.5 -37zM446 134q128 0 208.5 91.5t80.5 246.5l-259 -53q-96 -16 -143 -51.5t-47 -100.5q0 -67 44.5 -100t115.5 -33z" glyph-name="acircumflex" horiz-adv-x="1086" unicode="â"/><glyph d="M675 1147q-104 0 -165 97q-33 50 -76 50q-40 0 -62.5 -37t-22.5 -96h-104q0 103 50.5 168.5t134.5 65.5q104 0 165 -98q29 -48 78 -48q40 0 61.5 35.5t21.5 95.5h104q0 -102 -49.5 -167.5t-135.5 -65.5zM402 -19q-85 0 -151.5 27t-109 89.5t-42.5 154.5q0 75 27.5 130 t82 90t117 56t149.5 36l156 27q90 17 90 91q0 95 -60 139.5t-150 44.5q-92 0 -152 -44t-71 -137l-173 35q24 144 127.5 216t277.5 72q63 0 117 -10t104.5 -35t86 -63.5t57 -99t21.5 -137.5v-401q0 -74 22.5 -100.5t76.5 -26.5h15v-135h-93q-163 0 -192 133h-9 q-56 -78 -141.5 -115t-182.5 -37zM446 134q128 0 208.5 91.5t80.5 246.5l-259 -53q-96 -16 -143 -51.5t-47 -100.5q0 -67 44.5 -100t115.5 -33z" glyph-name="atilde" horiz-adv-x="1086" unicode="ã"/><glyph d="M355 1209q-51 0 -88.5 37t-37.5 88t37.5 87.5t88.5 36.5t87.5 -36.5t36.5 -87.5q0 -52 -36.5 -88.5t-87.5 -36.5zM739 1209q-52 0 -89 36.5t-37 88.5t37 88t89 36q51 0 87.5 -36.5t36.5 -87.5q0 -52 -36.5 -88.5t-87.5 -36.5zM402 -19q-85 0 -151.5 27t-109 89.5 t-42.5 154.5q0 75 27.5 130t82 90t117 56t149.5 36l156 27q90 17 90 91q0 95 -60 139.5t-150 44.5q-92 0 -152 -44t-71 -137l-173 35q24 144 127.5 216t277.5 72q63 0 117 -10t104.5 -35t86 -63.5t57 -99t21.5 -137.5v-401q0 -74 22.5 -100.5t76.5 -26.5h15v-135h-93 q-163 0 -192 133h-9q-56 -78 -141.5 -115t-182.5 -37zM446 134q128 0 208.5 91.5t80.5 246.5l-259 -53q-96 -16 -143 -51.5t-47 -100.5q0 -67 44.5 -100t115.5 -33z" glyph-name="adieresis" horiz-adv-x="1086" unicode="ä"/><glyph d="M546 1120q-90 0 -153.5 63.5t-63.5 151.5q0 89 63.5 151.5t153.5 62.5q87 0 149.5 -63t62.5 -151t-62.5 -151.5t-149.5 -63.5zM546 1211q52 0 87.5 35.5t35.5 88.5q0 52 -36 89.5t-87 37.5q-52 0 -88 -37.5t-36 -89.5q0 -54 35.5 -89t88.5 -35zM402 -19q-85 0 -151.5 27 t-109 89.5t-42.5 154.5q0 75 27.5 130t82 90t117 56t149.5 36l156 27q90 17 90 91q0 95 -60 139.5t-150 44.5q-92 0 -152 -44t-71 -137l-173 35q24 144 127.5 216t277.5 72q63 0 117 -10t104.5 -35t86 -63.5t57 -99t21.5 -137.5v-401q0 -74 22.5 -100.5t76.5 -26.5h15v-135 h-93q-163 0 -192 133h-9q-56 -78 -141.5 -115t-182.5 -37zM446 134q128 0 208.5 91.5t80.5 246.5l-259 -53q-96 -16 -143 -51.5t-47 -100.5q0 -67 44.5 -100t115.5 -33z" glyph-name="aring" horiz-adv-x="1086" unicode="å"/><glyph d="M1661 514l-3 -54h-767q6 -156 93 -239t217 -83q87 0 157.5 45t108.5 126l173 -34q-54 -139 -170.5 -216.5t-271.5 -77.5q-127 0 -230.5 48.5t-168.5 139.5h-11q-83 -105 -175.5 -146.5t-204.5 -41.5q-138 0 -223.5 67.5t-85.5 203.5q0 61 19.5 109t51.5 80t82 57 t102 39.5t121 26.5l156 27q90 17 90 91q0 95 -60 139.5t-150 44.5q-92 0 -152 -44t-71 -137l-173 35q24 144 127.5 216t277.5 72q232 0 323 -134q136 136 354 136q209 0 336 -127t128 -369zM1193 868q-113 0 -192 -65.5t-102 -190.5v-13h569q-8 131 -81 200t-194 69z M459 134q83 0 152.5 49t116.5 132q-22 70 -25 159l-213 -40q-103 -17 -152.5 -53.5t-49.5 -105.5q0 -70 47.5 -105.5t123.5 -35.5z" glyph-name="ae" horiz-adv-x="1751" unicode="æ"/><glyph d="M587 140q100 0 174.5 52.5t107.5 150.5l179 -27q-42 -148 -156 -236t-270 -97l-59 -118q42 7 53 7q87 0 143.5 -53.5t56.5 -137.5q0 -90 -61 -151.5t-151 -61.5q-75 0 -141 38.5t-96 95.5l93 37q21 -32 61.5 -52.5t79.5 -20.5q48 0 81.5 32.5t33.5 82.5q0 51 -33.5 80.5 t-86.5 29.5q-41 0 -79 -23l-80 51l85 167q-192 22 -313 161t-121 349q0 229 141.5 371.5t359.5 142.5q170 0 292.5 -88t166.5 -246l-179 -27q-33 98 -107.5 150.5t-174.5 52.5q-134 0 -220.5 -98t-86.5 -258q0 -159 86.5 -257.5t220.5 -98.5z" glyph-name="ccedilla" horiz-adv-x="1123" unicode="ç"/><glyph d="M656 1159h-129l-224 260l100 73zM1050 514l-3 -51h-767q5 -157 92 -241t217 -84q88 0 158 45t108 126l174 -34q-52 -137 -169.5 -215.5t-268.5 -78.5q-224 0 -361.5 137.5t-137.5 376.5q0 238 138 376.5t355 138.5q210 0 337 -127t128 -369zM586 864q-118 0 -197 -64.5 t-101 -190.5h569q-12 125 -85 190t-186 65z" glyph-name="egrave" horiz-adv-x="1140" unicode="è"/><glyph d="M874 1419l-224 -260h-129l253 333zM1050 514l-3 -51h-767q5 -157 92 -241t217 -84q88 0 158 45t108 126l174 -34q-52 -137 -169.5 -215.5t-268.5 -78.5q-224 0 -361.5 137.5t-137.5 376.5q0 238 138 376.5t355 138.5q210 0 337 -127t128 -369zM586 864q-118 0 -197 -64.5 t-101 -190.5h569q-12 125 -85 190t-186 65z" glyph-name="eacute" horiz-adv-x="1140" unicode="é"/><glyph d="M590 1380l-154 -205h-127l214 296h135l214 -296h-129zM1050 514l-3 -51h-767q5 -157 92 -241t217 -84q88 0 158 45t108 126l174 -34q-52 -137 -169.5 -215.5t-268.5 -78.5q-224 0 -361.5 137.5t-137.5 376.5q0 238 138 376.5t355 138.5q210 0 337 -127t128 -369zM586 864 q-118 0 -197 -64.5t-101 -190.5h569q-12 125 -85 190t-186 65z" glyph-name="ecircumflex" horiz-adv-x="1140" unicode="ê"/><glyph d="M400 1213q-51 0 -88.5 37t-37.5 88t37.5 87.5t88.5 36.5t87.5 -36.5t36.5 -87.5q0 -52 -37 -88.5t-87 -36.5zM784 1213q-52 0 -89 36.5t-37 88.5t37 88t89 36q51 0 87.5 -36.5t36.5 -87.5q0 -52 -37 -88.5t-87 -36.5zM1050 514l-3 -51h-767q5 -157 92 -241t217 -84 q88 0 158 45t108 126l174 -34q-52 -137 -169.5 -215.5t-268.5 -78.5q-224 0 -361.5 137.5t-137.5 376.5q0 238 138 376.5t355 138.5q210 0 337 -127t128 -369zM586 864q-118 0 -197 -64.5t-101 -190.5h569q-12 125 -85 190t-186 65z" glyph-name="edieresis" horiz-adv-x="1140" unicode="ë"/><glyph d="M205 1155l-224 260l100 73l253 -333h-129zM172 0v990h193v-990h-193z" glyph-name="igrave" horiz-adv-x="537" unicode="ì"/><glyph d="M199 1155l253 333l100 -73l-224 -260h-129zM172 0v990h193v-990h-193z" glyph-name="iacute" horiz-adv-x="537" unicode="í"/><glyph d="M114 1171h-127l214 296h135l214 -296h-129l-153 205zM172 0v990h193v-990h-193z" glyph-name="icircumflex" horiz-adv-x="537" unicode="î"/><glyph d="M78 1209q-51 0 -88.5 37t-37.5 88t37.5 87.5t88.5 36.5t87.5 -36.5t36.5 -87.5q0 -52 -37 -88.5t-87 -36.5zM462 1209q-52 0 -89 36.5t-37 88.5t37 88t89 36q51 0 87.5 -36.5t36.5 -87.5q0 -52 -37 -88.5t-87 -36.5zM172 0v990h193v-990h-193z" glyph-name="idieresis" horiz-adv-x="537" unicode="ï"/><glyph d="M959 846q123 -172 122 -358q-1 -148 -67.5 -264t-179.5 -179t-252 -63q-100 0 -191 37.5t-158.5 104t-106.5 164.5t-38 211q1 114 37 208t97 157t139.5 99.5t167.5 42.5q67 2 129 -18l-187 248l-269 -69l-18 71l240 62l-177 236h211l139 -192l258 67l19 -71l-231 -59z M900 496q2 146 -86.5 246.5t-224.5 100.5t-223 -92t-90 -250q-2 -156 86.5 -249t225.5 -93q138 0 224 90t88 247z" glyph-name="eth" horiz-adv-x="1168" unicode="ð"/><glyph d="M466 1294q-40 0 -62.5 -37t-22.5 -96h-104q0 103 50.5 168.5t134.5 65.5q104 0 165 -98q29 -48 78 -48q40 0 61.5 35.5t21.5 95.5h104q0 -102 -49.5 -167.5t-135.5 -65.5q-104 0 -165 97q-33 50 -76 50zM660 1010q160 0 253.5 -89.5t93.5 -253.5v-667h-193v624 q0 115 -58.5 170.5t-150.5 55.5q-106 0 -173 -66.5t-68 -198.5v-585h-192v990h192v-122q48 68 124.5 105t171.5 37z" glyph-name="ntilde" horiz-adv-x="1160" unicode="ñ"/><glyph d="M533 1155l-224 260l100 73l253 -333h-129zM597 -19q-221 0 -364 140.5t-143 374.5t142.5 374t364.5 140t364 -140t142 -374t-142 -374.5t-364 -140.5zM595 139q138 0 228 98.5t90 258.5t-90 258t-228 98q-136 0 -225 -98t-89 -258t89 -258.5t225 -98.5z" glyph-name="ograve" horiz-adv-x="1193" unicode="ò"/><glyph d="M527 1155l253 333l100 -73l-224 -260h-129zM597 -19q-221 0 -364 140.5t-143 374.5t142.5 374t364.5 140t364 -140t142 -374t-142 -374.5t-364 -140.5zM595 139q138 0 228 98.5t90 258.5t-90 258t-228 98q-136 0 -225 -98t-89 -258t89 -258.5t225 -98.5z" glyph-name="oacute" horiz-adv-x="1193" unicode="ó"/><glyph d="M442 1171h-127l214 296h135l214 -296h-129l-153 205zM597 -19q-221 0 -364 140.5t-143 374.5t142.5 374t364.5 140t364 -140t142 -374t-142 -374.5t-364 -140.5zM595 139q138 0 228 98.5t90 258.5t-90 258t-228 98q-136 0 -225 -98t-89 -258t89 -258.5t225 -98.5z" glyph-name="ocircumflex" horiz-adv-x="1193" unicode="ô"/><glyph d="M726 1147q-104 0 -165 97q-33 50 -76 50q-40 0 -62.5 -37t-22.5 -96h-104q0 103 50.5 168.5t134.5 65.5q104 0 165 -98q29 -48 78 -48q40 0 61.5 35.5t21.5 95.5h104q0 -102 -49.5 -167.5t-135.5 -65.5zM597 -19q-221 0 -364 140.5t-143 374.5t142.5 374t364.5 140 t364 -140t142 -374t-142 -374.5t-364 -140.5zM595 139q138 0 228 98.5t90 258.5t-90 258t-228 98q-136 0 -225 -98t-89 -258t89 -258.5t225 -98.5z" glyph-name="otilde" horiz-adv-x="1193" unicode="õ"/><glyph d="M406 1209q-51 0 -88.5 37t-37.5 88t37.5 87.5t88.5 36.5t87.5 -36.5t36.5 -87.5q0 -52 -37 -88.5t-87 -36.5zM790 1209q-52 0 -89 36.5t-37 88.5t37 88t89 36q51 0 87.5 -36.5t36.5 -87.5q0 -52 -37 -88.5t-87 -36.5zM597 -19q-221 0 -364 140.5t-143 374.5t142.5 374 t364.5 140t364 -140t142 -374t-142 -374.5t-364 -140.5zM595 139q138 0 228 98.5t90 258.5t-90 258t-228 98q-136 0 -225 -98t-89 -258t89 -258.5t225 -98.5z" glyph-name="odieresis" horiz-adv-x="1193" unicode="ö"/><glyph d="M511 933q-47 0 -81.5 34t-34.5 83q0 47 35 82.5t81 35.5q48 0 83.5 -35.5t35.5 -82.5q0 -49 -35 -83t-84 -34zM125 608v154h783v-154h-783zM511 202q-47 0 -81.5 34.5t-34.5 84.5q0 46 35 81t81 35q48 0 83.5 -34.5t35.5 -81.5q0 -50 -35 -84.5t-84 -34.5z" glyph-name="divide" horiz-adv-x="1035" unicode="÷"/><glyph d="M937 892q166 -142 166 -396q0 -234 -142 -374.5t-364 -140.5q-140 0 -254 60l-107 -154l-90 54l110 159q-79 68 -122.5 169t-43.5 227q0 234 142.5 374t364.5 140q141 0 253 -59l106 153l91 -55zM281 496q0 -149 79 -247l392 562q-70 41 -157 41q-136 0 -225 -98 t-89 -258zM595 139q138 0 228 98.5t90 258.5q0 148 -80 246l-393 -562q68 -41 155 -41z" glyph-name="oslash" horiz-adv-x="1193" unicode="ø"/><glyph d="M647 1155h-129l-224 260l100 73zM795 990h192v-990h-183l-5 128q-48 -70 -125.5 -108.5t-174.5 -38.5q-160 0 -253.5 89.5t-93.5 253.5v666h193v-624q0 -114 59 -169.5t151 -55.5q106 0 172.5 66t67.5 199v584z" glyph-name="ugrave" horiz-adv-x="1159" unicode="ù"/><glyph d="M865 1415l-224 -260h-129l253 333zM795 990h192v-990h-183l-5 128q-48 -70 -125.5 -108.5t-174.5 -38.5q-160 0 -253.5 89.5t-93.5 253.5v666h193v-624q0 -114 59 -169.5t151 -55.5q106 0 172.5 66t67.5 199v584z" glyph-name="uacute" horiz-adv-x="1159" unicode="ú"/><glyph d="M581 1376l-154 -205h-127l214 296h135l214 -296h-129zM795 990h192v-990h-183l-5 128q-48 -70 -125.5 -108.5t-174.5 -38.5q-160 0 -253.5 89.5t-93.5 253.5v666h193v-624q0 -114 59 -169.5t151 -55.5q106 0 172.5 66t67.5 199v584z" glyph-name="ucircumflex" horiz-adv-x="1159" unicode="û"/><glyph d="M391 1209q-51 0 -88.5 37t-37.5 88t37.5 87.5t88.5 36.5t87.5 -36.5t36.5 -87.5q0 -52 -36.5 -88.5t-87.5 -36.5zM775 1209q-52 0 -89 36.5t-37 88.5t37 88t89 36q51 0 87.5 -36.5t36.5 -87.5q0 -52 -36.5 -88.5t-87.5 -36.5zM795 990h192v-990h-183l-5 128 q-48 -70 -125.5 -108.5t-174.5 -38.5q-160 0 -253.5 89.5t-93.5 253.5v666h193v-624q0 -114 59 -169.5t151 -55.5q106 0 172.5 66t67.5 199v584z" glyph-name="udieresis" horiz-adv-x="1159" unicode="ü"/><glyph d="M793 1415l-224 -260h-129l253 333zM789 990h202l-581 -1456h-198l204 491l-389 965h212l273 -750z" glyph-name="yacute" horiz-adv-x="1018" unicode="ý"/><glyph d="M705 1010q197 0 330.5 -141.5t133.5 -373.5q0 -117 -36.5 -215t-99.5 -163.5t-147.5 -101.5t-180.5 -36q-112 0 -203 52.5t-138 142.5v-670h-192v2032h192v-722q47 91 138 143.5t203 52.5zM665 143q132 0 222 96t90 256q0 158 -90 254t-222 96q-134 0 -225 -100t-91 -250 q0 -151 91 -251.5t225 -100.5z" glyph-name="thorn" horiz-adv-x="1262" unicode="þ"/><glyph d="M319 1209q-51 0 -88.5 37t-37.5 88t37.5 87.5t88.5 36.5t87.5 -36.5t36.5 -87.5q0 -52 -36.5 -88.5t-87.5 -36.5zM703 1209q-52 0 -89 36.5t-37 88.5t37 88t89 36q51 0 87.5 -36.5t36.5 -87.5q0 -52 -36.5 -88.5t-87.5 -36.5zM789 990h202l-581 -1456h-198l204 491 l-389 965h212l273 -750z" glyph-name="ydieresis" horiz-adv-x="1018" unicode="ÿ"/><glyph d="M1020 1679v-121h-649v121h649zM1130 0l-118 330h-632l-118 -330h-207l521 1414h240l521 -1414h-207zM442 504h508l-254 713z" glyph-name="Amacron" horiz-adv-x="1392" unicode="Ā"/><glyph d="M221 1181v121h649v-121h-649zM402 -19q-85 0 -151.5 27t-109 89.5t-42.5 154.5q0 75 27.5 130t82 90t117 56t149.5 36l156 27q90 17 90 91q0 95 -60 139.5t-150 44.5q-92 0 -152 -44t-71 -137l-173 35q24 144 127.5 216t277.5 72q63 0 117 -10t104.5 -35t86 -63.5t57 -99 t21.5 -137.5v-401q0 -74 22.5 -100.5t76.5 -26.5h15v-135h-93q-163 0 -192 133h-9q-56 -78 -141.5 -115t-182.5 -37zM446 134q128 0 208.5 91.5t80.5 246.5l-259 -53q-96 -16 -143 -51.5t-47 -100.5q0 -67 44.5 -100t115.5 -33z" glyph-name="amacron" horiz-adv-x="1086" unicode="ā"/><glyph d="M695 1558q-157 0 -250 67.5t-93 206.5h117q0 -89 61 -132.5t165 -43.5q105 0 166.5 43.5t61.5 132.5h117q0 -139 -93 -206.5t-252 -67.5zM1130 0l-118 330h-632l-118 -330h-207l521 1414h240l521 -1414h-207zM442 504h508l-254 713z" glyph-name="Abreve" horiz-adv-x="1392" unicode="Ă"/><glyph d="M545 1144q-152 0 -247.5 87t-95.5 236h124q0 -99 60.5 -162t158.5 -63q100 0 160.5 63t60.5 162h124q0 -149 -96 -236t-249 -87zM402 -19q-85 0 -151.5 27t-109 89.5t-42.5 154.5q0 75 27.5 130t82 90t117 56t149.5 36l156 27q90 17 90 91q0 95 -60 139.5t-150 44.5 q-92 0 -152 -44t-71 -137l-173 35q24 144 127.5 216t277.5 72q63 0 117 -10t104.5 -35t86 -63.5t57 -99t21.5 -137.5v-401q0 -74 22.5 -100.5t76.5 -26.5h15v-135h-93q-163 0 -192 133h-9q-56 -78 -141.5 -115t-182.5 -37zM446 134q128 0 208.5 91.5t80.5 246.5l-259 -53 q-96 -16 -143 -51.5t-47 -100.5q0 -67 44.5 -100t115.5 -33z" glyph-name="abreve" horiz-adv-x="1086" unicode="ă"/><glyph d="M1168 -227q0 -41 73 -41q54 0 96 31v-136q-51 -20 -114 -20q-86 0 -132.5 25.5t-46.5 71.5q0 95 199 296h-113l-118 330h-632l-118 -330h-207l521 1414h240l521 -1414l-9 -9q-160 -159 -160 -218zM442 504h508l-254 713z" glyph-name="Aogonek" horiz-adv-x="1392" unicode="Ą"/><glyph d="M1020 0l-9 -9q-160 -159 -160 -218q0 -41 73 -41q54 0 96 31v-136q-51 -20 -114 -20q-86 0 -132.5 25.5t-46.5 71.5q0 95 199 296q-162 0 -191 133h-9q-56 -78 -141.5 -115t-182.5 -37q-85 0 -151.5 27t-109 89.5t-42.5 154.5q0 75 27.5 130t82 90t117 56t149.5 36 l156 27q90 17 90 91q0 95 -60 139.5t-150 44.5q-92 0 -152 -44t-71 -137l-173 35q24 144 127.5 216t277.5 72q63 0 117 -10t104.5 -35t86 -63.5t57 -99t21.5 -137.5v-401q0 -74 22.5 -100.5t76.5 -26.5h15v-135zM446 134q128 0 208.5 91.5t80.5 246.5l-259 -53 q-96 -16 -143 -51.5t-47 -100.5q0 -67 44.5 -100t115.5 -33z" glyph-name="aogonek" horiz-adv-x="1086" unicode="ą"/><glyph d="M755 1558l253 333l100 -73l-224 -260h-129zM824 -19q-201 0 -360.5 86.5t-253 253t-93.5 387.5q0 165 54 302.5t149 229.5t224.5 142.5t279.5 50.5q215 0 383 -101.5t249 -283.5l-184 -73q-61 129 -179.5 199.5t-268.5 70.5q-107 0 -199.5 -36.5t-161.5 -103.5 t-108.5 -169.5t-39.5 -227.5q0 -126 39.5 -228.5t108.5 -170t161.5 -104t199.5 -36.5q150 0 268.5 70.5t179.5 199.5l184 -74q-82 -181 -249.5 -282.5t-382.5 -101.5z" glyph-name="Cacute" horiz-adv-x="1538" unicode="Ć"/><glyph d="M510 1155l253 333l100 -73l-224 -260h-129zM589 -18q-218 0 -359.5 142.5t-141.5 371.5t141.5 371.5t359.5 142.5q170 0 292.5 -88t166.5 -246l-179 -27q-33 98 -107.5 150.5t-174.5 52.5q-134 0 -220.5 -98t-86.5 -258q0 -159 86.5 -257.5t220.5 -98.5q100 0 174.5 52.5 t107.5 150.5l179 -27q-44 -157 -167.5 -245.5t-291.5 -88.5z" glyph-name="cacute" horiz-adv-x="1123" unicode="ć"/><glyph d="M826 1536q-51 0 -88.5 37t-37.5 88t37.5 87.5t88.5 36.5t87.5 -36.5t36.5 -87.5t-37 -88t-87 -37zM824 -19q-201 0 -360.5 86.5t-253 253t-93.5 387.5q0 165 54 302.5t149 229.5t224.5 142.5t279.5 50.5q215 0 383 -101.5t249 -283.5l-184 -73q-61 129 -179.5 199.5 t-268.5 70.5q-107 0 -199.5 -36.5t-161.5 -103.5t-108.5 -169.5t-39.5 -227.5q0 -126 39.5 -228.5t108.5 -170t161.5 -104t199.5 -36.5q150 0 268.5 70.5t179.5 199.5l184 -74q-82 -181 -249.5 -282.5t-382.5 -101.5z" glyph-name="Cdotaccent" horiz-adv-x="1538" unicode="Ċ"/><glyph d="M581 1209q-51 0 -88.5 37t-37.5 88t37.5 87.5t88.5 36.5t87.5 -36.5t36.5 -87.5q0 -52 -36.5 -88.5t-87.5 -36.5zM589 -18q-218 0 -359.5 142.5t-141.5 371.5t141.5 371.5t359.5 142.5q170 0 292.5 -88t166.5 -246l-179 -27q-33 98 -107.5 150.5t-174.5 52.5 q-134 0 -220.5 -98t-86.5 -258q0 -159 86.5 -257.5t220.5 -98.5q100 0 174.5 52.5t107.5 150.5l179 -27q-44 -157 -167.5 -245.5t-291.5 -88.5z" glyph-name="cdotaccent" horiz-adv-x="1123" unicode="ċ"/><glyph d="M757 1558l-214 296h128l153 -207l153 207h129l-214 -296h-135zM824 -19q-201 0 -360.5 86.5t-253 253t-93.5 387.5q0 165 54 302.5t149 229.5t224.5 142.5t279.5 50.5q215 0 383 -101.5t249 -283.5l-184 -73q-61 129 -179.5 199.5t-268.5 70.5q-107 0 -199.5 -36.5 t-161.5 -103.5t-108.5 -169.5t-39.5 -227.5q0 -126 39.5 -228.5t108.5 -170t161.5 -104t199.5 -36.5q150 0 268.5 70.5t179.5 199.5l184 -74q-82 -181 -249.5 -282.5t-382.5 -101.5z" glyph-name="Ccaron" horiz-adv-x="1538" unicode="Č"/><glyph d="M512 1171l-214 296h128l153 -206l153 206h129l-214 -296h-135zM589 -18q-218 0 -359.5 142.5t-141.5 371.5t141.5 371.5t359.5 142.5q170 0 292.5 -88t166.5 -246l-179 -27q-33 98 -107.5 150.5t-174.5 52.5q-134 0 -220.5 -98t-86.5 -258q0 -159 86.5 -257.5 t220.5 -98.5q100 0 174.5 52.5t107.5 150.5l179 -27q-44 -157 -167.5 -245.5t-291.5 -88.5z" glyph-name="ccaron" horiz-adv-x="1123" unicode="č"/><glyph d="M541 1558l-214 296h128l153 -207l153 207h129l-214 -296h-135zM215 0v1414h466q160 0 285.5 -52t206 -146t122.5 -223t42 -285q0 -211 -72 -368.5t-221.5 -248.5t-362.5 -91h-466zM414 180h259q226 0 341 139.5t115 388.5q0 248 -115 387.5t-341 139.5h-259v-1055z" glyph-name="Dcaron" horiz-adv-x="1459" unicode="Ď"/><glyph d="M538 -19q-190 0 -317.5 142.5t-127.5 373.5q0 153 60 271.5t160.5 181t224.5 62.5q110 0 201 -54t148 -148l1 726h191v-1536h-192v184q-57 -94 -148 -148.5t-201 -54.5zM1237 910l124 626h200l-183 -626h-141zM598 146q132 0 221 100t89 251t-90 251t-220 100 q-133 0 -222.5 -97t-89.5 -254t89.5 -254t222.5 -97z" glyph-name="dcaron" horiz-adv-x="1414" unicode="ď"/><glyph d="M681 1414q160 0 285.5 -52t206 -146t122.5 -223t42 -285q0 -211 -72 -368.5t-221.5 -248.5t-362.5 -91h-466v646h-161v125h161v643h466zM673 180q226 0 341 139.5t115 388.5q0 248 -115 387.5t-341 139.5h-259v-464h260v-125h-260v-466h259z" glyph-name="Dcroat" horiz-adv-x="1459" unicode="Đ"/><glyph d="M1247 1315v-125h-157v-1190h-185l-5 180q-46 -93 -138 -147t-205 -54q-95 0 -180 36.5t-148.5 102.5t-100.5 163.5t-37 213.5q0 153 63.5 271.5t169.5 181t233 62.5q112 0 203 -52.5t138 -143.5v376h-271v125h271v221h192v-221h157zM598 143q133 0 223 100.5t90 251.5 t-90.5 251t-222.5 100q-134 0 -224.5 -97t-90.5 -254t90.5 -254.5t224.5 -97.5z" glyph-name="dcroat" horiz-adv-x="1262" unicode="đ"/><glyph d="M927 1679v-121h-649v121h649zM984 1235h-566v-440h499v-178h-499v-437h566v-180h-769v1414h769v-179z" glyph-name="Emacron" horiz-adv-x="1106" unicode="Ē"/><glyph d="M915 1306v-121h-649v121h649zM1050 514l-3 -51h-767q5 -157 92 -241t217 -84q88 0 158 45t108 126l174 -34q-52 -137 -169.5 -215.5t-268.5 -78.5q-224 0 -361.5 137.5t-137.5 376.5q0 238 138 376.5t355 138.5q210 0 337 -127t128 -369zM586 864q-118 0 -197 -64.5 t-101 -190.5h569q-12 125 -85 190t-186 65z" glyph-name="emacron" horiz-adv-x="1140" unicode="ē"/><glyph d="M604 1536q-51 0 -88.5 37t-37.5 88t37.5 87.5t88.5 36.5t87.5 -36.5t36.5 -87.5t-37 -88t-87 -37zM984 1235h-566v-440h499v-178h-499v-437h566v-180h-769v1414h769v-179z" glyph-name="Edotaccent" horiz-adv-x="1106" unicode="Ė"/><glyph d="M592 1213q-51 0 -88.5 37t-37.5 88t37.5 87.5t88.5 36.5t87.5 -36.5t36.5 -87.5q0 -52 -37 -88.5t-87 -36.5zM1050 514l-3 -51h-767q5 -157 92 -241t217 -84q88 0 158 45t108 126l174 -34q-52 -137 -169.5 -215.5t-268.5 -78.5q-224 0 -361.5 137.5t-137.5 376.5 q0 238 138 376.5t355 138.5q210 0 337 -127t128 -369zM586 864q-118 0 -197 -64.5t-101 -190.5h569q-12 125 -85 190t-186 65z" glyph-name="edotaccent" horiz-adv-x="1140" unicode="ė"/><glyph d="M984 1235h-566v-440h499v-178h-499v-437h566v-180l-9 -9q-160 -159 -160 -218q0 -41 73 -41q54 0 96 31v-136q-51 -20 -114 -20q-86 0 -132.5 25.5t-46.5 71.5q0 95 199 296h-675v1414h769v-179z" glyph-name="Eogonek" horiz-adv-x="1106" unicode="Ę"/><glyph d="M1050 514l-3 -51h-767q5 -157 92 -241t217 -84q88 0 158 45t108 126l174 -34q-30 -78 -82 -139h1l-17 -17l-10 -10q-142 -142 -142 -200q0 -41 73 -41q54 0 96 31v-136q-51 -20 -114 -20q-86 0 -132.5 25.5t-46.5 71.5q0 60 77 161q-68 -20 -141 -20q-224 0 -361.5 137.5 t-137.5 376.5q0 238 138 376.5t355 138.5q210 0 337 -127t128 -369zM586 864q-118 0 -197 -64.5t-101 -190.5h569q-12 125 -85 190t-186 65z" glyph-name="eogonek" horiz-adv-x="1140" unicode="ę"/><glyph d="M670 1558h-135l-214 296h128l153 -207l153 207h129zM984 1235h-566v-440h499v-178h-499v-437h566v-180h-769v1414h769v-179z" glyph-name="Ecaron" horiz-adv-x="1106" unicode="Ě"/><glyph d="M658 1175h-135l-214 296h128l153 -206l153 206h129zM1050 514l-3 -51h-767q5 -157 92 -241t217 -84q88 0 158 45t108 126l174 -34q-52 -137 -169.5 -215.5t-268.5 -78.5q-224 0 -361.5 137.5t-137.5 376.5q0 238 138 376.5t355 138.5q210 0 337 -127t128 -369zM586 864 q-118 0 -197 -64.5t-101 -190.5h569q-12 125 -85 190t-186 65z" glyph-name="ecaron" horiz-adv-x="1140" unicode="ě"/><glyph d="M815 1558q-157 0 -250 67.5t-93 206.5h117q0 -89 61 -132.5t165 -43.5q105 0 166.5 43.5t61.5 132.5h117q0 -139 -93 -206.5t-252 -67.5zM817 -19q-148 0 -276.5 50t-222.5 141.5t-147.5 228t-53.5 302.5q0 222 93.5 389.5t253 254t360.5 86.5q198 0 356.5 -85 t248.5 -245l-176 -94q-65 121 -177 182t-252 61q-108 0 -200 -36.5t-160.5 -104t-107.5 -171.5t-39 -233q0 -254 143 -400.5t371 -146.5q186 0 311.5 104t149.5 299h-462v166h655v-729h-162v254q-71 -131 -200 -202t-306 -71z" glyph-name="Gbreve" horiz-adv-x="1632" unicode="Ğ"/><glyph d="M585 1144q-152 0 -247.5 87t-95.5 236h124q0 -99 60.5 -162t158.5 -63q100 0 160.5 63t60.5 162h124q0 -149 -96 -236t-249 -87zM883 990h185v-935q0 -256 -129.5 -390.5t-359.5 -134.5q-364 0 -487 304l160 76q86 -223 320 -223q149 0 226.5 93.5t77.5 262.5v173 q-46 -84 -138 -135.5t-202 -51.5q-92 0 -175 36.5t-144 100.5t-97 156.5t-36 198.5q0 213 132.5 351t321.5 138q112 0 204 -53t137 -141zM580 191q130 0 220.5 97.5t90.5 232.5q0 136 -90 233t-221 97q-130 0 -219.5 -94.5t-89.5 -235.5q0 -140 90 -235t219 -95z" glyph-name="gbreve" horiz-adv-x="1240" unicode="ğ"/><glyph d="M817 1536q-51 0 -88.5 37t-37.5 88t37.5 87.5t88.5 36.5t87.5 -36.5t36.5 -87.5t-36.5 -88t-87.5 -37zM817 -19q-148 0 -276.5 50t-222.5 141.5t-147.5 228t-53.5 302.5q0 222 93.5 389.5t253 254t360.5 86.5q198 0 356.5 -85t248.5 -245l-176 -94q-65 121 -177 182 t-252 61q-108 0 -200 -36.5t-160.5 -104t-107.5 -171.5t-39 -233q0 -254 143 -400.5t371 -146.5q186 0 311.5 104t149.5 299h-462v166h655v-729h-162v254q-71 -131 -200 -202t-306 -71z" glyph-name="Gdotaccent" horiz-adv-x="1632" unicode="Ġ"/><glyph d="M587 1209q-51 0 -88.5 37t-37.5 88t37.5 87.5t88.5 36.5t87.5 -36.5t36.5 -87.5q0 -52 -36.5 -88.5t-87.5 -36.5zM883 990h185v-935q0 -256 -129.5 -390.5t-359.5 -134.5q-364 0 -487 304l160 76q86 -223 320 -223q149 0 226.5 93.5t77.5 262.5v173q-46 -84 -138 -135.5 t-202 -51.5q-92 0 -175 36.5t-144 100.5t-97 156.5t-36 198.5q0 213 132.5 351t321.5 138q112 0 204 -53t137 -141zM580 191q130 0 220.5 97.5t90.5 232.5q0 136 -90 233t-221 97q-130 0 -219.5 -94.5t-89.5 -235.5q0 -140 90 -235t219 -95z" glyph-name="gdotaccent" horiz-adv-x="1240" unicode="ġ"/><glyph d="M817 -19q-148 0 -276.5 50t-222.5 141.5t-147.5 228t-53.5 302.5q0 222 93.5 389.5t253 254t360.5 86.5q198 0 356.5 -85t248.5 -245l-176 -94q-65 121 -177 182t-252 61q-108 0 -200 -36.5t-160.5 -104t-107.5 -171.5t-39 -233q0 -254 143 -400.5t371 -146.5 q186 0 311.5 104t149.5 299h-462v166h655v-729h-162v254q-71 -131 -200 -202t-306 -71zM666 -561l-100 45l161 367h174z" glyph-name="Gcommaaccent" horiz-adv-x="1632" unicode="Ģ"/><glyph d="M752 1460l-123 -310h-200l183 310h140zM883 990h185v-935q0 -256 -129.5 -390.5t-359.5 -134.5q-364 0 -487 304l160 76q86 -223 320 -223q149 0 226.5 93.5t77.5 262.5v173q-46 -84 -138 -135.5t-202 -51.5q-92 0 -175 36.5t-144 100.5t-97 156.5t-36 198.5 q0 213 132.5 351t321.5 138q112 0 204 -53t137 -141zM580 191q130 0 220.5 97.5t90.5 232.5q0 136 -90 233t-221 97q-130 0 -219.5 -94.5t-89.5 -235.5q0 -140 90 -235t219 -95z" glyph-name="gcommaaccent" horiz-adv-x="1240" unicode="ģ"/><glyph d="M1449 1154v-95h-139v-1059h-199v620h-695v-620h-201v1059h-139v95h139v260h201v-260h695v260h199v-260h139zM1111 797v262h-695v-262h695z" glyph-name="Hbar" horiz-adv-x="1526" unicode="Ħ"/><glyph d="M667 1010q155 0 247.5 -92.5t92.5 -265.5v-652h-193v617q0 120 -58.5 176.5t-151.5 56.5q-103 0 -171 -66t-69 -199v-585h-192v1191h-133v125h133v220h192v-220h295v-125h-295v-328q48 70 126 108.5t177 38.5z" glyph-name="hbar" horiz-adv-x="1159" unicode="ħ"/><glyph d="M457 1555q-62 0 -100 25t-70 68q-18 25 -28.5 37t-30.5 24t-43 12q-50 0 -77.5 -42t-27.5 -109h-104q0 109 56 178t151 69q98 0 166 -90q2 -2 12 -14.5t13 -16t12.5 -13t15.5 -13t15 -9t19 -7.5t21 -2q49 0 75 39.5t26 108.5h107q0 -107 -55.5 -176t-152.5 -69zM215 0 v1414h199v-1414h-199z" glyph-name="Itilde" horiz-adv-x="630" unicode="Ĩ"/><glyph d="M398 1147q-104 0 -165 97q-33 50 -76 50q-40 0 -62.5 -37t-22.5 -96h-104q0 103 50.5 168.5t134.5 65.5q104 0 165 -98q29 -48 78 -48q40 0 61.5 35.5t21.5 95.5h104q0 -102 -49.5 -167.5t-135.5 -65.5zM172 0v990h193v-990h-193z" glyph-name="itilde" horiz-adv-x="537" unicode="ĩ"/><glyph d="M-11 1558v121h649v-121h-649zM215 0v1414h199v-1414h-199z" glyph-name="Imacron" horiz-adv-x="630" unicode="Ī"/><glyph d="M-56 1181v121h649v-121h-649zM172 0v990h193v-990h-193z" glyph-name="imacron" horiz-adv-x="537" unicode="ī"/><glyph d="M247 -227q0 -41 73 -41q54 0 96 31v-136q-51 -20 -114 -20q-86 0 -132.5 25.5t-46.5 71.5q0 95 199 296h-107v1414h199v-1413l2 -1l-9 -9q-160 -159 -160 -218z" glyph-name="Iogonek" horiz-adv-x="630" unicode="Į"/><glyph d="M270 1209q-51 0 -88.5 37t-37.5 88t37.5 87.5t88.5 36.5t87.5 -36.5t36.5 -87.5q0 -52 -37 -88.5t-87 -36.5zM172 0v990h193v-990l-9 -9q-160 -159 -160 -218q0 -41 73 -41q54 0 96 31v-136q-51 -20 -114 -20q-86 0 -132.5 25.5t-46.5 71.5q0 95 199 296h-99z" glyph-name="iogonek" horiz-adv-x="537" unicode="į"/><glyph d="M315 1536q-51 0 -88.5 37t-37.5 88t37.5 87.5t88.5 36.5t87.5 -36.5t36.5 -87.5t-36.5 -88t-87.5 -37zM215 0v1414h199v-1414h-199z" glyph-name="Idotaccent" horiz-adv-x="630" unicode="İ"/><glyph d="M172 0v990h193v-990h-193z" glyph-name="dotlessi" horiz-adv-x="537" unicode="ı"/><glyph d="M706 740l581 -740h-255l-496 645h-122v-645h-199v1414h199v-591h120l482 591h244zM400 -516l161 367h174l-235 -412z" glyph-name="Kcommaaccent" horiz-adv-x="1337" unicode="Ķ"/><glyph d="M602 537l447 -537h-243l-364 451h-77v-451h-193v1536h193v-942h71l338 396h225zM282 -516l161 367h174l-235 -412z" glyph-name="kcommaaccent" horiz-adv-x="1064" unicode="ķ"/><glyph d="M598 1818l-224 -260h-129l253 333zM414 180h483v-180h-682v1414h199v-1234z" glyph-name="Lacute" horiz-adv-x="952" unicode="Ĺ"/><glyph d="M199 1701l253 333l100 -73l-224 -260h-129zM172 0v1536h193v-1536h-193z" glyph-name="lacute" horiz-adv-x="537" unicode="ĺ"/><glyph d="M414 180h483v-180h-682v1414h199v-1234zM307 -516l161 367h174l-235 -412z" glyph-name="Lcommaaccent" horiz-adv-x="952" unicode="Ļ"/><glyph d="M172 0v1536h193v-1536h-193zM119 -561l-100 45l161 367h174z" glyph-name="lcommaaccent" horiz-adv-x="537" unicode="ļ"/><glyph d="M414 1414v-1234h483v-180h-682v1414h199zM955 1414l-183 -626h-140l123 626h200z" glyph-name="Lcaron" horiz-adv-x="1047" unicode="Ľ"/><glyph d="M172 0v1536h191v-1536h-191zM494 910l125 626h200l-184 -626h-141z" glyph-name="lcaron" horiz-adv-x="670" unicode="ľ"/><glyph d="M414 180h483v-180h-682v554l-165 -123v137l165 123v723h199v-574l193 144v-138l-193 -144v-522z" glyph-name="Lslash" horiz-adv-x="952" unicode="Ł"/><glyph d="M545 1006v-138l-180 -134v-734h-193v590l-184 -137v137l184 137v809h193v-664z" glyph-name="lslash" horiz-adv-x="537" unicode="ł"/><glyph d="M1074 1818l-224 -260h-129l253 333zM1168 1414h198v-1414h-215l-739 1122v-1122h-197v1414h213l740 -1117v1117z" glyph-name="Nacute" horiz-adv-x="1581" unicode="Ń"/><glyph d="M861 1415l-224 -260h-129l253 333zM660 1010q160 0 253.5 -89.5t93.5 -253.5v-667h-193v624q0 115 -58.5 170.5t-150.5 55.5q-106 0 -173 -66.5t-68 -198.5v-585h-192v990h192v-122q48 68 124.5 105t171.5 37z" glyph-name="nacute" horiz-adv-x="1160" unicode="ń"/><glyph d="M1168 1414h198v-1414h-215l-739 1122v-1122h-197v1414h213l740 -1117v1117zM542 -516l161 367h174l-235 -412z" glyph-name="Ncommaaccent" horiz-adv-x="1581" unicode="Ņ"/><glyph d="M660 1010q160 0 253.5 -89.5t93.5 -253.5v-667h-193v624q0 115 -58.5 170.5t-150.5 55.5q-106 0 -173 -66.5t-68 -198.5v-585h-192v990h192v-122q48 68 124.5 105t171.5 37zM329 -516l161 367h174l-235 -412z" glyph-name="ncommaaccent" horiz-adv-x="1160" unicode="ņ"/><glyph d="M858 1558h-135l-214 296h128l153 -207l153 207h129zM1168 1414h198v-1414h-215l-739 1122v-1122h-197v1414h213l740 -1117v1117z" glyph-name="Ncaron" horiz-adv-x="1581" unicode="Ň"/><glyph d="M645 1171h-135l-214 296h128l153 -206l153 206h129zM660 1010q160 0 253.5 -89.5t93.5 -253.5v-667h-193v624q0 115 -58.5 170.5t-150.5 55.5q-106 0 -173 -66.5t-68 -198.5v-585h-192v990h192v-122q48 68 124.5 105t171.5 37z" glyph-name="ncaron" horiz-adv-x="1160" unicode="ň"/><glyph d="M1200 1414h197v-1414q0 -220 -131.5 -341t-353.5 -121v155q135 0 213 79.5t59 227.5l-774 1130v-1130h-195v1414h210l775 -1124v1124z" glyph-name="Eng" horiz-adv-x="1612" unicode="Ŋ"/><glyph d="M663 1010q159 0 252 -91.5t93 -261.5v-827q0 -133 -77 -214.5t-206 -81.5h-141v141h94q61 0 99 38t38 108v803q0 116 -59 171t-156 55q-103 0 -169 -62.5t-67 -192.5v-595h-192v990h192v-116q106 136 299 136z" glyph-name="eng" horiz-adv-x="1161" unicode="ŋ"/><glyph d="M499 1558v121h649v-121h-649zM824 -19q-201 0 -360.5 86.5t-253 253.5t-93.5 387q0 165 54 302.5t149 229.5t224.5 142.5t279.5 50.5q149 0 278.5 -50.5t224 -142.5t149 -229.5t54.5 -302.5q0 -166 -54.5 -303.5t-149 -229.5t-224 -143t-278.5 -51zM824 168 q106 0 198.5 36.5t161 104t108 170.5t39.5 229q0 125 -39.5 227.5t-108 169.5t-161 103.5t-198.5 36.5q-107 0 -199.5 -36.5t-161.5 -103.5t-108.5 -169.5t-39.5 -227.5q0 -126 39.5 -229t108.5 -170.5t161.5 -104t199.5 -36.5z" glyph-name="Omacron" horiz-adv-x="1647" unicode="Ō"/><glyph d="M272 1181v121h649v-121h-649zM597 -19q-221 0 -364 140.5t-143 374.5t142.5 374t364.5 140t364 -140t142 -374t-142 -374.5t-364 -140.5zM595 139q138 0 228 98.5t90 258.5t-90 258t-228 98q-136 0 -225 -98t-89 -258t89 -258.5t225 -98.5z" glyph-name="omacron" horiz-adv-x="1193" unicode="ō"/><glyph d="M578 1558l253 333l100 -73l-224 -260h-129zM941 1558l253 333l100 -73l-225 -260h-128zM824 -19q-201 0 -360.5 86.5t-253 253.5t-93.5 387q0 165 54 302.5t149 229.5t224.5 142.5t279.5 50.5q149 0 278.5 -50.5t224 -142.5t149 -229.5t54.5 -302.5q0 -166 -54.5 -303.5 t-149 -229.5t-224 -143t-278.5 -51zM824 168q106 0 198.5 36.5t161 104t108 170.5t39.5 229q0 125 -39.5 227.5t-108 169.5t-161 103.5t-198.5 36.5q-107 0 -199.5 -36.5t-161.5 -103.5t-108.5 -169.5t-39.5 -227.5q0 -126 39.5 -229t108.5 -170.5t161.5 -104t199.5 -36.5z" glyph-name="Ohungarumlaut" horiz-adv-x="1647" unicode="Ő"/><glyph d="M351 1155l253 333l100 -73l-224 -260h-129zM714 1155l253 333l100 -73l-225 -260h-128zM597 -19q-221 0 -364 140.5t-143 374.5t142.5 374t364.5 140t364 -140t142 -374t-142 -374.5t-364 -140.5zM595 139q138 0 228 98.5t90 258.5t-90 258t-228 98q-136 0 -225 -98 t-89 -258t89 -258.5t225 -98.5z" glyph-name="ohungarumlaut" horiz-adv-x="1193" unicode="ő"/><glyph d="M831 0q-359 0 -536.5 186.5t-177.5 522.5q0 334 177.5 519.5t536.5 185.5h1013v-180h-604v-436h518v-180h-518v-438h604v-180h-1013zM839 180h203v1054h-203q-271 0 -393.5 -132t-122.5 -393q0 -262 122.5 -395.5t393.5 -133.5z" glyph-name="OE" horiz-adv-x="1966" unicode="Œ"/><glyph d="M1874 514l-3 -51h-767q5 -157 92 -241t217 -84q88 0 158 45t108 126l174 -34q-52 -137 -169.5 -215.5t-268.5 -78.5q-133 0 -238 50t-170 144q-68 -93 -174.5 -143.5t-235.5 -50.5q-221 0 -364 140.5t-143 374.5t142.5 374t364.5 140q130 0 236.5 -50.5t174.5 -143.5 q65 94 169 144t232 50q210 0 337 -127t128 -369zM1410 864q-118 0 -197 -64.5t-101 -190.5h569q-12 125 -85 190t-186 65zM595 139q138 0 228 98.5t90 258.5t-90 258t-228 98q-136 0 -225 -98t-89 -258t89 -258.5t225 -98.5z" glyph-name="oe" horiz-adv-x="1965" unicode="œ"/><glyph d="M923 1818l-224 -260h-129l253 333zM978 0l-366 636h-198v-636h-199v1414h476q108 0 192 -31.5t135.5 -87t77.5 -127.5t26 -157q0 -148 -82 -245t-228 -122l399 -644h-233zM414 1242v-454h250q133 0 200 60.5t67 165.5q0 104 -67 166t-200 62h-250z" glyph-name="Racute" horiz-adv-x="1286" unicode="Ŕ"/><glyph d="M632 1415l-224 -260h-129l253 333zM358 818q36 80 123 131t192 52v-178q-153 0 -231 -71t-78 -231v-521h-192v990h186v-172z" glyph-name="racute" horiz-adv-x="700" unicode="ŕ"/><glyph d="M812 644l399 -644h-233l-366 636h-198v-636h-199v1414h476q108 0 192 -31.5t135.5 -87t77.5 -127.5t26 -157q0 -148 -82 -245t-228 -122zM414 1242v-454h250q133 0 200 60.5t67 165.5q0 104 -67 166t-200 62h-250zM391 -516l161 367h174l-235 -412z" glyph-name="Rcommaaccent" horiz-adv-x="1286" unicode="Ŗ"/><glyph d="M358 818q36 80 123 131t192 52v-178q-153 0 -231 -71t-78 -231v-521h-192v990h186v-172zM20 -516l161 367h174l-235 -412z" glyph-name="rcommaaccent" horiz-adv-x="700" unicode="ŗ"/><glyph d="M707 1558h-135l-214 296h128l153 -207l153 207h129zM978 0l-366 636h-198v-636h-199v1414h476q108 0 192 -31.5t135.5 -87t77.5 -127.5t26 -157q0 -148 -82 -245t-228 -122l399 -644h-233zM414 1242v-454h250q133 0 200 60.5t67 165.5q0 104 -67 166t-200 62h-250z" glyph-name="Rcaron" horiz-adv-x="1286" unicode="Ř"/><glyph d="M416 1171h-135l-214 296h128l153 -206l153 206h129zM358 818q36 80 123 131t192 52v-178q-153 0 -231 -71t-78 -231v-521h-192v990h186v-172z" glyph-name="rcaron" horiz-adv-x="700" unicode="ř"/><glyph d="M569 1558l253 333l100 -73l-224 -260h-129zM658 -19q-223 0 -373 101t-186 280l203 48q24 -122 122 -191t241 -69q59 0 110 12.5t93.5 39t66.5 73t23 107.5q-1 48 -24.5 86.5t-46.5 61t-87.5 49t-92 34.5t-113.5 32q-9 3 -13 4q-57 16 -94 27t-88 30.5t-83.5 39t-68.5 49 t-56.5 63t-34 80t-13.5 100.5q0 77 24.5 142t68 111t103.5 78.5t130 48t148 15.5q96 0 180.5 -20.5t155.5 -62t121 -109t69 -156.5l-193 -49q-25 113 -112.5 170t-211.5 57q-75 0 -136.5 -21t-104 -73t-42.5 -129q0 -31 10 -57t24.5 -45t43 -37.5t51 -30t64.5 -25.5 t68 -21.5t76 -20.5q91 -25 139.5 -40t125 -50t116 -74t71 -104t31.5 -147q0 -83 -27 -151.5t-74 -115.5t-111.5 -79t-138 -46.5t-154.5 -14.5z" glyph-name="Sacute" horiz-adv-x="1275" unicode="Ś"/><glyph d="M411 1156l253 333l100 -73l-224 -260h-129zM491 -19q-163 0 -271 71t-131 204l165 47q18 -87 80.5 -133.5t155.5 -46.5q80 0 135 34.5t53 109.5q-1 24 -8 44t-25 35.5t-34 26.5t-48 22.5t-52.5 18.5t-63 19t-65.5 19q-60 18 -100 36t-82 49t-63 78t-21 110 q0 140 100 211.5t256 71.5q145 0 244.5 -64.5t122.5 -194.5l-155 -38q-17 81 -74.5 120.5t-136.5 39.5q-74 0 -126.5 -32.5t-52.5 -99.5q0 -35 17 -61t51 -43t69 -28t86 -24q14 -3 21 -5q57 -14 95 -26.5t85.5 -37t76.5 -54t49 -77.5t20 -108q0 -62 -20 -112t-54.5 -83.5 t-82.5 -56t-101.5 -32.5t-114.5 -10z" glyph-name="sacute" horiz-adv-x="953" unicode="ś"/><glyph d="M1163 388q0 -101 -39 -179.5t-107 -126.5t-153 -73t-184 -28l-58 -116q42 7 53 7q87 0 143.5 -53.5t56.5 -137.5q0 -90 -61 -151.5t-151 -61.5q-75 0 -141 38.5t-96 95.5l93 37q21 -32 61.5 -52.5t79.5 -20.5q48 0 81.5 32.5t33.5 82.5q0 51 -33.5 80.5t-86.5 29.5 q-41 0 -79 -23l-80 51l84 165q-193 17 -320.5 116.5t-160.5 261.5l203 48q24 -122 122 -191t241 -69q59 0 110 12.5t93.5 39t66.5 73t23 107.5q-1 48 -24.5 86.5t-46.5 61t-87.5 49t-92 34.5t-113.5 32q-9 3 -13 4q-57 16 -94 27t-88 30.5t-83.5 39t-68.5 49t-56.5 63 t-34 80t-13.5 100.5q0 77 24.5 142t68 111t103.5 78.5t130 48t148 15.5q96 0 180.5 -20.5t155.5 -62t121 -109t69 -156.5l-193 -49q-25 113 -112.5 170t-211.5 57q-75 0 -136.5 -21t-104 -73t-42.5 -129q0 -31 10 -57t24.5 -45t43 -37.5t51 -30t64.5 -25.5t68 -21.5 t76 -20.5q91 -25 139.5 -40t125 -50t116 -74t71 -104t31.5 -147z" glyph-name="Scedilla" horiz-adv-x="1275" unicode="Ş"/><glyph d="M864 275q0 -142 -96 -214t-246 -79l-58 -116q42 7 53 7q87 0 143.5 -53.5t56.5 -137.5q0 -90 -61 -151.5t-151 -61.5q-75 0 -141 38.5t-96 95.5l93 37q21 -32 61.5 -52.5t79.5 -20.5q48 0 81.5 32.5t33.5 82.5q0 51 -33.5 80.5t-86.5 29.5q-41 0 -79 -23l-80 51l84 165 q-136 14 -224 83.5t-109 187.5l165 47q18 -87 80.5 -133.5t155.5 -46.5q80 0 135 34.5t53 109.5q-1 24 -8 44t-25 35.5t-34 26.5t-48 22.5t-52.5 18.5t-63 19t-65.5 19q-60 18 -100 36t-82 49t-63 78t-21 110q0 140 100 211.5t256 71.5q145 0 244.5 -64.5t122.5 -194.5 l-155 -38q-17 81 -74.5 120.5t-136.5 39.5q-74 0 -126.5 -32.5t-52.5 -99.5q0 -35 17 -61t51 -43t69 -28t86 -24q14 -3 21 -5q57 -14 95 -26.5t85.5 -37t76.5 -54t49 -77.5t20 -108z" glyph-name="scedilla" horiz-adv-x="953" unicode="ş"/><glyph d="M571 1558l-214 296h128l153 -207l153 207h129l-214 -296h-135zM658 -19q-223 0 -373 101t-186 280l203 48q24 -122 122 -191t241 -69q59 0 110 12.5t93.5 39t66.5 73t23 107.5q-1 48 -24.5 86.5t-46.5 61t-87.5 49t-92 34.5t-113.5 32q-9 3 -13 4q-57 16 -94 27t-88 30.5 t-83.5 39t-68.5 49t-56.5 63t-34 80t-13.5 100.5q0 77 24.5 142t68 111t103.5 78.5t130 48t148 15.5q96 0 180.5 -20.5t155.5 -62t121 -109t69 -156.5l-193 -49q-25 113 -112.5 170t-211.5 57q-75 0 -136.5 -21t-104 -73t-42.5 -129q0 -31 10 -57t24.5 -45t43 -37.5t51 -30 t64.5 -25.5t68 -21.5t76 -20.5q91 -25 139.5 -40t125 -50t116 -74t71 -104t31.5 -147q0 -83 -27 -151.5t-74 -115.5t-111.5 -79t-138 -46.5t-154.5 -14.5z" glyph-name="Scaron" horiz-adv-x="1275" unicode="Š"/><glyph d="M413 1172l-214 296h128l153 -206l153 206h129l-214 -296h-135zM491 -19q-163 0 -271 71t-131 204l165 47q18 -87 80.5 -133.5t155.5 -46.5q80 0 135 34.5t53 109.5q-1 24 -8 44t-25 35.5t-34 26.5t-48 22.5t-52.5 18.5t-63 19t-65.5 19q-60 18 -100 36t-82 49t-63 78 t-21 110q0 140 100 211.5t256 71.5q145 0 244.5 -64.5t122.5 -194.5l-155 -38q-17 81 -74.5 120.5t-136.5 39.5q-74 0 -126.5 -32.5t-52.5 -99.5q0 -35 17 -61t51 -43t69 -28t86 -24q14 -3 21 -5q57 -14 95 -26.5t85.5 -37t76.5 -54t49 -77.5t20 -108q0 -62 -20 -112 t-54.5 -83.5t-82.5 -56t-101.5 -32.5t-114.5 -10z" glyph-name="scaron" horiz-adv-x="953" unicode="š"/><glyph d="M610 0h-48l-68 -135q42 7 53 7q87 0 143.5 -53.5t56.5 -137.5q0 -90 -61 -151.5t-151 -61.5q-75 0 -141 38.5t-96 95.5l93 37q21 -32 61.5 -52.5t79.5 -20.5q48 0 81.5 32.5t33.5 82.5q0 51 -33.5 80.5t-86.5 29.5q-41 0 -79 -23l-80 51l92 181h-47v1235h-359v179h914 v-179h-358v-1235z" glyph-name="uni0162" horiz-adv-x="1022" unicode="Ţ"/><glyph d="M578 -128q87 0 143.5 -53.5t56.5 -137.5q0 -90 -61 -151.5t-151 -61.5q-75 0 -141 38.5t-96 95.5l93 37q21 -32 61.5 -52.5t79.5 -20.5q48 0 81.5 32.5t33.5 82.5q0 51 -33.5 80.5t-86.5 29.5q-41 0 -79 -23l-80 51l92 181q-123 2 -193.5 74.5t-70.5 201.5v563h-202v151 h73q78 0 111.5 36t33.5 122v171h177v-329h224v-151h-224v-543q0 -69 36.5 -107t96.5 -38h91v-151h-51l-68 -135q42 7 53 7z" glyph-name="uni0163" horiz-adv-x="717" unicode="ţ"/><glyph d="M578 1558h-135l-214 296h128l153 -207l153 207h129zM968 1414v-179h-358v-1235h-197v1235h-359v179h914z" glyph-name="Tcaron" horiz-adv-x="1022" unicode="Ť"/><glyph d="M555 1202l124 625h200l-184 -625h-140zM486 0q-127 0 -199 72.5t-72 203.5v563h-201v151h72q78 0 111.5 36t33.5 122v171h177v-329h224v-151h-224v-543q0 -70 36.5 -107.5t97.5 -37.5h90v-151h-146z" glyph-name="tcaron" horiz-adv-x="678" unicode="ť"/><glyph d="M968 1235h-358v-464h212v-125h-212v-646h-197v646h-211v125h211v464h-359v179h914v-179z" glyph-name="Tbar" horiz-adv-x="1022" unicode="Ŧ"/><glyph d="M644 839h-224v-280h163v-125h-163v-138q0 -69 36.5 -107t96.5 -38h91v-151h-147q-126 0 -198 72.5t-72 203.5v158h-151v125h151v280h-202v151h73q78 0 111.5 36t33.5 122v171h177v-329h224v-151z" glyph-name="tbar" horiz-adv-x="717" unicode="ŧ"/><glyph d="M849 1555q-62 0 -100 25t-70 68q-18 25 -28.5 37t-30.5 24t-43 12q-50 0 -77.5 -42t-27.5 -109h-104q0 109 56 178t151 69q98 0 166 -90q2 -2 12 -14.5t13 -16t12.5 -13t15.5 -13t15 -9t19 -7.5t21 -2q49 0 75 39.5t26 108.5h107q0 -107 -55.5 -176t-152.5 -69zM706 -19 q-148 0 -264.5 55.5t-186 168.5t-69.5 268v941h199v-913q0 -168 89 -254t232 -86t233.5 86.5t90.5 253.5v913h199v-941q0 -155 -70 -268t-187 -168.5t-266 -55.5z" glyph-name="Utilde" horiz-adv-x="1415" unicode="Ũ"/><glyph d="M470 1294q-40 0 -62.5 -37t-22.5 -96h-104q0 103 50.5 168.5t134.5 65.5q104 0 165 -98q29 -48 78 -48q40 0 61.5 35.5t21.5 95.5h104q0 -102 -49.5 -167.5t-135.5 -65.5q-104 0 -165 97q-33 50 -76 50zM795 990h192v-990h-183l-5 128q-48 -70 -125.5 -108.5 t-174.5 -38.5q-160 0 -253.5 89.5t-93.5 253.5v666h193v-624q0 -114 59 -169.5t151 -55.5q106 0 172.5 66t67.5 199v584z" glyph-name="utilde" horiz-adv-x="1159" unicode="ũ"/><glyph d="M381 1558v121h649v-121h-649zM706 -19q-148 0 -264.5 55.5t-186 168.5t-69.5 268v941h199v-913q0 -168 89 -254t232 -86t233.5 86.5t90.5 253.5v913h199v-941q0 -155 -70 -268t-187 -168.5t-266 -55.5z" glyph-name="Umacron" horiz-adv-x="1415" unicode="Ū"/><glyph d="M906 1302v-121h-649v121h649zM795 990h192v-990h-183l-5 128q-48 -70 -125.5 -108.5t-174.5 -38.5q-160 0 -253.5 89.5t-93.5 253.5v666h193v-624q0 -114 59 -169.5t151 -55.5q106 0 172.5 66t67.5 199v584z" glyph-name="umacron" horiz-adv-x="1159" unicode="ū"/><glyph d="M706 1558q-90 0 -153.5 63.5t-63.5 151.5q0 89 63.5 151.5t153.5 62.5q87 0 149.5 -63t62.5 -151t-62.5 -151.5t-149.5 -63.5zM706 1649q52 0 87.5 35.5t35.5 88.5q0 52 -36 89.5t-87 37.5q-52 0 -88 -37.5t-36 -89.5q0 -54 35.5 -89t88.5 -35zM706 -19 q-148 0 -264.5 55.5t-186 168.5t-69.5 268v941h199v-913q0 -168 89 -254t232 -86t233.5 86.5t90.5 253.5v913h199v-941q0 -155 -70 -268t-187 -168.5t-266 -55.5z" glyph-name="Uring" horiz-adv-x="1415" unicode="Ů"/><glyph d="M582 1120q-90 0 -153.5 63.5t-63.5 151.5q0 89 63.5 151.5t153.5 62.5q87 0 149.5 -63t62.5 -151t-62.5 -151.5t-149.5 -63.5zM582 1462q-52 0 -88 -37.5t-36 -89.5q0 -54 35.5 -89t88.5 -35q52 0 87.5 35.5t35.5 88.5q0 52 -36 89.5t-87 37.5zM795 990h192v-990h-183 l-5 128q-48 -70 -125.5 -108.5t-174.5 -38.5q-160 0 -253.5 89.5t-93.5 253.5v666h193v-624q0 -114 59 -169.5t151 -55.5q106 0 172.5 66t67.5 199v584z" glyph-name="uring" horiz-adv-x="1159" unicode="ů"/><glyph d="M460 1558l253 333l100 -73l-224 -260h-129zM823 1558l253 333l100 -73l-225 -260h-128zM706 -19q-148 0 -264.5 55.5t-186 168.5t-69.5 268v941h199v-913q0 -168 89 -254t232 -86t233.5 86.5t90.5 253.5v913h199v-941q0 -155 -70 -268t-187 -168.5t-266 -55.5z" glyph-name="Uhungarumlaut" horiz-adv-x="1415" unicode="Ű"/><glyph d="M689 1415l-224 -260h-129l253 333zM1052 1415l-225 -260h-128l253 333zM795 406v584h192v-990h-183l-5 128q-48 -70 -125.5 -108.5t-174.5 -38.5q-160 0 -253.5 89.5t-93.5 253.5v666h193v-624q0 -114 59 -169.5t151 -55.5q106 0 172.5 66t67.5 199z" glyph-name="uhungarumlaut" horiz-adv-x="1159" unicode="ű"/><glyph d="M1030 1414h199v-941q0 -167 -78.5 -282.5t-215.5 -169.5q-149 -149 -149 -207q0 -41 73 -41q54 0 96 31v-136q-51 -20 -114 -20q-86 0 -132.5 25.5t-46.5 71.5q0 84 149 244q-54 -8 -105 -8q-148 0 -264.5 55.5t-186 168.5t-69.5 268v941h199v-913q0 -168 89 -254 t232 -86t233.5 86.5t90.5 253.5v913z" glyph-name="Uogonek" horiz-adv-x="1415" unicode="Ų"/><glyph d="M987 0l-9 -9q-160 -159 -160 -218q0 -41 73 -41q54 0 96 31v-136q-51 -20 -114 -20q-86 0 -132.5 25.5t-46.5 71.5q0 95 199 296h-89l-5 128q-48 -70 -125.5 -108.5t-174.5 -38.5q-160 0 -253.5 89.5t-93.5 253.5v666h193v-624q0 -114 59 -169.5t151 -55.5 q106 0 172.5 66t67.5 199v584h192v-990z" glyph-name="uogonek" horiz-adv-x="1159" unicode="ų"/><glyph d="M877 1558h-127l214 296h135l214 -296h-129l-153 205zM465 0l-399 1414h207l326 -1150l346 1150h174l346 -1150l327 1150h206l-399 -1414h-239l-328 1052l-328 -1052h-239z" glyph-name="Wcircumflex" horiz-adv-x="2064" unicode="Ŵ"/><glyph d="M817 1376l-154 -205h-127l214 296h135l214 -296h-129zM1388 990h201l-342 -991h-175l-262 744l-263 -744h-176l-336 991h199l238 -740l263 740h148l263 -739z" glyph-name="wcircumflex" horiz-adv-x="1622" unicode="ŵ"/><glyph d="M606 1763l-154 -205h-127l214 296h135l214 -296h-129zM1172 1414l-465 -740v-674h-201v673l-466 741h226l340 -561l341 561h225z" glyph-name="Ycircumflex" horiz-adv-x="1212" unicode="Ŷ"/><glyph d="M509 1376l-154 -205h-127l214 296h135l214 -296h-129zM789 990h202l-581 -1456h-198l204 491l-389 965h212l273 -750z" glyph-name="ycircumflex" horiz-adv-x="1018" unicode="ŷ"/><glyph d="M416 1536q-51 0 -88.5 37t-37.5 88t37.5 87.5t88.5 36.5t87.5 -36.5t36.5 -87.5t-37 -88t-87 -37zM800 1536q-52 0 -89 36.5t-37 88.5t37 88t89 36q51 0 87.5 -36.5t36.5 -87.5t-37 -88t-87 -37zM1172 1414l-465 -740v-674h-201v673l-466 741h226l340 -561l341 561h225z" glyph-name="Ydieresis" horiz-adv-x="1212" unicode="Ÿ"/><glyph d="M914 1818l-224 -260h-129l253 333zM341 180h799v-180h-1043v161l781 1074h-779v179h1017v-163z" glyph-name="Zacute" horiz-adv-x="1232" unicode="Ź"/><glyph d="M749 1415l-224 -260h-129l253 333zM846 990l-511 -836h509v-154h-794l507 836h-476v154h765z" glyph-name="zacute" horiz-adv-x="908" unicode="ź"/><glyph d="M632 1536q-51 0 -88.5 37t-37.5 88t37.5 87.5t88.5 36.5t87.5 -36.5t36.5 -87.5t-37 -88t-87 -37zM341 180h799v-180h-1043v161l781 1074h-779v179h1017v-163z" glyph-name="Zdotaccent" horiz-adv-x="1232" unicode="Ż"/><glyph d="M467 1209q-51 0 -88.5 37t-37.5 88t37.5 87.5t88.5 36.5t87.5 -36.5t36.5 -87.5q0 -52 -36.5 -88.5t-87.5 -36.5zM846 990l-511 -836h509v-154h-794l507 836h-476v154h765z" glyph-name="zdotaccent" horiz-adv-x="908" unicode="ż"/><glyph d="M698 1558h-135l-214 296h128l153 -207l153 207h129zM341 180h799v-180h-1043v161l781 1074h-779v179h1017v-163z" glyph-name="Zcaron" horiz-adv-x="1232" unicode="Ž"/><glyph d="M533 1171h-135l-214 296h128l153 -206l153 206h129zM846 990l-511 -836h509v-154h-794l507 836h-476v154h765z" glyph-name="zcaron" horiz-adv-x="908" unicode="ž"/><glyph d="M164 -390l195 1223h-173l25 157h173l40 257q19 131 125.5 220t236.5 89q42 0 81.5 -10.5t58.5 -25.5l-17 -147q-41 35 -104 35q-77 0 -133 -51.5t-69 -134.5l-36 -232h285l-25 -157h-284l-197 -1223h-182z" glyph-name="florin" horiz-adv-x="1041" unicode="ƒ"/><glyph d="M1489 1488h115v-118q0 -233 -172 -233q-15 0 -22 1q120 -182 120 -430q0 -166 -54.5 -303.5t-149 -229.5t-224 -143t-278.5 -51q-201 0 -360.5 86.5t-253 253.5t-93.5 387q0 165 54 302.5t149 229.5t224.5 142.5t279.5 50.5q297 0 491 -183q42 -18 81 -18q51 0 72 35.5 t21 114.5v106zM824 168q106 0 198.5 36.5t161 104t108 170.5t39.5 229q0 125 -39.5 227.5t-108 169.5t-161 103.5t-198.5 36.5q-107 0 -199.5 -36.5t-161.5 -103.5t-108.5 -169.5t-39.5 -227.5q0 -126 39.5 -229t108.5 -170.5t161.5 -104t199.5 -36.5z" glyph-name="Ohorn" horiz-adv-x="1647" unicode="Ơ"/><glyph d="M1098 1130h115v-118q0 -233 -172 -233h-10q72 -122 72 -283q0 -234 -142 -374.5t-364 -140.5q-221 0 -364 140.5t-143 374.5t142.5 374t364.5 140q211 0 349 -126q31 -10 59 -10q51 0 72 35.5t21 114.5v106zM595 139q138 0 228 98.5t90 258.5t-90 258t-228 98 q-136 0 -225 -98t-89 -258t89 -258.5t225 -98.5z" glyph-name="ohorn" horiz-adv-x="1193" unicode="ơ"/><glyph d="M1390 1543h115v-118q0 -233 -172 -233q-49 0 -104 20v-739q0 -155 -70 -268t-187 -168.5t-266 -55.5q-148 0 -264.5 55.5t-186 168.5t-69.5 268v941h199v-913q0 -168 89 -254t232 -86t233.5 86.5t90.5 253.5v913h199v-114q36 -13 68 -13q51 0 72 35.5t21 114.5v106z" glyph-name="Uhorn" horiz-adv-x="1415" unicode="Ư"/><glyph d="M1156 1119h115v-118q0 -233 -172 -233q-52 0 -112 23v-791h-183l-5 128q-48 -70 -125.5 -108.5t-174.5 -38.5q-160 0 -253.5 89.5t-93.5 253.5v666h193v-624q0 -114 59 -169.5t151 -55.5q106 0 172.5 66t67.5 199v584h192v-111q41 -16 76 -16q51 0 72 35.5t21 114.5v106z" glyph-name="uhorn" horiz-adv-x="1159" unicode="ư"/><glyph d="M763 1558h-135l-214 296h128l153 -207l153 207h129zM1130 0l-118 330h-632l-118 -330h-207l521 1414h240l521 -1414h-207zM442 504h508l-254 713z" glyph-name="uni01CD" horiz-adv-x="1392" unicode="Ǎ"/><glyph d="M478 1171l-214 296h128l153 -206l153 206h129l-214 -296h-135zM402 -19q-85 0 -151.5 27t-109 89.5t-42.5 154.5q0 75 27.5 130t82 90t117 56t149.5 36l156 27q90 17 90 91q0 95 -60 139.5t-150 44.5q-92 0 -152 -44t-71 -137l-173 35q24 144 127.5 216t277.5 72 q63 0 117 -10t104.5 -35t86 -63.5t57 -99t21.5 -137.5v-401q0 -74 22.5 -100.5t76.5 -26.5h15v-135h-93q-163 0 -192 133h-9q-56 -78 -141.5 -115t-182.5 -37zM446 134q128 0 208.5 91.5t80.5 246.5l-259 -53q-96 -16 -143 -51.5t-47 -100.5q0 -67 44.5 -100t115.5 -33z" glyph-name="uni01CE" horiz-adv-x="1086" unicode="ǎ"/><glyph d="M246 1558l-214 296h128l153 -207l153 207h129l-214 -296h-135zM215 0v1414h199v-1414h-199z" glyph-name="uni01CF" horiz-adv-x="630" unicode="Ǐ"/><glyph d="M201 1171l-214 296h128l153 -206l153 206h129l-214 -296h-135zM172 0v990h193v-990h-193z" glyph-name="uni01D0" horiz-adv-x="537" unicode="ǐ"/><glyph d="M756 1558l-214 296h128l153 -207l153 207h129l-214 -296h-135zM824 -19q-201 0 -360.5 86.5t-253 253.5t-93.5 387q0 165 54 302.5t149 229.5t224.5 142.5t279.5 50.5q149 0 278.5 -50.5t224 -142.5t149 -229.5t54.5 -302.5q0 -166 -54.5 -303.5t-149 -229.5t-224 -143 t-278.5 -51zM824 168q106 0 198.5 36.5t161 104t108 170.5t39.5 229q0 125 -39.5 227.5t-108 169.5t-161 103.5t-198.5 36.5q-107 0 -199.5 -36.5t-161.5 -103.5t-108.5 -169.5t-39.5 -227.5q0 -126 39.5 -229t108.5 -170.5t161.5 -104t199.5 -36.5z" glyph-name="uni01D1" horiz-adv-x="1647" unicode="Ǒ"/><glyph d="M529 1171l-214 296h128l153 -206l153 206h129l-214 -296h-135zM597 -19q-221 0 -364 140.5t-143 374.5t142.5 374t364.5 140t364 -140t142 -374t-142 -374.5t-364 -140.5zM595 139q138 0 228 98.5t90 258.5t-90 258t-228 98q-136 0 -225 -98t-89 -258t89 -258.5 t225 -98.5z" glyph-name="uni01D2" horiz-adv-x="1193" unicode="ǒ"/><glyph d="M638 1558l-214 296h128l153 -207l153 207h129l-214 -296h-135zM706 -19q-148 0 -264.5 55.5t-186 168.5t-69.5 268v941h199v-913q0 -168 89 -254t232 -86t233.5 86.5t90.5 253.5v913h199v-941q0 -155 -70 -268t-187 -168.5t-266 -55.5z" glyph-name="uni01D3" horiz-adv-x="1415" unicode="Ǔ"/><glyph d="M649 1171h-135l-214 296h128l153 -206l153 206h129zM795 990h192v-990h-183l-5 128q-48 -70 -125.5 -108.5t-174.5 -38.5q-160 0 -253.5 89.5t-93.5 253.5v666h193v-624q0 -114 59 -169.5t151 -55.5q106 0 172.5 66t67.5 199v584z" glyph-name="uni01D4" horiz-adv-x="1159" unicode="ǔ"/><glyph d="M381 1929v121h649v-121h-649zM515 1536q-51 0 -88.5 37t-37.5 88t37.5 87.5t88.5 36.5t87.5 -36.5t36.5 -87.5t-36.5 -88t-87.5 -37zM899 1536q-52 0 -89 36.5t-37 88.5t37 88t89 36q51 0 87.5 -36.5t36.5 -87.5t-36.5 -88t-87.5 -37zM706 -19q-148 0 -264.5 55.5 t-186 168.5t-69.5 268v941h199v-913q0 -168 89 -254t232 -86t233.5 86.5t90.5 253.5v913h199v-941q0 -155 -70 -268t-187 -168.5t-266 -55.5z" glyph-name="uni01D5" horiz-adv-x="1415" unicode="Ǖ"/><glyph d="M906 1749v-121h-649v121h649zM265 1334q0 51 37.5 87.5t88.5 36.5t87.5 -36.5t36.5 -87.5q0 -52 -36.5 -88.5t-87.5 -36.5t-88.5 37t-37.5 88zM649 1334q0 52 37 88t89 36q51 0 87.5 -36.5t36.5 -87.5q0 -52 -36.5 -88.5t-87.5 -36.5q-52 0 -89 36.5t-37 88.5zM795 990 h192v-990h-183l-5 128q-48 -70 -125.5 -108.5t-174.5 -38.5q-160 0 -253.5 89.5t-93.5 253.5v666h193v-624q0 -114 59 -169.5t151 -55.5q106 0 172.5 66t67.5 199v584z" glyph-name="uni01D6" horiz-adv-x="1159" unicode="ǖ"/><glyph d="M636 1929l253 333l100 -73l-224 -260h-129zM515 1536q-51 0 -88.5 37t-37.5 88t37.5 87.5t88.5 36.5t87.5 -36.5t36.5 -87.5t-36.5 -88t-87.5 -37zM899 1536q-52 0 -89 36.5t-37 88.5t37 88t89 36q51 0 87.5 -36.5t36.5 -87.5t-36.5 -88t-87.5 -37zM706 -19 q-148 0 -264.5 55.5t-186 168.5t-69.5 268v941h199v-913q0 -168 89 -254t232 -86t233.5 86.5t90.5 253.5v913h199v-941q0 -155 -70 -268t-187 -168.5t-266 -55.5z" glyph-name="uni01D7" horiz-adv-x="1415" unicode="Ǘ"/><glyph d="M865 1862l-224 -260h-129l253 333zM391 1209q-51 0 -88.5 37t-37.5 88t37.5 87.5t88.5 36.5t87.5 -36.5t36.5 -87.5q0 -52 -36.5 -88.5t-87.5 -36.5zM775 1458q51 0 87.5 -36.5t36.5 -87.5q0 -52 -36.5 -88.5t-87.5 -36.5q-52 0 -89 36.5t-37 88.5t37 88t89 36zM795 990 h192v-990h-183l-5 128q-48 -70 -125.5 -108.5t-174.5 -38.5q-160 0 -253.5 89.5t-93.5 253.5v666h193v-624q0 -114 59 -169.5t151 -55.5q106 0 172.5 66t67.5 199v584z" glyph-name="uni01D8" horiz-adv-x="1159" unicode="ǘ"/><glyph d="M638 1929l-214 296h128l153 -207l153 207h129l-214 -296h-135zM515 1536q-51 0 -88.5 37t-37.5 88t37.5 87.5t88.5 36.5t87.5 -36.5t36.5 -87.5t-36.5 -88t-87.5 -37zM899 1536q-52 0 -89 36.5t-37 88.5t37 88t89 36q51 0 87.5 -36.5t36.5 -87.5t-36.5 -88t-87.5 -37z M706 -19q-148 0 -264.5 55.5t-186 168.5t-69.5 268v941h199v-913q0 -168 89 -254t232 -86t233.5 86.5t90.5 253.5v913h199v-941q0 -155 -70 -268t-187 -168.5t-266 -55.5z" glyph-name="uni01D9" horiz-adv-x="1415" unicode="Ǚ"/><glyph d="M649 1618h-135l-214 296h128l153 -206l153 206h129zM391 1209q-51 0 -88.5 37t-37.5 88t37.5 87.5t88.5 36.5t87.5 -36.5t36.5 -87.5q0 -52 -36.5 -88.5t-87.5 -36.5zM775 1458q51 0 87.5 -36.5t36.5 -87.5q0 -52 -36.5 -88.5t-87.5 -36.5q-52 0 -89 36.5t-37 88.5t37 88 t89 36zM795 990h192v-990h-183l-5 128q-48 -70 -125.5 -108.5t-174.5 -38.5q-160 0 -253.5 89.5t-93.5 253.5v666h193v-624q0 -114 59 -169.5t151 -55.5q106 0 172.5 66t67.5 199v584z" glyph-name="uni01DA" horiz-adv-x="1159" unicode="ǚ"/><glyph d="M642 1929l-224 260l100 73l253 -333h-129zM515 1536q-51 0 -88.5 37t-37.5 88t37.5 87.5t88.5 36.5t87.5 -36.5t36.5 -87.5t-36.5 -88t-87.5 -37zM899 1536q-52 0 -89 36.5t-37 88.5t37 88t89 36q51 0 87.5 -36.5t36.5 -87.5t-36.5 -88t-87.5 -37zM706 -19 q-148 0 -264.5 55.5t-186 168.5t-69.5 268v941h199v-913q0 -168 89 -254t232 -86t233.5 86.5t90.5 253.5v913h199v-941q0 -155 -70 -268t-187 -168.5t-266 -55.5z" glyph-name="uni01DB" horiz-adv-x="1415" unicode="Ǜ"/><glyph d="M647 1602h-129l-224 260l100 73zM391 1209q-51 0 -88.5 37t-37.5 88t37.5 87.5t88.5 36.5t87.5 -36.5t36.5 -87.5q0 -52 -36.5 -88.5t-87.5 -36.5zM775 1209q-52 0 -89 36.5t-37 88.5t37 88t89 36q51 0 87.5 -36.5t36.5 -87.5q0 -52 -36.5 -88.5t-87.5 -36.5zM795 990 h192v-990h-183l-5 128q-48 -70 -125.5 -108.5t-174.5 -38.5q-160 0 -253.5 89.5t-93.5 253.5v666h193v-624q0 -114 59 -169.5t151 -55.5q106 0 172.5 66t67.5 199v584z" glyph-name="uni01DC" horiz-adv-x="1159" unicode="ǜ"/><glyph d="M658 -19q-223 0 -373 101t-186 280l203 48q24 -122 122 -191t241 -69q59 0 110 12.5t93.5 39t66.5 73t23 107.5q-1 48 -24.5 86.5t-46.5 61t-87.5 49t-92 34.5t-113.5 32q-9 3 -13 4q-57 16 -94 27t-88 30.5t-83.5 39t-68.5 49t-56.5 63t-34 80t-13.5 100.5 q0 77 24.5 142t68 111t103.5 78.5t130 48t148 15.5q96 0 180.5 -20.5t155.5 -62t121 -109t69 -156.5l-193 -49q-25 113 -112.5 170t-211.5 57q-75 0 -136.5 -21t-104 -73t-42.5 -129q0 -31 10 -57t24.5 -45t43 -37.5t51 -30t64.5 -25.5t68 -21.5t76 -20.5q91 -25 139.5 -40 t125 -50t116 -74t71 -104t31.5 -147q0 -83 -27 -151.5t-74 -115.5t-111.5 -79t-138 -46.5t-154.5 -14.5zM490 -561l-100 45l161 367h174z" glyph-name="Scommaaccent" horiz-adv-x="1275" unicode="Ș"/><glyph d="M491 -19q-163 0 -271 71t-131 204l165 47q18 -87 80.5 -133.5t155.5 -46.5q80 0 135 34.5t53 109.5q-1 24 -8 44t-25 35.5t-34 26.5t-48 22.5t-52.5 18.5t-63 19t-65.5 19q-60 18 -100 36t-82 49t-63 78t-21 110q0 140 100 211.5t256 71.5q145 0 244.5 -64.5 t122.5 -194.5l-155 -38q-17 81 -74.5 120.5t-136.5 39.5q-74 0 -126.5 -32.5t-52.5 -99.5q0 -35 17 -61t51 -43t69 -28t86 -24q14 -3 21 -5q57 -14 95 -26.5t85.5 -37t76.5 -54t49 -77.5t20 -108q0 -62 -20 -112t-54.5 -83.5t-82.5 -56t-101.5 -32.5t-114.5 -10zM332 -560 l-100 45l161 367h174z" glyph-name="scommaaccent" horiz-adv-x="953" unicode="ș"/><glyph d="M968 1414v-179h-358v-1235h-197v1235h-359v179h914zM262 -516l161 367h174l-235 -412z" glyph-name="uni021A" horiz-adv-x="1022" unicode="Ț"/><glyph d="M497 0q-126 0 -198 72.5t-72 203.5v563h-202v151h73q78 0 111.5 36t33.5 122v171h177v-329h224v-151h-224v-543q0 -69 36.5 -107t96.5 -38h91v-151h-147zM393 -561l-100 45l161 367h174z" glyph-name="uni021B" horiz-adv-x="717" unicode="ț"/><glyph d="M-52 -463v160q136 0 180 64.5t44 256.5v972h194v-972q0 -262 -95 -371.5t-323 -109.5z" glyph-name="uni0237" horiz-adv-x="538" unicode="ȷ"/><glyph d="M195 1240h-127l214 296h135l214 -296h-129l-153 205z" glyph-name="circumflex" horiz-adv-x="699" unicode="ˆ"/><glyph d="M285 1240l-214 296h128l153 -206l153 206h129l-214 -296h-135z" glyph-name="caron" horiz-adv-x="705" unicode="ˇ"/><glyph d="M449 1213q-152 0 -247.5 87t-95.5 236h124q0 -99 60.5 -162t158.5 -63q100 0 160.5 63t60.5 162h124q0 -149 -96 -236t-249 -87z" glyph-name="breve" horiz-adv-x="902" unicode="˘"/><glyph d="M262 1209q-51 0 -88.5 37t-37.5 88t37.5 87.5t88.5 36.5t87.5 -36.5t36.5 -87.5q0 -52 -37 -88.5t-87 -36.5z" glyph-name="dotaccent" horiz-adv-x="524" unicode="˙"/><glyph d="M336 1154q-90 0 -153.5 63.5t-63.5 151.5q0 89 63.5 151.5t153.5 62.5q87 0 149.5 -63t62.5 -151t-62.5 -151.5t-149.5 -63.5zM336 1245q52 0 87.5 35.5t35.5 88.5q0 52 -36 89.5t-87 37.5q-52 0 -88 -37.5t-36 -89.5q0 -54 35.5 -89t88.5 -35z" glyph-name="ring" horiz-adv-x="669" unicode="˚"/><glyph d="M271 -393q-86 0 -132.5 25.5t-46.5 71.5q0 101 227 324l66 -28l-9 -9q-160 -159 -160 -218q0 -41 73 -41q54 0 96 31v-136q-51 -20 -114 -20z" glyph-name="ogonek" horiz-adv-x="521" unicode="˛"/><glyph d="M561 1147q-104 0 -165 97q-33 50 -76 50q-40 0 -62.5 -37t-22.5 -96h-104q0 103 50.5 168.5t134.5 65.5q104 0 165 -98q29 -48 78 -48q40 0 61.5 35.5t21.5 95.5h104q0 -102 -49.5 -167.5t-135.5 -65.5z" glyph-name="tilde" horiz-adv-x="878" unicode="˜"/><glyph d="M56 1224l253 333l100 -73l-224 -260h-129zM419 1224l253 333l100 -73l-225 -260h-128z" glyph-name="hungarumlaut" horiz-adv-x="846" unicode="˝"/><glyph d="M-185 1224l-224 260l100 73l253 -333h-129z" glyph-name="gravecomb" unicode="̀"/><glyph d="M-427 1224l253 333l100 -73l-224 -260h-129z" glyph-name="acutecomb" unicode="́"/><glyph d="M-504 1240h-127l214 296h135l214 -296h-129l-153 205z" glyph-name="uni0302" unicode="̂"/><glyph d="M-317 1147q-104 0 -165 97q-33 50 -76 50q-40 0 -62.5 -37t-22.5 -96h-104q0 103 50.5 168.5t134.5 65.5q104 0 165 -98q29 -48 78 -48q40 0 61.5 35.5t21.5 95.5h104q0 -102 -49.5 -167.5t-135.5 -65.5z" glyph-name="tildecomb" unicode="̃"/><glyph d="M-817 1250v121h649v-121h-649z" glyph-name="uni0304" unicode="̄"/><glyph d="M-453 1213q-152 0 -247.5 87t-95.5 236h124q0 -99 60.5 -162t158.5 -63q100 0 160.5 63t60.5 162h124q0 -149 -96 -236t-249 -87z" glyph-name="uni0306" unicode="̆"/><glyph d="M-262 1209q-51 0 -88.5 37t-37.5 88t37.5 87.5t88.5 36.5t87.5 -36.5t36.5 -87.5q0 -52 -37 -88.5t-87 -36.5z" glyph-name="uni0307" unicode="̇"/><glyph d="M-645 1209q-51 0 -88.5 37t-37.5 88t37.5 87.5t88.5 36.5t87.5 -36.5t36.5 -87.5q0 -52 -36.5 -88.5t-87.5 -36.5zM-261 1209q-52 0 -89 36.5t-37 88.5t37 88t89 36q51 0 87.5 -36.5t36.5 -87.5q0 -52 -36.5 -88.5t-87.5 -36.5z" glyph-name="uni0308" unicode="̈"/><glyph d="M-340 1153v122q117 24 117 107q0 36 -22 59.5t-62 23.5q-45 0 -86 -33l-54 74q61 50 144 50t134.5 -47t51.5 -122q0 -117 -129 -157v-77h-94z" glyph-name="hookabovecomb" unicode="̉"/><glyph d="M-333 1154q-90 0 -153.5 63.5t-63.5 151.5q0 89 63.5 151.5t153.5 62.5q87 0 149.5 -63t62.5 -151t-62.5 -151.5t-149.5 -63.5zM-333 1245q52 0 87.5 35.5t35.5 88.5q0 52 -36 89.5t-87 37.5q-52 0 -88 -37.5t-36 -89.5q0 -54 35.5 -89t88.5 -35z" glyph-name="uni030A" unicode="̊"/><glyph d="M-790 1224l253 333l100 -73l-224 -260h-129zM-427 1224l253 333l100 -73l-225 -260h-128z" glyph-name="uni030B" unicode="̋"/><glyph d="M-420 1240l-214 296h128l153 -206l153 206h129l-214 -296h-135z" glyph-name="uni030C" unicode="̌"/><glyph d="M-251 1529h140l-123 -310h-200z" glyph-name="uni0312" unicode="̒"/><glyph d="M-320 785q-90 0 -182 57l45 66q52 -28 101 -28q51 0 72 35.5t21 114.5v106h115v-118q0 -233 -172 -233z" glyph-name="uni031B" unicode="̛"/><glyph d="M-262 -512q-51 0 -88.5 36.5t-37.5 88.5q0 51 37.5 87.5t88.5 36.5q50 0 87 -36.5t37 -87.5q0 -52 -36.5 -88.5t-87.5 -36.5z" glyph-name="dotbelowcomb" unicode="̣"/><glyph d="M-301 -561l-100 45l161 367h174z" glyph-name="uni0326" unicode="̦"/><glyph d="M-301 -532q-75 0 -141 38.5t-96 95.5l93 37q21 -32 61.5 -52.5t79.5 -20.5q48 0 81.5 32.5t33.5 82.5q0 51 -33.5 80.5t-86.5 29.5q-41 0 -79 -23l-80 51l112 220h101l-87 -174q42 7 53 7q87 0 143.5 -53.5t56.5 -137.5q0 -90 -61 -151.5t-151 -61.5z" glyph-name="uni0327" unicode="̧"/><glyph d="M-250 -393q-86 0 -132.5 25.5t-46.5 71.5q0 101 227 324l66 -28l-9 -9q-160 -159 -160 -218q0 -41 73 -41q54 0 96 31v-136q-51 -20 -114 -20z" glyph-name="uni0328" unicode="̨"/><glyph d="M-788 466v125h620v-125h-620z" glyph-name="uni0335" unicode="̵"/><glyph d="M-1642 485v95h1474v-95h-1474z" glyph-name="uni0336" unicode="̶"/><glyph d="M-615 270v137l557 416v-138z" glyph-name="uni0337" unicode="̷"/><glyph d="M-904 211l810 1163l91 -55l-811 -1162z" glyph-name="uni0338" unicode="̸"/><glyph d="M878 1536l616 -1536h-1442l616 1536h210zM325 179h895l-447 1146z" glyph-name="uni0394" horiz-adv-x="1546" unicode="Δ"/><glyph d="M120 0v166h362v3q-60 44 -114 108t-100.5 146t-74 185t-27.5 211q0 152 56 287t154 232t238.5 153.5t302.5 56.5q138 0 259 -41.5t207.5 -112.5t149.5 -164t93.5 -197t30.5 -210q0 -210 -94 -385.5t-231 -271.5h370v-166h-630v134q75 40 139.5 100t117.5 141.5t83.5 189 t30.5 228.5q0 91 -21.5 177t-66 160t-106 129.5t-146.5 87.5t-184 32q-235 0 -386.5 -164.5t-151.5 -424.5q0 -156 54.5 -292.5t136 -225.5t179.5 -138v-134h-631z" glyph-name="uni03A9" horiz-adv-x="1823" unicode="Ω"/><glyph d="M849 998h192v-998h-192v133q-54 -71 -132.5 -111t-167.5 -40q-133 0 -236 84v-512h-143v1444h192v-604q0 -102 69.5 -173t169.5 -71q104 0 176 71t72 173v604z" glyph-name="uni03BC" horiz-adv-x="1211" unicode="μ"/><glyph d="M150 0q57 146 100.5 386.5t49.5 431.5q-170 0 -244 -30l-21 123q88 54 315 54h886l-16 -147h-174v-529q0 -193 30 -289h-177q-33 55 -33 272v546h-388q-11 -195 -54.5 -447t-97.5 -371h-176z" glyph-name="pi" horiz-adv-x="1266" unicode="π"/><glyph d="M968 1558l-224 260l100 73l253 -333h-129zM465 0l-399 1414h207l326 -1150l346 1150h174l346 -1150l327 1150h206l-399 -1414h-239l-328 1052l-328 -1052h-239z" glyph-name="Wgrave" horiz-adv-x="2064" unicode="Ẁ"/><glyph d="M883 1155h-129l-224 260l100 73zM1388 990h201l-342 -991h-175l-262 744l-263 -744h-176l-336 991h199l238 -740l263 740h148l263 -739z" glyph-name="wgrave" horiz-adv-x="1622" unicode="ẁ"/><glyph d="M962 1558l253 333l100 -73l-224 -260h-129zM465 0l-399 1414h207l326 -1150l346 1150h174l346 -1150l327 1150h206l-399 -1414h-239l-328 1052l-328 -1052h-239z" glyph-name="Wacute" horiz-adv-x="2064" unicode="Ẃ"/><glyph d="M1101 1415l-224 -260h-129l253 333zM1388 990h201l-342 -991h-175l-262 744l-263 -744h-176l-336 991h199l238 -740l263 740h148l263 -739z" glyph-name="wacute" horiz-adv-x="1622" unicode="ẃ"/><glyph d="M841 1536q-51 0 -88.5 37t-37.5 88t37.5 87.5t88.5 36.5t87.5 -36.5t36.5 -87.5t-36.5 -88t-87.5 -37zM1225 1536q-52 0 -89 36.5t-37 88.5t37 88t89 36q51 0 87.5 -36.5t36.5 -87.5t-36.5 -88t-87.5 -37zM465 0l-399 1414h207l326 -1150l346 1150h174l346 -1150 l327 1150h206l-399 -1414h-239l-328 1052l-328 -1052h-239z" glyph-name="Wdieresis" horiz-adv-x="2064" unicode="Ẅ"/><glyph d="M627 1209q-51 0 -88.5 37t-37.5 88t37.5 87.5t88.5 36.5t87.5 -36.5t36.5 -87.5q0 -52 -36.5 -88.5t-87.5 -36.5zM1011 1209q-52 0 -89 36.5t-37 88.5t37 88t89 36q51 0 87.5 -36.5t36.5 -87.5q0 -52 -36.5 -88.5t-87.5 -36.5zM1388 990h201l-342 -991h-175l-262 744 l-263 -744h-176l-336 991h199l238 -740l263 740h148l263 -739z" glyph-name="wdieresis" horiz-adv-x="1622" unicode="ẅ"/><glyph d="M1337 0h-207l-118 330h-632l-118 -330h-207l521 1414h240zM442 504h508l-254 713zM697 -263q50 0 87 -36.5t37 -87.5q0 -52 -36.5 -88.5t-87.5 -36.5t-88.5 36.5t-37.5 88.5q0 51 37.5 87.5t88.5 36.5z" glyph-name="uni1EA0" horiz-adv-x="1392" unicode="Ạ"/><glyph d="M402 -19q-85 0 -151.5 27t-109 89.5t-42.5 154.5q0 75 27.5 130t82 90t117 56t149.5 36l156 27q90 17 90 91q0 95 -60 139.5t-150 44.5q-92 0 -152 -44t-71 -137l-173 35q24 144 127.5 216t277.5 72q63 0 117 -10t104.5 -35t86 -63.5t57 -99t21.5 -137.5v-401 q0 -74 22.5 -100.5t76.5 -26.5h15v-135h-93q-163 0 -192 133h-9q-56 -78 -141.5 -115t-182.5 -37zM446 134q128 0 208.5 91.5t80.5 246.5l-259 -53q-96 -16 -143 -51.5t-47 -100.5q0 -67 44.5 -100t115.5 -33zM545 -512q-51 0 -88.5 36.5t-37.5 88.5q0 51 37.5 87.5 t88.5 36.5q50 0 87 -36.5t37 -87.5q0 -52 -36.5 -88.5t-87.5 -36.5z" glyph-name="uni1EA1" horiz-adv-x="1086" unicode="ạ"/><glyph d="M684 1848q-46 0 -86 -33l-54 74q62 51 144 51q83 0 134.5 -47.5t51.5 -122.5q0 -117 -129 -156v-78h-94v122q117 24 117 108q0 35 -22 58.5t-62 23.5zM1130 0l-118 330h-632l-118 -330h-207l521 1414h240l521 -1414h-207zM442 504h508l-254 713z" glyph-name="uni1EA2" horiz-adv-x="1392" unicode="Ả"/><glyph d="M501 1084v122q117 24 117 107q0 36 -22 59.5t-62 23.5q-46 0 -86 -33l-54 74q61 50 144 50t134.5 -47t51.5 -122q0 -117 -129 -157v-77h-94zM402 -19q-85 0 -151.5 27t-109 89.5t-42.5 154.5q0 75 27.5 130t82 90t117 56t149.5 36l156 27q90 17 90 91q0 95 -60 139.5 t-150 44.5q-92 0 -152 -44t-71 -137l-173 35q24 144 127.5 216t277.5 72q63 0 117 -10t104.5 -35t86 -63.5t57 -99t21.5 -137.5v-401q0 -74 22.5 -100.5t76.5 -26.5h15v-135h-93q-163 0 -192 133h-9q-56 -78 -141.5 -115t-182.5 -37zM446 134q128 0 208.5 91.5t80.5 246.5 l-259 -53q-96 -16 -143 -51.5t-47 -100.5q0 -67 44.5 -100t115.5 -33z" glyph-name="uni1EA3" horiz-adv-x="1086" unicode="ả"/><glyph d="M978 2212l-224 -260h-129l253 333zM695 1763l-154 -205h-127l214 296h135l214 -296h-129zM1130 0l-118 330h-632l-118 -330h-207l521 1414h240l521 -1414h-207zM442 504h508l-254 713z" glyph-name="uni1EA4" horiz-adv-x="1392" unicode="Ấ"/><glyph d="M475 1632l253 333l100 -73l-224 -260h-129zM391 1171h-127l214 296h135l214 -296h-129l-153 205zM402 -19q-85 0 -151.5 27t-109 89.5t-42.5 154.5q0 75 27.5 130t82 90t117 56t149.5 36l156 27q90 17 90 91q0 95 -60 139.5t-150 44.5q-92 0 -152 -44t-71 -137l-173 35 q24 144 127.5 216t277.5 72q63 0 117 -10t104.5 -35t86 -63.5t57 -99t21.5 -137.5v-401q0 -74 22.5 -100.5t76.5 -26.5h15v-135h-93q-163 0 -192 133h-9q-56 -78 -141.5 -115t-182.5 -37zM446 134q128 0 208.5 91.5t80.5 246.5l-259 -53q-96 -16 -143 -51.5t-47 -100.5 q0 -67 44.5 -100t115.5 -33z" glyph-name="uni1EA5" horiz-adv-x="1086" unicode="ấ"/><glyph d="M760 1952h-129l-224 260l100 73zM414 1558l214 296h135l214 -296h-129l-153 205l-154 -205h-127zM1130 0l-118 330h-632l-118 -330h-207l521 1414h240l521 -1414h-207zM442 504h508l-254 713z" glyph-name="uni1EA6" horiz-adv-x="1392" unicode="Ầ"/><glyph d="M481 1632l-224 260l100 73l253 -333h-129zM391 1171h-127l214 296h135l214 -296h-129l-153 205zM402 -19q-85 0 -151.5 27t-109 89.5t-42.5 154.5q0 75 27.5 130t82 90t117 56t149.5 36l156 27q90 17 90 91q0 95 -60 139.5t-150 44.5q-92 0 -152 -44t-71 -137l-173 35 q24 144 127.5 216t277.5 72q63 0 117 -10t104.5 -35t86 -63.5t57 -99t21.5 -137.5v-401q0 -74 22.5 -100.5t76.5 -26.5h15v-135h-93q-163 0 -192 133h-9q-56 -78 -141.5 -115t-182.5 -37zM446 134q128 0 208.5 91.5t80.5 246.5l-259 -53q-96 -16 -143 -51.5t-47 -100.5 q0 -67 44.5 -100t115.5 -33z" glyph-name="uni1EA7" horiz-adv-x="1086" unicode="ầ"/><glyph d="M683 2242q-46 0 -86 -33l-54 74q62 51 144 51q83 0 134.5 -47.5t51.5 -122.5q0 -117 -129 -156v-78h-94v122q117 24 117 108q0 35 -22 58.5t-62 23.5zM695 1763l-154 -205h-127l214 296h135l214 -296h-129zM1130 0l-118 330h-632l-118 -330h-207l521 1414h240l521 -1414 h-207zM442 504h508l-254 713z" glyph-name="uni1EA8" horiz-adv-x="1392" unicode="Ẩ"/><glyph d="M500 1561v122q117 24 117 107q0 36 -22 59.5t-62 23.5q-45 0 -86 -33l-54 74q61 50 144 50t134.5 -47t51.5 -122q0 -117 -129 -157v-77h-94zM391 1171h-127l214 296h135l214 -296h-129l-153 205zM402 -19q-85 0 -151.5 27t-109 89.5t-42.5 154.5q0 75 27.5 130t82 90 t117 56t149.5 36l156 27q90 17 90 91q0 95 -60 139.5t-150 44.5q-92 0 -152 -44t-71 -137l-173 35q24 144 127.5 216t277.5 72q63 0 117 -10t104.5 -35t86 -63.5t57 -99t21.5 -137.5v-401q0 -74 22.5 -100.5t76.5 -26.5h15v-135h-93q-163 0 -192 133h-9q-56 -78 -141.5 -115 t-182.5 -37zM446 134q128 0 208.5 91.5t80.5 246.5l-259 -53q-96 -16 -143 -51.5t-47 -100.5q0 -67 44.5 -100t115.5 -33z" glyph-name="uni1EA9" horiz-adv-x="1086" unicode="ẩ"/><glyph d="M566 2115q-50 0 -77.5 -42t-27.5 -109h-104q0 109 56 178t151 69q98 0 166 -90q2 -2 12 -14.5t13 -16t12.5 -13t15.5 -13t15 -9t19 -7.5t21 -2q49 0 75 39.5t26 108.5h107q0 -107 -55.5 -176t-152.5 -69q-62 0 -100 25t-70 68q-18 25 -28.5 37t-30.5 24t-43 12zM628 1854 h135l214 -296h-129l-153 205l-154 -205h-127zM1130 0l-118 330h-632l-118 -330h-207l521 1414h240l521 -1414h-207zM442 504h508l-254 713z" glyph-name="uni1EAA" horiz-adv-x="1392" unicode="Ẫ"/><glyph d="M674 1624q-104 0 -165 97q-33 50 -76 50q-40 0 -62.5 -37t-22.5 -96h-104q0 103 50.5 168.5t134.5 65.5q104 0 165 -98q29 -48 78 -48q40 0 61.5 35.5t21.5 95.5h104q0 -102 -49.5 -167.5t-135.5 -65.5zM391 1171h-127l214 296h135l214 -296h-129l-153 205zM402 -19 q-85 0 -151.5 27t-109 89.5t-42.5 154.5q0 75 27.5 130t82 90t117 56t149.5 36l156 27q90 17 90 91q0 95 -60 139.5t-150 44.5q-92 0 -152 -44t-71 -137l-173 35q24 144 127.5 216t277.5 72q63 0 117 -10t104.5 -35t86 -63.5t57 -99t21.5 -137.5v-401q0 -74 22.5 -100.5 t76.5 -26.5h15v-135h-93q-163 0 -192 133h-9q-56 -78 -141.5 -115t-182.5 -37zM446 134q128 0 208.5 91.5t80.5 246.5l-259 -53q-96 -16 -143 -51.5t-47 -100.5q0 -67 44.5 -100t115.5 -33z" glyph-name="uni1EAB" horiz-adv-x="1086" unicode="ẫ"/><glyph d="M695 1763l-154 -205h-127l214 296h135l214 -296h-129zM1337 0h-207l-118 330h-632l-118 -330h-207l521 1414h240zM442 504h508l-254 713zM697 -263q50 0 87 -36.5t37 -87.5q0 -52 -36.5 -88.5t-87.5 -36.5t-88.5 36.5t-37.5 88.5q0 51 37.5 87.5t88.5 36.5z" glyph-name="uni1EAC" horiz-adv-x="1392" unicode="Ậ"/><glyph d="M391 1171h-127l214 296h135l214 -296h-129l-153 205zM402 -19q-85 0 -151.5 27t-109 89.5t-42.5 154.5q0 75 27.5 130t82 90t117 56t149.5 36l156 27q90 17 90 91q0 95 -60 139.5t-150 44.5q-92 0 -152 -44t-71 -137l-173 35q24 144 127.5 216t277.5 72q63 0 117 -10 t104.5 -35t86 -63.5t57 -99t21.5 -137.5v-401q0 -74 22.5 -100.5t76.5 -26.5h15v-135h-93q-163 0 -192 133h-9q-56 -78 -141.5 -115t-182.5 -37zM446 134q128 0 208.5 91.5t80.5 246.5l-259 -53q-96 -16 -143 -51.5t-47 -100.5q0 -67 44.5 -100t115.5 -33zM545 -512 q-51 0 -88.5 36.5t-37.5 88.5q0 51 37.5 87.5t88.5 36.5q50 0 87 -36.5t37 -87.5q0 -52 -36.5 -88.5t-87.5 -36.5z" glyph-name="uni1EAD" horiz-adv-x="1086" unicode="ậ"/><glyph d="M980 2165l-224 -260h-129l253 333zM695 1558q-157 0 -250 67.5t-93 206.5h117q0 -89 61 -132.5t165 -43.5q105 0 166.5 43.5t61.5 132.5h117q0 -139 -93 -206.5t-252 -67.5zM1130 0l-118 330h-632l-118 -330h-207l521 1414h240l521 -1414h-207zM442 504h508l-254 713z" glyph-name="uni1EAE" horiz-adv-x="1392" unicode="Ắ"/><glyph d="M476 1632l253 333l100 -73l-224 -260h-129zM545 1144q-152 0 -247.5 87t-95.5 236h124q0 -99 60.5 -162t158.5 -63q100 0 160.5 63t60.5 162h124q0 -149 -96 -236t-249 -87zM402 -19q-85 0 -151.5 27t-109 89.5t-42.5 154.5q0 75 27.5 130t82 90t117 56t149.5 36l156 27 q90 17 90 91q0 95 -60 139.5t-150 44.5q-92 0 -152 -44t-71 -137l-173 35q24 144 127.5 216t277.5 72q63 0 117 -10t104.5 -35t86 -63.5t57 -99t21.5 -137.5v-401q0 -74 22.5 -100.5t76.5 -26.5h15v-135h-93q-163 0 -192 133h-9q-56 -78 -141.5 -115t-182.5 -37zM446 134 q128 0 208.5 91.5t80.5 246.5l-259 -53q-96 -16 -143 -51.5t-47 -100.5q0 -67 44.5 -100t115.5 -33z" glyph-name="uni1EAF" horiz-adv-x="1086" unicode="ắ"/><glyph d="M762 1905h-129l-224 260l100 73zM695 1558q-157 0 -250 67.5t-93 206.5h117q0 -89 61 -132.5t165 -43.5q105 0 166.5 43.5t61.5 132.5h117q0 -139 -93 -206.5t-252 -67.5zM1130 0l-118 330h-632l-118 -330h-207l521 1414h240l521 -1414h-207zM442 504h508l-254 713z" glyph-name="uni1EB0" horiz-adv-x="1392" unicode="Ằ"/><glyph d="M482 1632l-224 260l100 73l253 -333h-129zM545 1144q-152 0 -247.5 87t-95.5 236h124q0 -99 60.5 -162t158.5 -63q100 0 160.5 63t60.5 162h124q0 -149 -96 -236t-249 -87zM402 -19q-85 0 -151.5 27t-109 89.5t-42.5 154.5q0 75 27.5 130t82 90t117 56t149.5 36l156 27 q90 17 90 91q0 95 -60 139.5t-150 44.5q-92 0 -152 -44t-71 -137l-173 35q24 144 127.5 216t277.5 72q63 0 117 -10t104.5 -35t86 -63.5t57 -99t21.5 -137.5v-401q0 -74 22.5 -100.5t76.5 -26.5h15v-135h-93q-163 0 -192 133h-9q-56 -78 -141.5 -115t-182.5 -37zM446 134 q128 0 208.5 91.5t80.5 246.5l-259 -53q-96 -16 -143 -51.5t-47 -100.5q0 -67 44.5 -100t115.5 -33z" glyph-name="uni1EB1" horiz-adv-x="1086" unicode="ằ"/><glyph d="M685 2195q-45 0 -86 -33l-54 74q62 51 144 51q83 0 134.5 -47.5t51.5 -122.5q0 -117 -129 -156v-78h-94v122q117 24 117 108q0 35 -22 58.5t-62 23.5zM695 1558q-157 0 -250 67.5t-93 206.5h117q0 -89 61 -132.5t165 -43.5q105 0 166.5 43.5t61.5 132.5h117 q0 -139 -93 -206.5t-252 -67.5zM1130 0l-118 330h-632l-118 -330h-207l521 1414h240l521 -1414h-207zM442 504h508l-254 713z" glyph-name="uni1EB2" horiz-adv-x="1392" unicode="Ẳ"/><glyph d="M501 1561v122q117 24 117 107q0 36 -22 59.5t-62 23.5q-46 0 -86 -33l-54 74q61 50 144 50t134.5 -47t51.5 -122q0 -117 -129 -157v-77h-94zM545 1144q-152 0 -247.5 87t-95.5 236h124q0 -99 60.5 -162t158.5 -63q100 0 160.5 63t60.5 162h124q0 -149 -96 -236t-249 -87z M402 -19q-85 0 -151.5 27t-109 89.5t-42.5 154.5q0 75 27.5 130t82 90t117 56t149.5 36l156 27q90 17 90 91q0 95 -60 139.5t-150 44.5q-92 0 -152 -44t-71 -137l-173 35q24 144 127.5 216t277.5 72q63 0 117 -10t104.5 -35t86 -63.5t57 -99t21.5 -137.5v-401 q0 -74 22.5 -100.5t76.5 -26.5h15v-135h-93q-163 0 -192 133h-9q-56 -78 -141.5 -115t-182.5 -37zM446 134q128 0 208.5 91.5t80.5 246.5l-259 -53q-96 -16 -143 -51.5t-47 -100.5q0 -67 44.5 -100t115.5 -33z" glyph-name="uni1EB3" horiz-adv-x="1086" unicode="ẳ"/><glyph d="M568 2068q-50 0 -77.5 -42t-27.5 -109h-104q0 109 56 178t151 69q98 0 166 -90q2 -2 12 -14.5t13 -16t12.5 -13t15.5 -13t15 -9t19 -7.5t21 -2q49 0 75 39.5t26 108.5h107q0 -107 -55.5 -176t-152.5 -69q-62 0 -100 25t-70 68q-18 25 -28.5 37t-30.5 24t-43 12zM695 1558 q-157 0 -250 67.5t-93 206.5h117q0 -89 61 -132.5t165 -43.5q105 0 166.5 43.5t61.5 132.5h117q0 -139 -93 -206.5t-252 -67.5zM1130 0l-118 330h-632l-118 -330h-207l521 1414h240l521 -1414h-207zM442 504h508l-254 713z" glyph-name="uni1EB4" horiz-adv-x="1392" unicode="Ẵ"/><glyph d="M675 1624q-104 0 -165 97q-33 50 -76 50q-40 0 -62.5 -37t-22.5 -96h-104q0 103 50.5 168.5t134.5 65.5q104 0 165 -98q29 -48 78 -48q40 0 61.5 35.5t21.5 95.5h104q0 -102 -49.5 -167.5t-135.5 -65.5zM545 1144q-152 0 -247.5 87t-95.5 236h124q0 -99 60.5 -162 t158.5 -63q100 0 160.5 63t60.5 162h124q0 -149 -96 -236t-249 -87zM402 -19q-85 0 -151.5 27t-109 89.5t-42.5 154.5q0 75 27.5 130t82 90t117 56t149.5 36l156 27q90 17 90 91q0 95 -60 139.5t-150 44.5q-92 0 -152 -44t-71 -137l-173 35q24 144 127.5 216t277.5 72 q63 0 117 -10t104.5 -35t86 -63.5t57 -99t21.5 -137.5v-401q0 -74 22.5 -100.5t76.5 -26.5h15v-135h-93q-163 0 -192 133h-9q-56 -78 -141.5 -115t-182.5 -37zM446 134q128 0 208.5 91.5t80.5 246.5l-259 -53q-96 -16 -143 -51.5t-47 -100.5q0 -67 44.5 -100t115.5 -33z" glyph-name="uni1EB5" horiz-adv-x="1086" unicode="ẵ"/><glyph d="M695 1558q-157 0 -250 67.5t-93 206.5h117q0 -89 61 -132.5t165 -43.5q105 0 166.5 43.5t61.5 132.5h117q0 -139 -93 -206.5t-252 -67.5zM1337 0h-207l-118 330h-632l-118 -330h-207l521 1414h240zM442 504h508l-254 713zM697 -263q50 0 87 -36.5t37 -87.5 q0 -52 -36.5 -88.5t-87.5 -36.5t-88.5 36.5t-37.5 88.5q0 51 37.5 87.5t88.5 36.5z" glyph-name="uni1EB6" horiz-adv-x="1392" unicode="Ặ"/><glyph d="M545 1144q-152 0 -247.5 87t-95.5 236h124q0 -99 60.5 -162t158.5 -63q100 0 160.5 63t60.5 162h124q0 -149 -96 -236t-249 -87zM402 -19q-85 0 -151.5 27t-109 89.5t-42.5 154.5q0 75 27.5 130t82 90t117 56t149.5 36l156 27q90 17 90 91q0 95 -60 139.5t-150 44.5 q-92 0 -152 -44t-71 -137l-173 35q24 144 127.5 216t277.5 72q63 0 117 -10t104.5 -35t86 -63.5t57 -99t21.5 -137.5v-401q0 -74 22.5 -100.5t76.5 -26.5h15v-135h-93q-163 0 -192 133h-9q-56 -78 -141.5 -115t-182.5 -37zM446 134q128 0 208.5 91.5t80.5 246.5l-259 -53 q-96 -16 -143 -51.5t-47 -100.5q0 -67 44.5 -100t115.5 -33zM545 -512q-51 0 -88.5 36.5t-37.5 88.5q0 51 37.5 87.5t88.5 36.5q50 0 87 -36.5t37 -87.5q0 -52 -36.5 -88.5t-87.5 -36.5z" glyph-name="uni1EB7" horiz-adv-x="1086" unicode="ặ"/><glyph d="M984 1235h-566v-440h499v-178h-499v-437h566v-180h-769v1414h769v-179zM604 -263q50 0 87 -36.5t37 -87.5q0 -52 -36.5 -88.5t-87.5 -36.5t-88.5 36.5t-37.5 88.5q0 51 37.5 87.5t88.5 36.5z" glyph-name="uni1EB8" horiz-adv-x="1106" unicode="Ẹ"/><glyph d="M1050 514l-3 -51h-767q5 -157 92 -241t217 -84q88 0 158 45t108 126l174 -34q-52 -137 -169.5 -215.5t-268.5 -78.5q-224 0 -361.5 137.5t-137.5 376.5q0 238 138 376.5t355 138.5q210 0 337 -127t128 -369zM586 864q-118 0 -197 -64.5t-101 -190.5h569q-12 125 -85 190 t-186 65zM600 -264q50 0 87 -36.5t37 -87.5q0 -52 -36.5 -88.5t-87.5 -36.5t-88.5 36.5t-37.5 88.5q0 51 37.5 87.5t88.5 36.5z" glyph-name="uni1EB9" horiz-adv-x="1140" unicode="ẹ"/><glyph d="M591 1848q-45 0 -86 -33l-54 74q62 51 144 51q83 0 134.5 -47.5t51.5 -122.5q0 -117 -129 -156v-78h-94v122q117 24 117 108q0 35 -22 58.5t-62 23.5zM984 1235h-566v-440h499v-178h-499v-437h566v-180h-769v1414h769v-179z" glyph-name="uni1EBA" horiz-adv-x="1106" unicode="Ẻ"/><glyph d="M579 1400q-45 0 -86 -33l-54 74q61 50 144 50t134.5 -47t51.5 -122q0 -117 -129 -157v-77h-94v122q117 24 117 107q0 36 -22 59.5t-62 23.5zM1050 514l-3 -51h-767q5 -157 92 -241t217 -84q88 0 158 45t108 126l174 -34q-52 -137 -169.5 -215.5t-268.5 -78.5 q-224 0 -361.5 137.5t-137.5 376.5q0 238 138 376.5t355 138.5q210 0 337 -127t128 -369zM586 864q-118 0 -197 -64.5t-101 -190.5h569q-12 125 -85 190t-186 65z" glyph-name="uni1EBB" horiz-adv-x="1140" unicode="ẻ"/><glyph d="M474 1721q-50 0 -77.5 -42t-27.5 -109h-104q0 109 56 178t151 69q98 0 166 -90q2 -2 12 -14.5t13 -16t12.5 -13t15.5 -13t15 -9t19 -7.5t21 -2q49 0 75 39.5t26 108.5h107q0 -107 -55.5 -176t-152.5 -69q-62 0 -100 25t-70 68q-18 25 -28.5 37t-30.5 24t-43 12zM984 1235 h-566v-440h499v-178h-499v-437h566v-180h-769v1414h769v-179z" glyph-name="uni1EBC" horiz-adv-x="1106" unicode="Ẽ"/><glyph d="M479 1298q-40 0 -62.5 -37t-22.5 -96h-104q0 103 50.5 168.5t134.5 65.5q104 0 165 -98q29 -48 78 -48q40 0 61.5 35.5t21.5 95.5h104q0 -102 -49.5 -167.5t-135.5 -65.5q-104 0 -165 97q-33 50 -76 50zM1050 514l-3 -51h-767q5 -157 92 -241t217 -84q88 0 158 45 t108 126l174 -34q-52 -137 -169.5 -215.5t-268.5 -78.5q-224 0 -361.5 137.5t-137.5 376.5q0 238 138 376.5t355 138.5q210 0 337 -127t128 -369zM586 864q-118 0 -197 -64.5t-101 -190.5h569q-12 125 -85 190t-186 65z" glyph-name="uni1EBD" horiz-adv-x="1140" unicode="ẽ"/><glyph d="M885 2212l-224 -260h-129l253 333zM602 1763l-154 -205h-127l214 296h135l214 -296h-129zM984 1235h-566v-440h499v-178h-499v-437h566v-180h-769v1414h769v-179z" glyph-name="uni1EBE" horiz-adv-x="1106" unicode="Ế"/><glyph d="M873 1896l-224 -260h-129l253 333zM590 1380l-154 -205h-127l214 296h135l214 -296h-129zM1050 514l-3 -51h-767q5 -157 92 -241t217 -84q88 0 158 45t108 126l174 -34q-52 -137 -169.5 -215.5t-268.5 -78.5q-224 0 -361.5 137.5t-137.5 376.5q0 238 138 376.5t355 138.5 q210 0 337 -127t128 -369zM586 864q-118 0 -197 -64.5t-101 -190.5h569q-12 125 -85 190t-186 65z" glyph-name="uni1EBF" horiz-adv-x="1140" unicode="ế"/><glyph d="M667 1952h-129l-224 260l100 73zM321 1558l214 296h135l214 -296h-129l-153 205l-154 -205h-127zM984 1235h-566v-440h499v-178h-499v-437h566v-180h-769v1414h769v-179z" glyph-name="uni1EC0" horiz-adv-x="1106" unicode="Ề"/><glyph d="M655 1636h-129l-224 260l100 73zM309 1175l214 296h135l214 -296h-129l-153 205l-154 -205h-127zM1050 514l-3 -51h-767q5 -157 92 -241t217 -84q88 0 158 45t108 126l174 -34q-52 -137 -169.5 -215.5t-268.5 -78.5q-224 0 -361.5 137.5t-137.5 376.5q0 238 138 376.5 t355 138.5q210 0 337 -127t128 -369zM586 864q-118 0 -197 -64.5t-101 -190.5h569q-12 125 -85 190t-186 65z" glyph-name="uni1EC1" horiz-adv-x="1140" unicode="ề"/><glyph d="M590 2242q-46 0 -86 -33l-54 74q62 51 144 51q83 0 134.5 -47.5t51.5 -122.5q0 -117 -129 -156v-78h-94v122q117 24 117 108q0 35 -22 58.5t-62 23.5zM602 1763l-154 -205h-127l214 296h135l214 -296h-129zM984 1235h-566v-440h499v-178h-499v-437h566v-180h-769v1414 h769v-179z" glyph-name="uni1EC2" horiz-adv-x="1106" unicode="Ể"/><glyph d="M578 1877q-46 0 -86 -33l-54 74q61 50 144 50t134.5 -47t51.5 -122q0 -117 -129 -157v-77h-94v122q117 24 117 107q0 36 -22 59.5t-62 23.5zM590 1380l-154 -205h-127l214 296h135l214 -296h-129zM1050 514l-3 -51h-767q5 -157 92 -241t217 -84q88 0 158 45t108 126 l174 -34q-52 -137 -169.5 -215.5t-268.5 -78.5q-224 0 -361.5 137.5t-137.5 376.5q0 238 138 376.5t355 138.5q210 0 337 -127t128 -369zM586 864q-118 0 -197 -64.5t-101 -190.5h569q-12 125 -85 190t-186 65z" glyph-name="uni1EC3" horiz-adv-x="1140" unicode="ể"/><glyph d="M473 2115q-50 0 -77.5 -42t-27.5 -109h-104q0 109 56 178t151 69q98 0 166 -90q2 -2 12 -14.5t13 -16t12.5 -13t15.5 -13t15 -9t19 -7.5t21 -2q49 0 75 39.5t26 108.5h107q0 -107 -55.5 -176t-152.5 -69q-62 0 -100 25t-70 68q-18 25 -28.5 37t-30.5 24t-43 12zM535 1854 h135l214 -296h-129l-153 205l-154 -205h-127zM984 1235h-566v-440h499v-178h-499v-437h566v-180h-769v1414h769v-179z" glyph-name="uni1EC4" horiz-adv-x="1106" unicode="Ễ"/><glyph d="M478 1775q-40 0 -62.5 -37t-22.5 -96h-104q0 103 50.5 168.5t134.5 65.5q104 0 165 -98q29 -48 78 -48q40 0 61.5 35.5t21.5 95.5h104q0 -102 -49.5 -167.5t-135.5 -65.5q-104 0 -165 97q-33 50 -76 50zM523 1471h135l214 -296h-129l-153 205l-154 -205h-127zM1050 514 l-3 -51h-767q5 -157 92 -241t217 -84q88 0 158 45t108 126l174 -34q-52 -137 -169.5 -215.5t-268.5 -78.5q-224 0 -361.5 137.5t-137.5 376.5q0 238 138 376.5t355 138.5q210 0 337 -127t128 -369zM586 864q-118 0 -197 -64.5t-101 -190.5h569q-12 125 -85 190t-186 65z" glyph-name="uni1EC5" horiz-adv-x="1140" unicode="ễ"/><glyph d="M602 1763l-154 -205h-127l214 296h135l214 -296h-129zM984 1235h-566v-440h499v-178h-499v-437h566v-180h-769v1414h769v-179zM604 -263q50 0 87 -36.5t37 -87.5q0 -52 -36.5 -88.5t-87.5 -36.5t-88.5 36.5t-37.5 88.5q0 51 37.5 87.5t88.5 36.5z" glyph-name="uni1EC6" horiz-adv-x="1106" unicode="Ệ"/><glyph d="M590 1380l-154 -205h-127l214 296h135l214 -296h-129zM1050 514l-3 -51h-767q5 -157 92 -241t217 -84q88 0 158 45t108 126l174 -34q-52 -137 -169.5 -215.5t-268.5 -78.5q-224 0 -361.5 137.5t-137.5 376.5q0 238 138 376.5t355 138.5q210 0 337 -127t128 -369zM586 864 q-118 0 -197 -64.5t-101 -190.5h569q-12 125 -85 190t-186 65zM600 -264q50 0 87 -36.5t37 -87.5q0 -52 -36.5 -88.5t-87.5 -36.5t-88.5 36.5t-37.5 88.5q0 51 37.5 87.5t88.5 36.5z" glyph-name="uni1EC7" horiz-adv-x="1140" unicode="ệ"/><glyph d="M269 1536v122q117 24 117 108q0 35 -22 58.5t-62 23.5q-46 0 -86 -33l-54 74q62 51 144 51q83 0 134.5 -47.5t51.5 -122.5q0 -117 -129 -156v-78h-94zM215 0v1414h199v-1414h-199z" glyph-name="uni1EC8" horiz-adv-x="630" unicode="Ỉ"/><glyph d="M224 1084v122q117 24 117 107q0 36 -22 59.5t-62 23.5q-45 0 -86 -33l-54 74q61 50 144 50t134.5 -47t51.5 -122q0 -117 -129 -157v-77h-94zM172 0v990h193v-990h-193z" glyph-name="uni1EC9" horiz-adv-x="537" unicode="ỉ"/><glyph d="M215 0v1414h199v-1414h-199zM315 -512q-51 0 -88.5 36.5t-37.5 88.5q0 51 37.5 87.5t88.5 36.5q50 0 87 -36.5t37 -87.5q0 -52 -36.5 -88.5t-87.5 -36.5z" glyph-name="uni1ECA" horiz-adv-x="630" unicode="Ị"/><glyph d="M270 1209q-51 0 -88.5 37t-37.5 88t37.5 87.5t88.5 36.5t87.5 -36.5t36.5 -87.5q0 -52 -37 -88.5t-87 -36.5zM172 0v990h193v-990h-193zM270 -512q-51 0 -88.5 36.5t-37.5 88.5q0 51 37.5 87.5t88.5 36.5q50 0 87 -36.5t37 -87.5q0 -52 -36.5 -88.5t-87.5 -36.5z" glyph-name="uni1ECB" horiz-adv-x="537" unicode="ị"/><glyph d="M824 -19q-201 0 -360.5 86.5t-253 253.5t-93.5 387q0 165 54 302.5t149 229.5t224.5 142.5t279.5 50.5q149 0 278.5 -50.5t224 -142.5t149 -229.5t54.5 -302.5q0 -166 -54.5 -303.5t-149 -229.5t-224 -143t-278.5 -51zM824 168q106 0 198.5 36.5t161 104t108 170.5 t39.5 229q0 125 -39.5 227.5t-108 169.5t-161 103.5t-198.5 36.5q-107 0 -199.5 -36.5t-161.5 -103.5t-108.5 -169.5t-39.5 -227.5q0 -126 39.5 -229t108.5 -170.5t161.5 -104t199.5 -36.5zM825 -512q-51 0 -88.5 36.5t-37.5 88.5q0 51 37.5 87.5t88.5 36.5q50 0 87 -36.5 t37 -87.5q0 -52 -36.5 -88.5t-87.5 -36.5z" glyph-name="uni1ECC" horiz-adv-x="1647" unicode="Ọ"/><glyph d="M597 -19q-221 0 -364 140.5t-143 374.5t142.5 374t364.5 140t364 -140t142 -374t-142 -374.5t-364 -140.5zM595 139q138 0 228 98.5t90 258.5t-90 258t-228 98q-136 0 -225 -98t-89 -258t89 -258.5t225 -98.5zM598 -512q-51 0 -88.5 36.5t-37.5 88.5q0 51 37.5 87.5 t88.5 36.5q50 0 87 -36.5t37 -87.5q0 -52 -36.5 -88.5t-87.5 -36.5z" glyph-name="uni1ECD" horiz-adv-x="1193" unicode="ọ"/><glyph d="M779 1536v122q117 24 117 108q0 35 -22 58.5t-62 23.5q-46 0 -86 -33l-54 74q62 51 144 51q83 0 134.5 -47.5t51.5 -122.5q0 -117 -129 -156v-78h-94zM824 -19q-201 0 -360.5 86.5t-253 253.5t-93.5 387q0 165 54 302.5t149 229.5t224.5 142.5t279.5 50.5 q149 0 278.5 -50.5t224 -142.5t149 -229.5t54.5 -302.5q0 -166 -54.5 -303.5t-149 -229.5t-224 -143t-278.5 -51zM824 168q106 0 198.5 36.5t161 104t108 170.5t39.5 229q0 125 -39.5 227.5t-108 169.5t-161 103.5t-198.5 36.5q-107 0 -199.5 -36.5t-161.5 -103.5 t-108.5 -169.5t-39.5 -227.5q0 -126 39.5 -229t108.5 -170.5t161.5 -104t199.5 -36.5z" glyph-name="uni1ECE" horiz-adv-x="1647" unicode="Ỏ"/><glyph d="M552 1084v122q117 24 117 107q0 36 -22 59.5t-62 23.5q-45 0 -86 -33l-54 74q61 50 144 50t134.5 -47t51.5 -122q0 -117 -129 -157v-77h-94zM597 -19q-221 0 -364 140.5t-143 374.5t142.5 374t364.5 140t364 -140t142 -374t-142 -374.5t-364 -140.5zM595 139 q138 0 228 98.5t90 258.5t-90 258t-228 98q-136 0 -225 -98t-89 -258t89 -258.5t225 -98.5z" glyph-name="uni1ECF" horiz-adv-x="1193" unicode="ỏ"/><glyph d="M753 1952l253 333l100 -73l-224 -260h-129zM669 1558h-127l214 296h135l214 -296h-129l-153 205zM824 -19q-201 0 -360.5 86.5t-253 253.5t-93.5 387q0 165 54 302.5t149 229.5t224.5 142.5t279.5 50.5q149 0 278.5 -50.5t224 -142.5t149 -229.5t54.5 -302.5 q0 -166 -54.5 -303.5t-149 -229.5t-224 -143t-278.5 -51zM824 168q106 0 198.5 36.5t161 104t108 170.5t39.5 229q0 125 -39.5 227.5t-108 169.5t-161 103.5t-198.5 36.5q-107 0 -199.5 -36.5t-161.5 -103.5t-108.5 -169.5t-39.5 -227.5q0 -126 39.5 -229t108.5 -170.5 t161.5 -104t199.5 -36.5z" glyph-name="uni1ED0" horiz-adv-x="1647" unicode="Ố"/><glyph d="M526 1632l253 333l100 -73l-224 -260h-129zM442 1171h-127l214 296h135l214 -296h-129l-153 205zM597 -19q-221 0 -364 140.5t-143 374.5t142.5 374t364.5 140t364 -140t142 -374t-142 -374.5t-364 -140.5zM595 139q138 0 228 98.5t90 258.5t-90 258t-228 98 q-136 0 -225 -98t-89 -258t89 -258.5t225 -98.5z" glyph-name="uni1ED1" horiz-adv-x="1193" unicode="ố"/><glyph d="M759 1952l-224 260l100 73l253 -333h-129zM669 1558h-127l214 296h135l214 -296h-129l-153 205zM824 -19q-201 0 -360.5 86.5t-253 253.5t-93.5 387q0 165 54 302.5t149 229.5t224.5 142.5t279.5 50.5q149 0 278.5 -50.5t224 -142.5t149 -229.5t54.5 -302.5 q0 -166 -54.5 -303.5t-149 -229.5t-224 -143t-278.5 -51zM824 168q106 0 198.5 36.5t161 104t108 170.5t39.5 229q0 125 -39.5 227.5t-108 169.5t-161 103.5t-198.5 36.5q-107 0 -199.5 -36.5t-161.5 -103.5t-108.5 -169.5t-39.5 -227.5q0 -126 39.5 -229t108.5 -170.5 t161.5 -104t199.5 -36.5z" glyph-name="uni1ED2" horiz-adv-x="1647" unicode="Ồ"/><glyph d="M532 1632l-224 260l100 73l253 -333h-129zM442 1171h-127l214 296h135l214 -296h-129l-153 205zM597 -19q-221 0 -364 140.5t-143 374.5t142.5 374t364.5 140t364 -140t142 -374t-142 -374.5t-364 -140.5zM595 139q138 0 228 98.5t90 258.5t-90 258t-228 98 q-136 0 -225 -98t-89 -258t89 -258.5t225 -98.5z" glyph-name="uni1ED3" horiz-adv-x="1193" unicode="ồ"/><glyph d="M778 1930v122q117 24 117 108q0 35 -22 58.5t-62 23.5q-45 0 -86 -33l-54 74q62 51 144 51q83 0 134.5 -47.5t51.5 -122.5q0 -117 -129 -156v-78h-94zM669 1558h-127l214 296h135l214 -296h-129l-153 205zM824 -19q-201 0 -360.5 86.5t-253 253.5t-93.5 387 q0 165 54 302.5t149 229.5t224.5 142.5t279.5 50.5q149 0 278.5 -50.5t224 -142.5t149 -229.5t54.5 -302.5q0 -166 -54.5 -303.5t-149 -229.5t-224 -143t-278.5 -51zM824 168q106 0 198.5 36.5t161 104t108 170.5t39.5 229q0 125 -39.5 227.5t-108 169.5t-161 103.5 t-198.5 36.5q-107 0 -199.5 -36.5t-161.5 -103.5t-108.5 -169.5t-39.5 -227.5q0 -126 39.5 -229t108.5 -170.5t161.5 -104t199.5 -36.5z" glyph-name="uni1ED4" horiz-adv-x="1647" unicode="Ổ"/><glyph d="M551 1561v122q117 24 117 107q0 36 -22 59.5t-62 23.5q-46 0 -86 -33l-54 74q61 50 144 50t134.5 -47t51.5 -122q0 -117 -129 -157v-77h-94zM442 1171h-127l214 296h135l214 -296h-129l-153 205zM597 -19q-221 0 -364 140.5t-143 374.5t142.5 374t364.5 140t364 -140 t142 -374t-142 -374.5t-364 -140.5zM595 139q138 0 228 98.5t90 258.5t-90 258t-228 98q-136 0 -225 -98t-89 -258t89 -258.5t225 -98.5z" glyph-name="uni1ED5" horiz-adv-x="1193" unicode="ổ"/><glyph d="M966 1949q-62 0 -100 25t-70 68q-18 25 -28.5 37t-30.5 24t-43 12q-50 0 -77.5 -42t-27.5 -109h-104q0 109 56 178t151 69q98 0 166 -90q2 -2 12 -14.5t13 -16t12.5 -13t15.5 -13t15 -9t19 -7.5t21 -2q49 0 75 39.5t26 108.5h107q0 -107 -55.5 -176t-152.5 -69zM669 1558 h-127l214 296h135l214 -296h-129l-153 205zM824 -19q-201 0 -360.5 86.5t-253 253.5t-93.5 387q0 165 54 302.5t149 229.5t224.5 142.5t279.5 50.5q149 0 278.5 -50.5t224 -142.5t149 -229.5t54.5 -302.5q0 -166 -54.5 -303.5t-149 -229.5t-224 -143t-278.5 -51zM824 168 q106 0 198.5 36.5t161 104t108 170.5t39.5 229q0 125 -39.5 227.5t-108 169.5t-161 103.5t-198.5 36.5q-107 0 -199.5 -36.5t-161.5 -103.5t-108.5 -169.5t-39.5 -227.5q0 -126 39.5 -229t108.5 -170.5t161.5 -104t199.5 -36.5z" glyph-name="uni1ED6" horiz-adv-x="1647" unicode="Ỗ"/><glyph d="M725 1624q-104 0 -165 97q-33 50 -76 50q-40 0 -62.5 -37t-22.5 -96h-104q0 103 50.5 168.5t134.5 65.5q104 0 165 -98q29 -48 78 -48q40 0 61.5 35.5t21.5 95.5h104q0 -102 -49.5 -167.5t-135.5 -65.5zM442 1171h-127l214 296h135l214 -296h-129l-153 205zM597 -19 q-221 0 -364 140.5t-143 374.5t142.5 374t364.5 140t364 -140t142 -374t-142 -374.5t-364 -140.5zM595 139q138 0 228 98.5t90 258.5t-90 258t-228 98q-136 0 -225 -98t-89 -258t89 -258.5t225 -98.5z" glyph-name="uni1ED7" horiz-adv-x="1193" unicode="ỗ"/><glyph d="M669 1558h-127l214 296h135l214 -296h-129l-153 205zM824 -19q-201 0 -360.5 86.5t-253 253.5t-93.5 387q0 165 54 302.5t149 229.5t224.5 142.5t279.5 50.5q149 0 278.5 -50.5t224 -142.5t149 -229.5t54.5 -302.5q0 -166 -54.5 -303.5t-149 -229.5t-224 -143t-278.5 -51 zM824 168q106 0 198.5 36.5t161 104t108 170.5t39.5 229q0 125 -39.5 227.5t-108 169.5t-161 103.5t-198.5 36.5q-107 0 -199.5 -36.5t-161.5 -103.5t-108.5 -169.5t-39.5 -227.5q0 -126 39.5 -229t108.5 -170.5t161.5 -104t199.5 -36.5zM825 -512q-51 0 -88.5 36.5 t-37.5 88.5q0 51 37.5 87.5t88.5 36.5q50 0 87 -36.5t37 -87.5q0 -52 -36.5 -88.5t-87.5 -36.5z" glyph-name="uni1ED8" horiz-adv-x="1647" unicode="Ộ"/><glyph d="M442 1171h-127l214 296h135l214 -296h-129l-153 205zM597 -19q-221 0 -364 140.5t-143 374.5t142.5 374t364.5 140t364 -140t142 -374t-142 -374.5t-364 -140.5zM595 139q138 0 228 98.5t90 258.5t-90 258t-228 98q-136 0 -225 -98t-89 -258t89 -258.5t225 -98.5z M598 -512q-51 0 -88.5 36.5t-37.5 88.5q0 51 37.5 87.5t88.5 36.5q50 0 87 -36.5t37 -87.5q0 -52 -36.5 -88.5t-87.5 -36.5z" glyph-name="uni1ED9" horiz-adv-x="1193" unicode="ộ"/><glyph d="M1107 1818l-224 -260h-129l253 333zM1489 1488h115v-118q0 -233 -172 -233q-15 0 -22 1q120 -182 120 -430q0 -166 -54.5 -303.5t-149 -229.5t-224 -143t-278.5 -51q-201 0 -360.5 86.5t-253 253.5t-93.5 387q0 165 54 302.5t149 229.5t224.5 142.5t279.5 50.5 q297 0 491 -183q42 -18 81 -18q51 0 72 35.5t21 114.5v106zM824 168q106 0 198.5 36.5t161 104t108 170.5t39.5 229q0 125 -39.5 227.5t-108 169.5t-161 103.5t-198.5 36.5q-107 0 -199.5 -36.5t-161.5 -103.5t-108.5 -169.5t-39.5 -227.5q0 -126 39.5 -229t108.5 -170.5 t161.5 -104t199.5 -36.5z" glyph-name="uni1EDA" horiz-adv-x="1647" unicode="Ớ"/><glyph d="M880 1415l-224 -260h-129l253 333zM1098 1130h115v-118q0 -233 -172 -233h-10q72 -122 72 -283q0 -234 -142 -374.5t-364 -140.5q-221 0 -364 140.5t-143 374.5t142.5 374t364.5 140q211 0 349 -126q31 -10 59 -10q51 0 72 35.5t21 114.5v106zM595 139q138 0 228 98.5 t90 258.5t-90 258t-228 98q-136 0 -225 -98t-89 -258t89 -258.5t225 -98.5z" glyph-name="uni1EDB" horiz-adv-x="1193" unicode="ớ"/><glyph d="M889 1558h-129l-224 260l100 73zM1489 1488h115v-118q0 -233 -172 -233q-15 0 -22 1q120 -182 120 -430q0 -166 -54.5 -303.5t-149 -229.5t-224 -143t-278.5 -51q-201 0 -360.5 86.5t-253 253.5t-93.5 387q0 165 54 302.5t149 229.5t224.5 142.5t279.5 50.5 q297 0 491 -183q42 -18 81 -18q51 0 72 35.5t21 114.5v106zM824 168q106 0 198.5 36.5t161 104t108 170.5t39.5 229q0 125 -39.5 227.5t-108 169.5t-161 103.5t-198.5 36.5q-107 0 -199.5 -36.5t-161.5 -103.5t-108.5 -169.5t-39.5 -227.5q0 -126 39.5 -229t108.5 -170.5 t161.5 -104t199.5 -36.5z" glyph-name="uni1EDC" horiz-adv-x="1647" unicode="Ờ"/><glyph d="M662 1155h-129l-224 260l100 73zM1098 1130h115v-118q0 -233 -172 -233h-10q72 -122 72 -283q0 -234 -142 -374.5t-364 -140.5q-221 0 -364 140.5t-143 374.5t142.5 374t364.5 140q211 0 349 -126q31 -10 59 -10q51 0 72 35.5t21 114.5v106zM595 139q138 0 228 98.5 t90 258.5t-90 258t-228 98q-136 0 -225 -98t-89 -258t89 -258.5t225 -98.5z" glyph-name="uni1EDD" horiz-adv-x="1193" unicode="ờ"/><glyph d="M812 1848q-46 0 -86 -33l-54 74q62 51 144 51q83 0 134.5 -47.5t51.5 -122.5q0 -117 -129 -156v-78h-94v122q117 24 117 108q0 35 -22 58.5t-62 23.5zM1489 1488h115v-118q0 -233 -172 -233q-15 0 -22 1q120 -182 120 -430q0 -166 -54.5 -303.5t-149 -229.5t-224 -143 t-278.5 -51q-201 0 -360.5 86.5t-253 253.5t-93.5 387q0 165 54 302.5t149 229.5t224.5 142.5t279.5 50.5q297 0 491 -183q42 -18 81 -18q51 0 72 35.5t21 114.5v106zM824 168q106 0 198.5 36.5t161 104t108 170.5t39.5 229q0 125 -39.5 227.5t-108 169.5t-161 103.5 t-198.5 36.5q-107 0 -199.5 -36.5t-161.5 -103.5t-108.5 -169.5t-39.5 -227.5q0 -126 39.5 -229t108.5 -170.5t161.5 -104t199.5 -36.5z" glyph-name="uni1EDE" horiz-adv-x="1647" unicode="Ở"/><glyph d="M585 1396q-45 0 -86 -33l-54 74q61 50 144 50t134.5 -47t51.5 -122q0 -117 -129 -157v-77h-94v122q117 24 117 107q0 36 -22 59.5t-62 23.5zM1098 1130h115v-118q0 -233 -172 -233h-10q72 -122 72 -283q0 -234 -142 -374.5t-364 -140.5q-221 0 -364 140.5t-143 374.5 t142.5 374t364.5 140q211 0 349 -126q31 -10 59 -10q51 0 72 35.5t21 114.5v106zM595 139q138 0 228 98.5t90 258.5t-90 258t-228 98q-136 0 -225 -98t-89 -258t89 -258.5t225 -98.5z" glyph-name="uni1EDF" horiz-adv-x="1193" unicode="ở"/><glyph d="M695 1721q-50 0 -77.5 -42t-27.5 -109h-104q0 109 56 178t151 69q98 0 166 -90q2 -2 12 -14.5t13 -16t12.5 -13t15.5 -13t15 -9t19 -7.5t21 -2q49 0 75 39.5t26 108.5h107q0 -107 -55.5 -176t-152.5 -69q-62 0 -100 25t-70 68q-18 25 -28.5 37t-30.5 24t-43 12z M1489 1488h115v-118q0 -233 -172 -233q-15 0 -22 1q120 -182 120 -430q0 -166 -54.5 -303.5t-149 -229.5t-224 -143t-278.5 -51q-201 0 -360.5 86.5t-253 253.5t-93.5 387q0 165 54 302.5t149 229.5t224.5 142.5t279.5 50.5q297 0 491 -183q42 -18 81 -18q51 0 72 35.5 t21 114.5v106zM824 168q106 0 198.5 36.5t161 104t108 170.5t39.5 229q0 125 -39.5 227.5t-108 169.5t-161 103.5t-198.5 36.5q-107 0 -199.5 -36.5t-161.5 -103.5t-108.5 -169.5t-39.5 -227.5q0 -126 39.5 -229t108.5 -170.5t161.5 -104t199.5 -36.5z" glyph-name="uni1EE0" horiz-adv-x="1647" unicode="Ỡ"/><glyph d="M485 1294q-40 0 -62.5 -37t-22.5 -96h-104q0 103 50.5 168.5t134.5 65.5q104 0 165 -98q29 -48 78 -48q40 0 61.5 35.5t21.5 95.5h104q0 -102 -49.5 -167.5t-135.5 -65.5q-104 0 -165 97q-33 50 -76 50zM1098 1130h115v-118q0 -233 -172 -233h-10q72 -122 72 -283 q0 -234 -142 -374.5t-364 -140.5q-221 0 -364 140.5t-143 374.5t142.5 374t364.5 140q211 0 349 -126q31 -10 59 -10q51 0 72 35.5t21 114.5v106zM595 139q138 0 228 98.5t90 258.5t-90 258t-228 98q-136 0 -225 -98t-89 -258t89 -258.5t225 -98.5z" glyph-name="uni1EE1" horiz-adv-x="1193" unicode="ỡ"/><glyph d="M1489 1488h115v-118q0 -233 -172 -233q-15 0 -22 1q120 -182 120 -430q0 -166 -54.5 -303.5t-149 -229.5t-224 -143t-278.5 -51q-201 0 -360.5 86.5t-253 253.5t-93.5 387q0 165 54 302.5t149 229.5t224.5 142.5t279.5 50.5q297 0 491 -183q42 -18 81 -18q51 0 72 35.5 t21 114.5v106zM824 168q106 0 198.5 36.5t161 104t108 170.5t39.5 229q0 125 -39.5 227.5t-108 169.5t-161 103.5t-198.5 36.5q-107 0 -199.5 -36.5t-161.5 -103.5t-108.5 -169.5t-39.5 -227.5q0 -126 39.5 -229t108.5 -170.5t161.5 -104t199.5 -36.5zM825 -263 q50 0 87 -36.5t37 -87.5q0 -52 -36.5 -88.5t-87.5 -36.5t-88.5 36.5t-37.5 88.5q0 51 37.5 87.5t88.5 36.5z" glyph-name="uni1EE2" horiz-adv-x="1647" unicode="Ợ"/><glyph d="M1098 1130h115v-118q0 -233 -172 -233h-10q72 -122 72 -283q0 -234 -142 -374.5t-364 -140.5q-221 0 -364 140.5t-143 374.5t142.5 374t364.5 140q211 0 349 -126q31 -10 59 -10q51 0 72 35.5t21 114.5v106zM595 139q138 0 228 98.5t90 258.5t-90 258t-228 98 q-136 0 -225 -98t-89 -258t89 -258.5t225 -98.5zM598 -263q50 0 87 -36.5t37 -87.5q0 -52 -36.5 -88.5t-87.5 -36.5t-88.5 36.5t-37.5 88.5q0 51 37.5 87.5t88.5 36.5z" glyph-name="uni1EE3" horiz-adv-x="1193" unicode="ợ"/><glyph d="M706 -19q-148 0 -264.5 55.5t-186 168.5t-69.5 268v941h199v-913q0 -168 89 -254t232 -86t233.5 86.5t90.5 253.5v913h199v-941q0 -155 -70 -268t-187 -168.5t-266 -55.5zM707 -512q-51 0 -88.5 36.5t-37.5 88.5q0 51 37.5 87.5t88.5 36.5q50 0 87 -36.5t37 -87.5 q0 -52 -36.5 -88.5t-87.5 -36.5z" glyph-name="uni1EE4" horiz-adv-x="1415" unicode="Ụ"/><glyph d="M795 990h192v-990h-183l-5 128q-48 -70 -125.5 -108.5t-174.5 -38.5q-160 0 -253.5 89.5t-93.5 253.5v666h193v-624q0 -114 59 -169.5t151 -55.5q106 0 172.5 66t67.5 199v584zM583 -263q50 0 87 -36.5t37 -87.5q0 -52 -36.5 -88.5t-87.5 -36.5t-88.5 36.5t-37.5 88.5 q0 51 37.5 87.5t88.5 36.5z" glyph-name="uni1EE5" horiz-adv-x="1159" unicode="ụ"/><glyph d="M661 1536v122q117 24 117 108q0 35 -22 58.5t-62 23.5q-46 0 -86 -33l-54 74q62 51 144 51q83 0 134.5 -47.5t51.5 -122.5q0 -117 -129 -156v-78h-94zM706 -19q-148 0 -264.5 55.5t-186 168.5t-69.5 268v941h199v-913q0 -168 89 -254t232 -86t233.5 86.5t90.5 253.5v913 h199v-941q0 -155 -70 -268t-187 -168.5t-266 -55.5z" glyph-name="uni1EE6" horiz-adv-x="1415" unicode="Ủ"/><glyph d="M570 1396q-46 0 -86 -33l-54 74q61 50 144 50t134.5 -47t51.5 -122q0 -117 -129 -157v-77h-94v122q117 24 117 107q0 36 -22 59.5t-62 23.5zM795 990h192v-990h-183l-5 128q-48 -70 -125.5 -108.5t-174.5 -38.5q-160 0 -253.5 89.5t-93.5 253.5v666h193v-624 q0 -114 59 -169.5t151 -55.5q106 0 172.5 66t67.5 199v584z" glyph-name="uni1EE7" horiz-adv-x="1159" unicode="ủ"/><glyph d="M989 1818l-224 -260h-129l253 333zM1390 1543h115v-118q0 -233 -172 -233q-49 0 -104 20v-739q0 -155 -70 -268t-187 -168.5t-266 -55.5q-148 0 -264.5 55.5t-186 168.5t-69.5 268v941h199v-913q0 -168 89 -254t232 -86t233.5 86.5t90.5 253.5v913h199v-114 q36 -13 68 -13q51 0 72 35.5t21 114.5v106z" glyph-name="uni1EE8" horiz-adv-x="1415" unicode="Ứ"/><glyph d="M865 1415l-224 -260h-129l253 333zM1156 1119h115v-118q0 -233 -172 -233q-52 0 -112 23v-791h-183l-5 128q-48 -70 -125.5 -108.5t-174.5 -38.5q-160 0 -253.5 89.5t-93.5 253.5v666h193v-624q0 -114 59 -169.5t151 -55.5q106 0 172.5 66t67.5 199v584h192v-111 q41 -16 76 -16q51 0 72 35.5t21 114.5v106z" glyph-name="uni1EE9" horiz-adv-x="1159" unicode="ứ"/><glyph d="M771 1558h-129l-224 260l100 73zM1390 1543h115v-118q0 -233 -172 -233q-49 0 -104 20v-739q0 -155 -70 -268t-187 -168.5t-266 -55.5q-148 0 -264.5 55.5t-186 168.5t-69.5 268v941h199v-913q0 -168 89 -254t232 -86t233.5 86.5t90.5 253.5v913h199v-114q36 -13 68 -13 q51 0 72 35.5t21 114.5v106z" glyph-name="uni1EEA" horiz-adv-x="1415" unicode="Ừ"/><glyph d="M647 1155h-129l-224 260l100 73zM1156 1119h115v-118q0 -233 -172 -233q-52 0 -112 23v-791h-183l-5 128q-48 -70 -125.5 -108.5t-174.5 -38.5q-160 0 -253.5 89.5t-93.5 253.5v666h193v-624q0 -114 59 -169.5t151 -55.5q106 0 172.5 66t67.5 199v584h192v-111 q41 -16 76 -16q51 0 72 35.5t21 114.5v106z" glyph-name="uni1EEB" horiz-adv-x="1159" unicode="ừ"/><glyph d="M694 1848q-46 0 -86 -33l-54 74q62 51 144 51q83 0 134.5 -47.5t51.5 -122.5q0 -117 -129 -156v-78h-94v122q117 24 117 108q0 35 -22 58.5t-62 23.5zM1390 1543h115v-118q0 -233 -172 -233q-49 0 -104 20v-739q0 -155 -70 -268t-187 -168.5t-266 -55.5 q-148 0 -264.5 55.5t-186 168.5t-69.5 268v941h199v-913q0 -168 89 -254t232 -86t233.5 86.5t90.5 253.5v913h199v-114q36 -13 68 -13q51 0 72 35.5t21 114.5v106z" glyph-name="uni1EEC" horiz-adv-x="1415" unicode="Ử"/><glyph d="M570 1396q-46 0 -86 -33l-54 74q61 50 144 50t134.5 -47t51.5 -122q0 -117 -129 -157v-77h-94v122q117 24 117 107q0 36 -22 59.5t-62 23.5zM1156 1119h115v-118q0 -233 -172 -233q-52 0 -112 23v-791h-183l-5 128q-48 -70 -125.5 -108.5t-174.5 -38.5 q-160 0 -253.5 89.5t-93.5 253.5v666h193v-624q0 -114 59 -169.5t151 -55.5q106 0 172.5 66t67.5 199v584h192v-111q41 -16 76 -16q51 0 72 35.5t21 114.5v106z" glyph-name="uni1EED" horiz-adv-x="1159" unicode="ử"/><glyph d="M577 1721q-50 0 -77.5 -42t-27.5 -109h-104q0 109 56 178t151 69q98 0 166 -90q2 -2 12 -14.5t13 -16t12.5 -13t15.5 -13t15 -9t19 -7.5t21 -2q49 0 75 39.5t26 108.5h107q0 -107 -55.5 -176t-152.5 -69q-62 0 -100 25t-70 68q-18 25 -28.5 37t-30.5 24t-43 12z M1390 1543h115v-118q0 -233 -172 -233q-49 0 -104 20v-739q0 -155 -70 -268t-187 -168.5t-266 -55.5q-148 0 -264.5 55.5t-186 168.5t-69.5 268v941h199v-913q0 -168 89 -254t232 -86t233.5 86.5t90.5 253.5v913h199v-114q36 -13 68 -13q51 0 72 35.5t21 114.5v106z" glyph-name="uni1EEE" horiz-adv-x="1415" unicode="Ữ"/><glyph d="M470 1294q-40 0 -62.5 -37t-22.5 -96h-104q0 103 50.5 168.5t134.5 65.5q104 0 165 -98q29 -48 78 -48q40 0 61.5 35.5t21.5 95.5h104q0 -102 -49.5 -167.5t-135.5 -65.5q-104 0 -165 97q-33 50 -76 50zM1156 1119h115v-118q0 -233 -172 -233q-52 0 -112 23v-791h-183 l-5 128q-48 -70 -125.5 -108.5t-174.5 -38.5q-160 0 -253.5 89.5t-93.5 253.5v666h193v-624q0 -114 59 -169.5t151 -55.5q106 0 172.5 66t67.5 199v584h192v-111q41 -16 76 -16q51 0 72 35.5t21 114.5v106z" glyph-name="uni1EEF" horiz-adv-x="1159" unicode="ữ"/><glyph d="M1390 1543h115v-118q0 -233 -172 -233q-49 0 -104 20v-739q0 -155 -70 -268t-187 -168.5t-266 -55.5q-148 0 -264.5 55.5t-186 168.5t-69.5 268v941h199v-913q0 -168 89 -254t232 -86t233.5 86.5t90.5 253.5v913h199v-114q36 -13 68 -13q51 0 72 35.5t21 114.5v106z M707 -263q50 0 87 -36.5t37 -87.5q0 -52 -36.5 -88.5t-87.5 -36.5t-88.5 36.5t-37.5 88.5q0 51 37.5 87.5t88.5 36.5z" glyph-name="uni1EF0" horiz-adv-x="1415" unicode="Ự"/><glyph d="M1156 1119h115v-118q0 -233 -172 -233q-52 0 -112 23v-791h-183l-5 128q-48 -70 -125.5 -108.5t-174.5 -38.5q-160 0 -253.5 89.5t-93.5 253.5v666h193v-624q0 -114 59 -169.5t151 -55.5q106 0 172.5 66t67.5 199v584h192v-111q41 -16 76 -16q51 0 72 35.5t21 114.5v106z M583 -263q50 0 87 -36.5t37 -87.5q0 -52 -36.5 -88.5t-87.5 -36.5t-88.5 36.5t-37.5 88.5q0 51 37.5 87.5t88.5 36.5z" glyph-name="uni1EF1" horiz-adv-x="1159" unicode="ự"/><glyph d="M672 1558h-129l-224 260l100 73zM1172 1414l-465 -740v-674h-201v673l-466 741h226l340 -561l341 561h225z" glyph-name="Ygrave" horiz-adv-x="1212" unicode="Ỳ"/><glyph d="M575 1155h-129l-224 260l100 73zM789 990h202l-581 -1456h-198l204 491l-389 965h212l273 -750z" glyph-name="ygrave" horiz-adv-x="1018" unicode="ỳ"/><glyph d="M506 0v673l-466 741h226l340 -561l341 561h225l-465 -740v-674h-201zM608 -263q50 0 87 -36.5t37 -87.5q0 -52 -36.5 -88.5t-87.5 -36.5t-88.5 36.5t-37.5 88.5q0 51 37.5 87.5t88.5 36.5z" glyph-name="uni1EF4" horiz-adv-x="1212" unicode="Ỵ"/><glyph d="M789 990h202l-581 -1456h-198l204 491l-389 965h212l273 -750zM837 -263q50 0 87 -36.5t37 -87.5q0 -52 -36.5 -88.5t-87.5 -36.5t-88.5 36.5t-37.5 88.5q0 51 37.5 87.5t88.5 36.5z" glyph-name="uni1EF5" horiz-adv-x="1018" unicode="ỵ"/><glyph d="M595 1848q-45 0 -86 -33l-54 74q62 51 144 51q83 0 134.5 -47.5t51.5 -122.5q0 -117 -129 -156v-78h-94v122q117 24 117 108q0 35 -22 58.5t-62 23.5zM1172 1414l-465 -740v-674h-201v673l-466 741h226l340 -561l341 561h225z" glyph-name="uni1EF6" horiz-adv-x="1212" unicode="Ỷ"/><glyph d="M498 1396q-46 0 -86 -33l-54 74q61 50 144 50t134.5 -47t51.5 -122q0 -117 -129 -157v-77h-94v122q117 24 117 107q0 36 -22 59.5t-62 23.5zM789 990h202l-581 -1456h-198l204 491l-389 965h212l273 -750z" glyph-name="uni1EF7" horiz-adv-x="1018" unicode="ỷ"/><glyph d="M478 1721q-50 0 -77.5 -42t-27.5 -109h-104q0 109 56 178t151 69q98 0 166 -90q2 -2 12 -14.5t13 -16t12.5 -13t15.5 -13t15 -9t19 -7.5t21 -2q49 0 75 39.5t26 108.5h107q0 -107 -55.5 -176t-152.5 -69q-62 0 -100 25t-70 68q-18 25 -28.5 37t-30.5 24t-43 12z M1172 1414l-465 -740v-674h-201v673l-466 741h226l340 -561l341 561h225z" glyph-name="uni1EF8" horiz-adv-x="1212" unicode="Ỹ"/><glyph d="M398 1294q-40 0 -62.5 -37t-22.5 -96h-104q0 103 50.5 168.5t134.5 65.5q104 0 165 -98q29 -48 78 -48q40 0 61.5 35.5t21.5 95.5h104q0 -102 -49.5 -167.5t-135.5 -65.5q-104 0 -165 97q-33 50 -76 50zM789 990h202l-581 -1456h-198l204 491l-389 965h212l273 -750z" glyph-name="uni1EF9" horiz-adv-x="1018" unicode="ỹ"/><glyph d="M167 453v159h1024v-159h-1024z" glyph-name="endash" horiz-adv-x="1358" unicode="–"/><glyph d="M167 453v159h2048v-159h-2048z" glyph-name="emdash" horiz-adv-x="2382" unicode="—"/><glyph d="M301 1414h140l-123 -626h-200z" glyph-name="quoteleft" horiz-adv-x="585" unicode="‘"/><glyph d="M283 788h-140l123 626h200z" glyph-name="quoteright" horiz-adv-x="584" unicode="’"/><glyph d="M283 -362h-140l123 626h200z" glyph-name="quotesinglbase" horiz-adv-x="584" unicode="‚"/><glyph d="M300 1414h140l-123 -626h-200zM692 1414h140l-123 -626h-200z" glyph-name="quotedblleft" horiz-adv-x="977" unicode="“"/><glyph d="M283 788h-140l123 626h200zM675 788h-140l123 626h200z" glyph-name="quotedblright" horiz-adv-x="975" unicode="”"/><glyph d="M283 -362h-140l123 626h200zM684 -362h-140l123 626h200z" glyph-name="quotedblbase" horiz-adv-x="984" unicode="„"/><glyph d="M923 1018v-127h-356v-1197h-129v1197h-345v127h345v396h129v-396h356z" glyph-name="dagger" horiz-adv-x="1016" unicode="†"/><glyph d="M959 891h-356v-665h356v-127h-356v-405h-129v405h-346v127h346v665h-346v127h346v396h129v-396h356v-127z" glyph-name="daggerdbl" horiz-adv-x="1087" unicode="‡"/><glyph d="M445 402q-109 0 -187.5 76.5t-78.5 187.5q0 107 79.5 186t186.5 79q105 0 184.5 -79.5t79.5 -185.5q0 -111 -78.5 -187.5t-185.5 -76.5z" glyph-name="bullet" horiz-adv-x="889" unicode="•"/><glyph d="M328 -20q-51 0 -87.5 36.5t-36.5 87.5q0 50 37 87.5t87 37.5q51 0 88 -37.5t37 -87.5q0 -51 -37 -87.5t-88 -36.5zM955 -20q-51 0 -87.5 36.5t-36.5 87.5q0 50 37 87.5t87 37.5q51 0 88 -37.5t37 -87.5q0 -51 -37 -87.5t-88 -36.5zM1572 -20q-51 0 -87.5 36.5t-36.5 87.5 q0 50 37 87.5t87 37.5q51 0 88 -37.5t37 -87.5q0 -51 -37 -87.5t-88 -36.5z" glyph-name="ellipsis" horiz-adv-x="1903" unicode="…"/><glyph d="M412 838q-123 0 -209.5 87.5t-86.5 211.5q0 122 87 209.5t209 87.5q124 0 210.5 -87.5t86.5 -209.5q0 -124 -86.5 -211.5t-210.5 -87.5zM314 -1l751 1417h172l-751 -1417h-172zM412 975q69 0 115.5 47.5t46.5 114.5t-47.5 114t-114.5 47q-66 0 -114 -47t-48 -114 q0 -68 47.5 -115t114.5 -47zM1151 -18q-124 0 -211 87.5t-87 210.5t87.5 210t210.5 87q122 0 208 -87t86 -210t-86 -210.5t-208 -87.5zM1845 -18q-124 0 -211 87.5t-87 210.5t87.5 210t210.5 87q122 0 208 -87t86 -210t-86 -210.5t-208 -87.5zM1151 118q66 0 114 48t48 114 q0 67 -48 114.5t-114 47.5q-69 0 -116 -47t-47 -115q0 -67 47.5 -114.5t115.5 -47.5zM1845 118q66 0 114 48t48 114q0 67 -48 114.5t-114 47.5q-68 0 -115.5 -47t-47.5 -115q0 -66 47.5 -114t115.5 -48z" glyph-name="perthousand" horiz-adv-x="2253" unicode="‰"/><glyph d="M379 237l-312 377l312 376h161l-311 -376l311 -377h-161z" glyph-name="guilsinglleft" horiz-adv-x="618" unicode="‹"/><glyph d="M78 237l312 377l-312 376h162l311 -376l-311 -377h-162z" glyph-name="guilsinglright" horiz-adv-x="618" unicode="›"/><glyph d="M-260 0l797 1414h137l-797 -1414h-137z" glyph-name="fraction" horiz-adv-x="414" unicode="⁄"/><glyph d="M926 166q105 0 193.5 51t148.5 143l166 -113q-90 -124 -222.5 -195t-285.5 -71q-237 0 -404 132.5t-217 385.5h-157v118h141q-4 40 -4 93q0 44 3 84h-140v120h155q50 254 217 387t406 133q153 0 285.5 -70.5t222.5 -193.5l-166 -113q-59 92 -148 141.5t-194 49.5 q-159 0 -270.5 -81.5t-153.5 -252.5h484v-120h-503q-3 -40 -3 -84q0 -54 4 -93h502v-118h-482q29 -115 92 -191t145.5 -109t184.5 -33z" glyph-name="Euro" horiz-adv-x="1564" unicode="€"/><glyph d="M638 -12q-85 0 -152 26.5t-109.5 73t-67 103t-33.5 124.5q0 14 -1 19q-17 -11 -56 -40.5t-61 -43.5l-54 104q25 20 82.5 62.5t86.5 66.5v495q0 128 28 222.5t77.5 148t109 79t129.5 25.5q139 0 211 -92.5t72 -230.5q0 -168 -112.5 -334t-328.5 -355l2 -53 q1 -119 64.5 -183t154.5 -64q89 0 166.5 57.5t124.5 137.5l88 -85q-76 -134 -184 -198.5t-237 -64.5zM460 616q303 301 303 511q0 193 -141 193q-65 0 -113.5 -75t-48.5 -242v-387z" glyph-name="uni2113" horiz-adv-x="1154" unicode="ℓ"/><glyph d="M1278 323v1213h196v-1536h-190l-832 1218v-1218h-195v1536h192zM2261 332q-225 0 -372.5 152.5t-147.5 398.5q0 122 39.5 225t109 174t165.5 110.5t206 39.5q226 0 373 -152.5t147 -396.5q0 -123 -39.5 -226.5t-109 -174.5t-165 -110.5t-206.5 -39.5zM2260 1266 q-143 0 -235.5 -104t-92.5 -279q0 -177 92 -281t236 -104t237.5 104.5t93.5 280.5q0 175 -93.5 279t-237.5 104zM1800 0v131h923v-131h-923z" glyph-name="uni2116" horiz-adv-x="2938" unicode="№"/><glyph d="M130 1444v92h445v-92h-173v-628h-100v628h-172zM1239 1536h105v-720h-99v550l-236 -390l-236 387v-547h-101v720h109l227 -382z" glyph-name="trademark" horiz-adv-x="1602" unicode="™"/><glyph d="M1017 -18q-178 0 -340 62t-279 167.5t-186 250.5t-69 304q0 215 117 397t318 287.5t439 105.5q179 0 341.5 -62.5t280 -168t186.5 -252t69 -307.5v-21h-1418q-12 0 -12 -8v-430q0 -25 19 -49q106 -109 244.5 -171t291.5 -62q167 0 313.5 69.5t251.5 192.5h125 q-118 -141 -300.5 -223t-391.5 -82zM476 788h1088q8 0 8 15v430q0 34 -20 51q-107 105 -244 165t-289 60q-151 0 -288.5 -61.5t-245.5 -169.5q-21 -23 -21 -53v-422q0 -15 12 -15z" glyph-name="estimated" horiz-adv-x="2003" unicode="℮"/><glyph d="M373 1446q136 23 259.5 -27.5t212 -155t139.5 -259.5t48 -332q-3 -190 -69 -340.5t-180.5 -235t-257.5 -84.5q-117 0 -206 46.5t-134.5 128t-50.5 193t45 240.5q43 115 114 199t157 125t183.5 46.5t193.5 -37.5q-49 186 -168.5 282t-285.5 69v142zM857 672q1 63 -3 123 q-157 99 -299.5 38t-212.5 -259q-44 -132 -31 -228t72.5 -150t149.5 -54q127 0 222 146.5t102 383.5z" glyph-name="partialdiff" horiz-adv-x="1197" unicode="∂"/><glyph d="M782 -16q-232 0 -403 152l-89 -89l-57 57l89 89q-153 172 -153 403q0 166 82 307t223.5 223t307.5 82q231 0 402 -152l89 89l57 -58l-88 -88q152 -173 152 -403q0 -166 -82 -307t-223 -223t-307 -82zM432 303l642 643q-124 105 -292 105q-125 0 -229.5 -60.5 t-165.5 -165.5t-61 -229q0 -168 106 -293zM782 141q124 0 228.5 60.5t165.5 165.5t61 229q0 169 -105 293l-643 -643q124 -105 293 -105z" glyph-name="emptyset" horiz-adv-x="1562" unicode="∅"/><glyph d="M277 0v1242h-123v172h1352v-172h-124v-1242h-169v1242h-764v-1242h-172z" glyph-name="product" horiz-adv-x="1659" unicode="∏"/><glyph d="M120 1v129l631 637l-631 639v130h1168v-157h-901l592 -612l-592 -610h901v-156h-1168z" glyph-name="summation" horiz-adv-x="1415" unicode="∑"/><glyph d="M254 608v154h783v-154h-783z" glyph-name="minus" horiz-adv-x="1291" unicode="−"/><glyph d="M470 0l-227 702h-142v161h256l200 -606l612 1279h176l-735 -1536h-140z" glyph-name="radical" horiz-adv-x="1430" unicode="√"/><glyph d="M484 289q-123 0 -205.5 86.5t-87.5 220.5q5 134 87.5 220.5t205.5 86.5q179 0 375 -208q92 101 189 154.5t185 53.5q127 0 207 -84.5t85 -222.5q-5 -138 -85 -222.5t-207 -84.5q-89 0 -185.5 53t-188.5 153q-197 -206 -375 -206zM484 424q61 0 135.5 45t148.5 127 q-74 82 -148.5 127t-135.5 45q-64 0 -110.5 -49.5t-48.5 -122.5q2 -73 48.5 -122.5t110.5 -49.5zM1233 424q66 0 111.5 48.5t46.5 123.5q-1 75 -46.5 123.5t-111.5 48.5q-127 0 -286 -172q159 -172 286 -172z" glyph-name="infinity" horiz-adv-x="1720" unicode="∞"/><glyph d="M87 -457v185q160 0 228 66.5t68 219.5v1114q0 133 84.5 219.5t210.5 86.5q123 0 201 -71l-82 -145q-47 44 -103 44q-57 0 -91 -43t-34 -120v-1091q0 -220 -130.5 -342.5t-351.5 -122.5z" glyph-name="integral" horiz-adv-x="957" unicode="∫"/><glyph d="M930 672q-30 0 -58.5 6.5t-49 13t-46 23.5t-36.5 24.5t-34.5 31.5t-27 28t-25.5 28q-75 80 -140 80q-74 0 -118 -60t-46 -155h-145q2 163 86.5 262t224.5 99q78 0 136.5 -36.5t122.5 -113.5q24 -28 39.5 -43.5t44.5 -30.5t61 -15q69 0 113 57.5t48 154.5h144 q-3 -155 -82.5 -254.5t-211.5 -99.5zM930 230q-41 0 -79.5 11.5t-64 24.5t-55.5 39t-42 39t-36 40q-37 42 -67.5 62t-72.5 19q-74 -1 -118 -60.5t-46 -154.5h-145q2 164 87 263t224 99q77 0 135 -36t124 -113q25 -30 40 -45.5t44 -31t61 -15.5q69 0 113 58.5t48 156.5h144 q-3 -156 -82.5 -256t-211.5 -100z" glyph-name="approxequal" horiz-adv-x="1425" unicode="≈"/><glyph d="M189 0l213 409h-225v154h304l134 260h-438v154h518l197 379h146l-196 -379h249v-154h-330l-134 -260h464v-154h-544l-213 -409h-145z" glyph-name="notequal" horiz-adv-x="1259" unicode="≠"/><glyph d="M1272 1435v-171l-962 -442l962 -443v-174l-1131 525v185zM141 0v136h1131v-136h-1131z" glyph-name="lessequal" horiz-adv-x="1433" unicode="≤"/><glyph d="M161 1435l1130 -520v-185l-1130 -525v174l962 443l-962 442v171zM161 0v136h1130v-136h-1130z" glyph-name="greaterequal" horiz-adv-x="1433" unicode="≥"/><glyph d="M707 106l-618 617l618 618l617 -616zM709 322l400 403l-400 400l-404 -402z" glyph-name="lozenge" horiz-adv-x="1413" unicode="◊"/><glyph d="M924 0q-158 0 -302 62t-248 166t-166 248t-62 302t62 302.5t166 248.5t248 165.5t302 61.5t302.5 -61.5t248.5 -165.5t165.5 -248.5t61.5 -302.5t-61.5 -302t-165.5 -248t-248.5 -166t-302.5 -62zM924 74q143 0 273.5 56t225 150.5t150.5 224.5t56 273q0 191 -94.5 353.5 t-257 257t-353.5 94.5q-143 0 -273 -56t-224.5 -150.5t-150.5 -225t-56 -273.5t56 -273t150.5 -224.5t224.5 -150.5t273 -56zM1332 444q-12 0 -23 13l-297 295q-12 12 -12.5 27.5t10.5 25.5l297 297q11 10 26 10t25 -10q11 -11 11 -26.5t-11 -26.5l-270 -271l270 -270 q24 -22 0 -51q-10 -13 -26 -13zM517 444q-16 0 -26.5 11t-10.5 26v594q0 16 10.5 26.5t26.5 10.5q15 0 26 -10.5t11 -26.5v-594q0 -15 -11 -26t-26 -11zM924 444q-15 0 -26 11t-11 26v594q0 16 11 26.5t26 10.5q16 0 26.5 -10.5t10.5 -26.5v-594q0 -15 -10.5 -26t-26.5 -11z M627 741q-15 0 -26 11t-11 26q0 16 11 26.5t26 10.5h187q15 0 26 -10.5t11 -26.5q0 -15 -11 -26t-26 -11h-187z" glyph-name="uniF8FF" horiz-adv-x="1848" unicode=""/><glyph d="M828 -19q-205 0 -365 85.5t-253 250.5t-93 386q0 222 93.5 389.5t253 254t360.5 86.5q198 0 356.5 -85t248.5 -245l-176 -94q-65 121 -177 182t-252 61q-108 0 -200 -36.5t-160.5 -104t-107.5 -171.5t-39 -232t39 -232t107.5 -172.5t162.5 -106t205 -37.5 q194 0 324.5 113.5t137.5 289.5h-463v166h658q4 -78 -4 -162q-25 -277 -204 -431.5t-452 -154.5z" glyph-name="G.ss02" horiz-adv-x="1592"/><glyph d="M815 1558q-157 0 -250 67.5t-93 206.5h117q0 -89 61 -132.5t165 -43.5q105 0 166.5 43.5t61.5 132.5h117q0 -139 -93 -206.5t-252 -67.5zM828 -19q-205 0 -365 85.5t-253 250.5t-93 386q0 222 93.5 389.5t253 254t360.5 86.5q198 0 356.5 -85t248.5 -245l-176 -94 q-65 121 -177 182t-252 61q-108 0 -200 -36.5t-160.5 -104t-107.5 -171.5t-39 -232t39 -232t107.5 -172.5t162.5 -106t205 -37.5q194 0 324.5 113.5t137.5 289.5h-463v166h658q4 -78 -4 -162q-25 -277 -204 -431.5t-452 -154.5z" glyph-name="Gbreve.ss02" horiz-adv-x="1592"/><glyph d="M828 -19q-205 0 -365 85.5t-253 250.5t-93 386q0 222 93.5 389.5t253 254t360.5 86.5q198 0 356.5 -85t248.5 -245l-176 -94q-65 121 -177 182t-252 61q-108 0 -200 -36.5t-160.5 -104t-107.5 -171.5t-39 -232t39 -232t107.5 -172.5t162.5 -106t205 -37.5 q194 0 324.5 113.5t137.5 289.5h-463v166h658q4 -78 -4 -162q-25 -277 -204 -431.5t-452 -154.5zM666 -561l-100 45l161 367h174z" glyph-name="Gcommaaccent.ss02" horiz-adv-x="1592"/><glyph d="M817 1536q-51 0 -88.5 37t-37.5 88t37.5 87.5t88.5 36.5t87.5 -36.5t36.5 -87.5t-36.5 -88t-87.5 -37zM828 -19q-205 0 -365 85.5t-253 250.5t-93 386q0 222 93.5 389.5t253 254t360.5 86.5q198 0 356.5 -85t248.5 -245l-176 -94q-65 121 -177 182t-252 61 q-108 0 -200 -36.5t-160.5 -104t-107.5 -171.5t-39 -232t39 -232t107.5 -172.5t162.5 -106t205 -37.5q194 0 324.5 113.5t137.5 289.5h-463v166h658q4 -78 -4 -162q-25 -277 -204 -431.5t-452 -154.5z" glyph-name="Gdotaccent.ss02" horiz-adv-x="1592"/><glyph d="M828 -19q-205 0 -365 85.5t-253 250.5t-93 386q0 222 93.5 389.5t253 254t360.5 86.5q198 0 356.5 -85t248.5 -245l-176 -94q-65 121 -177 182t-252 61q-108 0 -200 -36.5t-160.5 -104t-107.5 -171.5t-39 -232t39 -232t107.5 -172.5t162.5 -106t205 -37.5 q194 0 324.5 113.5t137.5 289.5h-463v166h658q4 -78 -4 -162q-25 -277 -204 -431.5t-452 -154.5z" glyph-name="G.ss03" horiz-adv-x="1592"/><glyph d="M815 1558q-157 0 -250 67.5t-93 206.5h117q0 -89 61 -132.5t165 -43.5q105 0 166.5 43.5t61.5 132.5h117q0 -139 -93 -206.5t-252 -67.5zM828 -19q-205 0 -365 85.5t-253 250.5t-93 386q0 222 93.5 389.5t253 254t360.5 86.5q198 0 356.5 -85t248.5 -245l-176 -94 q-65 121 -177 182t-252 61q-108 0 -200 -36.5t-160.5 -104t-107.5 -171.5t-39 -232t39 -232t107.5 -172.5t162.5 -106t205 -37.5q194 0 324.5 113.5t137.5 289.5h-463v166h658q4 -78 -4 -162q-25 -277 -204 -431.5t-452 -154.5z" glyph-name="Gbreve.ss03" horiz-adv-x="1592"/><glyph d="M828 -19q-205 0 -365 85.5t-253 250.5t-93 386q0 222 93.5 389.5t253 254t360.5 86.5q198 0 356.5 -85t248.5 -245l-176 -94q-65 121 -177 182t-252 61q-108 0 -200 -36.5t-160.5 -104t-107.5 -171.5t-39 -232t39 -232t107.5 -172.5t162.5 -106t205 -37.5 q194 0 324.5 113.5t137.5 289.5h-463v166h658q4 -78 -4 -162q-25 -277 -204 -431.5t-452 -154.5zM666 -561l-100 45l161 367h174z" glyph-name="Gcommaaccent.ss03" horiz-adv-x="1592"/><glyph d="M817 1536q-51 0 -88.5 37t-37.5 88t37.5 87.5t88.5 36.5t87.5 -36.5t36.5 -87.5t-36.5 -88t-87.5 -37zM828 -19q-205 0 -365 85.5t-253 250.5t-93 386q0 222 93.5 389.5t253 254t360.5 86.5q198 0 356.5 -85t248.5 -245l-176 -94q-65 121 -177 182t-252 61 q-108 0 -200 -36.5t-160.5 -104t-107.5 -171.5t-39 -232t39 -232t107.5 -172.5t162.5 -106t205 -37.5q194 0 324.5 113.5t137.5 289.5h-463v166h658q4 -78 -4 -162q-25 -277 -204 -431.5t-452 -154.5z" glyph-name="Gdotaccent.ss03" horiz-adv-x="1592"/><glyph d="M270 1209q-51 0 -88.5 37t-37.5 88t37.5 87.5t88.5 36.5t87.5 -36.5t36.5 -87.5q0 -52 -37 -88.5t-87 -36.5zM172 0v990h193v-990h-193z" glyph-name="i.loclTRK" horiz-adv-x="537"/><glyph d="M1034 990v-141h-152q65 -92 65 -209q0 -161 -113 -251t-289 -90q-126 0 -222 47q-33 -39 -33 -79q0 -36 19.5 -59.5t70 -38.5t86.5 -21.5t119 -16.5q15 -2 23 -3q56 -7 95 -13t87 -17.5t80.5 -24.5t65.5 -34t52.5 -47.5t32 -63t12.5 -81.5q0 -154 -127 -238t-334 -84 q-204 0 -326 77t-122 194q0 120 123 242q-130 60 -130 189q0 117 98 196q-87 93 -87 228q0 162 117 261t288 99q79 0 146 -21h355zM539 441q105 0 165.5 57.5t60.5 153.5q0 97 -60.5 156t-163.5 59q-104 0 -166 -59.5t-62 -156.5q0 -95 61 -152.5t165 -57.5zM848 -180 q0 28 -8.5 49.5t-32 37t-42 25t-64.5 18.5t-71 12.5t-88 11.5q-15 2 -23 3q-93 11 -150 23q-73 -91 -73 -168q0 -79 78 -124t215 -45q115 0 187 38t72 119z" glyph-name="g.ss01" horiz-adv-x="1097"/><glyph d="M548 1144q-152 0 -247.5 87t-95.5 236h124q0 -99 60.5 -162t158.5 -63q100 0 160.5 63t60.5 162h124q0 -149 -96 -236t-249 -87zM1034 990v-141h-152q65 -92 65 -209q0 -161 -113 -251t-289 -90q-126 0 -222 47q-33 -39 -33 -79q0 -36 19.5 -59.5t70 -38.5t86.5 -21.5 t119 -16.5q15 -2 23 -3q56 -7 95 -13t87 -17.5t80.5 -24.5t65.5 -34t52.5 -47.5t32 -63t12.5 -81.5q0 -154 -127 -238t-334 -84q-204 0 -326 77t-122 194q0 120 123 242q-130 60 -130 189q0 117 98 196q-87 93 -87 228q0 162 117 261t288 99q79 0 146 -21h355zM539 441 q105 0 165.5 57.5t60.5 153.5q0 97 -60.5 156t-163.5 59q-104 0 -166 -59.5t-62 -156.5q0 -95 61 -152.5t165 -57.5zM848 -180q0 28 -8.5 49.5t-32 37t-42 25t-64.5 18.5t-71 12.5t-88 11.5q-15 2 -23 3q-93 11 -150 23q-73 -91 -73 -168q0 -79 78 -124t215 -45 q115 0 187 38t72 119z" glyph-name="gbreve.ss01" horiz-adv-x="1097"/><glyph d="M715 1460l-123 -310h-200l183 310h140zM1034 990v-141h-152q65 -92 65 -209q0 -161 -113 -251t-289 -90q-126 0 -222 47q-33 -39 -33 -79q0 -36 19.5 -59.5t70 -38.5t86.5 -21.5t119 -16.5q15 -2 23 -3q56 -7 95 -13t87 -17.5t80.5 -24.5t65.5 -34t52.5 -47.5t32 -63 t12.5 -81.5q0 -154 -127 -238t-334 -84q-204 0 -326 77t-122 194q0 120 123 242q-130 60 -130 189q0 117 98 196q-87 93 -87 228q0 162 117 261t288 99q79 0 146 -21h355zM539 441q105 0 165.5 57.5t60.5 153.5q0 97 -60.5 156t-163.5 59q-104 0 -166 -59.5t-62 -156.5 q0 -95 61 -152.5t165 -57.5zM848 -180q0 28 -8.5 49.5t-32 37t-42 25t-64.5 18.5t-71 12.5t-88 11.5q-15 2 -23 3q-93 11 -150 23q-73 -91 -73 -168q0 -79 78 -124t215 -45q115 0 187 38t72 119z" glyph-name="gcommaaccent.ss01" horiz-adv-x="1097"/><glyph d="M550 1209q-51 0 -88.5 37t-37.5 88t37.5 87.5t88.5 36.5t87.5 -36.5t36.5 -87.5q0 -52 -37 -88.5t-87 -36.5zM1034 990v-141h-152q65 -92 65 -209q0 -161 -113 -251t-289 -90q-126 0 -222 47q-33 -39 -33 -79q0 -36 19.5 -59.5t70 -38.5t86.5 -21.5t119 -16.5 q15 -2 23 -3q56 -7 95 -13t87 -17.5t80.5 -24.5t65.5 -34t52.5 -47.5t32 -63t12.5 -81.5q0 -154 -127 -238t-334 -84q-204 0 -326 77t-122 194q0 120 123 242q-130 60 -130 189q0 117 98 196q-87 93 -87 228q0 162 117 261t288 99q79 0 146 -21h355zM539 441 q105 0 165.5 57.5t60.5 153.5q0 97 -60.5 156t-163.5 59q-104 0 -166 -59.5t-62 -156.5q0 -95 61 -152.5t165 -57.5zM848 -180q0 28 -8.5 49.5t-32 37t-42 25t-64.5 18.5t-71 12.5t-88 11.5q-15 2 -23 3q-93 11 -150 23q-73 -91 -73 -168q0 -79 78 -124t215 -45 q115 0 187 38t72 119z" glyph-name="gdotaccent.ss01" horiz-adv-x="1097"/><glyph d="M905 990h185v-990h-185l-5 180q-46 -93 -138 -147t-205 -54q-95 0 -180 36.5t-148.5 102.5t-100.5 163.5t-37 213.5q0 153 63.5 271.5t169.5 181t233 62.5q116 0 210 -56.5t138 -153.5v190zM598 143q133 0 223 100.5t90 251.5t-90.5 251t-222.5 100q-134 0 -224.5 -97 t-90.5 -254t90.5 -254.5t224.5 -97.5z" glyph-name="a.ss02" horiz-adv-x="1262"/><glyph d="M914 1415l-224 -260h-129l253 333zM905 990h185v-990h-185l-5 180q-46 -93 -138 -147t-205 -54q-95 0 -180 36.5t-148.5 102.5t-100.5 163.5t-37 213.5q0 153 63.5 271.5t169.5 181t233 62.5q116 0 210 -56.5t138 -153.5v190zM598 143q133 0 223 100.5t90 251.5 t-90.5 251t-222.5 100q-134 0 -224.5 -97t-90.5 -254t90.5 -254.5t224.5 -97.5z" glyph-name="aacute.ss02" horiz-adv-x="1262"/><glyph d="M630 1144q-152 0 -247.5 87t-95.5 236h124q0 -99 60.5 -162t158.5 -63q100 0 160.5 63t60.5 162h124q0 -149 -96 -236t-249 -87zM905 990h185v-990h-185l-5 180q-46 -93 -138 -147t-205 -54q-95 0 -180 36.5t-148.5 102.5t-100.5 163.5t-37 213.5q0 153 63.5 271.5 t169.5 181t233 62.5q116 0 210 -56.5t138 -153.5v190zM598 143q133 0 223 100.5t90 251.5t-90.5 251t-222.5 100q-134 0 -224.5 -97t-90.5 -254t90.5 -254.5t224.5 -97.5z" glyph-name="abreve.ss02" horiz-adv-x="1262"/><glyph d="M914 1892l-224 -260h-129l253 333zM630 1144q-152 0 -247.5 87t-95.5 236h124q0 -99 60.5 -162t158.5 -63q100 0 160.5 63t60.5 162h124q0 -149 -96 -236t-249 -87zM905 990h185v-990h-185l-5 180q-46 -93 -138 -147t-205 -54q-95 0 -180 36.5t-148.5 102.5t-100.5 163.5 t-37 213.5q0 153 63.5 271.5t169.5 181t233 62.5q116 0 210 -56.5t138 -153.5v190zM598 143q133 0 223 100.5t90 251.5t-90.5 251t-222.5 100q-134 0 -224.5 -97t-90.5 -254t90.5 -254.5t224.5 -97.5z" glyph-name="uni1EAF.ss02" horiz-adv-x="1262"/><glyph d="M630 1144q-152 0 -247.5 87t-95.5 236h124q0 -99 60.5 -162t158.5 -63q100 0 160.5 63t60.5 162h124q0 -149 -96 -236t-249 -87zM905 990h185v-990h-185l-5 180q-46 -93 -138 -147t-205 -54q-95 0 -180 36.5t-148.5 102.5t-100.5 163.5t-37 213.5q0 153 63.5 271.5 t169.5 181t233 62.5q116 0 210 -56.5t138 -153.5v190zM598 143q133 0 223 100.5t90 251.5t-90.5 251t-222.5 100q-134 0 -224.5 -97t-90.5 -254t90.5 -254.5t224.5 -97.5zM632 -263q50 0 87 -36.5t37 -87.5q0 -52 -36.5 -88.5t-87.5 -36.5t-88.5 36.5t-37.5 88.5 q0 51 37.5 87.5t88.5 36.5z" glyph-name="uni1EB7.ss02" horiz-adv-x="1262"/><glyph d="M696 1632h-129l-224 260l100 73zM630 1144q-152 0 -247.5 87t-95.5 236h124q0 -99 60.5 -162t158.5 -63q100 0 160.5 63t60.5 162h124q0 -149 -96 -236t-249 -87zM905 990h185v-990h-185l-5 180q-46 -93 -138 -147t-205 -54q-95 0 -180 36.5t-148.5 102.5t-100.5 163.5 t-37 213.5q0 153 63.5 271.5t169.5 181t233 62.5q116 0 210 -56.5t138 -153.5v190zM598 143q133 0 223 100.5t90 251.5t-90.5 251t-222.5 100q-134 0 -224.5 -97t-90.5 -254t90.5 -254.5t224.5 -97.5z" glyph-name="uni1EB1.ss02" horiz-adv-x="1262"/><glyph d="M619 1873q-45 0 -86 -33l-54 74q61 50 144 50t134.5 -47t51.5 -122q0 -117 -129 -157v-77h-94v122q117 24 117 107q0 36 -22 59.5t-62 23.5zM630 1144q-152 0 -247.5 87t-95.5 236h124q0 -99 60.5 -162t158.5 -63q100 0 160.5 63t60.5 162h124q0 -149 -96 -236t-249 -87z M905 990h185v-990h-185l-5 180q-46 -93 -138 -147t-205 -54q-95 0 -180 36.5t-148.5 102.5t-100.5 163.5t-37 213.5q0 153 63.5 271.5t169.5 181t233 62.5q116 0 210 -56.5t138 -153.5v190zM598 143q133 0 223 100.5t90 251.5t-90.5 251t-222.5 100q-134 0 -224.5 -97 t-90.5 -254t90.5 -254.5t224.5 -97.5z" glyph-name="uni1EB3.ss02" horiz-adv-x="1262"/><glyph d="M519 1771q-40 0 -62.5 -37t-22.5 -96h-104q0 103 50.5 168.5t134.5 65.5q104 0 165 -98q29 -48 78 -48q40 0 61.5 35.5t21.5 95.5h104q0 -102 -49.5 -167.5t-135.5 -65.5q-104 0 -165 97q-33 50 -76 50zM630 1144q-152 0 -247.5 87t-95.5 236h124q0 -99 60.5 -162 t158.5 -63q100 0 160.5 63t60.5 162h124q0 -149 -96 -236t-249 -87zM905 990h185v-990h-185l-5 180q-46 -93 -138 -147t-205 -54q-95 0 -180 36.5t-148.5 102.5t-100.5 163.5t-37 213.5q0 153 63.5 271.5t169.5 181t233 62.5q116 0 210 -56.5t138 -153.5v190zM598 143 q133 0 223 100.5t90 251.5t-90.5 251t-222.5 100q-134 0 -224.5 -97t-90.5 -254t90.5 -254.5t224.5 -97.5z" glyph-name="uni1EB5.ss02" horiz-adv-x="1262"/><glyph d="M698 1171h-135l-214 296h128l153 -206l153 206h129zM905 990h185v-990h-185l-5 180q-46 -93 -138 -147t-205 -54q-95 0 -180 36.5t-148.5 102.5t-100.5 163.5t-37 213.5q0 153 63.5 271.5t169.5 181t233 62.5q116 0 210 -56.5t138 -153.5v190zM598 143q133 0 223 100.5 t90 251.5t-90.5 251t-222.5 100q-134 0 -224.5 -97t-90.5 -254t90.5 -254.5t224.5 -97.5z" glyph-name="uni01CE.ss02" horiz-adv-x="1262"/><glyph d="M630 1376l-154 -205h-127l214 296h135l214 -296h-129zM905 990h185v-990h-185l-5 180q-46 -93 -138 -147t-205 -54q-95 0 -180 36.5t-148.5 102.5t-100.5 163.5t-37 213.5q0 153 63.5 271.5t169.5 181t233 62.5q116 0 210 -56.5t138 -153.5v190zM598 143q133 0 223 100.5 t90 251.5t-90.5 251t-222.5 100q-134 0 -224.5 -97t-90.5 -254t90.5 -254.5t224.5 -97.5z" glyph-name="acircumflex.ss02" horiz-adv-x="1262"/><glyph d="M913 1892l-224 -260h-129l253 333zM630 1376l-154 -205h-127l214 296h135l214 -296h-129zM905 990h185v-990h-185l-5 180q-46 -93 -138 -147t-205 -54q-95 0 -180 36.5t-148.5 102.5t-100.5 163.5t-37 213.5q0 153 63.5 271.5t169.5 181t233 62.5q116 0 210 -56.5 t138 -153.5v190zM598 143q133 0 223 100.5t90 251.5t-90.5 251t-222.5 100q-134 0 -224.5 -97t-90.5 -254t90.5 -254.5t224.5 -97.5z" glyph-name="uni1EA5.ss02" horiz-adv-x="1262"/><glyph d="M630 1376l-154 -205h-127l214 296h135l214 -296h-129zM905 990h185v-990h-185l-5 180q-46 -93 -138 -147t-205 -54q-95 0 -180 36.5t-148.5 102.5t-100.5 163.5t-37 213.5q0 153 63.5 271.5t169.5 181t233 62.5q116 0 210 -56.5t138 -153.5v190zM598 143q133 0 223 100.5 t90 251.5t-90.5 251t-222.5 100q-134 0 -224.5 -97t-90.5 -254t90.5 -254.5t224.5 -97.5zM632 -263q50 0 87 -36.5t37 -87.5q0 -52 -36.5 -88.5t-87.5 -36.5t-88.5 36.5t-37.5 88.5q0 51 37.5 87.5t88.5 36.5z" glyph-name="uni1EAD.ss02" horiz-adv-x="1262"/><glyph d="M695 1632h-129l-224 260l100 73zM349 1171l214 296h135l214 -296h-129l-153 205l-154 -205h-127zM905 990h185v-990h-185l-5 180q-46 -93 -138 -147t-205 -54q-95 0 -180 36.5t-148.5 102.5t-100.5 163.5t-37 213.5q0 153 63.5 271.5t169.5 181t233 62.5q116 0 210 -56.5 t138 -153.5v190zM598 143q133 0 223 100.5t90 251.5t-90.5 251t-222.5 100q-134 0 -224.5 -97t-90.5 -254t90.5 -254.5t224.5 -97.5z" glyph-name="uni1EA7.ss02" horiz-adv-x="1262"/><glyph d="M618 1873q-46 0 -86 -33l-54 74q61 50 144 50t134.5 -47t51.5 -122q0 -117 -129 -157v-77h-94v122q117 24 117 107q0 36 -22 59.5t-62 23.5zM630 1376l-154 -205h-127l214 296h135l214 -296h-129zM905 990h185v-990h-185l-5 180q-46 -93 -138 -147t-205 -54 q-95 0 -180 36.5t-148.5 102.5t-100.5 163.5t-37 213.5q0 153 63.5 271.5t169.5 181t233 62.5q116 0 210 -56.5t138 -153.5v190zM598 143q133 0 223 100.5t90 251.5t-90.5 251t-222.5 100q-134 0 -224.5 -97t-90.5 -254t90.5 -254.5t224.5 -97.5z" glyph-name="uni1EA9.ss02" horiz-adv-x="1262"/><glyph d="M518 1771q-40 0 -62.5 -37t-22.5 -96h-104q0 103 50.5 168.5t134.5 65.5q104 0 165 -98q29 -48 78 -48q40 0 61.5 35.5t21.5 95.5h104q0 -102 -49.5 -167.5t-135.5 -65.5q-104 0 -165 97q-33 50 -76 50zM563 1467h135l214 -296h-129l-153 205l-154 -205h-127zM905 990 h185v-990h-185l-5 180q-46 -93 -138 -147t-205 -54q-95 0 -180 36.5t-148.5 102.5t-100.5 163.5t-37 213.5q0 153 63.5 271.5t169.5 181t233 62.5q116 0 210 -56.5t138 -153.5v190zM598 143q133 0 223 100.5t90 251.5t-90.5 251t-222.5 100q-134 0 -224.5 -97t-90.5 -254 t90.5 -254.5t224.5 -97.5z" glyph-name="uni1EAB.ss02" horiz-adv-x="1262"/><glyph d="M440 1209q-51 0 -88.5 37t-37.5 88t37.5 87.5t88.5 36.5t87.5 -36.5t36.5 -87.5q0 -52 -37 -88.5t-87 -36.5zM824 1209q-52 0 -89 36.5t-37 88.5t37 88t89 36q51 0 87.5 -36.5t36.5 -87.5q0 -52 -37 -88.5t-87 -36.5zM905 990h185v-990h-185l-5 180q-46 -93 -138 -147 t-205 -54q-95 0 -180 36.5t-148.5 102.5t-100.5 163.5t-37 213.5q0 153 63.5 271.5t169.5 181t233 62.5q116 0 210 -56.5t138 -153.5v190zM598 143q133 0 223 100.5t90 251.5t-90.5 251t-222.5 100q-134 0 -224.5 -97t-90.5 -254t90.5 -254.5t224.5 -97.5z" glyph-name="adieresis.ss02" horiz-adv-x="1262"/><glyph d="M905 990h185v-990h-185l-5 180q-46 -93 -138 -147t-205 -54q-95 0 -180 36.5t-148.5 102.5t-100.5 163.5t-37 213.5q0 153 63.5 271.5t169.5 181t233 62.5q116 0 210 -56.5t138 -153.5v190zM598 143q133 0 223 100.5t90 251.5t-90.5 251t-222.5 100q-134 0 -224.5 -97 t-90.5 -254t90.5 -254.5t224.5 -97.5zM632 -263q50 0 87 -36.5t37 -87.5q0 -52 -36.5 -88.5t-87.5 -36.5t-88.5 36.5t-37.5 88.5q0 51 37.5 87.5t88.5 36.5z" glyph-name="uni1EA1.ss02" horiz-adv-x="1262"/><glyph d="M696 1155h-129l-224 260l100 73zM905 990h185v-990h-185l-5 180q-46 -93 -138 -147t-205 -54q-95 0 -180 36.5t-148.5 102.5t-100.5 163.5t-37 213.5q0 153 63.5 271.5t169.5 181t233 62.5q116 0 210 -56.5t138 -153.5v190zM598 143q133 0 223 100.5t90 251.5t-90.5 251 t-222.5 100q-134 0 -224.5 -97t-90.5 -254t90.5 -254.5t224.5 -97.5z" glyph-name="agrave.ss02" horiz-adv-x="1262"/><glyph d="M619 1396q-45 0 -86 -33l-54 74q61 50 144 50t134.5 -47t51.5 -122q0 -117 -129 -157v-77h-94v122q117 24 117 107q0 36 -22 59.5t-62 23.5zM905 990h185v-990h-185l-5 180q-46 -93 -138 -147t-205 -54q-95 0 -180 36.5t-148.5 102.5t-100.5 163.5t-37 213.5 q0 153 63.5 271.5t169.5 181t233 62.5q116 0 210 -56.5t138 -153.5v190zM598 143q133 0 223 100.5t90 251.5t-90.5 251t-222.5 100q-134 0 -224.5 -97t-90.5 -254t90.5 -254.5t224.5 -97.5z" glyph-name="uni1EA3.ss02" horiz-adv-x="1262"/><glyph d="M955 1302v-121h-649v121h649zM905 990h185v-990h-185l-5 180q-46 -93 -138 -147t-205 -54q-95 0 -180 36.5t-148.5 102.5t-100.5 163.5t-37 213.5q0 153 63.5 271.5t169.5 181t233 62.5q116 0 210 -56.5t138 -153.5v190zM598 143q133 0 223 100.5t90 251.5t-90.5 251 t-222.5 100q-134 0 -224.5 -97t-90.5 -254t90.5 -254.5t224.5 -97.5z" glyph-name="amacron.ss02" horiz-adv-x="1262"/><glyph d="M1090 0l-9 -9q-160 -159 -160 -218q0 -41 73 -41q54 0 96 31v-136q-51 -20 -114 -20q-86 0 -132.5 25.5t-46.5 71.5q0 95 199 296h-91l-5 180q-46 -93 -138 -147t-205 -54q-95 0 -180 36.5t-148.5 102.5t-100.5 163.5t-37 213.5q0 153 63.5 271.5t169.5 181t233 62.5 q116 0 210 -56.5t138 -153.5v190h185v-990zM598 143q133 0 223 100.5t90 251.5t-90.5 251t-222.5 100q-134 0 -224.5 -97t-90.5 -254t90.5 -254.5t224.5 -97.5z" glyph-name="aogonek.ss02" horiz-adv-x="1262"/><glyph d="M631 1120q-90 0 -153.5 63.5t-63.5 151.5q0 89 63.5 151.5t153.5 62.5q87 0 149.5 -63t62.5 -151t-62.5 -151.5t-149.5 -63.5zM631 1462q-52 0 -88 -37.5t-36 -89.5q0 -54 35.5 -89t88.5 -35q52 0 87.5 35.5t35.5 88.5q0 52 -36 89.5t-87 37.5zM905 990h185v-990h-185 l-5 180q-46 -93 -138 -147t-205 -54q-95 0 -180 36.5t-148.5 102.5t-100.5 163.5t-37 213.5q0 153 63.5 271.5t169.5 181t233 62.5q116 0 210 -56.5t138 -153.5v190zM598 143q133 0 223 100.5t90 251.5t-90.5 251t-222.5 100q-134 0 -224.5 -97t-90.5 -254t90.5 -254.5 t224.5 -97.5z" glyph-name="aring.ss02" horiz-adv-x="1262"/><glyph d="M519 1294q-40 0 -62.5 -37t-22.5 -96h-104q0 103 50.5 168.5t134.5 65.5q104 0 165 -98q29 -48 78 -48q40 0 61.5 35.5t21.5 95.5h104q0 -102 -49.5 -167.5t-135.5 -65.5q-104 0 -165 97q-33 50 -76 50zM905 990h185v-990h-185l-5 180q-46 -93 -138 -147t-205 -54 q-95 0 -180 36.5t-148.5 102.5t-100.5 163.5t-37 213.5q0 153 63.5 271.5t169.5 181t233 62.5q116 0 210 -56.5t138 -153.5v190zM598 143q133 0 223 100.5t90 251.5t-90.5 251t-222.5 100q-134 0 -224.5 -97t-90.5 -254t90.5 -254.5t224.5 -97.5z" glyph-name="atilde.ss02" horiz-adv-x="1262"/><glyph d="M226 0v839h-191v151h191v191q0 91 21 156t55.5 103t90.5 60t113.5 29t137.5 7v-159q-33 0 -48 -0.5t-44 -4t-44 -10.5t-35.5 -21.5t-30.5 -35t-17.5 -53t-7.5 -74.5v-188h264q151 0 151 144v185h164v-329h224v-151h-224v-543q0 -70 36.5 -107.5t97.5 -37.5h88v-151h-144 q-127 0 -199 72.5t-72 203.5v563h-386v-839h-191z" glyph-name="f_t" horiz-adv-x="1294"/><glyph d="M497 0q-126 0 -198 72.5t-72 203.5v563h-202v151h80q67 0 101.5 33t34.5 96v146h179v-275h298q136 0 136 129v146h179v-275h224v-151h-224v-543q0 -69 36.5 -107t96.5 -38h88v-151h-144q-126 0 -198 72.5t-72 203.5v563h-420v-543q0 -69 36.5 -107t96.5 -38h88v-151h-144 z" glyph-name="t_t" horiz-adv-x="1330"/><glyph d="M401 -381q-146 0 -240 133.5t-94 339.5q0 207 94 340t240 133q148 0 242.5 -133t94.5 -340t-94.5 -340t-242.5 -133zM402 -258q89 0 148.5 98.5t59.5 251.5t-59.5 251.5t-148.5 98.5t-148.5 -98.5t-59.5 -251.5t59.5 -251.5t148.5 -98.5z" glyph-name="zero.subs" horiz-adv-x="804"/><glyph d="M226 553h117v-922h-124v797l-215 -166v125z" glyph-name="one.subs" horiz-adv-x="481"/><glyph d="M168 -267h496v-102h-627v119q204 163 309.5 265t137.5 157.5t32 112.5q0 88 -46.5 131.5t-116.5 42.5q-76 -2 -119 -51t-45 -125h-129q1 125 85.5 204.5t214.5 79.5q120 0 197.5 -73t80.5 -193q3 -124 -99.5 -248.5t-370.5 -319.5z" glyph-name="two.subs" horiz-adv-x="718"/><glyph d="M485 141q70 -34 110 -95.5t40 -139.5q0 -119 -86.5 -203t-213.5 -84q-123 0 -208.5 77.5t-85.5 192.5h123q1 -71 52 -116t123 -45q75 0 123.5 49t48.5 126t-49 124.5t-128 47.5h-66v100h59q64 0 104.5 40.5t40.5 104.5q0 63 -39 101t-100 38q-60 0 -99.5 -37.5 t-41.5 -103.5l-120 1q0 107 74.5 176.5t184.5 69.5q108 0 180.5 -68t72.5 -171q0 -122 -99 -185z" glyph-name="three.subs" horiz-adv-x="699"/><glyph d="M668 -75v-99h-101v-195h-121v195h-435v100l395 627h161v-628h101zM125 -75h321v523z" glyph-name="four.subs" horiz-adv-x="724"/><glyph d="M371 226q168 0 249 -79.5t81 -217.5q0 -137 -90.5 -222.5t-228.5 -85.5q-126 0 -215.5 65.5t-102.5 189.5h128q13 -74 65.5 -111t120.5 -37q88 0 141.5 55.5t53.5 142.5q0 196 -220 196h-263l85 432h487v-109h-395l-43 -219h147z" glyph-name="five.subs" horiz-adv-x="765"/><glyph d="M683 -51q5 -139 -90 -231.5t-229 -96.5t-233 82t-103 223q-3 120 78 217l318 410h150l-256 -312q24 8 56 8q120 2 212 -86t97 -214zM364 -262q85 4 143.5 65t53.5 147q-4 87 -67 142t-146 51q-87 -4 -144 -64.5t-53 -148.5t66 -142t147 -50z" glyph-name="six.subs" horiz-adv-x="717"/><glyph d="M24 553h620v-86l-464 -836h-145l455 806h-466v116z" glyph-name="seven.subs" horiz-adv-x="640"/><glyph d="M523 141q68 -36 107 -99.5t39 -141.5q0 -118 -87 -199.5t-215 -81.5q-129 0 -216 81.5t-87 199.5q0 79 39.5 142t108.5 99q-94 62 -94 190q0 100 71 167t179 67q106 0 177 -67.5t71 -166.5q0 -127 -93 -190zM368 461q-61 0 -101 -40t-40 -101q0 -60 40.5 -100t100.5 -40 q58 0 98 40.5t40 99.5q0 61 -39.5 101t-98.5 40zM367 -270q75 0 126.5 53t51.5 130q0 75 -51.5 126.5t-126.5 51.5q-76 0 -127.5 -51.5t-51.5 -126.5q0 -77 51.5 -130t127.5 -53z" glyph-name="eight.subs" horiz-adv-x="734"/><glyph d="M689 258q3 -114 -77 -217l-318 -410h-151l257 313q-24 -7 -59 -9q-118 -2 -211 86.5t-98 213.5q-4 138 91.5 231t228.5 97q134 4 233.5 -82t103.5 -223zM370 42q87 4 143.5 64t52.5 149q-4 87 -65.5 141.5t-146.5 49.5q-87 -4 -145 -64.5t-53 -146.5q4 -88 67 -143 t147 -50z" glyph-name="nine.subs" horiz-adv-x="718"/><glyph d="M401 -12q-146 0 -240 133t-94 340q0 206 94 339.5t240 133.5q148 0 242.5 -133t94.5 -340t-94.5 -340t-242.5 -133zM402 111q89 0 148.5 98.5t59.5 251.5t-59.5 251.5t-148.5 98.5t-148.5 -98.5t-59.5 -251.5t59.5 -251.5t148.5 -98.5z" glyph-name="zero.dnom" horiz-adv-x="804"/><glyph d="M226 922h117v-922h-124v797l-215 -167v126z" glyph-name="one.dnom" horiz-adv-x="481"/><glyph d="M168 102h496v-102h-627v118q204 164 309.5 265.5t137.5 157t32 112.5q0 89 -46.5 132.5t-116.5 41.5q-77 -2 -119.5 -50.5t-44.5 -124.5h-129q1 125 85.5 204.5t214.5 79.5q120 0 197.5 -73t80.5 -193q3 -124 -99.5 -248.5t-370.5 -319.5z" glyph-name="two.dnom" horiz-adv-x="718"/><glyph d="M484 509q70 -34 110.5 -95t40.5 -140q0 -119 -86.5 -202.5t-213.5 -83.5q-123 0 -208.5 77.5t-85.5 192.5h123q1 -71 52 -116.5t123 -45.5q75 0 123.5 49t48.5 127q0 76 -48.5 123t-128.5 47h-66v102h59q64 0 104.5 40t40.5 105q0 63 -39.5 101t-99.5 38t-99.5 -38 t-41.5 -104l-120 2q0 107 74.5 176.5t184.5 69.5q108 0 180.5 -68.5t72.5 -171.5q0 -120 -100 -185z" glyph-name="three.dnom" horiz-adv-x="699"/><glyph d="M668 293v-98h-101v-195h-121v195h-435v100l395 627h161v-629h101zM125 293h321v524z" glyph-name="four.dnom" horiz-adv-x="724"/><glyph d="M371 595q168 0 249 -79.5t81 -217.5t-90.5 -223.5t-228.5 -85.5q-126 0 -215.5 66t-102.5 190h128q13 -74 65.5 -111t120.5 -37q88 0 141.5 55t53.5 142q0 197 -220 197h-263l85 431h487v-108h-395l-43 -219h147z" glyph-name="five.dnom" horiz-adv-x="765"/><glyph d="M683 318q5 -139 -90 -231.5t-229 -96.5q-133 -5 -232.5 81.5t-103.5 223.5q-3 118 78 217l318 410h150l-257 -313q23 7 57 9q120 2 212 -86t97 -214zM364 107q85 4 143.5 64.5t53.5 146.5q-4 88 -67 143t-146 50q-87 -4 -144 -64t-53 -149q4 -87 66 -141.5t147 -49.5z" glyph-name="six.dnom" horiz-adv-x="717"/><glyph d="M24 922h620v-87l-464 -835h-145l455 805h-466v117z" glyph-name="seven.dnom" horiz-adv-x="640"/><glyph d="M523 510q68 -36 107 -99.5t39 -141.5q0 -118 -87 -199.5t-215 -81.5q-129 0 -216 81.5t-87 199.5q0 78 39.5 141.5t107.5 99.5q-93 63 -93 190q0 99 71 166.5t179 67.5q105 0 176.5 -67.5t71.5 -166.5q0 -127 -93 -190zM368 829q-60 0 -100.5 -40.5t-40.5 -99.5 t40.5 -99.5t100.5 -40.5q58 0 98 40.5t40 99.5t-40 99.5t-98 40.5zM367 98q75 0 126.5 53.5t51.5 130.5q0 75 -51.5 126.5t-126.5 51.5q-76 0 -127.5 -51.5t-51.5 -126.5q0 -77 51.5 -130.5t127.5 -53.5z" glyph-name="eight.dnom" horiz-adv-x="734"/><glyph d="M689 627q3 -115 -77 -217l-318 -410h-151l255 312q-26 -8 -57 -8q-117 -2 -210.5 86t-98.5 214q-4 137 91.5 230.5t228.5 97.5q134 4 233.5 -82.5t103.5 -222.5zM370 410q86 4 143 64.5t53 148.5t-65.5 142t-146.5 50q-87 -4 -145 -65t-53 -147q4 -87 67 -142t147 -51z" glyph-name="nine.dnom" horiz-adv-x="718"/><glyph d="M401 488q-146 0 -240 133.5t-94 339.5q0 207 94 340t240 133q148 0 242.5 -133t94.5 -340t-94.5 -340t-242.5 -133zM402 611q89 0 148.5 98.5t59.5 251.5q0 154 -59.5 251.5t-148.5 97.5q-90 0 -149 -97.5t-59 -251.5q0 -153 59 -251.5t149 -98.5z" glyph-name="zero.numr" horiz-adv-x="804"/><glyph d="M227 1414h117v-922h-125v797l-214 -165l-1 124z" glyph-name="one.numr" horiz-adv-x="481"/><glyph d="M168 600h496v-102h-627v119q204 163 309.5 265t137.5 157.5t32 112.5q0 88 -46.5 131.5t-116.5 42.5q-76 -2 -119 -51t-45 -125h-129q1 125 85.5 204.5t214.5 79.5q120 0 197.5 -73t80.5 -193q3 -124 -99.5 -248.5t-370.5 -319.5z" glyph-name="two.numr" horiz-adv-x="718"/><glyph d="M482 1010q71 -34 112 -95t41 -140q0 -120 -86.5 -203.5t-212.5 -83.5q-124 0 -209.5 77.5t-85.5 192.5h128q0 -71 48.5 -116t119.5 -45q74 0 122 49t48 127q0 76 -50 123t-131 47h-58v101h51q67 0 107.5 40t40.5 106q0 62 -38.5 100.5t-96.5 38.5q-59 0 -97 -38t-38 -104 l-125 1q0 108 74 177t186 69q108 0 180 -68t72 -172q0 -122 -102 -184z" glyph-name="three.numr" horiz-adv-x="699"/><glyph d="M668 786v-99h-101v-195h-121v195h-435v100l395 627h161v-628h101zM125 786h321v523z" glyph-name="four.numr" horiz-adv-x="724"/><glyph d="M371 1086q168 0 249 -79.5t81 -217.5q0 -137 -90.5 -222.5t-228.5 -85.5q-125 0 -215 65.5t-103 189.5h128q13 -74 65.5 -110.5t120.5 -36.5q88 0 141.5 55t53.5 142q0 196 -220 196h-263l85 432h487v-109h-395l-43 -219h147z" glyph-name="five.numr" horiz-adv-x="765"/><glyph d="M683 810q5 -139 -90 -231.5t-229 -96.5t-233 82t-103 223q-3 120 78 217l318 410h150l-256 -312q24 8 56 8q120 3 212 -85.5t97 -214.5zM364 599q85 4 143.5 65t53.5 146q-4 88 -67 143t-146 51q-87 -5 -144 -65t-53 -148t66 -142t147 -50z" glyph-name="six.numr" horiz-adv-x="717"/><glyph d="M24 1414h620v-87l-464 -835h-145l455 806h-466v116z" glyph-name="seven.numr" horiz-adv-x="640"/><glyph d="M522 1010q68 -35 107.5 -98.5t39.5 -142.5q0 -118 -87 -199.5t-215 -81.5q-129 0 -216 81.5t-87 199.5q0 79 39.5 142.5t108.5 99.5q-94 61 -94 189q0 100 71 167t179 67q105 0 176.5 -67.5t71.5 -166.5q0 -127 -94 -190zM368 1330q-60 0 -100.5 -40.5t-40.5 -100.5 q0 -59 40.5 -99.5t100.5 -40.5q58 0 98 40.5t40 99.5t-40 100t-98 41zM367 599q75 0 126.5 53t51.5 130q0 75 -51.5 126.5t-126.5 51.5q-76 0 -127.5 -51.5t-51.5 -126.5q0 -77 51.5 -130t127.5 -53z" glyph-name="eight.numr" horiz-adv-x="734"/><glyph d="M362 1434q134 0 230.5 -88.5t96.5 -225.5q0 -111 -77 -208l-318 -410h-151l256 313q-25 -9 -63 -9q-119 0 -211.5 91.5t-92.5 219.5q0 137 98 227t232 90zM361 913q86 0 145.5 58t59.5 145q0 88 -59.5 144.5t-143.5 56.5q-86 0 -146.5 -57.5t-60.5 -141.5 q0 -90 60.5 -147.5t144.5 -57.5z" glyph-name="nine.numr" horiz-adv-x="717"/><glyph d="M401 976q-146 0 -240 133.5t-94 339.5q0 207 94 340t240 133q148 0 242.5 -133t94.5 -340t-94.5 -340t-242.5 -133zM402 1099q89 0 148.5 98.5t59.5 251.5t-59.5 251t-148.5 98q-90 0 -149 -98t-59 -251t59 -251.5t149 -98.5z" glyph-name="zero.sups" horiz-adv-x="804"/><glyph d="M227 1905h117v-922h-125v797l-214 -165l-1 124z" glyph-name="one.sups" horiz-adv-x="481"/><glyph d="M168 1085h496v-102h-627v118q204 164 309.5 265.5t137.5 157t32 112.5q0 89 -46.5 132.5t-116.5 41.5q-77 -2 -119.5 -50.5t-44.5 -124.5h-129q1 125 85.5 204.5t214.5 79.5q120 0 197.5 -73t80.5 -193q3 -124 -99.5 -248.5t-370.5 -319.5z" glyph-name="two.sups" horiz-adv-x="718"/><glyph d="M483 1492q71 -34 111.5 -95t40.5 -140q0 -120 -86.5 -203t-212.5 -83q-124 0 -209.5 77.5t-85.5 192.5h128q0 -71 48.5 -116.5t119.5 -45.5q74 0 122 49.5t48 127.5q0 76 -49.5 122.5t-131.5 46.5h-58v102h51q67 0 107.5 40t40.5 105q0 62 -38 100.5t-97 38.5 q-60 0 -97.5 -37.5t-37.5 -104.5l-125 2q0 107 74 176.5t186 69.5q108 0 180 -68.5t72 -171.5q0 -121 -101 -185z" glyph-name="three.sups" horiz-adv-x="699"/><glyph d="M668 1276v-98h-101v-195h-121v195h-435v100l395 627h161v-629h101zM125 1276h321v524z" glyph-name="four.sups" horiz-adv-x="724"/><glyph d="M371 1578q168 0 249 -79.5t81 -217.5t-90.5 -223.5t-228.5 -85.5q-126 0 -215.5 66t-102.5 190h128q13 -74 65.5 -111t120.5 -37q88 0 141.5 55t53.5 142q0 94 -54 145.5t-166 51.5h-263l85 431h487v-108h-395l-43 -219h147z" glyph-name="five.sups" horiz-adv-x="765"/><glyph d="M683 1301q5 -139 -90 -231.5t-229 -96.5t-233 82t-103 223q-3 118 78 217l318 410h150l-257 -313q24 8 57 9q120 2 212 -86t97 -214zM364 1090q85 4 143.5 64.5t53.5 146.5q-4 88 -67 143t-146 50q-87 -4 -144 -64t-53 -149q4 -87 66 -141.5t147 -49.5z" glyph-name="six.sups" horiz-adv-x="717"/><glyph d="M24 1905h620v-87l-464 -835h-145l455 805h-466v117z" glyph-name="seven.sups" horiz-adv-x="640"/><glyph d="M523 1493q68 -36 107 -99.5t39 -141.5q0 -118 -87 -199.5t-215 -81.5q-129 0 -216 81.5t-87 199.5q0 78 39.5 141.5t107.5 99.5q-93 63 -93 190q0 99 71 166.5t179 67.5q105 0 176.5 -68t71.5 -166q0 -127 -93 -190zM368 1812q-60 0 -100.5 -40t-40.5 -100t40.5 -100 t100.5 -40q58 0 98 40.5t40 99.5t-40 99.5t-98 40.5zM367 1081q75 0 126.5 53.5t51.5 130.5q0 75 -51.5 126.5t-126.5 51.5q-76 0 -127.5 -51.5t-51.5 -126.5q0 -77 51.5 -130.5t127.5 -53.5z" glyph-name="eight.sups" horiz-adv-x="734"/><glyph d="M689 1610q3 -115 -77 -217l-318 -410h-151l256 312q-26 -8 -58 -8q-117 -2 -210.5 86t-98.5 214q-4 137 91.5 230.5t228.5 97.5q134 4 233.5 -82t103.5 -223zM370 1393q86 4 143 64.5t53 148.5t-65.5 142t-146.5 50q-87 -4 -145 -65t-53 -147q4 -87 67 -142t147 -51z" glyph-name="nine.sups" horiz-adv-x="718"/><glyph d="M-645 1536q-51 0 -88.5 37t-37.5 88t37.5 87.5t88.5 36.5t87.5 -36.5t36.5 -87.5t-36.5 -88t-87.5 -37zM-261 1536q-52 0 -89 36.5t-37 88.5t37 88t89 36q51 0 87.5 -36.5t36.5 -87.5t-36.5 -88t-87.5 -37z" glyph-name="uni0308.case"/><glyph d="M-262 1536q-51 0 -88.5 37t-37.5 88t37.5 87.5t88.5 36.5t87.5 -36.5t36.5 -87.5t-37 -88t-87 -37z" glyph-name="uni0307.case"/><glyph d="M-185 1558l-224 260l100 73l253 -333h-129z" glyph-name="gravecomb.case"/><glyph d="M-427 1558l253 333l100 -73l-224 -260h-129z" glyph-name="acutecomb.case"/><glyph d="M-790 1558l253 333l100 -73l-224 -260h-129zM-427 1558l253 333l100 -73l-225 -260h-128z" glyph-name="uni030B.case"/><glyph d="M-504 1558h-127l214 296h135l214 -296h-129l-153 205z" glyph-name="uni0302.case"/><glyph d="M-420 1558l-214 296h128l153 -207l153 207h129l-214 -296h-135z" glyph-name="uni030C.case"/><glyph d="M-460 1558q-157 0 -250 67.5t-93 206.5h117q0 -89 61 -132.5t165 -43.5q105 0 166.5 43.5t61.5 132.5h117q0 -139 -93 -206.5t-252 -67.5z" glyph-name="uni0306.case"/><glyph d="M-333 1558q-90 0 -153.5 63.5t-63.5 151.5q0 89 63.5 151.5t153.5 62.5q87 0 149.5 -63t62.5 -151t-62.5 -151.5t-149.5 -63.5zM-333 1649q52 0 87.5 35.5t35.5 88.5q0 52 -36 89.5t-87 37.5q-52 0 -88 -37.5t-36 -89.5q0 -54 35.5 -89t88.5 -35z" glyph-name="uni030A.case"/><glyph d="M-336 1555q-62 0 -100 25t-70 68q-18 25 -28.5 37t-30.5 24t-43 12q-50 0 -77.5 -42t-27.5 -109h-104q0 109 56 178t151 69q98 0 166 -90q2 -2 12 -14.5t13 -16t12.5 -13t15.5 -13t15 -9t19 -7.5t21 -2q49 0 75 39.5t26 108.5h107q0 -107 -55.5 -176t-152.5 -69z" glyph-name="tildecomb.case"/><glyph d="M-817 1558v121h649v-121h-649z" glyph-name="uni0304.case"/><glyph d="M-340 1536v122q117 24 117 108q0 35 -22 58.5t-62 23.5q-45 0 -86 -33l-54 74q62 51 144 51q83 0 134.5 -47.5t51.5 -122.5q0 -117 -129 -156v-78h-94z" glyph-name="hookabovecomb.case"/><glyph d="M-251 1868h140l-123 -310h-200z" glyph-name="uni0312.case"/><glyph d="M-1195 -2l1104 1585l94 -59l-1102 -1582z" glyph-name="uni0338.case"/><glyph d="M-522 1701l253 333l100 -73l-224 -260h-129zM-453 1213q-152 0 -247.5 87t-95.5 236h124q0 -99 60.5 -162t158.5 -63q100 0 160.5 63t60.5 162h124q0 -149 -96 -236t-249 -87z" glyph-name="uni03060301"/><glyph d="M-516 1701l-224 260l100 73l253 -333h-129zM-453 1213q-152 0 -247.5 87t-95.5 236h124q0 -99 60.5 -162t158.5 -63q100 0 160.5 63t60.5 162h124q0 -149 -96 -236t-249 -87z" glyph-name="uni03060300"/><glyph d="M-497 1630v122q117 24 117 107q0 36 -22 59.5t-62 23.5q-45 0 -86 -33l-54 74q61 50 144 50t134.5 -47t51.5 -122q0 -117 -129 -157v-77h-94zM-453 1213q-152 0 -247.5 87t-95.5 236h124q0 -99 60.5 -162t158.5 -63q100 0 160.5 63t60.5 162h124q0 -149 -96 -236 t-249 -87z" glyph-name="uni03060309"/><glyph d="M-323 1693q-104 0 -165 97q-33 50 -76 50q-40 0 -62.5 -37t-22.5 -96h-104q0 103 50.5 168.5t134.5 65.5q104 0 165 -98q29 -48 78 -48q40 0 61.5 35.5t21.5 95.5h104q0 -102 -49.5 -167.5t-135.5 -65.5zM-453 1213q-152 0 -247.5 87t-95.5 236h124q0 -99 60.5 -162 t158.5 -63q100 0 160.5 63t60.5 162h124q0 -149 -96 -236t-249 -87z" glyph-name="uni03060303"/><glyph d="M-420 1701l253 333l100 -73l-224 -260h-129zM-504 1240h-127l214 296h135l214 -296h-129l-153 205z" glyph-name="uni03020301"/><glyph d="M-414 1701l-224 260l100 73l253 -333h-129zM-504 1240h-127l214 296h135l214 -296h-129l-153 205z" glyph-name="uni03020300"/><glyph d="M-395 1630v122q117 24 117 107q0 36 -22 59.5t-62 23.5q-46 0 -86 -33l-54 74q61 50 144 50t134.5 -47t51.5 -122q0 -117 -129 -157v-77h-94zM-504 1240h-127l214 296h135l214 -296h-129l-153 205z" glyph-name="uni03020309"/><glyph d="M-221 1693q-104 0 -165 97q-33 50 -76 50q-40 0 -62.5 -37t-22.5 -96h-104q0 103 50.5 168.5t134.5 65.5q104 0 165 -98q29 -48 78 -48q40 0 61.5 35.5t21.5 95.5h104q0 -102 -49.5 -167.5t-135.5 -65.5zM-504 1240h-127l214 296h135l214 -296h-129l-153 205z" glyph-name="uni03020303"/><glyph d="M-528 1905l253 333l100 -73l-224 -260h-129zM-460 1558q-157 0 -250 67.5t-93 206.5h117q0 -89 61 -132.5t165 -43.5q105 0 166.5 43.5t61.5 132.5h117q0 -139 -93 -206.5t-252 -67.5z" glyph-name="uni03060301.case"/><glyph d="M-522 1905l-224 260l100 73l253 -333h-129zM-460 1558q-157 0 -250 67.5t-93 206.5h117q0 -89 61 -132.5t165 -43.5q105 0 166.5 43.5t61.5 132.5h117q0 -139 -93 -206.5t-252 -67.5z" glyph-name="uni03060300.case"/><glyph d="M-503 1883v122q117 24 117 108q0 35 -22 58.5t-62 23.5q-46 0 -86 -33l-54 74q62 51 144 51q83 0 134.5 -47.5t51.5 -122.5q0 -117 -129 -156v-78h-94zM-460 1558q-157 0 -250 67.5t-93 206.5h117q0 -89 61 -132.5t165 -43.5q105 0 166.5 43.5t61.5 132.5h117 q0 -139 -93 -206.5t-252 -67.5z" glyph-name="uni03060309.case"/><glyph d="M-315 1902q-62 0 -100 25t-70 68q-18 25 -28.5 37t-30.5 24t-43 12q-50 0 -77.5 -42t-27.5 -109h-104q0 109 56 178t151 69q98 0 166 -90q2 -2 12 -14.5t13 -16t12.5 -13t15.5 -13t15 -9t19 -7.5t21 -2q49 0 75 39.5t26 108.5h107q0 -107 -55.5 -176t-152.5 -69z M-460 1558q-157 0 -250 67.5t-93 206.5h117q0 -89 61 -132.5t165 -43.5q105 0 166.5 43.5t61.5 132.5h117q0 -139 -93 -206.5t-252 -67.5z" glyph-name="uni03060303.case"/><glyph d="M-420 1952l253 333l100 -73l-224 -260h-129zM-504 1558h-127l214 296h135l214 -296h-129l-153 205z" glyph-name="uni03020301.case"/><glyph d="M-414 1952l-224 260l100 73l253 -333h-129zM-504 1558h-127l214 296h135l214 -296h-129l-153 205z" glyph-name="uni03020300.case"/><glyph d="M-395 1930v122q117 24 117 108q0 35 -22 58.5t-62 23.5q-46 0 -86 -33l-54 74q62 51 144 51q83 0 134.5 -47.5t51.5 -122.5q0 -117 -129 -156v-78h-94zM-504 1558h-127l214 296h135l214 -296h-129l-153 205z" glyph-name="uni03020309.case"/><glyph d="M-207 1949q-62 0 -100 25t-70 68q-18 25 -28.5 37t-30.5 24t-43 12q-50 0 -77.5 -42t-27.5 -109h-104q0 109 56 178t151 69q98 0 166 -90q2 -2 12 -14.5t13 -16t12.5 -13t15.5 -13t15 -9t19 -7.5t21 -2q49 0 75 39.5t26 108.5h107q0 -107 -55.5 -176t-152.5 -69z M-504 1558h-127l214 296h135l214 -296h-129l-153 205z" glyph-name="uni03020303.case"/></font>
</defs>
</svg>
