<svg xmlns="http://www.w3.org/2000/svg" xmlns:xlink="http://www.w3.org/1999/xlink" version="1.1"><metadata>Created by FontForge 20161013 at Sun Jul 23 14:11:45 2017 By ,,, Copyright (c)2016. Cerebri Sans is a trademark of Alfredo Marco Pradil. All rights reserved.</metadata><defs><font id="CerebriSans-Heavy" horiz-adv-x="0"><font-face x-height="1059" ascent="1536" bbox="-1677 -584 2888 2454" cap-height="1470" descent="-512" font-family="Cerebri Sans Heavy" font-stretch="normal" font-weight="900" panose-1="0 0 10 0 0 0 0 0 0 0" underline-position="-388" underline-thickness="102" unicode-range="U+0020-FB02" units-per-em="2048"/><glyph d="M1122 1161q-83 0 -142 58t-59 141q0 81 59 138.5t142 57.5q80 0 138 -57.5t58 -138.5q0 -83 -58 -141t-138 -58zM217 1106q0 80 14.5 142.5t40 107.5t66.5 77.5t86.5 52t108.5 31t124 15.5t140 4v-287h-9q-25 0 -38.5 -0.5t-38.5 -3t-40 -7.5t-34 -15.5t-29.5 -25.5 t-18 -38t-7.5 -53v-47h215v-277h-215v-782h-365v782h-209v277h209v47zM936 0v1059h367v-1059h-367z" glyph-name="fi" horiz-adv-x="1434" unicode="fi"/><glyph d="M217 1106q0 80 14.5 142.5t40 107.5t66.5 77.5t86.5 52t108.5 31t124 15.5t140 4v-287h-9q-25 0 -38.5 -0.5t-38.5 -3t-40 -7.5t-34 -15.5t-29.5 -25.5t-18 -38t-7.5 -53v-47h215v-277h-215v-782h-365v782h-209v277h209v47zM936 1536h369v-1536h-369v1536z" glyph-name="fl" horiz-adv-x="1436" unicode="fl"/><glyph d="M217 0v782h-209v277h209v47q0 80 14.5 142.5t40 107.5t66.5 77.5t86.5 52t108.5 31t124 15.5t140 4v-287h-9q-25 0 -38.5 -0.5t-38.5 -3t-40 -7.5t-34 -15.5t-29.5 -25.5t-18 -38t-7.5 -53v-47h372v47q0 80 14.5 142.5t40 107.5t66.5 77.5t86.5 52t108.5 31t124 15.5 t140 4v-287h-9q-25 0 -38.5 -0.5t-38.5 -3t-40 -7.5t-34 -15.5t-29.5 -25.5t-18 -38t-7.5 -53v-47h215v-277h-215v-782h-365v782h-372v-782h-365z" glyph-name="f_f" horiz-adv-x="1542" unicode="ff"/><glyph d="M131 0v1536h983v-1536h-983zM406 274h434v988h-434v-988z" glyph-name=".notdef" horiz-adv-x="1245"/><glyph glyph-name=".null"/><glyph glyph-name="nonmarkingreturn" horiz-adv-x="682"/><glyph glyph-name="space" horiz-adv-x="532"/><glyph d="M195 502l-41 968h368l-41 -968h-286zM338 -20q-82 0 -139.5 57.5t-57.5 138.5q0 83 57.5 141t139.5 58q83 0 141 -58t58 -141q0 -81 -58 -138.5t-141 -57.5z" glyph-name="exclam" horiz-adv-x="680" unicode="!"/><glyph d="M209 813l-53 657h346l-41 -657h-252zM668 813l-41 657h344l-51 -657h-252z" glyph-name="quotedbl" horiz-adv-x="1128" unicode="&quot;"/><glyph d="M297 0l43 315h-279l33 248h281l51 338h-285l43 246h275l47 323h246l-43 -323h309l45 323h248l-45 -323h282l-39 -246h-278l-47 -338h278l-35 -248h-276l-49 -315h-246l45 315h-315l-41 -315h-248zM625 563h309l49 338h-313z" glyph-name="numbersign" horiz-adv-x="1608" unicode="#"/><glyph d="M805 893q55 -18 93.5 -32t91.5 -37.5t90 -47.5t76.5 -59.5t63.5 -75t40 -92t16 -113.5q0 -109 -41 -195t-112.5 -140.5t-161.5 -84.5t-195 -37v-147h-123v147q-227 16 -380 132.5t-181 316.5l395 90q6 -92 50 -149t116 -76v305q-22 7 -68 23q-55 18 -90 31t-86 36 t-84 44.5t-70 54.5t-58 69t-35.5 85.5t-14.5 105.5q0 196 139 314.5t367 126.5v128h123v-131q90 -9 169.5 -35t150 -73t120.5 -122t70 -172l-367 -90q-23 155 -143 184v-272zM522 1057q0 -35 31 -61t90 -49v232q-121 -22 -121 -122zM766 286q55 10 85 42.5t30 85.5 q0 81 -115 136v-264z" glyph-name="dollar" horiz-adv-x="1376" unicode="$"/><glyph d="M432 754q-154 0 -261.5 107.5t-107.5 260.5q0 152 108.5 260.5t260.5 108.5q153 0 261 -108t108 -261q0 -152 -108 -260t-261 -108zM379 0l760 1470h297l-762 -1470h-295zM432 989q58 0 95.5 38t37.5 95q0 55 -39.5 94t-93.5 39q-56 0 -94.5 -38t-38.5 -95 q0 -56 38.5 -94.5t94.5 -38.5zM1391 -16q-155 0 -263 107t-108 261t108.5 261.5t262.5 107.5q152 0 259 -107.5t107 -261.5q0 -152 -107.5 -260t-258.5 -108zM1391 221q55 0 94 38t39 93q0 54 -40 93.5t-93 39.5q-57 0 -96.5 -38t-39.5 -95q0 -55 39.5 -93t96.5 -38z" glyph-name="percent" horiz-adv-x="1821" unicode="%"/><glyph d="M1563 0h-412l-84 102q-206 -122 -449 -122q-244 0 -397 121.5t-153 334.5q0 77 21 137t70.5 114t108.5 97t157 104l-26 32q-106 128 -106 260q0 149 123 233q112 78 303 78q206 0 322 -89t116 -228q0 -95 -63.5 -177t-212.5 -171l218 -265q99 166 99 330h326 q0 -158 -56.5 -308.5t-158.5 -274.5zM659 1241q-26 -20 -26 -61q0 -55 49 -113l32 -39q126 75 126 154q0 36 -30 59t-79 23q-44 0 -72 -23zM635 274q131 0 241 63l-273 334q-108 -65 -141 -95q-61 -56 -61 -132q0 -81 62 -125.5t172 -44.5z" glyph-name="ampersand" horiz-adv-x="1628" unicode="&amp;"/><glyph d="M203 813l-41 657h344l-51 -657h-252z" glyph-name="quotesingle" horiz-adv-x="664" unicode="'"/><glyph d="M500 -467q-205 160 -322 471t-117 694t117 694.5t322 471.5l213 -250q-141 -102 -229.5 -353.5t-88.5 -562.5q0 -310 88.5 -561.5t229.5 -353.5z" glyph-name="parenleft" horiz-adv-x="717" unicode="("/><glyph d="M217 -467l-213 250q141 102 229.5 353.5t88.5 561.5q0 311 -88.5 562.5t-229.5 353.5l213 250q205 -160 322 -471.5t117 -694.5t-117 -694t-322 -471z" glyph-name="parenright" horiz-adv-x="717" unicode=")"/><glyph d="M379 741l-168 101l168 194q28 32 15 55t-54 15l-256 -49v194l256 -47q41 -8 54 15t-15 55l-168 194l168 101l86 -248q9 -27 25 -37t32 0t25 37l86 248l172 -101l-172 -194q-28 -32 -15 -54.5t56 -15.5l254 47v-194l-254 49q-44 8 -56 -14t17 -56l170 -194l-172 -101 l-86 246q-9 27 -25 37t-32 0t-25 -37z" glyph-name="asterisk" horiz-adv-x="1012" unicode="*"/><glyph d="M459 205v373h-373v270h373v373h270v-373h373v-270h-373v-373h-270z" glyph-name="plus" horiz-adv-x="1188" unicode="+"/><glyph d="M377 -373h-258l127 676h372z" glyph-name="comma" horiz-adv-x="688" unicode=","/><glyph d="M129 379v307h717v-307h-717z" glyph-name="hyphen" horiz-adv-x="975" unicode="-"/><glyph d="M330 -20q-80 0 -138.5 58t-58.5 138q0 82 58.5 140.5t138.5 58.5q81 0 139.5 -58.5t58.5 -140.5q0 -80 -58.5 -138t-139.5 -58z" glyph-name="period" horiz-adv-x="662" unicode="."/><glyph d="M-39 -430l1000 1966h342l-1000 -1966h-342z" glyph-name="slash" horiz-adv-x="1264" unicode="/"/><glyph d="M637 -20q-273 0 -417 188.5t-144 566.5q0 379 144.5 567.5t416.5 188.5q270 0 414.5 -188.5t144.5 -567.5q0 -378 -144 -566.5t-415 -188.5zM637 305q194 0 194 430t-194 430q-197 0 -197 -430t197 -430z" glyph-name="zero" horiz-adv-x="1270" unicode="0"/><glyph d="M561 1470h350v-1470h-364v1103l-328 -321v371z" glyph-name="one" horiz-adv-x="1270" unicode="1"/><glyph d="M606 322h559v-322h-1065v274l582 590q100 100 100 207q0 62 -38.5 98.5t-118.5 36.5t-123 -43t-43 -145v-109l-363 37v64q0 228 140.5 355.5t384.5 127.5q233 0 377.5 -114t144.5 -314q0 -106 -45 -194.5t-140 -186.5z" glyph-name="two" horiz-adv-x="1270" unicode="2"/><glyph d="M637 -20q-292 0 -421.5 135.5t-129.5 423.5l375 16q0 -41 0.5 -62t2.5 -52t6.5 -46t13 -35.5t21.5 -30t31 -19.5t43.5 -13.5t57.5 -3.5q95 0 138.5 46.5t43.5 121.5q0 168 -162 168h-47v276h41q61 0 97 41t36 109q0 127 -155 127q-39 0 -67.5 -13t-43.5 -31.5t-23 -48.5 t-10 -53t-2 -55l-368 20q0 238 136 364t374 126q218 0 357.5 -116t139.5 -288q0 -109 -55 -187t-117 -107q43 -12 82.5 -36t76.5 -64.5t59 -104.5t22 -144q0 -213 -148 -338.5t-405 -125.5z" glyph-name="three" horiz-adv-x="1270" unicode="3"/><glyph d="M1212 590v-322h-145v-268h-365v268h-659v324l463 878h561v-880h145zM363 590h339v674z" glyph-name="four" horiz-adv-x="1270" unicode="4"/><glyph d="M608 958q295 0 440.5 -113.5t145.5 -346.5q0 -242 -146 -381.5t-389 -139.5q-152 0 -276.5 57t-198 164.5t-73.5 245.5q0 36 6 72l358 12q-6 -30 -6 -55q0 -80 50.5 -122t131.5 -42q91 0 134.5 45.5t43.5 128.5q0 88 -63 133.5t-223 45.5h-393l40 808h930v-321h-592 l-8 -191h88z" glyph-name="five" horiz-adv-x="1270" unicode="5"/><glyph d="M713 979q129 0 239 -59.5t177 -171t67 -252.5q0 -145 -79.5 -265t-209.5 -185.5t-280 -65.5q-155 0 -283.5 70t-201 189.5t-72.5 262.5q0 175 133 362l436 606h408l-369 -492q12 1 35 1zM840 506q3 90 -56 152.5t-161 62.5q-94 0 -151 -57.5t-62 -147.5q-5 -91 50 -152 t156 -61q97 0 159 57.5t65 145.5z" glyph-name="six" horiz-adv-x="1270" unicode="6"/><glyph d="M119 1470h1055v-274l-631 -1196h-412l630 1149h-642v321z" glyph-name="seven" horiz-adv-x="1270" unicode="7"/><glyph d="M637 -20q-161 0 -286 54t-198 159t-73 247q0 122 54 216.5t151 154.5q-146 114 -146 283q0 178 138.5 287.5t359.5 109.5q218 0 355.5 -109.5t137.5 -287.5q0 -167 -139 -283q96 -60 149.5 -154.5t53.5 -216.5q0 -141 -73 -246.5t-198.5 -159.5t-285.5 -54zM637 913 q67 0 115.5 45.5t48.5 112.5q0 65 -48.5 110.5t-115.5 45.5q-68 0 -116 -45t-48 -111q0 -67 48 -112.5t116 -45.5zM637 303q84 0 138 50t54 136q0 84 -54.5 134.5t-137.5 50.5q-85 0 -139 -50t-54 -135q0 -86 54.5 -136t138.5 -50z" glyph-name="eight" horiz-adv-x="1270" unicode="8"/><glyph d="M641 1491q155 0 283 -70t201 -190t73 -262q0 -178 -133 -363l-436 -606h-408l369 493q-12 -1 -35 -1q-129 0 -239 59t-177 171t-67 253q0 145 79.5 265t209.5 185.5t280 65.5zM428 965q-3 -90 56 -152.5t161 -62.5q94 0 151 57t62 147q5 91 -50 152t-157 61 q-97 0 -158.5 -57.5t-64.5 -144.5z" glyph-name="nine" horiz-adv-x="1270" unicode="9"/><glyph d="M317 608q-80 0 -138 58.5t-58 140.5q0 80 58.5 138.5t137.5 58.5q81 0 140 -58.5t59 -138.5q0 -82 -58.5 -140.5t-140.5 -58.5zM317 -20q-79 0 -137.5 58t-58.5 138q0 82 58 140.5t138 58.5q82 0 140.5 -58.5t58.5 -140.5q0 -80 -58.5 -138t-140.5 -58z" glyph-name="colon" horiz-adv-x="639" unicode=":"/><glyph d="M369 608q-80 0 -138.5 58.5t-58.5 140.5q0 80 58.5 138.5t138.5 58.5q81 0 139.5 -58.5t58.5 -138.5q0 -82 -58.5 -140.5t-139.5 -58.5zM80 -373l127 676h373l-242 -676h-258z" glyph-name="semicolon" horiz-adv-x="676" unicode=";"/><glyph d="M1200 1518v-299l-852 -431l852 -432v-303l-1130 572v325z" glyph-name="less" horiz-adv-x="1313" unicode="&lt;"/><glyph d="M197 807v270h962v-270h-962zM197 348v270h962v-270h-962z" glyph-name="equal" horiz-adv-x="1356" unicode="="/><glyph d="M113 1518l1130 -568v-325l-1130 -572v303l852 432l-852 431v299z" glyph-name="greater" horiz-adv-x="1313" unicode="&gt;"/><glyph d="M397 481v97q0 94 46 148.5t147 104.5q61 30 91 75.5t30 113.5q0 89 -47.5 130.5t-126.5 41.5q-82 0 -129.5 -42.5t-47.5 -113.5q0 -34 15 -92l-328 45q-4 46 -4 68q0 193 134 313.5t353 120.5q220 0 361 -123.5t141 -337.5q0 -87 -24 -157t-66 -117t-87.5 -77t-100.5 -50 q-68 -26 -68 -92v-56h-289zM545 -20q-83 0 -141 57.5t-58 138.5q0 83 58.5 140t140.5 57q80 0 137 -57t57 -140q0 -81 -56.5 -138.5t-137.5 -57.5z" glyph-name="question" horiz-adv-x="1092" unicode="?"/><glyph d="M887 -231q-163 0 -311 62.5t-255 169t-170 255t-63 313.5q0 216 102 398t286.5 290.5t410.5 108.5q170 0 319.5 -64t254 -171t165 -251.5t60.5 -301.5q0 -107 -28 -187t-76.5 -124.5t-105 -65.5t-122.5 -21q-40 0 -61 0.5t-56.5 6t-59 15.5t-52.5 30.5t-54 50.5h-18 q-45 -56 -112.5 -85.5t-141.5 -29.5q-109 0 -188 57t-79 156q0 45 18.5 82t43.5 60t64 42.5t67 29t66 19.5l202 54v28q0 48 -24.5 66t-73.5 18q-56 0 -87 -22.5t-42 -83.5l-231 53q26 102 118.5 159.5t241.5 57.5q52 0 97 -7t92 -26.5t80 -51t54 -84.5t21 -122v-153 q0 -75 27 -107.5t92 -32.5q64 0 96.5 41.5t32.5 151.5q0 171 -76 311t-213.5 220.5t-308.5 80.5q-172 0 -310.5 -81t-214 -216.5t-75.5 -296.5q0 -124 47.5 -236.5t128 -193t191.5 -127.5t233 -47q177 0 338 101l92 -174q-192 -125 -432 -125zM852 338q25 0 50.5 6.5t53 22 t45 47t17.5 75.5v43l-139 -43q-61 -18 -82 -38t-21 -50q0 -63 76 -63z" glyph-name="at" horiz-adv-x="1765" unicode="@"/><glyph d="M1174 0l-95 272h-588l-94 -272h-387l541 1470h469l541 -1470h-387zM600 586h370l-185 532z" glyph-name="A" horiz-adv-x="1571" unicode="A"/><glyph d="M1020 780q125 -38 192.5 -124t67.5 -236q0 -200 -119 -310t-370 -110h-627v1470h495q260 0 388.5 -105.5t128.5 -305.5q0 -197 -156 -279zM666 1159h-136v-260h136q89 0 125 35.5t36 99.5q0 125 -161 125zM717 322q112 0 153 39t41 102q0 30 -7 53t-26.5 46.5t-60 36.5 t-100.5 13h-187v-290h187z" glyph-name="B" horiz-adv-x="1339" unicode="B"/><glyph d="M829 -20q-221 0 -394 93t-271 265.5t-98 396.5q0 225 98 397.5t271 265.5t394 93q263 0 456 -129.5t267 -353.5l-356 -125q-37 122 -135.5 192t-231.5 70q-169 0 -277 -112t-108 -298t108 -297.5t277 -111.5q133 0 231.5 70t135.5 192l356 -125q-74 -224 -267 -353.5 t-456 -129.5z" glyph-name="C" horiz-adv-x="1593" unicode="C"/><glyph d="M164 0v1470h569q352 0 533.5 -195.5t181.5 -539.5t-181.5 -539.5t-533.5 -195.5h-569zM545 334h168q172 0 253 99t81 302q0 204 -81 304t-253 100h-168v-805z" glyph-name="D" horiz-adv-x="1520" unicode="D"/><glyph d="M1057 1139h-512v-240h456v-328h-456v-237h512v-334h-893v1470h893v-331z" glyph-name="E" horiz-adv-x="1180" unicode="E"/><glyph d="M1077 1139h-532v-240h456v-328h-456v-571h-381v1470h913v-331z" glyph-name="F" horiz-adv-x="1139" unicode="F"/><glyph d="M807 -20q-214 0 -382.5 93t-263.5 264.5t-95 393.5q0 226 98 399.5t271 267t394 93.5q219 0 391.5 -92t270.5 -256l-334 -178q-48 100 -132.5 150t-195.5 50q-170 0 -276.5 -112.5t-106.5 -311.5q0 -195 105.5 -315.5t292.5 -120.5q119 0 215 54t129 169h-342v301h698 v-829h-295v158q-150 -178 -442 -178z" glyph-name="G" horiz-adv-x="1651" unicode="G"/><glyph d="M1087 1470h381v-1470h-381v573h-542v-573h-381v1470h381v-569h542v569z" glyph-name="H" horiz-adv-x="1632" unicode="H"/><glyph d="M164 0v1470h381v-1470h-381z" glyph-name="I" horiz-adv-x="709" unicode="I"/><glyph d="M440 -20q-215 0 -432 110l160 311q61 -42 111.5 -62t109.5 -20q72 0 102.5 44t30.5 161v946h381v-1019q0 -230 -125.5 -350.5t-337.5 -120.5z" glyph-name="J" horiz-adv-x="1044" unicode="J"/><glyph d="M1051 0l-415 590h-91v-590h-381v1470h381v-550h88l430 550h463l-563 -704l573 -766h-485z" glyph-name="K" horiz-adv-x="1546" unicode="K"/><glyph d="M545 334h430v-334h-811v1470h381v-1136z" glyph-name="L" horiz-adv-x="1006" unicode="L"/><glyph d="M1931 0h-381l-96 1036l-311 -1036h-252l-311 1041l-97 -1041h-383l129 1470h557l230 -751l233 751h555z" glyph-name="M" horiz-adv-x="2032" unicode="M"/><glyph d="M1178 1470h381v-1470h-453l-561 954v-954h-381v1470h448l566 -949v949z" glyph-name="N" horiz-adv-x="1722" unicode="N"/><glyph d="M829 -20q-221 0 -394 93.5t-271 266t-98 395.5q0 225 98 397.5t271 265.5t394 93t394.5 -93t271.5 -265.5t98 -397.5q0 -223 -98 -395.5t-271.5 -266t-394.5 -93.5zM829 326q170 0 279 111.5t109 297.5t-109.5 298t-278.5 112t-277 -112t-108 -298t108 -297.5t277 -111.5 z" glyph-name="O" horiz-adv-x="1659" unicode="O"/><glyph d="M811 1470q146 0 258 -66.5t169.5 -177.5t57.5 -247q0 -212 -131.5 -346.5t-353.5 -134.5h-266v-498h-381v1470h647zM745 813q189 0 189 172q0 170 -189 170h-200v-342h200z" glyph-name="P" horiz-adv-x="1341" unicode="P"/><glyph d="M1647 -53l-310 -121l-181 209q-145 -55 -316 -55q-224 0 -400.5 93.5t-276.5 266t-100 395.5q0 225 100 397.5t276.5 265.5t400.5 93q225 0 401.5 -93t276.5 -265.5t100 -397.5q0 -315 -193 -521zM442 735q0 -200 111.5 -315t286.5 -115q176 0 287.5 115t111.5 315 q0 186 -112 298t-287 112q-174 0 -286 -112t-112 -298z" glyph-name="Q" horiz-adv-x="1700" unicode="Q"/><glyph d="M1380 0h-452l-383 630v-630h-381v1470h563q128 0 224.5 -35t154 -98t85.5 -143.5t28 -177.5q0 -150 -80.5 -243t-217.5 -123zM856 1012q0 147 -192 147h-119v-295h119q192 0 192 148z" glyph-name="R" horiz-adv-x="1380" unicode="R"/><glyph d="M674 -20q-163 0 -295.5 50t-221 153t-108.5 247l395 90q8 -116 74.5 -175.5t171.5 -59.5q74 0 116 34t42 97q0 49 -44.5 88t-86.5 56.5t-146 52.5q-6 2 -9.5 3.5t-9 3t-9.5 3.5q-55 18 -90.5 31t-86.5 36t-83.5 44.5t-70 54.5t-58.5 69t-35.5 85.5t-14.5 105.5 q0 203 149 322.5t390 119.5q102 0 195 -21.5t178 -67t145 -127t82 -190.5l-366 -90q-30 191 -209 191q-82 0 -130.5 -32.5t-48.5 -94.5q0 -21 13 -40t32 -32.5t54 -28t63.5 -24.5t76.5 -25q29 -9 44 -14q43 -14 72.5 -24.5t72 -27.5t72 -33t66 -38.5t62 -46t51 -55t41 -65.5 t25 -77t9.5 -90q0 -117 -46.5 -207t-127 -143.5t-180.5 -80.5t-215 -27z" glyph-name="S" horiz-adv-x="1315" unicode="S"/><glyph d="M1071 1470v-331h-332v-1139h-377v1139h-333v331h1042z" glyph-name="T" horiz-adv-x="1100" unicode="T"/><glyph d="M735 -20q-130 0 -236.5 31t-190 95t-129.5 172.5t-46 253.5v938h381v-886q0 -271 221 -271t221 271v886h381v-938q0 -145 -46 -253.5t-129.5 -172.5t-190 -95t-236.5 -31z" glyph-name="U" horiz-adv-x="1470" unicode="U"/><glyph d="M1118 1470h406l-545 -1470h-428l-541 1470h406l351 -1033z" glyph-name="V" horiz-adv-x="1534" unicode="V"/><glyph d="M387 0l-360 1470h395l248 -1050l303 1050h317l301 -1050l250 1050h395l-360 -1470h-504l-242 766l-239 -766h-504z" glyph-name="W" horiz-adv-x="2263" unicode="W"/><glyph d="M10 0l574 766l-564 704h463l326 -426l326 426h462l-563 -704l574 -766h-486l-313 453l-313 -453h-486z" glyph-name="X" horiz-adv-x="1618" unicode="X"/><glyph d="M1350 1470l-484 -767v-703h-381v697l-487 773h418l258 -434l260 434h416z" glyph-name="Y" horiz-adv-x="1348" unicode="Y"/><glyph d="M537 334h610v-334h-1061v297l609 842h-609v331h1057v-296z" glyph-name="Z" horiz-adv-x="1233" unicode="Z"/><glyph d="M131 -512v2048h584v-254h-264v-1540h264v-254h-584z" glyph-name="bracketleft" horiz-adv-x="750" unicode="["/><glyph d="M961 -430l-1000 1966h342l1000 -1966h-342z" glyph-name="backslash" horiz-adv-x="1264" unicode="\"/><glyph d="M608 -512h-584v254h264v1540h-264v254h584v-2048z" glyph-name="bracketright" horiz-adv-x="739" unicode="]"/><glyph d="M1399 340h-305l-372 819l-372 -819h-305l512 1130h330z" glyph-name="asciicircum" horiz-adv-x="1444" unicode="^"/><glyph d="M129 -307v307h1024v-307h-1024z" glyph-name="underscore" horiz-adv-x="1282" unicode="_"/><glyph d="M260 1182l-227 272l174 123l270 -395h-217z" glyph-name="grave" horiz-adv-x="489" unicode="`"/><glyph d="M1061 268q0 -151 24 -237v-31h-333l-22 109q-53 -65 -146 -97t-193 -32q-51 0 -97 8.5t-90.5 30t-76 54t-51 84t-19.5 117.5q0 65 20 117t52 87t84 63.5t103 46t122 35.5l170 43q60 15 83.5 33.5t23.5 48.5q0 34 -25 55t-55 27t-66 6q-77 0 -122.5 -33t-59.5 -111 l-321 53q38 174 165 254t361 80q50 0 93 -3.5t92.5 -14t89 -28t77 -47.5t62.5 -70t40 -98t15 -130v-420zM508 219q83 0 155 64.5t72 177.5l-239 -80q-45 -15 -69 -32.5t-24 -49.5q0 -37 30 -58.5t75 -21.5z" glyph-name="a" horiz-adv-x="1174" unicode="a"/><glyph d="M791 1079q106 0 200 -37.5t165 -106t112 -174.5t41 -235t-41 -234.5t-112 -174.5t-165 -106.5t-200 -37.5q-102 0 -184 33t-124 95l-8 -101h-344v1536h365v-567q45 54 123 82t172 28zM705 272q104 0 171.5 68t67.5 186t-67.5 186t-171.5 68q-105 0 -172.5 -68t-67.5 -186 t67.5 -186t172.5 -68z" glyph-name="b" horiz-adv-x="1358" unicode="b"/><glyph d="M635 -20q-264 0 -428 152.5t-164 397.5q0 246 164 397.5t428 151.5q220 0 364.5 -107.5t176.5 -305.5l-336 -31q-32 162 -209 162q-103 0 -163 -73.5t-60 -193.5q0 -119 60 -192.5t163 -73.5q177 0 209 162l336 -31q-32 -197 -179 -306t-362 -109z" glyph-name="c" horiz-adv-x="1217" unicode="c"/><glyph d="M862 1536h365v-1536h-344l-8 101q-42 -62 -124.5 -95t-183.5 -33q-106 0 -200 37.5t-165 106.5t-112 174.5t-41 234.5t41 235t112 174.5t165 106t200 37.5q94 0 172 -28t123 -82v567zM653 272q104 0 172 68t68 186t-67.5 186t-172.5 68q-104 0 -171.5 -68t-67.5 -186 t67.5 -186t171.5 -68z" glyph-name="d" horiz-adv-x="1358" unicode="d"/><glyph d="M1169 541l-4 -84h-756q11 -95 73 -145t153 -50q143 0 186 113l336 -43q-48 -168 -187 -260t-333 -92q-276 0 -433 144.5t-157 403.5t158 406t420 147q119 0 215.5 -31.5t171 -95t115.5 -169t42 -244.5zM627 829q-170 0 -208 -141h392q-15 68 -64 104.5t-120 36.5z" glyph-name="e" horiz-adv-x="1223" unicode="e"/><glyph d="M797 1249h-9q-25 0 -38.5 -0.5t-38.5 -3t-40 -7.5t-34 -15.5t-29.5 -25.5t-18 -38t-7.5 -53v-47h215v-277h-215v-782h-365v782h-209v277h209v47q0 80 14.5 142.5t40 107.5t66.5 77.5t86.5 52t108.5 31t124 15.5t140 4v-287z" glyph-name="f" horiz-adv-x="805" unicode="f"/><glyph d="M836 1059h346v-965q0 -162 -42.5 -278.5t-123 -184t-185 -98.5t-239.5 -31q-443 0 -565 332l303 123q45 -94 102 -135t146 -41q122 0 179.5 71.5t57.5 213.5v85q-45 -50 -122.5 -80t-168.5 -30q-97 0 -184.5 37t-153.5 103t-104.5 165.5t-38.5 216.5q0 118 38.5 216 t105 163t154.5 101t187 36q101 0 179.5 -35.5t120.5 -94.5zM623 332q98 0 163.5 65.5t65.5 165.5t-65 166t-164 66q-100 0 -165 -66t-65 -166q0 -99 65.5 -165t164.5 -66z" glyph-name="g" horiz-adv-x="1313" unicode="g"/><glyph d="M854 1079q192 0 291.5 -102t99.5 -305v-672h-366v614q0 177 -168 177q-213 0 -215 -238v-553h-365v1536h365v-599q129 142 358 142z" glyph-name="h" horiz-adv-x="1354" unicode="h"/><glyph d="M317 1161q-83 0 -142 58t-59 141q0 81 59 138.5t142 57.5q80 0 138 -57.5t58 -138.5q0 -83 -58 -141t-138 -58zM131 0v1059h367v-1059h-367z" glyph-name="i" horiz-adv-x="629" unicode="i"/><glyph d="M319 1161q-83 0 -142 58t-59 141q0 81 59 138.5t142 57.5q80 0 138 -57.5t58 -138.5q0 -83 -58 -141t-138 -58zM-68 -498v279q65 0 104.5 15t60.5 51t27.5 81.5t6.5 120.5v1010h371v-1010q0 -275 -135 -411t-435 -136z" glyph-name="j" horiz-adv-x="633" unicode="j"/><glyph d="M850 0l-305 416h-45v-416h-369v1536h369v-874h40l312 397h405l-412 -496l441 -563h-436z" glyph-name="k" horiz-adv-x="1272" unicode="k"/><glyph d="M131 0v1536h369v-1536h-369z" glyph-name="l" horiz-adv-x="631" unicode="l"/><glyph d="M1491 1079q186 0 289.5 -84t103.5 -243v-752h-364v645q0 73 -41 109.5t-103 36.5q-80 0 -132 -52.5t-52 -177.5v-561h-369v645q0 73 -40.5 109.5t-104.5 36.5q-37 0 -67.5 -11t-58 -37.5t-43 -78t-15.5 -123.5v-541h-363v1059h363v-119q116 139 317 139q253 0 342 -151 q117 151 338 151z" glyph-name="m" horiz-adv-x="1997" unicode="m"/><glyph d="M834 1079q204 0 307.5 -95t103.5 -271v-713h-366v635q0 82 -45.5 119t-118.5 37q-217 0 -219 -238v-553h-365v1059h365v-109q124 129 338 129z" glyph-name="n" horiz-adv-x="1356" unicode="n"/><glyph d="M653 -20q-274 0 -441 146t-167 404q0 171 77 296t213.5 189t317.5 64q277 0 444 -145.5t167 -403.5t-167.5 -404t-443.5 -146zM649 264q116 0 184 73.5t68 192.5q0 120 -68 193.5t-184 73.5q-109 0 -175 -74t-66 -193t66 -192.5t175 -73.5z" glyph-name="o" horiz-adv-x="1309" unicode="o"/><glyph d="M791 1079q106 0 200 -37.5t165 -106t112 -174.5t41 -235t-41 -234.5t-112 -174.5t-165 -106.5t-200 -37.5q-94 0 -172 28.5t-123 82.5v-588h-365v1563h344l8 -107q42 62 124 94.5t184 32.5zM705 272q104 0 171.5 68t67.5 186t-67.5 186t-171.5 68q-105 0 -172.5 -68 t-67.5 -186t67.5 -186t172.5 -68z" glyph-name="p" horiz-adv-x="1358" unicode="p"/><glyph d="M883 1059h344v-1563h-365v588q-45 -54 -123 -82.5t-172 -28.5q-106 0 -200 37.5t-165 106.5t-112 174.5t-41 234.5t41 235t112 174.5t165 106t200 37.5q102 0 184 -32.5t124 -94.5zM653 272q104 0 172 68t68 186t-67.5 186t-172.5 68q-104 0 -171.5 -68t-67.5 -186 t67.5 -186t171.5 -68z" glyph-name="q" horiz-adv-x="1358" unicode="q"/><glyph d="M479 900q44 68 143 119.5t209 51.5v-319q-92 0 -151.5 -11.5t-101.5 -41.5t-60 -81.5t-18 -132.5v-485h-369v1059h348v-159z" glyph-name="r" horiz-adv-x="846" unicode="r"/><glyph d="M526 -20q-194 0 -322.5 73t-158.5 221l301 84q26 -73 72 -102t110 -29q113 0 113 70q0 35 -33.5 59.5t-77 36t-117 31t-122.5 39.5q-48 19 -84 41t-69 56t-50.5 82.5t-17.5 109.5q0 161 120.5 244t319.5 83q112 0 199 -26t152 -90.5t87 -165.5l-276 -60q-27 59 -65.5 83 t-96.5 24q-51 0 -81 -15t-30 -43q0 -18 12.5 -31.5t40 -24t53 -17.5t71.5 -18t75 -19q70 -20 123 -43.5t106 -63.5t82 -102.5t29 -144.5q0 -92 -37.5 -160t-104 -106.5t-147 -57t-176.5 -18.5z" glyph-name="s" horiz-adv-x="1024" unicode="s"/><glyph d="M559 0q-168 0 -258 92.5t-90 263.5v426h-203v277h60q93 0 140.5 48t47.5 177v109h326v-334h202v-277h-202v-385q0 -66 26.5 -95.5t81.5 -29.5h94v-272h-225z" glyph-name="t" horiz-adv-x="858" unicode="t"/><glyph d="M858 1059h365v-1059h-344l-10 122q-59 -68 -149 -105t-200 -37q-204 0 -307.5 95t-103.5 271v713h366v-635q0 -82 45.5 -119t118.5 -37q217 0 219 238v553z" glyph-name="u" horiz-adv-x="1354" unicode="u"/><glyph d="M838 1059h385l-463 -1059h-320l-456 1059h383l234 -651z" glyph-name="v" horiz-adv-x="1206" unicode="v"/><glyph d="M1487 1059h375l-373 -1061h-342l-218 628l-222 -628h-347l-366 1061h375l192 -612l225 612h281l224 -609z" glyph-name="w" horiz-adv-x="1855" unicode="w"/><glyph d="M-10 0l450 530l-450 529h456l213 -291l215 291h455l-452 -531l452 -528h-455l-212 287l-213 -287h-459z" glyph-name="x" horiz-adv-x="1319" unicode="x"/><glyph d="M848 1059h371l-678 -1557h-367l259 554l-449 1003h395l224 -618z" glyph-name="y" horiz-adv-x="1202" unicode="y"/><glyph d="M942 1059l-409 -783h385v-276h-889l406 782h-367v277h874z" glyph-name="z" horiz-adv-x="979" unicode="z"/><glyph d="M539 -483q-170 0 -266.5 85.5t-96.5 215.5v387q0 31 -1.5 54.5t-3 42.5t-6.5 33.5t-8.5 24.5t-13 18.5t-15 13.5t-20.5 10.5t-23.5 8t-29 8t-32.5 9.5v195q11 3 32.5 9t29 8.5t23 8t20.5 10t15.5 13.5t13 19t8 25t7 34t3 43t1.5 55v387q0 130 96.5 215.5t266.5 85.5h147 v-258h-76q-41 0 -66.5 -21t-25.5 -67v-332q0 -75 -10 -124t-38 -93t-83.5 -71.5t-142.5 -43.5q87 -17 142.5 -44.5t83.5 -71.5t38 -92.5t10 -122.5v-336q0 -50 21 -68t71 -18h76v-256h-147z" glyph-name="braceleft" horiz-adv-x="731" unicode="{"/><glyph d="M197 -307v1843h223v-1843h-223z" glyph-name="bar" horiz-adv-x="616" unicode="|"/><glyph d="M188 -483h-147v256h76q50 0 71 18t21 68v336q0 74 10 122.5t38 92.5t83.5 71.5t142.5 44.5q-87 16 -142.5 43.5t-83.5 71.5t-38 93t-10 124v332q0 46 -25.5 67t-66.5 21h-76v258h147q170 0 266.5 -85.5t96.5 -215.5v-387q0 -31 1.5 -55t3 -43t7 -34t8 -25t13 -19 t15.5 -13.5t20.5 -10t23 -8t29 -8.5t32.5 -9v-195q-12 -4 -32.5 -9.5t-29 -8t-23.5 -8t-20.5 -10.5t-15 -13.5t-13 -18.5t-8.5 -24.5t-6.5 -33.5t-3 -42.5t-1.5 -54.5v-387q0 -130 -96.5 -215.5t-266.5 -85.5z" glyph-name="braceright" horiz-adv-x="727" unicode="}"/><glyph d="M877 295q-49 0 -93.5 12t-80.5 34.5t-58 39.5t-48.5 43.5t-31.5 30.5q-35 30 -67 30q-40 0 -66 -28t-36 -66t-11 -84h-252q-9 194 90 312t283 118q93 0 152.5 -33.5t115.5 -111.5q12 -16 19.5 -25t24.5 -18.5t36 -9.5q48 0 80.5 48t26.5 128h247q20 -179 -75 -299.5 t-256 -120.5z" glyph-name="asciitilde" horiz-adv-x="1350" unicode="~"/><glyph d="M338 1075q83 0 141 -57.5t58 -138.5q0 -83 -58 -141t-141 -58q-82 0 -139.5 58t-57.5 141q0 81 57.5 138.5t139.5 57.5zM195 553h286l41 -968h-368z" glyph-name="exclamdown" horiz-adv-x="680" unicode="¡"/><glyph d="M635 524q99 0 158 94l247 -221q-125 -143 -325 -171v-226h-209v234q-188 40 -301 184t-113 352t113 352t301 184v230h209v-222q200 -28 325 -171l-247 -221q-59 94 -158 94q-84 0 -139.5 -66.5t-55.5 -179.5t55.5 -179.5t139.5 -66.5z" glyph-name="cent" horiz-adv-x="1106" unicode="¢"/><glyph d="M117 0v211l57 16q90 27 90 133v218h-147v256h147v108q0 242 145.5 397.5t376.5 155.5q63 0 122.5 -12t116.5 -41.5t99.5 -73.5t68.5 -112.5t26 -153.5q0 -32 -5 -74l-313 -72q14 57 14 105q0 139 -137 139q-182 0 -182 -258v-108h254v-256h-254v-271h580v-307h-1059z" glyph-name="sterling" horiz-adv-x="1327" unicode="£"/><glyph d="M324 176l-191 201l111 110q-68 118 -68 254q0 139 68 258l-109 109l191 201l114 -115q121 68 258 68q136 0 254 -68l113 113l195 -195l-111 -111q65 -114 65 -258q0 -142 -65 -258l108 -108l-190 -201l-115 115q-120 -66 -256 -66q-135 0 -258 66zM696 496 q105 0 175.5 74.5t70.5 174.5q0 102 -72 173t-174 71t-173.5 -74t-71.5 -176q0 -105 73 -174t172 -69z" glyph-name="currency" horiz-adv-x="1393" unicode="¤"/><glyph d="M532 0v182h-303v209h303v178h-303v209h252l-436 692h418l258 -434l260 434h416l-436 -692h251v-209h-299v-178h299v-209h-299v-182h-381z" glyph-name="yen" horiz-adv-x="1442" unicode="¥"/><glyph d="M197 799v737h223v-737h-223zM197 -307v737h223v-737h-223z" glyph-name="brokenbar" horiz-adv-x="616" unicode="¦"/><glyph d="M1042 249q107 -99 107 -251q0 -103 -41 -182.5t-112.5 -127t-160 -71t-190.5 -23.5q-220 0 -372 103.5t-179 290.5l314 71q12 -107 79 -163t170 -56q82 0 130.5 36.5t48.5 107.5q0 82 -110 135q-49 24 -187 67q-49 15 -82.5 27t-79 31.5t-76 39t-63.5 49t-52.5 62t-32 76 t-12.5 94.5q0 167 117 271q-117 94 -117 249q0 182 132 287t343 105q92 0 175 -19.5t157 -60t126.5 -111t70.5 -164.5l-293 -73q-32 182 -217 182q-84 0 -135 -34t-51 -103q0 -25 14 -46t32.5 -35.5t56 -30t65.5 -24.5t79 -25q15 -5 23 -7q53 -17 86.5 -28.5t83.5 -33 t82 -41.5t69.5 -51.5t58.5 -66.5t35.5 -82.5t14.5 -102.5q0 -167 -107 -271zM449 573q0 -25 12.5 -45t34 -35.5t53.5 -29t66.5 -25t76.5 -24.5q18 -5 27 -8q34 -10 51 -16q66 33 66 114q0 30 -15 55.5t-35 43t-60.5 36t-70 29t-84.5 28.5q-57 -9 -89.5 -40t-32.5 -83z" glyph-name="section" horiz-adv-x="1270" unicode="§"/><glyph d="M281 1161q-83 0 -142 58t-59 141q0 81 59 138.5t142 57.5q80 0 138 -57.5t58 -138.5q0 -83 -58 -141t-138 -58zM750 1161q-83 0 -142 58t-59 141q0 81 59 138.5t142 57.5q80 0 138 -57.5t58 -138.5q0 -83 -58 -141t-138 -58z" glyph-name="dieresis" horiz-adv-x="1028" unicode="¨"/><glyph d="M846 -20q-153 0 -293 60t-241.5 161t-161.5 241t-60 293t60 293t161.5 241.5t241.5 161.5t293 60t293 -60t241.5 -161.5t161.5 -241.5t60 -293t-60 -293t-161.5 -241t-241.5 -161t-293 -60zM846 162q158 0 289.5 76t207.5 207.5t76 289.5q0 159 -76 290.5t-207.5 207.5 t-289.5 76q-159 0 -290.5 -76t-207.5 -207.5t-76 -290.5q0 -158 76 -289.5t207.5 -207.5t290.5 -76zM852 315q-173 0 -296.5 123.5t-123.5 296.5q0 175 123 297.5t297 122.5q101 0 189.5 -44.5t146.5 -121.5l-158 -119q-60 93 -178 93q-94 0 -156.5 -64.5t-62.5 -163.5 q0 -98 62.5 -161.5t156.5 -63.5q117 0 178 92l158 -119q-58 -78 -146.5 -123t-189.5 -45z" glyph-name="copyright" horiz-adv-x="1692" unicode="©"/><glyph d="M584 1470h200v-614h-200v69q-75 -81 -189 -81q-126 0 -213.5 92.5t-87.5 226.5t87.5 227t213.5 93q113 0 189 -81v68zM438 1018q60 0 103 42.5t43 102.5q0 61 -43 103.5t-103 42.5t-102.5 -42.5t-42.5 -103.5q0 -60 42.5 -102.5t102.5 -42.5z" glyph-name="ordfeminine" horiz-adv-x="946" unicode="ª"/><glyph d="M334 305l-311 377l311 377h287l-312 -377l312 -377h-287zM854 305l-311 377l311 377h289l-312 -377l312 -377h-289z" glyph-name="guillemotleft" horiz-adv-x="1178" unicode="«"/><glyph d="M1206 242v524h-1112v293h1403v-817h-291z" glyph-name="logicalnot" horiz-adv-x="1694" unicode="¬"/><glyph d="M129 379v307h717v-307h-717z" glyph-name="uni00AD" horiz-adv-x="975" unicode="­"/><glyph d="M877 1491q153 0 292.5 -60t241 -161.5t161.5 -241.5t60 -293t-60 -293t-161.5 -241t-241 -161t-292.5 -60t-293 60t-241.5 161t-161.5 241t-60 293t60 293t161.5 241.5t241.5 161.5t293 60zM877 162q158 0 289.5 76t207.5 207.5t76 289.5q0 159 -76 290.5t-207.5 207.5 t-289.5 76q-241 0 -407.5 -166.5t-166.5 -407.5q0 -158 76 -289.5t207.5 -207.5t290.5 -76zM1206 893q0 -69 -32.5 -125t-89.5 -87l145 -347h-217l-117 317h-88v-317h-199v803h355q102 0 172.5 -71t70.5 -173zM807 965v-152h123q37 0 61.5 22t24.5 54q0 33 -24.5 54.5 t-61.5 21.5h-123z" glyph-name="registered" horiz-adv-x="1753" unicode="®"/><glyph d="M127 1210v209h676v-209h-676z" glyph-name="macron" horiz-adv-x="930" unicode="¯"/><glyph d="M444 852q-134 0 -226.5 92t-92.5 227q0 134 92.5 227t226.5 93t227 -93t93 -227q0 -135 -92.5 -227t-227.5 -92zM444 1049q52 0 86.5 35t34.5 87q0 53 -34.5 87t-86.5 34t-86 -34.5t-34 -86.5t34 -87t86 -35z" glyph-name="degree" horiz-adv-x="889" unicode="°"/><glyph d="M496 387v373h-373v270h373v373h270v-373h373v-270h-373v-373h-270zM111 -2v270h1028v-270h-1028z" glyph-name="plusminus" horiz-adv-x="1253" unicode="±"/><glyph d="M12 1182l271 395l174 -123l-228 -272h-217z" glyph-name="acute" horiz-adv-x="489" unicode="´"/><glyph d="M893 1059h311v-1059h-311v112q-121 -132 -295 -132q-55 0 -113 16v-508h-288v1571h311v-625q0 -76 53 -129t129 -53q86 0 144.5 52.5t58.5 129.5v625z" glyph-name="uni00B5" horiz-adv-x="1348" unicode="µ"/><glyph d="M442 -307v1091h-22q-171 0 -268 89.5t-97 254.5q0 166 97 254t268 88h203v-1777h-181zM813 -307v1777h182v-1777h-182z" glyph-name="paragraph" horiz-adv-x="1192" unicode="¶"/><glyph d="M285 596q-58 0 -100 41t-42 100q0 57 42.5 99.5t99.5 42.5q55 0 98 -42.5t43 -99.5q0 -59 -42.5 -100t-98.5 -41z" glyph-name="periodcentered" horiz-adv-x="569" unicode="·"/><glyph d="M289 -532q-93 0 -157 46.5t-85 118.5l156 50q9 -28 30.5 -43t47.5 -15q30 0 53.5 20t23.5 54q0 36 -23 56t-54 20q-48 0 -70 -37l-125 69l129 226h166l-92 -146q24 4 39 4q83 0 137.5 -54t54.5 -138q0 -97 -67 -164t-164 -67z" glyph-name="cedilla" horiz-adv-x="575" unicode="¸"/><glyph d="M432 852q-145 0 -244.5 92.5t-99.5 226.5q0 135 99.5 227.5t244.5 92.5t245.5 -93t100.5 -227q0 -133 -100.5 -226t-245.5 -93zM432 1026q60 0 103 43t43 102q0 61 -43 103.5t-103 42.5t-102.5 -42.5t-42.5 -103.5q0 -59 42.5 -102t102.5 -43z" glyph-name="ordmasculine" horiz-adv-x="866" unicode="º"/><glyph d="M35 305l311 377l-311 377h287l311 -377l-311 -377h-287zM555 305l311 377l-311 377h289l311 -377l-311 -377h-289z" glyph-name="guillemotright" horiz-adv-x="1178" unicode="»"/><glyph d="M377 549h-207l2 733l-176 -137l-2 192l192 133h191v-921zM1024 1470h221l-830 -1470h-221zM1622 346v-151h-95v-195h-198v195h-414v184l342 543h270v-576h95zM1076 346h253v426z" glyph-name="onequarter" horiz-adv-x="1654" unicode="¼"/><glyph d="M377 549h-207l2 733l-176 -137l-2 192l192 133h191v-921zM1024 1470h221l-830 -1470h-221zM1236 160h394v-160h-635v195q110 63 190 121.5t124 102t70 86t33 70t7 56.5q0 44 -10.5 73.5t-28 43t-35.5 18t-39 2.5q-110 -10 -98 -145h-215q-6 134 88 223.5t239 89.5 q136 0 218 -79.5t82 -205.5q0 -135 -99 -268.5t-285 -222.5z" glyph-name="onehalf" horiz-adv-x="1679" unicode="½"/><glyph d="M666 846q0 -126 -92.5 -213.5t-233.5 -87.5q-138 0 -230 76.5t-92 193.5h215q0 -102 107 -102q115 0 115 125q0 60 -34.5 88t-109.5 28h-32v156h18q67 0 96 27.5t29 89.5q0 52 -24.5 78t-65.5 26q-46 0 -69 -25t-23 -92h-209q0 127 84 202t217 75q125 0 203.5 -72 t78.5 -188q0 -110 -76 -172q128 -69 128 -213zM1239 1470h221l-830 -1470h-221zM1837 346v-151h-95v-195h-198v195h-414v184l342 543h270v-576h95zM1291 346h253v426z" glyph-name="threequarters" horiz-adv-x="1869" unicode="¾"/><glyph d="M530 1079q83 0 141 -57.5t58 -138.5q0 -83 -58.5 -140t-140.5 -57q-80 0 -137 57t-57 140q0 81 56.5 138.5t137.5 57.5zM678 578v-97q0 -94 -46 -148.5t-147 -104.5q-121 -60 -121 -189q0 -89 47.5 -130.5t126.5 -41.5q82 0 129.5 42.5t47.5 113.5q0 34 -15 92l328 -45 q4 -46 4 -68q0 -193 -134 -313.5t-353 -120.5q-220 0 -361 123.5t-141 337.5q0 87 24 157t66 117t87.5 77t100.5 50q68 26 68 92v56h289z" glyph-name="questiondown" horiz-adv-x="1092" unicode="¿"/><glyph d="M894 1597h-217l-227 273l174 123zM1174 0l-95 272h-588l-94 -272h-387l541 1470h469l541 -1470h-387zM600 586h370l-185 532z" glyph-name="Agrave" horiz-adv-x="1571" unicode="À"/><glyph d="M1126 1870l-228 -273h-217l271 396zM1174 0l-95 272h-588l-94 -272h-387l541 1470h469l541 -1470h-387zM600 586h370l-185 532z" glyph-name="Aacute" horiz-adv-x="1571" unicode="Á"/><glyph d="M786 1733l-122 -136h-218l238 301h205l237 -301h-217zM1174 0l-95 272h-588l-94 -272h-387l541 1470h469l541 -1470h-387zM600 586h370l-185 532z" glyph-name="Acircumflex" horiz-adv-x="1571" unicode="Â"/><glyph d="M680 1755q-68 0 -68 -125h-188q0 126 66.5 204.5t181.5 78.5q106 0 170 -60q11 -11 31 -34t34 -33t33 -10q59 0 59 125h191q0 -124 -65 -203.5t-185 -79.5q-64 0 -101.5 18.5t-68.5 51.5q-4 5 -20 23.5t-22 24t-19.5 12.5t-28.5 7zM1174 0l-95 272h-588l-94 -272h-387 l541 1470h469l541 -1470h-387zM600 586h370l-185 532z" glyph-name="Atilde" horiz-adv-x="1571" unicode="Ã"/><glyph d="M553 1536q-83 0 -142 58t-59 141q0 81 59 138.5t142 57.5q80 0 138 -57.5t58 -138.5q0 -83 -58 -141t-138 -58zM1022 1536q-83 0 -142 58t-59 141q0 81 59 138.5t142 57.5q80 0 138 -57.5t58 -138.5q0 -83 -58 -141t-138 -58zM1174 0l-95 272h-588l-94 -272h-387 l541 1470h469l541 -1470h-387zM600 586h370l-185 532z" glyph-name="Adieresis" horiz-adv-x="1571" unicode="Ä"/><glyph d="M786 1597q-108 0 -184 76.5t-76 184.5q0 105 76 180.5t184 75.5q105 0 180.5 -75.5t75.5 -180.5q0 -108 -75 -184.5t-181 -76.5zM786 1972q-47 0 -79 -34.5t-32 -79.5q0 -52 31 -83.5t80 -31.5q48 0 80 31.5t32 83.5q0 45 -33 79.5t-79 34.5zM1174 0l-95 272h-588 l-94 -272h-387l541 1470h469l541 -1470h-387zM600 586h370l-185 532z" glyph-name="Aring" horiz-adv-x="1571" unicode="Å"/><glyph d="M10 0l484 1470h1343v-333h-532v-236h456v-332h-456v-235h532v-334h-913v272h-437l-79 -272h-398zM588 586h336v553h-183z" glyph-name="AE" horiz-adv-x="1960" unicode="Æ"/><glyph d="M829 326q133 0 231.5 70t135.5 192l356 -125q-68 -208 -240 -335t-408 -145l-60 -96q24 4 39 4q83 0 137.5 -54t54.5 -138q0 -97 -67 -164t-164 -67q-93 0 -157 46.5t-85 118.5l156 50q9 -28 30.5 -43t47.5 -15q30 0 53.5 20t23.5 54q0 36 -23 56t-54 20q-48 0 -70 -37 l-125 69l101 177q-302 28 -489 231.5t-187 519.5q0 225 98 397.5t271 265.5t394 93q263 0 456 -129.5t267 -353.5l-356 -125q-37 122 -135.5 192t-231.5 70q-169 0 -277 -112t-108 -298t108 -297.5t277 -111.5z" glyph-name="Ccedilla" horiz-adv-x="1593" unicode="Ç"/><glyph d="M729 1597h-217l-227 273l174 123zM1057 1139h-512v-240h456v-328h-456v-237h512v-334h-893v1470h893v-331z" glyph-name="Egrave" horiz-adv-x="1180" unicode="È"/><glyph d="M961 1870l-228 -273h-217l271 396zM1057 1139h-512v-240h456v-328h-456v-237h512v-334h-893v1470h893v-331z" glyph-name="Eacute" horiz-adv-x="1180" unicode="É"/><glyph d="M621 1733l-122 -136h-218l238 301h205l237 -301h-217zM1057 1139h-512v-240h456v-328h-456v-237h512v-334h-893v1470h893v-331z" glyph-name="Ecircumflex" horiz-adv-x="1180" unicode="Ê"/><glyph d="M388 1536q-83 0 -142 58t-59 141q0 81 59 138.5t142 57.5q80 0 138 -57.5t58 -138.5q0 -83 -58 -141t-138 -58zM857 1536q-83 0 -142 58t-59 141q0 81 59 138.5t142 57.5q80 0 138 -57.5t58 -138.5q0 -83 -58 -141t-138 -58zM1057 1139h-512v-240h456v-328h-456v-237h512 v-334h-893v1470h893v-331z" glyph-name="Edieresis" horiz-adv-x="1180" unicode="Ë"/><glyph d="M243 1597l-227 273l174 123l270 -396h-217zM164 0v1470h381v-1470h-381z" glyph-name="Igrave" horiz-adv-x="709" unicode="Ì"/><glyph d="M247 1597l271 396l174 -123l-228 -273h-217zM164 0v1470h381v-1470h-381z" glyph-name="Iacute" horiz-adv-x="709" unicode="Í"/><glyph d="M230 1597h-218l238 301h205l237 -301h-217l-123 136zM164 0v1470h381v-1470h-381z" glyph-name="Icircumflex" horiz-adv-x="709" unicode="Î"/><glyph d="M119 1536q-83 0 -142 58t-59 141q0 81 59 138.5t142 57.5q80 0 138 -57.5t58 -138.5q0 -83 -58 -141t-138 -58zM588 1536q-83 0 -142 58t-59 141q0 81 59 138.5t142 57.5q80 0 138 -57.5t58 -138.5q0 -83 -58 -141t-138 -58zM164 0v1470h381v-1470h-381z" glyph-name="Idieresis" horiz-adv-x="709" unicode="Ï"/><glyph d="M733 1470q352 0 533.5 -195.5t181.5 -539.5t-181.5 -539.5t-533.5 -195.5h-569v626h-150v217h150v627h569zM713 334q172 0 253 99t81 302q0 204 -81 304t-253 100h-168v-296h214v-217h-214v-292h168z" glyph-name="Eth" horiz-adv-x="1520" unicode="Ð"/><glyph d="M756 1755q-68 0 -68 -125h-188q0 126 66.5 204.5t181.5 78.5q106 0 170 -60q11 -11 31 -34t34 -33t33 -10q59 0 59 125h191q0 -124 -65 -203.5t-185 -79.5q-64 0 -101.5 18.5t-68.5 51.5q-4 5 -20 23.5t-22 24t-19.5 12.5t-28.5 7zM1178 1470h381v-1470h-453l-561 954 v-954h-381v1470h448l566 -949v949z" glyph-name="Ntilde" horiz-adv-x="1722" unicode="Ñ"/><glyph d="M720 1597l-227 273l174 123l270 -396h-217zM829 -20q-221 0 -394 93.5t-271 266t-98 395.5q0 225 98 397.5t271 265.5t394 93t394.5 -93t271.5 -265.5t98 -397.5q0 -223 -98 -395.5t-271.5 -266t-394.5 -93.5zM829 326q170 0 279 111.5t109 297.5t-109.5 298t-278.5 112 t-277 -112t-108 -298t108 -297.5t277 -111.5z" glyph-name="Ograve" horiz-adv-x="1659" unicode="Ò"/><glyph d="M724 1597l271 396l174 -123l-228 -273h-217zM829 -20q-221 0 -394 93.5t-271 266t-98 395.5q0 225 98 397.5t271 265.5t394 93t394.5 -93t271.5 -265.5t98 -397.5q0 -223 -98 -395.5t-271.5 -266t-394.5 -93.5zM829 326q170 0 279 111.5t109 297.5t-109.5 298t-278.5 112 t-277 -112t-108 -298t108 -297.5t277 -111.5z" glyph-name="Oacute" horiz-adv-x="1659" unicode="Ó"/><glyph d="M707 1597h-218l238 301h205l237 -301h-217l-123 136zM829 -20q-221 0 -394 93.5t-271 266t-98 395.5q0 225 98 397.5t271 265.5t394 93t394.5 -93t271.5 -265.5t98 -397.5q0 -223 -98 -395.5t-271.5 -266t-394.5 -93.5zM829 326q170 0 279 111.5t109 297.5t-109.5 298 t-278.5 112t-277 -112t-108 -298t108 -297.5t277 -111.5z" glyph-name="Ocircumflex" horiz-adv-x="1659" unicode="Ô"/><glyph d="M983 1618q-63 0 -101 18.5t-69 51.5q-4 5 -20 23.5t-22 24t-19.5 12.5t-28.5 7q-68 0 -68 -125h-188q0 126 66.5 204.5t181.5 78.5q106 0 170 -60q11 -11 31 -34t34 -33t33 -10q59 0 59 125h191q0 -124 -65 -203.5t-185 -79.5zM829 -20q-221 0 -394 93.5t-271 266 t-98 395.5q0 225 98 397.5t271 265.5t394 93t394.5 -93t271.5 -265.5t98 -397.5q0 -223 -98 -395.5t-271.5 -266t-394.5 -93.5zM829 326q170 0 279 111.5t109 297.5t-109.5 298t-278.5 112t-277 -112t-108 -298t108 -297.5t277 -111.5z" glyph-name="Otilde" horiz-adv-x="1659" unicode="Õ"/><glyph d="M596 1536q-83 0 -142 58t-59 141q0 81 59 138.5t142 57.5q80 0 138 -57.5t58 -138.5q0 -83 -58 -141t-138 -58zM1065 1536q-83 0 -142 58t-59 141q0 81 59 138.5t142 57.5q80 0 138 -57.5t58 -138.5q0 -83 -58 -141t-138 -58zM829 -20q-221 0 -394 93.5t-271 266 t-98 395.5q0 225 98 397.5t271 265.5t394 93t394.5 -93t271.5 -265.5t98 -397.5q0 -223 -98 -395.5t-271.5 -266t-394.5 -93.5zM829 326q170 0 279 111.5t109 297.5t-109.5 298t-278.5 112t-277 -112t-108 -298t108 -297.5t277 -111.5z" glyph-name="Odieresis" horiz-adv-x="1659" unicode="Ö"/><glyph d="M274 256l-192 193l264 264l-264 264l192 192l265 -264l262 264l192 -192l-264 -264l264 -264l-192 -193l-262 264z" glyph-name="multiply" horiz-adv-x="1075" unicode="×"/><glyph d="M1334 1324q124 -102 191.5 -252.5t67.5 -336.5q0 -223 -98 -395.5t-271.5 -266t-394.5 -93.5q-207 0 -373 83l-117 -168l-135 80l121 173q-124 101 -191.5 251.5t-67.5 335.5q0 225 98 397.5t271 265.5t394 93q207 0 373 -83l116 167l135 -80zM444 735q0 -169 93 -281 l458 657q-77 34 -166 34q-169 0 -277 -112t-108 -298zM829 326q170 0 279 111.5t109 297.5q0 171 -96 283l-458 -658q76 -34 166 -34z" glyph-name="Oslash" horiz-adv-x="1659" unicode="Ø"/><glyph d="M626 1597l-227 273l174 123l270 -396h-217zM735 -20q-130 0 -236.5 31t-190 95t-129.5 172.5t-46 253.5v938h381v-886q0 -271 221 -271t221 271v886h381v-938q0 -145 -46 -253.5t-129.5 -172.5t-190 -95t-236.5 -31z" glyph-name="Ugrave" horiz-adv-x="1470" unicode="Ù"/><glyph d="M630 1597l271 396l174 -123l-228 -273h-217zM735 -20q-130 0 -236.5 31t-190 95t-129.5 172.5t-46 253.5v938h381v-886q0 -271 221 -271t221 271v886h381v-938q0 -145 -46 -253.5t-129.5 -172.5t-190 -95t-236.5 -31z" glyph-name="Uacute" horiz-adv-x="1470" unicode="Ú"/><glyph d="M613 1597h-218l238 301h205l237 -301h-217l-123 136zM735 -20q-130 0 -236.5 31t-190 95t-129.5 172.5t-46 253.5v938h381v-886q0 -271 221 -271t221 271v886h381v-938q0 -145 -46 -253.5t-129.5 -172.5t-190 -95t-236.5 -31z" glyph-name="Ucircumflex" horiz-adv-x="1470" unicode="Û"/><glyph d="M502 1536q-83 0 -142 58t-59 141q0 81 59 138.5t142 57.5q80 0 138 -57.5t58 -138.5q0 -83 -58 -141t-138 -58zM971 1536q-83 0 -142 58t-59 141q0 81 59 138.5t142 57.5q80 0 138 -57.5t58 -138.5q0 -83 -58 -141t-138 -58zM735 -20q-130 0 -236.5 31t-190 95 t-129.5 172.5t-46 253.5v938h381v-886q0 -271 221 -271t221 271v886h381v-938q0 -145 -46 -253.5t-129.5 -172.5t-190 -95t-236.5 -31z" glyph-name="Udieresis" horiz-adv-x="1470" unicode="Ü"/><glyph d="M1014 1870l-228 -273h-217l271 396zM1350 1470l-484 -767v-703h-381v697l-487 773h418l258 -434l260 434h416z" glyph-name="Yacute" horiz-adv-x="1348" unicode="Ý"/><glyph d="M791 1309q117 0 214 -63t153 -172t56 -240q0 -190 -122.5 -321.5t-300.5 -131.5h-259v-381h-368v1538h368v-229h259zM778 705q45 0 76 41t31 100q0 60 -31 99.5t-76 39.5h-246v-280h246z" glyph-name="Thorn" horiz-adv-x="1257" unicode="Þ"/><glyph d="M131 0v915q0 109 17.5 199.5t47.5 155.5t73.5 115.5t92 82.5t106 52t112 28t114.5 8q235 0 379 -115t144 -294q0 -62 -19.5 -111t-46.5 -77.5t-54.5 -51.5t-47 -45t-19.5 -45q0 -21 15 -38.5t39.5 -33t54 -32.5t58.5 -43.5t53.5 -60t39.5 -87.5t15 -121q0 -60 -11.5 -114 t-42 -108t-76.5 -92.5t-121 -62.5t-171 -24h-205v262h94q168 0 168 148q0 41 -13.5 71.5t-35.5 49t-48 34t-52 32.5t-48 38.5t-35.5 57t-13.5 83.5q0 62 18.5 107t45 71t53 49t45 55t18.5 75q0 68 -44 103.5t-130 35.5q-99 0 -151.5 -59t-52.5 -216v-997h-365z" glyph-name="germandbls" horiz-adv-x="1341" unicode="ß"/><glyph d="M694 1182h-217l-227 272l174 123zM1061 268q0 -151 24 -237v-31h-333l-22 109q-53 -65 -146 -97t-193 -32q-51 0 -97 8.5t-90.5 30t-76 54t-51 84t-19.5 117.5q0 65 20 117t52 87t84 63.5t103 46t122 35.5l170 43q60 15 83.5 33.5t23.5 48.5q0 34 -25 55t-55 27t-66 6 q-77 0 -122.5 -33t-59.5 -111l-321 53q38 174 165 254t361 80q50 0 93 -3.5t92.5 -14t89 -28t77 -47.5t62.5 -70t40 -98t15 -130v-420zM508 219q83 0 155 64.5t72 177.5l-239 -80q-45 -15 -69 -32.5t-24 -49.5q0 -37 30 -58.5t75 -21.5z" glyph-name="agrave" horiz-adv-x="1174" unicode="à"/><glyph d="M926 1454l-228 -272h-217l271 395zM1061 268q0 -151 24 -237v-31h-333l-22 109q-53 -65 -146 -97t-193 -32q-51 0 -97 8.5t-90.5 30t-76 54t-51 84t-19.5 117.5q0 65 20 117t52 87t84 63.5t103 46t122 35.5l170 43q60 15 83.5 33.5t23.5 48.5q0 34 -25 55t-55 27t-66 6 q-77 0 -122.5 -33t-59.5 -111l-321 53q38 174 165 254t361 80q50 0 93 -3.5t92.5 -14t89 -28t77 -47.5t62.5 -70t40 -98t15 -130v-420zM508 219q83 0 155 64.5t72 177.5l-239 -80q-45 -15 -69 -32.5t-24 -49.5q0 -37 30 -58.5t75 -21.5z" glyph-name="aacute" horiz-adv-x="1174" unicode="á"/><glyph d="M586 1370l-122 -135h-218l238 301h205l237 -301h-217zM1061 268q0 -151 24 -237v-31h-333l-22 109q-53 -65 -146 -97t-193 -32q-51 0 -97 8.5t-90.5 30t-76 54t-51 84t-19.5 117.5q0 65 20 117t52 87t84 63.5t103 46t122 35.5l170 43q60 15 83.5 33.5t23.5 48.5 q0 34 -25 55t-55 27t-66 6q-77 0 -122.5 -33t-59.5 -111l-321 53q38 174 165 254t361 80q50 0 93 -3.5t92.5 -14t89 -28t77 -47.5t62.5 -70t40 -98t15 -130v-420zM508 219q83 0 155 64.5t72 177.5l-239 -80q-45 -15 -69 -32.5t-24 -49.5q0 -37 30 -58.5t75 -21.5z" glyph-name="acircumflex" horiz-adv-x="1174" unicode="â"/><glyph d="M496 1311q-57 0 -57 -125h-164q0 127 57.5 205.5t157.5 78.5q60 0 107 -29t77 -77q21 -31 45 -31q54 0 54 125h166q0 -125 -56.5 -204.5t-159.5 -79.5q-118 0 -184 106q-19 31 -43 31zM1061 268q0 -151 24 -237v-31h-333l-22 109q-53 -65 -146 -97t-193 -32 q-51 0 -97 8.5t-90.5 30t-76 54t-51 84t-19.5 117.5q0 65 20 117t52 87t84 63.5t103 46t122 35.5l170 43q60 15 83.5 33.5t23.5 48.5q0 34 -25 55t-55 27t-66 6q-77 0 -122.5 -33t-59.5 -111l-321 53q38 174 165 254t361 80q50 0 93 -3.5t92.5 -14t89 -28t77 -47.5t62.5 -70 t40 -98t15 -130v-420zM508 219q83 0 155 64.5t72 177.5l-239 -80q-45 -15 -69 -32.5t-24 -49.5q0 -37 30 -58.5t75 -21.5z" glyph-name="atilde" horiz-adv-x="1174" unicode="ã"/><glyph d="M353 1161q-83 0 -142 58t-59 141q0 81 59 138.5t142 57.5q80 0 138 -57.5t58 -138.5q0 -83 -58 -141t-138 -58zM822 1161q-83 0 -142 58t-59 141q0 81 59 138.5t142 57.5q80 0 138 -57.5t58 -138.5q0 -83 -58 -141t-138 -58zM1061 268q0 -151 24 -237v-31h-333l-22 109 q-53 -65 -146 -97t-193 -32q-51 0 -97 8.5t-90.5 30t-76 54t-51 84t-19.5 117.5q0 65 20 117t52 87t84 63.5t103 46t122 35.5l170 43q60 15 83.5 33.5t23.5 48.5q0 34 -25 55t-55 27t-66 6q-77 0 -122.5 -33t-59.5 -111l-321 53q38 174 165 254t361 80q50 0 93 -3.5 t92.5 -14t89 -28t77 -47.5t62.5 -70t40 -98t15 -130v-420zM508 219q83 0 155 64.5t72 177.5l-239 -80q-45 -15 -69 -32.5t-24 -49.5q0 -37 30 -58.5t75 -21.5z" glyph-name="adieresis" horiz-adv-x="1174" unicode="ä"/><glyph d="M586 1157q-108 0 -184 76.5t-76 183.5q0 105 76 180.5t184 75.5q106 0 181 -75.5t75 -180.5q0 -107 -75 -183.5t-181 -76.5zM586 1532q-47 0 -79 -34.5t-32 -80.5q0 -51 31 -82.5t80 -31.5q48 0 80 31.5t32 82.5q0 46 -33 80.5t-79 34.5zM1061 268q0 -151 24 -237v-31 h-333l-22 109q-53 -65 -146 -97t-193 -32q-51 0 -97 8.5t-90.5 30t-76 54t-51 84t-19.5 117.5q0 65 20 117t52 87t84 63.5t103 46t122 35.5l170 43q60 15 83.5 33.5t23.5 48.5q0 34 -25 55t-55 27t-66 6q-77 0 -122.5 -33t-59.5 -111l-321 53q38 174 165 254t361 80 q50 0 93 -3.5t92.5 -14t89 -28t77 -47.5t62.5 -70t40 -98t15 -130v-420zM508 219q83 0 155 64.5t72 177.5l-239 -80q-45 -15 -69 -32.5t-24 -49.5q0 -37 30 -58.5t75 -21.5z" glyph-name="aring" horiz-adv-x="1174" unicode="å"/><glyph d="M1819 541l-4 -95h-756q14 -90 76 -137t151 -47q141 0 184 113l336 -43q-51 -173 -189 -262.5t-341 -89.5q-274 0 -430 153h-2q-186 -153 -432 -153q-74 0 -135.5 15t-111.5 47.5t-78 89.5t-28 134q0 51 13.5 94t33.5 74t54.5 57.5t66.5 43.5t79.5 33t82 25t86.5 21 l135 31q60 14 83.5 35.5t23.5 56.5q0 54 -44 76.5t-106 22.5q-164 0 -180 -164l-324 49q34 187 161.5 272.5t369.5 85.5q228 0 334 -88q143 90 348 90q118 0 214.5 -31.5t171 -95t115.5 -169t42 -244.5zM1266 834q-158 0 -197 -142h392q-14 69 -64 105.5t-131 36.5zM516 258 q57 0 115 26.5t86 74.5q-10 36 -17 88l-172 -46q-112 -28 -112 -79q0 -30 28 -47t72 -17z" glyph-name="ae" horiz-adv-x="1870" unicode="æ"/><glyph d="M631 264q177 0 209 162l336 -31q-29 -184 -160.5 -291.5t-326.5 -121.5l-60 -95q24 4 39 4q83 0 137.5 -54t54.5 -138q0 -97 -67 -164t-164 -67q-93 0 -157 46.5t-85 118.5l156 50q9 -28 30.5 -43t47.5 -15q30 0 53.5 20t23.5 54q0 36 -23 56t-54 20q-48 0 -70 -37 l-125 69l103 180q-221 31 -353.5 177.5t-132.5 365.5q0 246 164 397.5t428 151.5q220 0 364.5 -107.5t176.5 -305.5l-336 -31q-32 162 -209 162q-103 0 -163 -73.5t-60 -193.5q0 -119 60 -192.5t163 -73.5z" glyph-name="ccedilla" horiz-adv-x="1217" unicode="ç"/><glyph d="M743 1184h-217l-227 272l174 123zM1169 541l-4 -84h-756q11 -95 73 -145t153 -50q143 0 186 113l336 -43q-48 -168 -187 -260t-333 -92q-276 0 -433 144.5t-157 403.5t158 406t420 147q119 0 215.5 -31.5t171 -95t115.5 -169t42 -244.5zM627 829q-170 0 -208 -141h392 q-15 68 -64 104.5t-120 36.5z" glyph-name="egrave" horiz-adv-x="1223" unicode="è"/><glyph d="M975 1456l-228 -272h-217l271 395zM1169 541l-4 -84h-756q11 -95 73 -145t153 -50q143 0 186 113l336 -43q-48 -168 -187 -260t-333 -92q-276 0 -433 144.5t-157 403.5t158 406t420 147q119 0 215.5 -31.5t171 -95t115.5 -169t42 -244.5zM627 829q-170 0 -208 -141h392 q-15 68 -64 104.5t-120 36.5z" glyph-name="eacute" horiz-adv-x="1223" unicode="é"/><glyph d="M635 1372l-122 -135h-218l238 301h205l237 -301h-217zM1169 541l-4 -84h-756q11 -95 73 -145t153 -50q143 0 186 113l336 -43q-48 -168 -187 -260t-333 -92q-276 0 -433 144.5t-157 403.5t158 406t420 147q119 0 215.5 -31.5t171 -95t115.5 -169t42 -244.5zM627 829 q-170 0 -208 -141h392q-15 68 -64 104.5t-120 36.5z" glyph-name="ecircumflex" horiz-adv-x="1223" unicode="ê"/><glyph d="M402 1163q-83 0 -142 58t-59 141q0 81 59 138.5t142 57.5q80 0 138 -57.5t58 -138.5q0 -83 -58 -141t-138 -58zM871 1163q-83 0 -142 58t-59 141q0 81 59 138.5t142 57.5q80 0 138 -57.5t58 -138.5q0 -83 -58 -141t-138 -58zM1169 541l-4 -84h-756q11 -95 73 -145 t153 -50q143 0 186 113l336 -43q-48 -168 -187 -260t-333 -92q-276 0 -433 144.5t-157 403.5t158 406t420 147q119 0 215.5 -31.5t171 -95t115.5 -169t42 -244.5zM627 829q-170 0 -208 -141h392q-15 68 -64 104.5t-120 36.5z" glyph-name="edieresis" horiz-adv-x="1223" unicode="ë"/><glyph d="M206 1182l-227 272l174 123l270 -395h-217zM131 0v1059h367v-1059h-367z" glyph-name="igrave" horiz-adv-x="629" unicode="ì"/><glyph d="M210 1182l271 395l174 -123l-228 -272h-217zM131 0v1059h367v-1059h-367z" glyph-name="iacute" horiz-adv-x="629" unicode="í"/><glyph d="M193 1235h-218l238 301h205l237 -301h-217l-123 135zM131 0v1059h367v-1059h-367z" glyph-name="icircumflex" horiz-adv-x="629" unicode="î"/><glyph d="M82 1161q-83 0 -142 58t-59 141q0 81 59 138.5t142 57.5q80 0 138 -57.5t58 -138.5q0 -83 -58 -141t-138 -58zM551 1161q-83 0 -142 58t-59 141q0 81 59 138.5t142 57.5q80 0 138 -57.5t58 -138.5q0 -83 -58 -141t-138 -58zM131 0v1059h367v-1059h-367z" glyph-name="idieresis" horiz-adv-x="629" unicode="ï"/><glyph d="M1030 897q131 -192 131 -375q0 -112 -42.5 -212.5t-116 -172.5t-176 -114.5t-218.5 -42.5q-110 0 -213 40.5t-180.5 110.5t-124 170.5t-47.5 214.5q-1 232 121 373t325 176q24 3 31 3l-109 153l-221 -56l-26 97l184 47l-162 227h408l96 -141l180 45l25 -97l-144 -36z M621 301q98 0 151.5 67t50.5 169q-3 99 -60.5 163t-150.5 64q-101 0 -157 -67.5t-54 -170.5q2 -98 63 -161.5t157 -63.5z" glyph-name="eth" horiz-adv-x="1202" unicode="ð"/><glyph d="M584 1311q-57 0 -57 -125h-164q0 127 57.5 205.5t157.5 78.5q60 0 107 -29t77 -77q21 -31 45 -31q54 0 54 125h166q0 -125 -56.5 -204.5t-159.5 -79.5q-118 0 -184 106q-19 31 -43 31zM834 1079q204 0 307.5 -95t103.5 -271v-713h-366v635q0 82 -45.5 119t-118.5 37 q-217 0 -219 -238v-553h-365v1059h365v-109q124 129 338 129z" glyph-name="ntilde" horiz-adv-x="1356" unicode="ñ"/><glyph d="M544 1180l-227 272l174 123l270 -395h-217zM653 -20q-274 0 -441 146t-167 404q0 171 77 296t213.5 189t317.5 64q277 0 444 -145.5t167 -403.5t-167.5 -404t-443.5 -146zM649 264q116 0 184 73.5t68 192.5q0 120 -68 193.5t-184 73.5q-109 0 -175 -74t-66 -193 t66 -192.5t175 -73.5z" glyph-name="ograve" horiz-adv-x="1309" unicode="ò"/><glyph d="M548 1180l271 395l174 -123l-228 -272h-217zM653 -20q-274 0 -441 146t-167 404q0 171 77 296t213.5 189t317.5 64q277 0 444 -145.5t167 -403.5t-167.5 -404t-443.5 -146zM649 264q116 0 184 73.5t68 192.5q0 120 -68 193.5t-184 73.5q-109 0 -175 -74t-66 -193 t66 -192.5t175 -73.5z" glyph-name="oacute" horiz-adv-x="1309" unicode="ó"/><glyph d="M531 1233h-218l238 301h205l237 -301h-217l-123 135zM653 -20q-274 0 -441 146t-167 404q0 171 77 296t213.5 189t317.5 64q277 0 444 -145.5t167 -403.5t-167.5 -404t-443.5 -146zM649 264q116 0 184 73.5t68 192.5q0 120 -68 193.5t-184 73.5q-109 0 -175 -74t-66 -193 t66 -192.5t175 -73.5z" glyph-name="ocircumflex" horiz-adv-x="1309" unicode="ô"/><glyph d="M790 1172q-118 0 -184 106q-19 31 -43 31q-57 0 -57 -125h-164q0 127 57.5 205.5t157.5 78.5q60 0 107 -29t77 -77q21 -31 45 -31q54 0 54 125h166q0 -125 -56.5 -204.5t-159.5 -79.5zM653 -20q-274 0 -441 146t-167 404q0 171 77 296t213.5 189t317.5 64 q277 0 444 -145.5t167 -403.5t-167.5 -404t-443.5 -146zM649 264q116 0 184 73.5t68 192.5q0 120 -68 193.5t-184 73.5q-109 0 -175 -74t-66 -193t66 -192.5t175 -73.5z" glyph-name="otilde" horiz-adv-x="1309" unicode="õ"/><glyph d="M420 1159q-83 0 -142 58t-59 141q0 81 59 138.5t142 57.5q80 0 138 -57.5t58 -138.5q0 -83 -58 -141t-138 -58zM889 1159q-83 0 -142 58t-59 141q0 81 59 138.5t142 57.5q80 0 138 -57.5t58 -138.5q0 -83 -58 -141t-138 -58zM653 -20q-274 0 -441 146t-167 404 q0 171 77 296t213.5 189t317.5 64q277 0 444 -145.5t167 -403.5t-167.5 -404t-443.5 -146zM649 264q116 0 184 73.5t68 192.5q0 120 -68 193.5t-184 73.5q-109 0 -175 -74t-66 -193t66 -192.5t175 -73.5z" glyph-name="odieresis" horiz-adv-x="1309" unicode="ö"/><glyph d="M551 928q-70 0 -122 51t-52 123q0 69 52.5 121.5t121.5 52.5t121.5 -52.5t52.5 -121.5q0 -72 -52 -123t-122 -51zM80 578v270h962v-270h-962zM551 150q-70 0 -122 50.5t-52 123.5q0 69 52.5 121.5t121.5 52.5t121.5 -52.5t52.5 -121.5q0 -73 -52 -123.5t-122 -50.5z" glyph-name="divide" horiz-adv-x="1122" unicode="÷"/><glyph d="M1053 968q211 -148 211 -438q0 -258 -167.5 -404t-443.5 -146q-142 0 -259 41l-76 -109l-136 80l71 102q-208 148 -208 436q0 171 77 296t213.5 189t317.5 64q141 0 258 -40l74 106l135 -80zM408 530q0 -91 40 -157l286 412q-39 12 -85 12q-109 0 -175 -74t-66 -193z M649 264q116 0 184 73.5t68 192.5q0 92 -42 160l-288 -414q36 -12 78 -12z" glyph-name="oslash" horiz-adv-x="1309" unicode="ø"/><glyph d="M786 1182h-217l-227 272l174 123zM858 1059h365v-1059h-344l-10 122q-59 -68 -149 -105t-200 -37q-204 0 -307.5 95t-103.5 271v713h366v-635q0 -82 45.5 -119t118.5 -37q217 0 219 238v553z" glyph-name="ugrave" horiz-adv-x="1354" unicode="ù"/><glyph d="M1018 1454l-228 -272h-217l271 395zM858 1059h365v-1059h-344l-10 122q-59 -68 -149 -105t-200 -37q-204 0 -307.5 95t-103.5 271v713h366v-635q0 -82 45.5 -119t118.5 -37q217 0 219 238v553z" glyph-name="uacute" horiz-adv-x="1354" unicode="ú"/><glyph d="M678 1370l-122 -135h-218l238 301h205l237 -301h-217zM858 1059h365v-1059h-344l-10 122q-59 -68 -149 -105t-200 -37q-204 0 -307.5 95t-103.5 271v713h366v-635q0 -82 45.5 -119t118.5 -37q217 0 219 238v553z" glyph-name="ucircumflex" horiz-adv-x="1354" unicode="û"/><glyph d="M445 1161q-83 0 -142 58t-59 141q0 81 59 138.5t142 57.5q80 0 138 -57.5t58 -138.5q0 -83 -58 -141t-138 -58zM914 1161q-83 0 -142 58t-59 141q0 81 59 138.5t142 57.5q80 0 138 -57.5t58 -138.5q0 -83 -58 -141t-138 -58zM858 1059h365v-1059h-344l-10 122 q-59 -68 -149 -105t-200 -37q-204 0 -307.5 95t-103.5 271v713h366v-635q0 -82 45.5 -119t118.5 -37q217 0 219 238v553z" glyph-name="udieresis" horiz-adv-x="1354" unicode="ü"/><glyph d="M942 1454l-228 -272h-217l271 395zM848 1059h371l-678 -1557h-367l259 554l-449 1003h395l224 -618z" glyph-name="yacute" horiz-adv-x="1202" unicode="ý"/><glyph d="M791 1079q106 0 200 -37.5t165 -106t112 -174.5t41 -235t-41 -234.5t-112 -174.5t-165 -106.5t-200 -37.5q-94 0 -172 28.5t-123 82.5v-588h-365v2040h365v-567q45 54 123 82t172 28zM705 272q104 0 171.5 68t67.5 186t-67.5 186t-171.5 68q-105 0 -172.5 -68t-67.5 -186 t67.5 -186t172.5 -68z" glyph-name="thorn" horiz-adv-x="1358" unicode="þ"/><glyph d="M369 1161q-83 0 -142 58t-59 141q0 81 59 138.5t142 57.5q80 0 138 -57.5t58 -138.5q0 -83 -58 -141t-138 -58zM838 1161q-83 0 -142 58t-59 141q0 81 59 138.5t142 57.5q80 0 138 -57.5t58 -138.5q0 -83 -58 -141t-138 -58zM848 1059h371l-678 -1557h-367l259 554 l-449 1003h395l224 -618z" glyph-name="ydieresis" horiz-adv-x="1202" unicode="ÿ"/><glyph d="M1124 1806v-209h-676v209h676zM1174 0l-95 272h-588l-94 -272h-387l541 1470h469l541 -1470h-387zM600 586h370l-185 532z" glyph-name="Amacron" horiz-adv-x="1571" unicode="Ā"/><glyph d="M924 1419v-209h-676v209h676zM1061 268q0 -151 24 -237v-31h-333l-22 109q-53 -65 -146 -97t-193 -32q-51 0 -97 8.5t-90.5 30t-76 54t-51 84t-19.5 117.5q0 65 20 117t52 87t84 63.5t103 46t122 35.5l170 43q60 15 83.5 33.5t23.5 48.5q0 34 -25 55t-55 27t-66 6 q-77 0 -122.5 -33t-59.5 -111l-321 53q38 174 165 254t361 80q50 0 93 -3.5t92.5 -14t89 -28t77 -47.5t62.5 -70t40 -98t15 -130v-420zM508 219q83 0 155 64.5t72 177.5l-239 -80q-45 -15 -69 -32.5t-24 -49.5q0 -37 30 -58.5t75 -21.5z" glyph-name="amacron" horiz-adv-x="1174" unicode="ā"/><glyph d="M786 1597q-183 0 -282 72t-99 240h204q0 -148 177 -148q178 0 178 148h205q0 -168 -99.5 -240t-283.5 -72zM1174 0l-95 272h-588l-94 -272h-387l541 1470h469l541 -1470h-387zM600 586h370l-185 532z" glyph-name="Abreve" horiz-adv-x="1571" unicode="Ă"/><glyph d="M586 1163q-177 0 -278.5 93.5t-101.5 279.5h225q0 -97 38 -153t117 -56q81 0 119.5 56t38.5 153h225q0 -186 -102 -279.5t-281 -93.5zM1061 268q0 -151 24 -237v-31h-333l-22 109q-53 -65 -146 -97t-193 -32q-51 0 -97 8.5t-90.5 30t-76 54t-51 84t-19.5 117.5 q0 65 20 117t52 87t84 63.5t103 46t122 35.5l170 43q60 15 83.5 33.5t23.5 48.5q0 34 -25 55t-55 27t-66 6q-77 0 -122.5 -33t-59.5 -111l-321 53q38 174 165 254t361 80q50 0 93 -3.5t92.5 -14t89 -28t77 -47.5t62.5 -70t40 -98t15 -130v-420zM508 219q83 0 155 64.5 t72 177.5l-239 -80q-45 -15 -69 -32.5t-24 -49.5q0 -37 30 -58.5t75 -21.5z" glyph-name="abreve" horiz-adv-x="1174" unicode="ă"/><glyph d="M1387 -215q0 -31 49 -31q32 0 68 13t57 34v-219q-78 -33 -168 -33q-87 0 -146 30.5t-59 88.5q0 64 64.5 151.5t167.5 180.5h-246l-95 272h-588l-94 -272h-387l541 1470h469l541 -1470q-70 -59 -122 -120t-52 -95zM600 586h370l-185 532z" glyph-name="Aogonek" horiz-adv-x="1571" unicode="Ą"/><glyph d="M1085 0q-70 -59 -122 -120t-52 -95q0 -31 49 -31q32 0 68 13t57 34v-219q-78 -33 -168 -33q-87 0 -146 30.5t-59 88.5q0 64 64.5 151.5t167.5 180.5h-192l-22 109q-53 -65 -146 -97t-193 -32q-51 0 -97 8.5t-90.5 30t-76 54t-51 84t-19.5 117.5q0 65 20 117t52 87 t84 63.5t103 46t122 35.5l170 43q60 15 83.5 33.5t23.5 48.5q0 34 -25 55t-55 27t-66 6q-77 0 -122.5 -33t-59.5 -111l-321 53q38 174 165 254t361 80q50 0 93 -3.5t92.5 -14t89 -28t77 -47.5t62.5 -70t40 -98t15 -130v-420q0 -151 24 -237v-31zM508 219q83 0 155 64.5 t72 177.5l-239 -80q-45 -15 -69 -32.5t-24 -49.5q0 -37 30 -58.5t75 -21.5z" glyph-name="aogonek" horiz-adv-x="1174" unicode="ą"/><glyph d="M726 1597l271 396l174 -123l-228 -273h-217zM829 -20q-221 0 -394 93t-271 265.5t-98 396.5q0 225 98 397.5t271 265.5t394 93q263 0 456 -129.5t267 -353.5l-356 -125q-37 122 -135.5 192t-231.5 70q-169 0 -277 -112t-108 -298t108 -297.5t277 -111.5q133 0 231.5 70 t135.5 192l356 -125q-74 -224 -267 -353.5t-456 -129.5z" glyph-name="Cacute" horiz-adv-x="1593" unicode="Ć"/><glyph d="M511 1182l271 395l174 -123l-228 -272h-217zM635 -20q-264 0 -428 152.5t-164 397.5q0 246 164 397.5t428 151.5q220 0 364.5 -107.5t176.5 -305.5l-336 -31q-32 162 -209 162q-103 0 -163 -73.5t-60 -193.5q0 -119 60 -192.5t163 -73.5q177 0 209 162l336 -31 q-32 -197 -179 -306t-362 -109z" glyph-name="cacute" horiz-adv-x="1217" unicode="ć"/><glyph d="M833 1536q-83 0 -142 58t-59 141q0 81 59 138.5t142 57.5q80 0 138 -57.5t58 -138.5q0 -83 -58 -141t-138 -58zM829 -20q-221 0 -394 93t-271 265.5t-98 396.5q0 225 98 397.5t271 265.5t394 93q263 0 456 -129.5t267 -353.5l-356 -125q-37 122 -135.5 192t-231.5 70 q-169 0 -277 -112t-108 -298t108 -297.5t277 -111.5q133 0 231.5 70t135.5 192l356 -125q-74 -224 -267 -353.5t-456 -129.5z" glyph-name="Cdotaccent" horiz-adv-x="1593" unicode="Ċ"/><glyph d="M618 1161q-83 0 -142 58t-59 141q0 81 59 138.5t142 57.5q80 0 138 -57.5t58 -138.5q0 -83 -58 -141t-138 -58zM635 -20q-264 0 -428 152.5t-164 397.5q0 246 164 397.5t428 151.5q220 0 364.5 -107.5t176.5 -305.5l-336 -31q-32 162 -209 162q-103 0 -163 -73.5 t-60 -193.5q0 -119 60 -192.5t163 -73.5q177 0 209 162l336 -31q-32 -197 -179 -306t-362 -109z" glyph-name="cdotaccent" horiz-adv-x="1217" unicode="ċ"/><glyph d="M729 1597l-237 301h217l122 -135l123 135h217l-237 -301h-205zM829 -20q-221 0 -394 93t-271 265.5t-98 396.5q0 225 98 397.5t271 265.5t394 93q263 0 456 -129.5t267 -353.5l-356 -125q-37 122 -135.5 192t-231.5 70q-169 0 -277 -112t-108 -298t108 -297.5t277 -111.5 q133 0 231.5 70t135.5 192l356 -125q-74 -224 -267 -353.5t-456 -129.5z" glyph-name="Ccaron" horiz-adv-x="1593" unicode="Č"/><glyph d="M514 1235l-237 301h217l122 -135l123 135h217l-237 -301h-205zM635 -20q-264 0 -428 152.5t-164 397.5q0 246 164 397.5t428 151.5q220 0 364.5 -107.5t176.5 -305.5l-336 -31q-32 162 -209 162q-103 0 -163 -73.5t-60 -193.5q0 -119 60 -192.5t163 -73.5q177 0 209 162 l336 -31q-32 -197 -179 -306t-362 -109z" glyph-name="ccaron" horiz-adv-x="1217" unicode="č"/><glyph d="M553 1597l-237 301h217l122 -135l123 135h217l-237 -301h-205zM164 0v1470h569q352 0 533.5 -195.5t181.5 -539.5t-181.5 -539.5t-533.5 -195.5h-569zM545 334h168q172 0 253 99t81 302q0 204 -81 304t-253 100h-168v-805z" glyph-name="Dcaron" horiz-adv-x="1520" unicode="Ď"/><glyph d="M516 -20q-204 0 -332.5 147t-128.5 405t128.5 405.5t332.5 147.5q196 0 315 -127v578h365v-1536h-365v106q-120 -126 -315 -126zM1325 860l127 676h373l-242 -676h-258zM653 279q101 0 165.5 67.5t64.5 185.5t-65 186t-165 68q-103 0 -168 -67.5t-65 -186.5 q0 -118 65 -185.5t168 -67.5z" glyph-name="dcaron" horiz-adv-x="1640" unicode="ď"/><glyph d="M733 1470q352 0 533.5 -195.5t181.5 -539.5t-181.5 -539.5t-533.5 -195.5h-569v626h-150v217h150v627h569zM713 334q172 0 253 99t81 302q0 204 -81 304t-253 100h-168v-296h214v-217h-214v-292h168z" glyph-name="Dcroat" horiz-adv-x="1520" unicode="Đ"/><glyph d="M1349 1404v-217h-122v-1187h-344l-8 101q-42 -62 -124.5 -95t-183.5 -33q-106 0 -200 37.5t-165 106.5t-112 174.5t-41 234.5t41 235t112 174.5t165 106t200 37.5q94 0 172 -28t123 -82v218h-258v217h258v132h365v-132h122zM653 272q104 0 172 68t68 186t-67.5 186 t-172.5 68q-104 0 -171.5 -68t-67.5 -186t67.5 -186t171.5 -68z" glyph-name="dcroat" horiz-adv-x="1358" unicode="đ"/><glyph d="M959 1806v-209h-676v209h676zM1057 1139h-512v-240h456v-328h-456v-237h512v-334h-893v1470h893v-331z" glyph-name="Emacron" horiz-adv-x="1180" unicode="Ē"/><glyph d="M973 1421v-209h-676v209h676zM1169 541l-4 -84h-756q11 -95 73 -145t153 -50q143 0 186 113l336 -43q-48 -168 -187 -260t-333 -92q-276 0 -433 144.5t-157 403.5t158 406t420 147q119 0 215.5 -31.5t171 -95t115.5 -169t42 -244.5zM627 829q-170 0 -208 -141h392 q-15 68 -64 104.5t-120 36.5z" glyph-name="emacron" horiz-adv-x="1223" unicode="ē"/><glyph d="M623 1536q-83 0 -142 58t-59 141q0 81 59 138.5t142 57.5q80 0 138 -57.5t58 -138.5q0 -83 -58 -141t-138 -58zM1057 1139h-512v-240h456v-328h-456v-237h512v-334h-893v1470h893v-331z" glyph-name="Edotaccent" horiz-adv-x="1180" unicode="Ė"/><glyph d="M637 1163q-83 0 -142 58t-59 141q0 81 59 138.5t142 57.5q80 0 138 -57.5t58 -138.5q0 -83 -58 -141t-138 -58zM1169 541l-4 -84h-756q11 -95 73 -145t153 -50q143 0 186 113l336 -43q-48 -168 -187 -260t-333 -92q-276 0 -433 144.5t-157 403.5t158 406t420 147 q119 0 215.5 -31.5t171 -95t115.5 -169t42 -244.5zM627 829q-170 0 -208 -141h392q-15 68 -64 104.5t-120 36.5z" glyph-name="edotaccent" horiz-adv-x="1223" unicode="ė"/><glyph d="M1057 1139h-512v-240h456v-328h-456v-237h512v-334q-70 -59 -122 -120t-52 -95q0 -31 49 -31q32 0 68 13t57 34v-219q-78 -33 -168 -33q-87 0 -146 30.5t-59 88.5q0 64 64.5 151.5t167.5 180.5h-752v1470h893v-331z" glyph-name="Eogonek" horiz-adv-x="1180" unicode="Ę"/><glyph d="M1169 541l-4 -84h-756q11 -95 73 -145t153 -50q143 0 186 113l336 -43q-29 -102 -94 -177l2 -1q-3 -2 -8 -7q-29 -32 -65 -60q-101 -99 -101 -148q0 -31 49 -31q32 0 68 13t57 34v-219q-78 -33 -168 -33q-87 0 -146 30.5t-59 88.5q0 69 78 170q-63 -12 -133 -12 q-276 0 -433 144.5t-157 403.5t158 406t420 147q119 0 215.5 -31.5t171 -95t115.5 -169t42 -244.5zM627 829q-170 0 -208 -141h392q-15 68 -64 104.5t-120 36.5z" glyph-name="eogonek" horiz-adv-x="1223" unicode="ę"/><glyph d="M724 1597h-205l-237 301h217l122 -135l123 135h217zM1057 1139h-512v-240h456v-328h-456v-237h512v-334h-893v1470h893v-331z" glyph-name="Ecaron" horiz-adv-x="1180" unicode="Ě"/><glyph d="M738 1237h-205l-237 301h217l122 -135l123 135h217zM1169 541l-4 -84h-756q11 -95 73 -145t153 -50q143 0 186 113l336 -43q-48 -168 -187 -260t-333 -92q-276 0 -433 144.5t-157 403.5t158 406t420 147q119 0 215.5 -31.5t171 -95t115.5 -169t42 -244.5zM627 829 q-170 0 -208 -141h392q-15 68 -64 104.5t-120 36.5z" glyph-name="ecaron" horiz-adv-x="1223" unicode="ě"/><glyph d="M825 1597q-183 0 -282 72t-99 240h204q0 -148 177 -148q178 0 178 148h205q0 -168 -99.5 -240t-283.5 -72zM807 -20q-214 0 -382.5 93t-263.5 264.5t-95 393.5q0 226 98 399.5t271 267t394 93.5q219 0 391.5 -92t270.5 -256l-334 -178q-48 100 -132.5 150t-195.5 50 q-170 0 -276.5 -112.5t-106.5 -311.5q0 -195 105.5 -315.5t292.5 -120.5q119 0 215 54t129 169h-342v301h698v-829h-295v158q-150 -178 -442 -178z" glyph-name="Gbreve" horiz-adv-x="1651" unicode="Ğ"/><glyph d="M657 1163q-177 0 -278.5 93.5t-101.5 279.5h225q0 -97 38 -153t117 -56q81 0 119.5 56t38.5 153h225q0 -186 -102 -279.5t-281 -93.5zM836 1059h346v-965q0 -162 -42.5 -278.5t-123 -184t-185 -98.5t-239.5 -31q-443 0 -565 332l303 123q45 -94 102 -135t146 -41 q122 0 179.5 71.5t57.5 213.5v85q-45 -50 -122.5 -80t-168.5 -30q-97 0 -184.5 37t-153.5 103t-104.5 165.5t-38.5 216.5q0 118 38.5 216t105 163t154.5 101t187 36q101 0 179.5 -35.5t120.5 -94.5zM623 332q98 0 163.5 65.5t65.5 165.5t-65 166t-164 66q-100 0 -165 -66 t-65 -166q0 -99 65.5 -165t164.5 -66z" glyph-name="gbreve" horiz-adv-x="1313" unicode="ğ"/><glyph d="M827 1536q-83 0 -142 58t-59 141q0 81 59 138.5t142 57.5q80 0 138 -57.5t58 -138.5q0 -83 -58 -141t-138 -58zM807 -20q-214 0 -382.5 93t-263.5 264.5t-95 393.5q0 226 98 399.5t271 267t394 93.5q219 0 391.5 -92t270.5 -256l-334 -178q-48 100 -132.5 150t-195.5 50 q-170 0 -276.5 -112.5t-106.5 -311.5q0 -195 105.5 -315.5t292.5 -120.5q119 0 215 54t129 169h-342v301h698v-829h-295v158q-150 -178 -442 -178z" glyph-name="Gdotaccent" horiz-adv-x="1651" unicode="Ġ"/><glyph d="M659 1161q-83 0 -142 58t-59 141q0 81 59 138.5t142 57.5q80 0 138 -57.5t58 -138.5q0 -83 -58 -141t-138 -58zM836 1059h346v-965q0 -162 -42.5 -278.5t-123 -184t-185 -98.5t-239.5 -31q-443 0 -565 332l303 123q45 -94 102 -135t146 -41q122 0 179.5 71.5t57.5 213.5 v85q-45 -50 -122.5 -80t-168.5 -30q-97 0 -184.5 37t-153.5 103t-104.5 165.5t-38.5 216.5q0 118 38.5 216t105 163t154.5 101t187 36q101 0 179.5 -35.5t120.5 -94.5zM623 332q98 0 163.5 65.5t65.5 165.5t-65 166t-164 66q-100 0 -165 -66t-65 -166q0 -99 65.5 -165 t164.5 -66z" glyph-name="gdotaccent" horiz-adv-x="1313" unicode="ġ"/><glyph d="M807 -20q-214 0 -382.5 93t-263.5 264.5t-95 393.5q0 226 98 399.5t271 267t394 93.5q219 0 391.5 -92t270.5 -256l-334 -178q-48 100 -132.5 150t-195.5 50q-170 0 -276.5 -112.5t-106.5 -311.5q0 -195 105.5 -315.5t292.5 -120.5q119 0 215 54t129 169h-342v301h698 v-829h-295v158q-150 -178 -442 -178zM669 -584l-174 82l172 379h313z" glyph-name="Gcommaaccent" horiz-adv-x="1651" unicode="Ģ"/><glyph d="M915 1537l-127 -342h-372l241 342h258zM836 1059h346v-965q0 -162 -42.5 -278.5t-123 -184t-185 -98.5t-239.5 -31q-443 0 -565 332l303 123q45 -94 102 -135t146 -41q122 0 179.5 71.5t57.5 213.5v85q-45 -50 -122.5 -80t-168.5 -30q-97 0 -184.5 37t-153.5 103 t-104.5 165.5t-38.5 216.5q0 118 38.5 216t105 163t154.5 101t187 36q101 0 179.5 -35.5t120.5 -94.5zM623 332q98 0 163.5 65.5t65.5 165.5t-65 166t-164 66q-100 0 -165 -66t-65 -166q0 -99 65.5 -165t164.5 -66z" glyph-name="gcommaaccent" horiz-adv-x="1313" unicode="ģ"/><glyph d="M1593 1233v-135h-125v-1098h-381v573h-542v-573h-381v1098h-121v135h121v237h381v-237h542v237h381v-237h125zM1087 901v197h-542v-197h542z" glyph-name="Hbar" horiz-adv-x="1632" unicode="Ħ"/><glyph d="M854 1079q192 0 291.5 -102t99.5 -305v-672h-366v614q0 177 -168 177q-213 0 -215 -238v-553h-365v1187h-115v217h115v132h365v-132h265v-217h-265v-250q129 142 358 142z" glyph-name="hbar" horiz-adv-x="1354" unicode="ħ"/><glyph d="M506 1618q-64 0 -101.5 18.5t-68.5 51.5q-4 5 -20 23.5t-22 24t-19.5 12.5t-28.5 7q-68 0 -68 -125h-188q0 126 66.5 204.5t181.5 78.5q106 0 170 -60q11 -11 31 -34t34 -33t33 -10q59 0 59 125h191q0 -124 -65 -203.5t-185 -79.5zM164 0v1470h381v-1470h-381z" glyph-name="Itilde" horiz-adv-x="709" unicode="Ĩ"/><glyph d="M452 1174q-118 0 -184 106q-19 31 -43 31q-57 0 -57 -125h-164q0 127 57.5 205.5t157.5 78.5q60 0 107 -29t77 -77q21 -31 45 -31q54 0 54 125h166q0 -125 -56.5 -204.5t-159.5 -79.5zM131 0v1059h367v-1059h-367z" glyph-name="itilde" horiz-adv-x="629" unicode="ĩ"/><glyph d="M14 1597v209h676v-209h-676zM164 0v1470h381v-1470h-381z" glyph-name="Imacron" horiz-adv-x="709" unicode="Ī"/><glyph d="M-23 1210v209h676v-209h-676zM131 0v1059h367v-1059h-367z" glyph-name="imacron" horiz-adv-x="629" unicode="ī"/><glyph d="M545 0q-70 -59 -122 -120t-52 -95q0 -31 49 -31q32 0 68 13t57 34v-219q-78 -33 -168 -33q-87 0 -146 30.5t-59 88.5q0 64 64.5 151.5t167.5 180.5h-240v1470h381v-1470z" glyph-name="Iogonek" horiz-adv-x="709" unicode="Į"/><glyph d="M317 1161q-83 0 -142 58t-59 141q0 81 59 138.5t142 57.5q80 0 138 -57.5t58 -138.5q0 -83 -58 -141t-138 -58zM131 0v1059h367v-1059q-70 -59 -122 -120t-52 -95q0 -31 49 -31q32 0 68 13t57 34v-219q-78 -33 -168 -33q-87 0 -146 30.5t-59 88.5q0 64 64.5 151.5 t167.5 180.5h-226z" glyph-name="iogonek" horiz-adv-x="629" unicode="į"/><glyph d="M354 1536q-83 0 -142 58t-59 141q0 81 59 138.5t142 57.5q80 0 138 -57.5t58 -138.5q0 -83 -58 -141t-138 -58zM164 0v1470h381v-1470h-381z" glyph-name="Idotaccent" horiz-adv-x="709" unicode="İ"/><glyph d="M131 0v1059h367v-1059h-367z" glyph-name="dotlessi" horiz-adv-x="629" unicode="ı"/><glyph d="M963 766l573 -766h-485l-415 590h-91v-590h-381v1470h381v-550h88l430 550h463zM430 -502l172 379h313l-311 -461z" glyph-name="Kcommaaccent" horiz-adv-x="1546" unicode="Ķ"/><glyph d="M845 563l441 -563h-436l-305 416h-45v-416h-369v1536h369v-874h40l312 397h405zM305 -502l172 379h313l-311 -461z" glyph-name="kcommaaccent" horiz-adv-x="1272" unicode="ķ"/><glyph d="M694 1870l-228 -273h-217l271 396zM545 334h430v-334h-811v1470h381v-1136z" glyph-name="Lacute" horiz-adv-x="1006" unicode="Ĺ"/><glyph d="M210 1659l271 395l174 -123l-228 -272h-217zM131 0v1536h369v-1536h-369z" glyph-name="lacute" horiz-adv-x="631" unicode="ĺ"/><glyph d="M545 334h430v-334h-811v1470h381v-1136zM241 -502l172 379h313l-311 -461z" glyph-name="Lcommaaccent" horiz-adv-x="1006" unicode="Ļ"/><glyph d="M131 0v1536h369v-1536h-369zM159 -584l-174 82l172 379h313z" glyph-name="lcommaaccent" horiz-adv-x="631" unicode="ļ"/><glyph d="M545 1470v-1136h430v-334h-811v1470h381zM1167 1470l-241 -676h-258l127 676h372z" glyph-name="Lcaron" horiz-adv-x="1180" unicode="Ľ"/><glyph d="M131 0v1536h369v-1536h-369zM610 860l127 676h373l-242 -676h-258z" glyph-name="lcaron" horiz-adv-x="926" unicode="ľ"/><glyph d="M545 334h430v-334h-811v495l-172 -127v217l172 127v758h381v-475l145 107v-220l-145 -107v-441z" glyph-name="Lslash" horiz-adv-x="1006" unicode="Ł"/><glyph d="M663 1188v-220l-163 -120v-848h-369v576l-166 -122v217l166 123v742h369v-469z" glyph-name="lslash" horiz-adv-x="631" unicode="ł"/><glyph d="M1202 1870l-228 -273h-217l271 396zM1178 1470h381v-1470h-453l-561 954v-954h-381v1470h448l566 -949v949z" glyph-name="Nacute" horiz-adv-x="1722" unicode="Ń"/><glyph d="M1014 1454l-228 -272h-217l271 395zM834 1079q204 0 307.5 -95t103.5 -271v-713h-366v635q0 82 -45.5 119t-118.5 37q-217 0 -219 -238v-553h-365v1059h365v-109q124 129 338 129z" glyph-name="nacute" horiz-adv-x="1356" unicode="ń"/><glyph d="M1178 1470h381v-1470h-453l-561 954v-954h-381v1470h448l566 -949v949zM532 -502l172 379h313l-311 -461z" glyph-name="Ncommaaccent" horiz-adv-x="1722" unicode="Ņ"/><glyph d="M834 1079q204 0 307.5 -95t103.5 -271v-713h-366v635q0 82 -45.5 119t-118.5 37q-217 0 -219 -238v-553h-365v1059h365v-109q124 129 338 129zM344 -502l172 379h313l-311 -461z" glyph-name="ncommaaccent" horiz-adv-x="1356" unicode="ņ"/><glyph d="M965 1597h-205l-237 301h217l122 -135l123 135h217zM1178 1470h381v-1470h-453l-561 954v-954h-381v1470h448l566 -949v949z" glyph-name="Ncaron" horiz-adv-x="1722" unicode="Ň"/><glyph d="M777 1235h-205l-237 301h217l122 -135l123 135h217zM834 1079q204 0 307.5 -95t103.5 -271v-713h-366v635q0 82 -45.5 119t-118.5 37q-217 0 -219 -238v-553h-365v1059h365v-109q124 129 338 129z" glyph-name="ncaron" horiz-adv-x="1356" unicode="ň"/><glyph d="M1178 1470h381v-1470q0 -221 -144.5 -348t-386.5 -127v278q44 0 75 23t36.5 66.5t-33.5 107.5l-561 954v-954h-381v1470h448l566 -949v949z" glyph-name="Eng" horiz-adv-x="1722" unicode="Ŋ"/><glyph d="M854 1079q190 0 290.5 -95.5t100.5 -270.5v-834q0 -173 -101 -275t-282 -102h-211v252h105q60 0 91.5 21.5t31.5 83.5v776q0 82 -45.5 119t-118.5 37q-217 0 -219 -238v-553h-365v1059h365v-123q130 143 358 143z" glyph-name="eng" horiz-adv-x="1356" unicode="ŋ"/><glyph d="M491 1597v209h676v-209h-676zM829 -20q-221 0 -394 93.5t-271 266t-98 395.5q0 225 98 397.5t271 265.5t394 93t394.5 -93t271.5 -265.5t98 -397.5q0 -223 -98 -395.5t-271.5 -266t-394.5 -93.5zM829 326q170 0 279 111.5t109 297.5t-109.5 298t-278.5 112t-277 -112 t-108 -298t108 -297.5t277 -111.5z" glyph-name="Omacron" horiz-adv-x="1659" unicode="Ō"/><glyph d="M315 1208v209h676v-209h-676zM653 -20q-274 0 -441 146t-167 404q0 171 77 296t213.5 189t317.5 64q277 0 444 -145.5t167 -403.5t-167.5 -404t-443.5 -146zM649 264q116 0 184 73.5t68 192.5q0 120 -68 193.5t-184 73.5q-109 0 -175 -74t-66 -193t66 -192.5t175 -73.5z" glyph-name="omacron" horiz-adv-x="1309" unicode="ō"/><glyph d="M526 1597l271 396l174 -123l-228 -273h-217zM915 1597l271 396l174 -123l-228 -273h-217zM829 -20q-221 0 -394 93.5t-271 266t-98 395.5q0 225 98 397.5t271 265.5t394 93t394.5 -93t271.5 -265.5t98 -397.5q0 -223 -98 -395.5t-271.5 -266t-394.5 -93.5zM829 326 q170 0 279 111.5t109 297.5t-109.5 298t-278.5 112t-277 -112t-108 -298t108 -297.5t277 -111.5z" glyph-name="Ohungarumlaut" horiz-adv-x="1659" unicode="Ő"/><glyph d="M350 1180l271 395l174 -123l-228 -272h-217zM739 1180l271 395l174 -123l-228 -272h-217zM653 -20q-274 0 -441 146t-167 404q0 171 77 296t213.5 189t317.5 64q277 0 444 -145.5t167 -403.5t-167.5 -404t-443.5 -146zM649 264q116 0 184 73.5t68 192.5q0 120 -68 193.5 t-184 73.5q-109 0 -175 -74t-66 -193t66 -192.5t175 -73.5z" glyph-name="ohungarumlaut" horiz-adv-x="1309" unicode="ő"/><glyph d="M793 0q-193 0 -335 53t-227 152.5t-125 231.5t-40 302q0 731 727 731h1112v-333h-545v-230h459v-334h-459v-239h545v-334h-1112zM813 334h166v803h-166q-104 0 -172.5 -24.5t-107 -77t-53.5 -122.5t-15 -174q0 -103 15 -174t53 -125t107 -80t173 -26z" glyph-name="OE" horiz-adv-x="2028" unicode="Œ"/><glyph d="M2025 541l-4 -84h-756q11 -95 73 -145t153 -50q143 0 186 113l336 -43q-48 -168 -187 -260t-333 -92q-262 0 -416 130q-164 -130 -424 -130q-274 0 -441 146t-167 404q0 171 77 296t213.5 189t317.5 64q263 0 425 -130q153 132 403 132q119 0 215.5 -31.5t171 -95 t115.5 -169t42 -244.5zM1483 829q-170 0 -208 -141h392q-15 68 -64 104.5t-120 36.5zM649 264q116 0 184 73.5t68 192.5q0 120 -68 193.5t-184 73.5q-109 0 -175 -74t-66 -193t66 -192.5t175 -73.5z" glyph-name="oe" horiz-adv-x="2077" unicode="œ"/><glyph d="M1016 1870l-228 -273h-217l271 396zM1380 0h-452l-383 630v-630h-381v1470h563q128 0 224.5 -35t154 -98t85.5 -143.5t28 -177.5q0 -150 -80.5 -243t-217.5 -123zM856 1012q0 147 -192 147h-119v-295h119q192 0 192 148z" glyph-name="Racute" horiz-adv-x="1380" unicode="Ŕ"/><glyph d="M723 1454l-228 -272h-217l271 395zM479 900q44 68 143 119.5t209 51.5v-319q-92 0 -151.5 -11.5t-101.5 -41.5t-60 -81.5t-18 -132.5v-485h-369v1059h348v-159z" glyph-name="racute" horiz-adv-x="846" unicode="ŕ"/><glyph d="M921 650l459 -650h-452l-383 630v-630h-381v1470h563q128 0 224.5 -35t154 -98t85.5 -143.5t28 -177.5q0 -150 -80.5 -243t-217.5 -123zM856 1012q0 147 -192 147h-119v-295h119q192 0 192 148zM346 -502l172 379h313l-311 -461z" glyph-name="Rcommaaccent" horiz-adv-x="1380" unicode="Ŗ"/><glyph d="M479 900q44 68 143 119.5t209 51.5v-319q-92 0 -151.5 -11.5t-101.5 -41.5t-60 -81.5t-18 -132.5v-485h-369v1059h348v-159zM-17 -502l172 379h313l-311 -461z" glyph-name="rcommaaccent" horiz-adv-x="846" unicode="ŗ"/><glyph d="M779 1597h-205l-237 301h217l122 -135l123 135h217zM1380 0h-452l-383 630v-630h-381v1470h563q128 0 224.5 -35t154 -98t85.5 -143.5t28 -177.5q0 -150 -80.5 -243t-217.5 -123zM856 1012q0 147 -192 147h-119v-295h119q192 0 192 148z" glyph-name="Rcaron" horiz-adv-x="1380" unicode="Ř"/><glyph d="M486 1235h-205l-237 301h217l122 -135l123 135h217zM479 900q44 68 143 119.5t209 51.5v-319q-92 0 -151.5 -11.5t-101.5 -41.5t-60 -81.5t-18 -132.5v-485h-369v1059h348v-159z" glyph-name="rcaron" horiz-adv-x="846" unicode="ř"/><glyph d="M559 1597l271 396l174 -123l-228 -273h-217zM674 -20q-163 0 -295.5 50t-221 153t-108.5 247l395 90q8 -116 74.5 -175.5t171.5 -59.5q74 0 116 34t42 97q0 49 -44.5 88t-86.5 56.5t-146 52.5q-6 2 -9.5 3.5t-9 3t-9.5 3.5q-55 18 -90.5 31t-86.5 36t-83.5 44.5t-70 54.5 t-58.5 69t-35.5 85.5t-14.5 105.5q0 203 149 322.5t390 119.5q102 0 195 -21.5t178 -67t145 -127t82 -190.5l-366 -90q-30 191 -209 191q-82 0 -130.5 -32.5t-48.5 -94.5q0 -21 13 -40t32 -32.5t54 -28t63.5 -24.5t76.5 -25q29 -9 44 -14q43 -14 72.5 -24.5t72 -27.5t72 -33 t66 -38.5t62 -46t51 -55t41 -65.5t25 -77t9.5 -90q0 -117 -46.5 -207t-127 -143.5t-180.5 -80.5t-215 -27z" glyph-name="Sacute" horiz-adv-x="1315" unicode="Ś"/><glyph d="M411 1184l271 395l174 -123l-228 -272h-217zM526 -20q-194 0 -322.5 73t-158.5 221l301 84q26 -73 72 -102t110 -29q113 0 113 70q0 35 -33.5 59.5t-77 36t-117 31t-122.5 39.5q-48 19 -84 41t-69 56t-50.5 82.5t-17.5 109.5q0 161 120.5 244t319.5 83q112 0 199 -26 t152 -90.5t87 -165.5l-276 -60q-27 59 -65.5 83t-96.5 24q-51 0 -81 -15t-30 -43q0 -18 12.5 -31.5t40 -24t53 -17.5t71.5 -18t75 -19q70 -20 123 -43.5t106 -63.5t82 -102.5t29 -144.5q0 -92 -37.5 -160t-104 -106.5t-147 -57t-176.5 -18.5z" glyph-name="sacute" horiz-adv-x="1024" unicode="ś"/><glyph d="M772 895q43 -14 72.5 -24.5t72 -27.5t72 -33t66 -38.5t62 -46t51 -55t41 -65.5t25 -77t9.5 -90q0 -109 -40.5 -194.5t-111.5 -139.5t-160 -84.5t-194 -37.5l-60 -95q24 4 39 4q83 0 137.5 -54t54.5 -138q0 -97 -67 -164t-164 -67q-93 0 -157 46.5t-85 118.5l156 50 q9 -28 30.5 -43t47.5 -15q30 0 53.5 20t23.5 54q0 36 -23 56t-54 20q-48 0 -70 -37l-125 69l102 178q-214 23 -357 138t-170 307l395 90q8 -116 74.5 -175.5t171.5 -59.5q74 0 116 34t42 97q0 49 -44.5 88t-86.5 56.5t-146 52.5q-6 2 -9.5 3.5t-9 3t-9.5 3.5 q-55 18 -90.5 31t-86.5 36t-83.5 44.5t-70 54.5t-58.5 69t-35.5 85.5t-14.5 105.5q0 203 149 322.5t390 119.5q102 0 195 -21.5t178 -67t145 -127t82 -190.5l-366 -90q-30 191 -209 191q-82 0 -130.5 -32.5t-48.5 -94.5q0 -21 13 -40t32 -32.5t54 -28t63.5 -24.5t76.5 -25 q29 -9 44 -14z" glyph-name="Scedilla" horiz-adv-x="1315" unicode="Ş"/><glyph d="M991 322q0 -68 -21 -123t-57.5 -93t-88.5 -65t-110 -41t-126 -18l-59 -93q24 4 39 4q83 0 137.5 -54t54.5 -138q0 -97 -67 -164t-164 -67q-93 0 -157 46.5t-85 118.5l156 50q9 -28 30.5 -43t47.5 -15q30 0 53.5 20t23.5 54q0 36 -23 56t-54 20q-48 0 -70 -37l-125 69 l101 176q-155 17 -256 89t-126 200l301 84q26 -73 72 -102t110 -29q113 0 113 70q0 35 -33.5 59.5t-77 36t-117 31t-122.5 39.5q-48 19 -84 41t-69 56t-50.5 82.5t-17.5 109.5q0 161 120.5 244t319.5 83q112 0 199 -26t152 -90.5t87 -165.5l-276 -60q-27 59 -65.5 83 t-96.5 24q-51 0 -81 -15t-30 -43q0 -18 12.5 -31.5t40 -24t53 -17.5t71.5 -18t75 -19q70 -20 123 -43.5t106 -63.5t82 -102.5t29 -144.5z" glyph-name="scedilla" horiz-adv-x="1024" unicode="ş"/><glyph d="M562 1597l-237 301h217l122 -135l123 135h217l-237 -301h-205zM674 -20q-163 0 -295.5 50t-221 153t-108.5 247l395 90q8 -116 74.5 -175.5t171.5 -59.5q74 0 116 34t42 97q0 49 -44.5 88t-86.5 56.5t-146 52.5q-6 2 -9.5 3.5t-9 3t-9.5 3.5q-55 18 -90.5 31t-86.5 36 t-83.5 44.5t-70 54.5t-58.5 69t-35.5 85.5t-14.5 105.5q0 203 149 322.5t390 119.5q102 0 195 -21.5t178 -67t145 -127t82 -190.5l-366 -90q-30 191 -209 191q-82 0 -130.5 -32.5t-48.5 -94.5q0 -21 13 -40t32 -32.5t54 -28t63.5 -24.5t76.5 -25q29 -9 44 -14 q43 -14 72.5 -24.5t72 -27.5t72 -33t66 -38.5t62 -46t51 -55t41 -65.5t25 -77t9.5 -90q0 -117 -46.5 -207t-127 -143.5t-180.5 -80.5t-215 -27z" glyph-name="Scaron" horiz-adv-x="1315" unicode="Š"/><glyph d="M414 1237l-237 301h217l122 -135l123 135h217l-237 -301h-205zM526 -20q-194 0 -322.5 73t-158.5 221l301 84q26 -73 72 -102t110 -29q113 0 113 70q0 35 -33.5 59.5t-77 36t-117 31t-122.5 39.5q-48 19 -84 41t-69 56t-50.5 82.5t-17.5 109.5q0 161 120.5 244t319.5 83 q112 0 199 -26t152 -90.5t87 -165.5l-276 -60q-27 59 -65.5 83t-96.5 24q-51 0 -81 -15t-30 -43q0 -18 12.5 -31.5t40 -24t53 -17.5t71.5 -18t75 -19q70 -20 123 -43.5t106 -63.5t82 -102.5t29 -144.5q0 -92 -37.5 -160t-104 -106.5t-147 -57t-176.5 -18.5z" glyph-name="scaron" horiz-adv-x="1024" unicode="š"/><glyph d="M739 0h-104l-71 -113q24 4 39 4q83 0 137.5 -54t54.5 -138q0 -97 -67 -164t-164 -67q-93 0 -157 46.5t-85 118.5l156 50q9 -28 30.5 -43t47.5 -15q30 0 53.5 20t23.5 54q0 36 -23 56t-54 20q-48 0 -70 -37l-125 69l110 193h-109v1139h-333v331h1042v-331h-332v-1139z" glyph-name="uni0162" horiz-adv-x="1100" unicode="Ţ"/><glyph d="M670 -109q83 0 137.5 -54t54.5 -138q0 -97 -67 -164t-164 -67q-93 0 -157 46.5t-85 118.5l156 50q9 -28 30.5 -43t47.5 -15q30 0 53.5 20t23.5 54q0 36 -23 56t-54 20q-48 0 -70 -37l-125 69l110 193q-159 6 -243 98t-84 258v426h-203v277h60q93 0 140.5 48t47.5 177v109 h326v-334h202v-277h-202v-385q0 -66 26.5 -95.5t81.5 -29.5h94v-272h-82l-71 -113q24 4 39 4z" glyph-name="uni0163" horiz-adv-x="858" unicode="ţ"/><glyph d="M654 1597h-205l-237 301h217l122 -135l123 135h217zM1071 1470v-331h-332v-1139h-377v1139h-333v331h1042z" glyph-name="Tcaron" horiz-adv-x="1100" unicode="Ť"/><glyph d="M672 1198l127 676h372l-241 -676h-258zM526 0q-168 0 -258 92.5t-90 263.5v426h-203v277h60q93 0 140.5 48t47.5 177v109h326v-334h203v-277h-203v-385q0 -66 26.5 -95.5t81.5 -29.5h95v-272h-226z" glyph-name="tcaron" horiz-adv-x="823" unicode="ť"/><glyph d="M1071 1139h-332v-296h184v-217h-184v-626h-377v626h-184v217h184v296h-333v331h1042v-331z" glyph-name="Tbar" horiz-adv-x="1100" unicode="Ŧ"/><glyph d="M784 782h-202v-144h137v-217h-137v-24q0 -66 26.5 -95.5t81.5 -29.5h94v-272h-225q-168 0 -258 92.5t-90 263.5v65h-138v217h138v144h-203v277h60q93 0 140.5 48t47.5 177v109h326v-334h202v-277z" glyph-name="tbar" horiz-adv-x="858" unicode="ŧ"/><glyph d="M889 1618q-63 0 -101 18.5t-69 51.5q-4 5 -20 23.5t-22 24t-19.5 12.5t-28.5 7q-68 0 -68 -125h-188q0 126 66.5 204.5t181.5 78.5q106 0 170 -60q11 -11 31 -34t34 -33t33 -10q59 0 59 125h191q0 -124 -65 -203.5t-185 -79.5zM735 -20q-130 0 -236.5 31t-190 95 t-129.5 172.5t-46 253.5v938h381v-886q0 -271 221 -271t221 271v886h381v-938q0 -145 -46 -253.5t-129.5 -172.5t-190 -95t-236.5 -31z" glyph-name="Utilde" horiz-adv-x="1470" unicode="Ũ"/><glyph d="M588 1311q-57 0 -57 -125h-164q0 127 57.5 205.5t157.5 78.5q60 0 107 -29t77 -77q21 -31 45 -31q54 0 54 125h166q0 -125 -56.5 -204.5t-159.5 -79.5q-118 0 -184 106q-19 31 -43 31zM858 1059h365v-1059h-344l-10 122q-59 -68 -149 -105t-200 -37q-204 0 -307.5 95 t-103.5 271v713h366v-635q0 -82 45.5 -119t118.5 -37q217 0 219 238v553z" glyph-name="utilde" horiz-adv-x="1354" unicode="ũ"/><glyph d="M397 1597v209h676v-209h-676zM735 -20q-130 0 -236.5 31t-190 95t-129.5 172.5t-46 253.5v938h381v-886q0 -271 221 -271t221 271v886h381v-938q0 -145 -46 -253.5t-129.5 -172.5t-190 -95t-236.5 -31z" glyph-name="Umacron" horiz-adv-x="1470" unicode="Ū"/><glyph d="M1016 1419v-209h-676v209h676zM858 1059h365v-1059h-344l-10 122q-59 -68 -149 -105t-200 -37q-204 0 -307.5 95t-103.5 271v713h366v-635q0 -82 45.5 -119t118.5 -37q217 0 219 238v553z" glyph-name="umacron" horiz-adv-x="1354" unicode="ū"/><glyph d="M735 1597q-108 0 -184 76.5t-76 184.5q0 105 76 180.5t184 75.5q105 0 180.5 -75.5t75.5 -180.5q0 -108 -75 -184.5t-181 -76.5zM735 1743q48 0 80 31.5t32 83.5q0 45 -33 79.5t-79 34.5q-47 0 -79 -34.5t-32 -79.5q0 -52 31 -83.5t80 -31.5zM735 -20q-130 0 -236.5 31 t-190 95t-129.5 172.5t-46 253.5v938h381v-886q0 -271 221 -271t221 271v886h381v-938q0 -145 -46 -253.5t-129.5 -172.5t-190 -95t-236.5 -31z" glyph-name="Uring" horiz-adv-x="1470" unicode="Ů"/><glyph d="M678 1157q-108 0 -184 76.5t-76 183.5q0 105 76 180.5t184 75.5q106 0 181 -75.5t75 -180.5q0 -107 -75 -183.5t-181 -76.5zM678 1532q-47 0 -79 -34.5t-32 -80.5q0 -51 31 -82.5t80 -31.5q48 0 80 31.5t32 82.5q0 46 -33 80.5t-79 34.5zM858 1059h365v-1059h-344 l-10 122q-59 -68 -149 -105t-200 -37q-204 0 -307.5 95t-103.5 271v713h366v-635q0 -82 45.5 -119t118.5 -37q217 0 219 238v553z" glyph-name="uring" horiz-adv-x="1354" unicode="ů"/><glyph d="M432 1597l271 396l174 -123l-228 -273h-217zM821 1597l271 396l174 -123l-228 -273h-217zM735 -20q-130 0 -236.5 31t-190 95t-129.5 172.5t-46 253.5v938h381v-886q0 -271 221 -271t221 271v886h381v-938q0 -145 -46 -253.5t-129.5 -172.5t-190 -95t-236.5 -31z" glyph-name="Uhungarumlaut" horiz-adv-x="1470" unicode="Ű"/><glyph d="M820 1454l-228 -272h-217l271 395zM981 1182h-217l271 395l174 -123zM858 1059h365v-1059h-344l-10 122q-59 -68 -149 -105t-200 -37q-204 0 -307.5 95t-103.5 271v713h366v-635q0 -82 45.5 -119t118.5 -37q217 0 219 238v553z" glyph-name="uhungarumlaut" horiz-adv-x="1354" unicode="ű"/><glyph d="M956 1470h381v-938q0 -330 -235 -467q-65 -57 -109.5 -112t-44.5 -86t49 -31q32 0 68 13t57 34v-219q-78 -33 -168 -33q-87 0 -146 30.5t-59 88.5q0 93 139 242q-74 -12 -153 -12q-130 0 -236.5 31t-190 95t-129.5 172.5t-46 253.5v938h381v-886q0 -271 221 -271t221 271 v886z" glyph-name="Uogonek" horiz-adv-x="1470" unicode="Ų"/><glyph d="M1223 0q-70 -59 -122 -120t-52 -95q0 -31 49 -31q32 0 68 13t57 34v-219q-78 -33 -168 -33q-87 0 -146 30.5t-59 88.5q0 64 64.5 151.5t167.5 180.5h-203l-10 122q-59 -68 -149 -105t-200 -37q-204 0 -307.5 95t-103.5 271v713h366v-635q0 -82 45.5 -119t118.5 -37 q217 0 219 238v553h365v-1059z" glyph-name="uogonek" horiz-adv-x="1354" unicode="ų"/><glyph d="M1008 1597h-218l238 301h205l237 -301h-217l-123 136zM387 0l-360 1470h395l248 -1050l303 1050h317l301 -1050l250 1050h395l-360 -1470h-504l-242 766l-239 -766h-504z" glyph-name="Wcircumflex" horiz-adv-x="2263" unicode="Ŵ"/><glyph d="M942 1370l-122 -135h-218l238 301h205l237 -301h-217zM1487 1059h375l-373 -1061h-342l-218 628l-222 -628h-347l-366 1061h375l192 -612l225 612h281l224 -609z" glyph-name="wcircumflex" horiz-adv-x="1855" unicode="ŵ"/><glyph d="M674 1733l-122 -136h-218l238 301h205l237 -301h-217zM1350 1470l-484 -767v-703h-381v697l-487 773h418l258 -434l260 434h416z" glyph-name="Ycircumflex" horiz-adv-x="1348" unicode="Ŷ"/><glyph d="M602 1370l-122 -135h-218l238 301h205l237 -301h-217zM848 1059h371l-678 -1557h-367l259 554l-449 1003h395l224 -618z" glyph-name="ycircumflex" horiz-adv-x="1202" unicode="ŷ"/><glyph d="M441 1536q-83 0 -142 58t-59 141q0 81 59 138.5t142 57.5q80 0 138 -57.5t58 -138.5q0 -83 -58 -141t-138 -58zM910 1536q-83 0 -142 58t-59 141q0 81 59 138.5t142 57.5q80 0 138 -57.5t58 -138.5q0 -83 -58 -141t-138 -58zM1350 1470l-484 -767v-703h-381v697l-487 773 h418l258 -434l260 434h416z" glyph-name="Ydieresis" horiz-adv-x="1348" unicode="Ÿ"/><glyph d="M989 1870l-228 -273h-217l271 396zM537 334h610v-334h-1061v297l609 842h-609v331h1057v-296z" glyph-name="Zacute" horiz-adv-x="1233" unicode="Ź"/><glyph d="M848 1454l-228 -272h-217l271 395zM942 1059l-409 -783h385v-276h-889l406 782h-367v277h874z" glyph-name="zacute" horiz-adv-x="979" unicode="ź"/><glyph d="M651 1536q-83 0 -142 58t-59 141q0 81 59 138.5t142 57.5q80 0 138 -57.5t58 -138.5q0 -83 -58 -141t-138 -58zM537 334h610v-334h-1061v297l609 842h-609v331h1057v-296z" glyph-name="Zdotaccent" horiz-adv-x="1233" unicode="Ż"/><glyph d="M510 1161q-83 0 -142 58t-59 141q0 81 59 138.5t142 57.5q80 0 138 -57.5t58 -138.5q0 -83 -58 -141t-138 -58zM942 1059l-409 -783h385v-276h-889l406 782h-367v277h874z" glyph-name="zdotaccent" horiz-adv-x="979" unicode="ż"/><glyph d="M752 1597h-205l-237 301h217l122 -135l123 135h217zM537 334h610v-334h-1061v297l609 842h-609v331h1057v-296z" glyph-name="Zcaron" horiz-adv-x="1233" unicode="Ž"/><glyph d="M611 1235h-205l-237 301h217l122 -135l123 135h217zM942 1059l-409 -783h385v-276h-889l406 782h-367v277h874z" glyph-name="zcaron" horiz-adv-x="979" unicode="ž"/><glyph d="M106 -446l195 1230h-170l43 275h172l14 100q16 112 86 204t173 142.5t215 50.5q56 0 103.5 -11.5t66.5 -26.5l-29 -250q-37 30 -103 30q-78 0 -127 -49t-63 -139l-8 -51h270l-43 -275h-270l-197 -1230h-328z" glyph-name="florin" horiz-adv-x="1075" unicode="ƒ"/><glyph d="M1505 1582h162v-204q0 -220 -182 -230q108 -178 108 -413q0 -223 -98 -395.5t-271.5 -266t-394.5 -93.5t-394 93.5t-271 266t-98 395.5q0 225 98 397.5t271 265.5t394 93q301 0 505 -168q41 -17 73 -17q58 0 78 25.5t20 107.5v143zM829 326q170 0 279 111.5t109 297.5 t-109.5 298t-278.5 112t-277 -112t-108 -298t108 -297.5t277 -111.5z" glyph-name="Ohorn" horiz-adv-x="1659" unicode="Ơ"/><glyph d="M1180 1240h162v-204q0 -197 -146 -225q68 -122 68 -281q0 -258 -167.5 -404t-443.5 -146q-274 0 -441 146t-167 404q0 171 77 296t213.5 189t317.5 64q242 0 402 -112q15 -3 27 -3q58 0 78 25.5t20 107.5v143zM649 264q116 0 184 73.5t68 192.5q0 120 -68 193.5 t-184 73.5q-109 0 -175 -74t-66 -193t66 -192.5t175 -73.5z" glyph-name="ohorn" horiz-adv-x="1309" unicode="ơ"/><glyph d="M1485 1672h162v-204q0 -230 -196 -230q-53 0 -114 21v-727q0 -145 -46 -253.5t-129.5 -172.5t-190 -95t-236.5 -31t-236.5 31t-190 95t-129.5 172.5t-46 253.5v938h381v-886q0 -271 221 -271t221 271v886h381v-65q26 -9 50 -9q58 0 78 25.5t20 107.5v143z" glyph-name="Uhorn" horiz-adv-x="1470" unicode="Ư"/><glyph d="M1356 1261h162v-204q0 -230 -196 -230q-47 0 -99 16v-843h-344l-10 122q-59 -68 -149 -105t-200 -37q-204 0 -307.5 95t-103.5 271v713h366v-635q0 -82 45.5 -119t118.5 -37q217 0 219 238v553h365v-70q19 -4 35 -4q58 0 78 25.5t20 107.5v143z" glyph-name="uhorn" horiz-adv-x="1354" unicode="ư"/><glyph d="M889 1597h-205l-237 301h217l122 -135l123 135h217zM1174 0l-95 272h-588l-94 -272h-387l541 1470h469l541 -1470h-387zM600 586h370l-185 532z" glyph-name="uni01CD" horiz-adv-x="1571" unicode="Ǎ"/><glyph d="M689 1235h-205l-237 301h217l122 -135l123 135h217zM1061 268q0 -151 24 -237v-31h-333l-22 109q-53 -65 -146 -97t-193 -32q-51 0 -97 8.5t-90.5 30t-76 54t-51 84t-19.5 117.5q0 65 20 117t52 87t84 63.5t103 46t122 35.5l170 43q60 15 83.5 33.5t23.5 48.5 q0 34 -25 55t-55 27t-66 6q-77 0 -122.5 -33t-59.5 -111l-321 53q38 174 165 254t361 80q50 0 93 -3.5t92.5 -14t89 -28t77 -47.5t62.5 -70t40 -98t15 -130v-420zM508 219q83 0 155 64.5t72 177.5l-239 -80q-45 -15 -69 -32.5t-24 -49.5q0 -37 30 -58.5t75 -21.5z" glyph-name="uni01CE" horiz-adv-x="1174" unicode="ǎ"/><glyph d="M250 1597l-237 301h217l122 -135l123 135h217l-237 -301h-205zM164 0v1470h381v-1470h-381z" glyph-name="uni01CF" horiz-adv-x="709" unicode="Ǐ"/><glyph d="M213 1235l-237 301h217l122 -135l123 135h217l-237 -301h-205zM131 0v1059h367v-1059h-367z" glyph-name="uni01D0" horiz-adv-x="629" unicode="ǐ"/><glyph d="M727 1597l-237 301h217l122 -135l123 135h217l-237 -301h-205zM829 -20q-221 0 -394 93.5t-271 266t-98 395.5q0 225 98 397.5t271 265.5t394 93t394.5 -93t271.5 -265.5t98 -397.5q0 -223 -98 -395.5t-271.5 -266t-394.5 -93.5zM829 326q170 0 279 111.5t109 297.5 t-109.5 298t-278.5 112t-277 -112t-108 -298t108 -297.5t277 -111.5z" glyph-name="uni01D1" horiz-adv-x="1659" unicode="Ǒ"/><glyph d="M551 1233l-237 301h217l122 -135l123 135h217l-237 -301h-205zM653 -20q-274 0 -441 146t-167 404q0 171 77 296t213.5 189t317.5 64q277 0 444 -145.5t167 -403.5t-167.5 -404t-443.5 -146zM649 264q116 0 184 73.5t68 192.5q0 120 -68 193.5t-184 73.5q-109 0 -175 -74 t-66 -193t66 -192.5t175 -73.5z" glyph-name="uni01D2" horiz-adv-x="1309" unicode="ǒ"/><glyph d="M633 1597l-237 301h217l122 -135l123 135h217l-237 -301h-205zM735 -20q-130 0 -236.5 31t-190 95t-129.5 172.5t-46 253.5v938h381v-886q0 -271 221 -271t221 271v886h381v-938q0 -145 -46 -253.5t-129.5 -172.5t-190 -95t-236.5 -31z" glyph-name="uni01D3" horiz-adv-x="1470" unicode="Ǔ"/><glyph d="M781 1235h-205l-237 301h217l122 -135l123 135h217zM858 1059h365v-1059h-344l-10 122q-59 -68 -149 -105t-200 -37q-204 0 -307.5 95t-103.5 271v713h366v-635q0 -82 45.5 -119t118.5 -37q217 0 219 238v553z" glyph-name="uni01D4" horiz-adv-x="1354" unicode="ǔ"/><glyph d="M397 2058v209h676v-209h-676zM502 1536q-83 0 -142 58t-59 141q0 81 59 138.5t142 57.5q80 0 138 -57.5t58 -138.5q0 -83 -58 -141t-138 -58zM971 1536q-83 0 -142 58t-59 141q0 81 59 138.5t142 57.5q80 0 138 -57.5t58 -138.5q0 -83 -58 -141t-138 -58zM735 -20 q-130 0 -236.5 31t-190 95t-129.5 172.5t-46 253.5v938h381v-886q0 -271 221 -271t221 271v886h381v-938q0 -145 -46 -253.5t-129.5 -172.5t-190 -95t-236.5 -31z" glyph-name="uni01D5" horiz-adv-x="1470" unicode="Ǖ"/><glyph d="M1016 1896v-209h-676v209h676zM445 1161q-83 0 -142 58t-59 141q0 81 59 138.5t142 57.5q80 0 138 -57.5t58 -138.5q0 -83 -58 -141t-138 -58zM713 1360q0 81 59 138.5t142 57.5q80 0 138 -57.5t58 -138.5q0 -83 -58 -141t-138 -58q-83 0 -142 58t-59 141zM858 1059h365 v-1059h-344l-10 122q-59 -68 -149 -105t-200 -37q-204 0 -307.5 95t-103.5 271v713h366v-635q0 -82 45.5 -119t118.5 -37q217 0 219 238v553z" glyph-name="uni01D6" horiz-adv-x="1354" unicode="ǖ"/><glyph d="M630 2058l271 396l174 -123l-228 -273h-217zM502 1536q-83 0 -142 58t-59 141q0 81 59 138.5t142 57.5q80 0 138 -57.5t58 -138.5q0 -83 -58 -141t-138 -58zM971 1536q-83 0 -142 58t-59 141q0 81 59 138.5t142 57.5q80 0 138 -57.5t58 -138.5q0 -83 -58 -141t-138 -58z M735 -20q-130 0 -236.5 31t-190 95t-129.5 172.5t-46 253.5v938h381v-886q0 -271 221 -271t221 271v886h381v-938q0 -145 -46 -253.5t-129.5 -172.5t-190 -95t-236.5 -31z" glyph-name="uni01D7" horiz-adv-x="1470" unicode="Ǘ"/><glyph d="M1018 1931l-228 -272h-217l271 395zM445 1161q-83 0 -142 58t-59 141q0 81 59 138.5t142 57.5q80 0 138 -57.5t58 -138.5q0 -83 -58 -141t-138 -58zM713 1360q0 81 59 138.5t142 57.5q80 0 138 -57.5t58 -138.5q0 -83 -58 -141t-138 -58q-83 0 -142 58t-59 141zM858 1059 h365v-1059h-344l-10 122q-59 -68 -149 -105t-200 -37q-204 0 -307.5 95t-103.5 271v713h366v-635q0 -82 45.5 -119t118.5 -37q217 0 219 238v553z" glyph-name="uni01D8" horiz-adv-x="1354" unicode="ǘ"/><glyph d="M633 2058l-237 301h217l122 -135l123 135h217l-237 -301h-205zM502 1536q-83 0 -142 58t-59 141q0 81 59 138.5t142 57.5q80 0 138 -57.5t58 -138.5q0 -83 -58 -141t-138 -58zM971 1536q-83 0 -142 58t-59 141q0 81 59 138.5t142 57.5q80 0 138 -57.5t58 -138.5 q0 -83 -58 -141t-138 -58zM735 -20q-130 0 -236.5 31t-190 95t-129.5 172.5t-46 253.5v938h381v-886q0 -271 221 -271t221 271v886h381v-938q0 -145 -46 -253.5t-129.5 -172.5t-190 -95t-236.5 -31z" glyph-name="uni01D9" horiz-adv-x="1470" unicode="Ǚ"/><glyph d="M781 1712h-205l-237 301h217l122 -135l123 135h217zM445 1161q-83 0 -142 58t-59 141q0 81 59 138.5t142 57.5q80 0 138 -57.5t58 -138.5q0 -83 -58 -141t-138 -58zM713 1360q0 81 59 138.5t142 57.5q80 0 138 -57.5t58 -138.5q0 -83 -58 -141t-138 -58q-83 0 -142 58 t-59 141zM858 1059h365v-1059h-344l-10 122q-59 -68 -149 -105t-200 -37q-204 0 -307.5 95t-103.5 271v713h366v-635q0 -82 45.5 -119t118.5 -37q217 0 219 238v553z" glyph-name="uni01DA" horiz-adv-x="1354" unicode="ǚ"/><glyph d="M626 2058l-227 273l174 123l270 -396h-217zM502 1536q-83 0 -142 58t-59 141q0 81 59 138.5t142 57.5q80 0 138 -57.5t58 -138.5q0 -83 -58 -141t-138 -58zM971 1536q-83 0 -142 58t-59 141q0 81 59 138.5t142 57.5q80 0 138 -57.5t58 -138.5q0 -83 -58 -141t-138 -58z M735 -20q-130 0 -236.5 31t-190 95t-129.5 172.5t-46 253.5v938h381v-886q0 -271 221 -271t221 271v886h381v-938q0 -145 -46 -253.5t-129.5 -172.5t-190 -95t-236.5 -31z" glyph-name="uni01DB" horiz-adv-x="1470" unicode="Ǜ"/><glyph d="M786 1659h-217l-227 272l174 123zM445 1161q-83 0 -142 58t-59 141q0 81 59 138.5t142 57.5q80 0 138 -57.5t58 -138.5q0 -83 -58 -141t-138 -58zM713 1360q0 81 59 138.5t142 57.5q80 0 138 -57.5t58 -138.5q0 -83 -58 -141t-138 -58q-83 0 -142 58t-59 141zM858 1059 h365v-1059h-344l-10 122q-59 -68 -149 -105t-200 -37q-204 0 -307.5 95t-103.5 271v713h366v-635q0 -82 45.5 -119t118.5 -37q217 0 219 238v553z" glyph-name="uni01DC" horiz-adv-x="1354" unicode="ǜ"/><glyph d="M674 -20q-163 0 -295.5 50t-221 153t-108.5 247l395 90q8 -116 74.5 -175.5t171.5 -59.5q74 0 116 34t42 97q0 49 -44.5 88t-86.5 56.5t-146 52.5q-6 2 -9.5 3.5t-9 3t-9.5 3.5q-55 18 -90.5 31t-86.5 36t-83.5 44.5t-70 54.5t-58.5 69t-35.5 85.5t-14.5 105.5 q0 203 149 322.5t390 119.5q102 0 195 -21.5t178 -67t145 -127t82 -190.5l-366 -90q-30 191 -209 191q-82 0 -130.5 -32.5t-48.5 -94.5q0 -21 13 -40t32 -32.5t54 -28t63.5 -24.5t76.5 -25q29 -9 44 -14q43 -14 72.5 -24.5t72 -27.5t72 -33t66 -38.5t62 -46t51 -55t41 -65.5 t25 -77t9.5 -90q0 -117 -46.5 -207t-127 -143.5t-180.5 -80.5t-215 -27zM508 -584l-174 82l172 379h313z" glyph-name="Scommaaccent" horiz-adv-x="1315" unicode="Ș"/><glyph d="M526 -20q-194 0 -322.5 73t-158.5 221l301 84q26 -73 72 -102t110 -29q113 0 113 70q0 35 -33.5 59.5t-77 36t-117 31t-122.5 39.5q-48 19 -84 41t-69 56t-50.5 82.5t-17.5 109.5q0 161 120.5 244t319.5 83q112 0 199 -26t152 -90.5t87 -165.5l-276 -60q-27 59 -65.5 83 t-96.5 24q-51 0 -81 -15t-30 -43q0 -18 12.5 -31.5t40 -24t53 -17.5t71.5 -18t75 -19q70 -20 123 -43.5t106 -63.5t82 -102.5t29 -144.5q0 -92 -37.5 -160t-104 -106.5t-147 -57t-176.5 -18.5zM360 -582l-174 82l172 379h313z" glyph-name="scommaaccent" horiz-adv-x="1024" unicode="ș"/><glyph d="M1071 1470v-331h-332v-1139h-377v1139h-333v331h1042zM221 -502l172 379h313l-311 -461z" glyph-name="uni021A" horiz-adv-x="1100" unicode="Ț"/><glyph d="M559 0q-168 0 -258 92.5t-90 263.5v426h-203v277h60q93 0 140.5 48t47.5 177v109h326v-334h202v-277h-202v-385q0 -66 26.5 -95.5t81.5 -29.5h94v-272h-225zM462 -584l-174 82l172 379h313z" glyph-name="uni021B" horiz-adv-x="858" unicode="ț"/><glyph d="M-68 -498v279q65 0 104.5 15t60.5 51t27.5 81.5t6.5 120.5v1010h371v-1010q0 -275 -135 -411t-435 -136z" glyph-name="uni0237" horiz-adv-x="633" unicode="ȷ"/><glyph d="M238 1235h-218l238 301h205l237 -301h-217l-123 135z" glyph-name="circumflex" horiz-adv-x="721" unicode="ˆ"/><glyph d="M260 1235l-237 301h217l122 -135l123 135h217l-237 -301h-205z" glyph-name="caron" horiz-adv-x="725" unicode="ˇ"/><glyph d="M446 1163q-177 0 -278.5 93.5t-101.5 279.5h225q0 -97 38 -153t117 -56q81 0 119.5 56t38.5 153h225q0 -186 -102 -279.5t-281 -93.5z" glyph-name="breve" horiz-adv-x="895" unicode="˘"/><glyph d="M281 1161q-83 0 -142 58t-59 141q0 81 59 138.5t142 57.5q80 0 138 -57.5t58 -138.5q0 -83 -58 -141t-138 -58z" glyph-name="dotaccent" horiz-adv-x="559" unicode="˙"/><glyph d="M328 1122q-108 0 -184 76.5t-76 183.5q0 105 76 180.5t184 75.5q106 0 181 -75.5t75 -180.5q0 -107 -75 -183.5t-181 -76.5zM328 1268q48 0 80 31.5t32 82.5q0 46 -33 80.5t-79 34.5q-47 0 -79 -34.5t-32 -80.5q0 -51 31 -82.5t80 -31.5z" glyph-name="ring" horiz-adv-x="653" unicode="˚"/><glyph d="M250 -451q-87 0 -146 30.5t-59 88.5q0 71 77.5 169.5t196.5 199.5l99 -37q-70 -59 -122 -120t-52 -95q0 -31 49 -31q32 0 68 13t57 34v-219q-78 -33 -168 -33z" glyph-name="ogonek" horiz-adv-x="522" unicode="˛"/><glyph d="M532 1174q-118 0 -184 106q-19 31 -43 31q-57 0 -57 -125h-164q0 127 57.5 205.5t157.5 78.5q60 0 107 -29t77 -77q21 -31 45 -31q54 0 54 125h166q0 -125 -56.5 -204.5t-159.5 -79.5z" glyph-name="tilde" horiz-adv-x="831" unicode="˜"/><glyph d="M12 1182l271 395l174 -123l-228 -272h-217zM401 1182l271 395l174 -123l-228 -272h-217z" glyph-name="hungarumlaut" horiz-adv-x="879" unicode="˝"/><glyph d="M-229 1182l-227 272l174 123l270 -395h-217z" glyph-name="gravecomb" unicode="̀"/><glyph d="M-477 1182l271 395l174 -123l-228 -272h-217z" glyph-name="acutecomb" unicode="́"/><glyph d="M-483 1235h-218l238 301h205l237 -301h-217l-123 135z" glyph-name="uni0302" unicode="̂"/><glyph d="M-299 1174q-118 0 -184 106q-19 31 -43 31q-57 0 -57 -125h-164q0 127 57.5 205.5t157.5 78.5q60 0 107 -29t77 -77q21 -31 45 -31q54 0 54 125h166q0 -125 -56.5 -204.5t-159.5 -79.5z" glyph-name="tildecomb" unicode="̃"/><glyph d="M-803 1210v209h676v-209h-676z" glyph-name="uni0304" unicode="̄"/><glyph d="M-449 1163q-177 0 -278.5 93.5t-101.5 279.5h225q0 -97 38 -153t117 -56q81 0 119.5 56t38.5 153h225q0 -186 -102 -279.5t-281 -93.5z" glyph-name="uni0306" unicode="̆"/><glyph d="M-278 1161q-83 0 -142 58t-59 141q0 81 59 138.5t142 57.5q80 0 138 -57.5t58 -138.5q0 -83 -58 -141t-138 -58z" glyph-name="uni0307" unicode="̇"/><glyph d="M-747 1161q-83 0 -142 58t-59 141q0 81 59 138.5t142 57.5q80 0 138 -57.5t58 -138.5q0 -83 -58 -141t-138 -58zM-278 1161q-83 0 -142 58t-59 141q0 81 59 138.5t142 57.5q80 0 138 -57.5t58 -138.5q0 -83 -58 -141t-138 -58z" glyph-name="uni0308" unicode="̈"/><glyph d="M-354 1130v146q106 17 106 88q0 57 -57 57q-49 0 -86 -43l-78 115q73 63 189 63q99 0 151.5 -48t52.5 -132q0 -72 -34.5 -106t-90.5 -51v-89h-153z" glyph-name="hookabovecomb" unicode="̉"/><glyph d="M-325 1122q-108 0 -184 76.5t-76 183.5q0 105 76 180.5t184 75.5q106 0 181 -75.5t75 -180.5q0 -107 -75 -183.5t-181 -76.5zM-325 1268q48 0 80 31.5t32 82.5q0 46 -33 80.5t-79 34.5q-47 0 -79 -34.5t-32 -80.5q0 -51 31 -82.5t80 -31.5z" glyph-name="uni030A" unicode="̊"/><glyph d="M-867 1182l271 395l174 -123l-228 -272h-217zM-478 1182l271 395l174 -123l-228 -272h-217z" glyph-name="uni030B" unicode="̋"/><glyph d="M-465 1235l-237 301h217l122 -135l123 135h217l-237 -301h-205z" glyph-name="uni030C" unicode="̌"/><glyph d="M-326 1537h258l-127 -342h-372z" glyph-name="uni0312" unicode="̒"/><glyph d="M-305 731q-106 0 -213 68l53 119q52 -29 96 -29q58 0 78 25.5t20 107.5v143h162v-204q0 -230 -196 -230z" glyph-name="uni031B" unicode="̛"/><glyph d="M-278 -512q-83 0 -142 58t-59 141q0 81 59 138.5t142 57.5q80 0 138 -57.5t58 -138.5q0 -83 -58 -141t-138 -58z" glyph-name="dotbelowcomb" unicode="̣"/><glyph d="M-316 -584l-174 82l172 379h313z" glyph-name="uni0326" unicode="̦"/><glyph d="M-286 -532q-93 0 -157 46.5t-85 118.5l156 50q9 -28 30.5 -43t47.5 -15q30 0 53.5 20t23.5 54q0 36 -23 56t-54 20q-48 0 -70 -37l-125 69l129 226h166l-92 -146q24 4 39 4q83 0 137.5 -54t54.5 -138q0 -97 -67 -164t-164 -67z" glyph-name="uni0327" unicode="̧"/><glyph d="M-272 -451q-87 0 -146 30.5t-59 88.5q0 71 77.5 169.5t196.5 199.5l99 -37q-70 -59 -122 -120t-52 -95q0 -31 49 -31q32 0 68 13t57 34v-219q-78 -33 -168 -33z" glyph-name="uni0328" unicode="̨"/><glyph d="M-875 397v217h745v-217h-745z" glyph-name="uni0335" unicode="̵"/><glyph d="M-1677 465v135h1550v-135h-1550z" glyph-name="uni0336" unicode="̶"/><glyph d="M-720 229v217l698 517v-220z" glyph-name="uni0337" unicode="̷"/><glyph d="M-912 205l803 1153l135 -80l-802 -1153z" glyph-name="uni0338" unicode="̸"/><glyph d="M1016 1536l616 -1536h-1624l617 1536h391zM515 342h610l-304 803z" glyph-name="uni0394" horiz-adv-x="1640" unicode="Δ"/><glyph d="M92 0v313h201v4q-65 87 -116.5 231t-51.5 298q0 147 53 275t148 222.5t236.5 148.5t309.5 54q142 0 264 -38t208.5 -104t148 -155t91.5 -191t30 -212q0 -143 -49 -289t-127 -240v-4h207v-313h-703v236q118 73 187 212t69 338q0 216 -84.5 328.5t-239.5 112.5 q-150 0 -242.5 -113.5t-92.5 -327.5q0 -202 73.5 -348t186.5 -202v-236h-707z" glyph-name="uni03A9" horiz-adv-x="1739" unicode="Ω"/><glyph d="M764 963h366v-963h-366v88q-111 -106 -260 -106q-61 0 -115 18v-481h-264v1444h369v-539q0 -52 35 -87.5t87 -35.5q63 0 105.5 35.5t42.5 87.5v539z" glyph-name="uni03BC" horiz-adv-x="1255" unicode="μ"/><glyph d="M125 0q47 160 81.5 371.5t33.5 333.5q-131 0 -193 -11l-35 199q83 70 375 70h924l-27 -258h-135v-412q0 -180 25 -293h-330q-37 47 -37 279v426l-232 -3q-5 -158 -38 -371t-80 -331h-332z" glyph-name="pi" horiz-adv-x="1337" unicode="π"/><glyph d="M1021 1597l-227 273l174 123l270 -396h-217zM387 0l-360 1470h395l248 -1050l303 1050h317l301 -1050l250 1050h395l-360 -1470h-504l-242 766l-239 -766h-504z" glyph-name="Wgrave" horiz-adv-x="2263" unicode="Ẁ"/><glyph d="M1050 1182h-217l-227 272l174 123zM1487 1059h375l-373 -1061h-342l-218 628l-222 -628h-347l-366 1061h375l192 -612l225 612h281l224 -609z" glyph-name="wgrave" horiz-adv-x="1855" unicode="ẁ"/><glyph d="M1025 1597l271 396l174 -123l-228 -273h-217zM387 0l-360 1470h395l248 -1050l303 1050h317l301 -1050l250 1050h395l-360 -1470h-504l-242 766l-239 -766h-504z" glyph-name="Wacute" horiz-adv-x="2263" unicode="Ẃ"/><glyph d="M1282 1454l-228 -272h-217l271 395zM1487 1059h375l-373 -1061h-342l-218 628l-222 -628h-347l-366 1061h375l192 -612l225 612h281l224 -609z" glyph-name="wacute" horiz-adv-x="1855" unicode="ẃ"/><glyph d="M897 1536q-83 0 -142 58t-59 141q0 81 59 138.5t142 57.5q80 0 138 -57.5t58 -138.5q0 -83 -58 -141t-138 -58zM1366 1536q-83 0 -142 58t-59 141q0 81 59 138.5t142 57.5q80 0 138 -57.5t58 -138.5q0 -83 -58 -141t-138 -58zM387 0l-360 1470h395l248 -1050l303 1050 h317l301 -1050l250 1050h395l-360 -1470h-504l-242 766l-239 -766h-504z" glyph-name="Wdieresis" horiz-adv-x="2263" unicode="Ẅ"/><glyph d="M709 1161q-83 0 -142 58t-59 141q0 81 59 138.5t142 57.5q80 0 138 -57.5t58 -138.5q0 -83 -58 -141t-138 -58zM1178 1161q-83 0 -142 58t-59 141q0 81 59 138.5t142 57.5q80 0 138 -57.5t58 -138.5q0 -83 -58 -141t-138 -58zM1487 1059h375l-373 -1061h-342l-218 628 l-222 -628h-347l-366 1061h375l192 -612l225 612h281l224 -609z" glyph-name="wdieresis" horiz-adv-x="1855" unicode="ẅ"/><glyph d="M1561 0h-387l-95 272h-588l-94 -272h-387l541 1470h469zM600 586h370l-185 532zM788 -117q80 0 138 -57.5t58 -138.5q0 -83 -58 -141t-138 -58q-83 0 -142 58t-59 141q0 81 59 138.5t142 57.5z" glyph-name="uni1EA0" horiz-adv-x="1571" unicode="Ạ"/><glyph d="M1061 268q0 -151 24 -237v-31h-333l-22 109q-53 -65 -146 -97t-193 -32q-51 0 -97 8.5t-90.5 30t-76 54t-51 84t-19.5 117.5q0 65 20 117t52 87t84 63.5t103 46t122 35.5l170 43q60 15 83.5 33.5t23.5 48.5q0 34 -25 55t-55 27t-66 6q-77 0 -122.5 -33t-59.5 -111 l-321 53q38 174 165 254t361 80q50 0 93 -3.5t92.5 -14t89 -28t77 -47.5t62.5 -70t40 -98t15 -130v-420zM508 219q83 0 155 64.5t72 177.5l-239 -80q-45 -15 -69 -32.5t-24 -49.5q0 -37 30 -58.5t75 -21.5zM659 -117q80 0 138 -57.5t58 -138.5q0 -83 -58 -141t-138 -58 q-83 0 -142 58t-59 141q0 81 59 138.5t142 57.5z" glyph-name="uni1EA1" horiz-adv-x="1174" unicode="ạ"/><glyph d="M763 1827q-49 0 -86 -43l-78 114q74 64 189 64q99 0 151.5 -48.5t52.5 -131.5q0 -72 -34.5 -106.5t-90.5 -51.5v-88h-153v145q106 18 106 88q0 58 -57 58zM1174 0l-95 272h-588l-94 -272h-387l541 1470h469l541 -1470h-387zM600 586h370l-185 532z" glyph-name="uni1EA2" horiz-adv-x="1571" unicode="Ả"/><glyph d="M563 1421q-49 0 -86 -43l-78 115q73 63 189 63q99 0 151.5 -48t52.5 -132q0 -72 -34.5 -106t-90.5 -51v-89h-153v146q106 17 106 88q0 57 -57 57zM1061 268q0 -151 24 -237v-31h-333l-22 109q-53 -65 -146 -97t-193 -32q-51 0 -97 8.5t-90.5 30t-76 54t-51 84 t-19.5 117.5q0 65 20 117t52 87t84 63.5t103 46t122 35.5l170 43q60 15 83.5 33.5t23.5 48.5q0 34 -25 55t-55 27t-66 6q-77 0 -122.5 -33t-59.5 -111l-321 53q38 174 165 254t361 80q50 0 93 -3.5t92.5 -14t89 -28t77 -47.5t62.5 -70t40 -98t15 -130v-420zM508 219 q83 0 155 64.5t72 177.5l-239 -80q-45 -15 -69 -32.5t-24 -49.5q0 -37 30 -58.5t75 -21.5z" glyph-name="uni1EA3" horiz-adv-x="1174" unicode="ả"/><glyph d="M1126 2258l-228 -273h-217l271 396zM786 1733l-122 -136h-218l238 301h205l237 -301h-217zM1174 0l-95 272h-588l-94 -272h-387l541 1470h469l541 -1470h-387zM600 586h370l-185 532z" glyph-name="uni1EA4" horiz-adv-x="1571" unicode="Ấ"/><glyph d="M926 1931l-228 -272h-217l271 395zM586 1370l-122 -135h-218l238 301h205l237 -301h-217zM1061 268q0 -151 24 -237v-31h-333l-22 109q-53 -65 -146 -97t-193 -32q-51 0 -97 8.5t-90.5 30t-76 54t-51 84t-19.5 117.5q0 65 20 117t52 87t84 63.5t103 46t122 35.5l170 43 q60 15 83.5 33.5t23.5 48.5q0 34 -25 55t-55 27t-66 6q-77 0 -122.5 -33t-59.5 -111l-321 53q38 174 165 254t361 80q50 0 93 -3.5t92.5 -14t89 -28t77 -47.5t62.5 -70t40 -98t15 -130v-420zM508 219q83 0 155 64.5t72 177.5l-239 -80q-45 -15 -69 -32.5t-24 -49.5 q0 -37 30 -58.5t75 -21.5z" glyph-name="uni1EA5" horiz-adv-x="1174" unicode="ấ"/><glyph d="M894 1985h-217l-227 273l174 123zM786 1733l-122 -136h-218l238 301h205l237 -301h-217zM1174 0l-95 272h-588l-94 -272h-387l541 1470h469l541 -1470h-387zM600 586h370l-185 532z" glyph-name="uni1EA6" horiz-adv-x="1571" unicode="Ầ"/><glyph d="M694 1659h-217l-227 272l174 123zM586 1370l-122 -135h-218l238 301h205l237 -301h-217zM1061 268q0 -151 24 -237v-31h-333l-22 109q-53 -65 -146 -97t-193 -32q-51 0 -97 8.5t-90.5 30t-76 54t-51 84t-19.5 117.5q0 65 20 117t52 87t84 63.5t103 46t122 35.5l170 43 q60 15 83.5 33.5t23.5 48.5q0 34 -25 55t-55 27t-66 6q-77 0 -122.5 -33t-59.5 -111l-321 53q38 174 165 254t361 80q50 0 93 -3.5t92.5 -14t89 -28t77 -47.5t62.5 -70t40 -98t15 -130v-420zM508 219q83 0 155 64.5t72 177.5l-239 -80q-45 -15 -69 -32.5t-24 -49.5 q0 -37 30 -58.5t75 -21.5z" glyph-name="uni1EA7" horiz-adv-x="1174" unicode="ầ"/><glyph d="M763 2215q-49 0 -86 -43l-78 114q74 64 189 64q99 0 151.5 -48.5t52.5 -131.5q0 -72 -34.5 -106.5t-90.5 -51.5v-88h-153v145q106 18 106 88q0 58 -57 58zM786 1733l-122 -136h-218l238 301h205l237 -301h-217zM1174 0l-95 272h-588l-94 -272h-387l541 1470h469 l541 -1470h-387zM600 586h370l-185 532z" glyph-name="uni1EA8" horiz-adv-x="1571" unicode="Ẩ"/><glyph d="M563 1898q-49 0 -86 -43l-78 115q73 63 189 63q99 0 151.5 -48t52.5 -132q0 -71 -34.5 -105.5t-90.5 -51.5v-89h-153v146q106 17 106 88q0 57 -57 57zM586 1370l-122 -135h-218l238 301h205l237 -301h-217zM1061 268q0 -151 24 -237v-31h-333l-22 109q-53 -65 -146 -97 t-193 -32q-51 0 -97 8.5t-90.5 30t-76 54t-51 84t-19.5 117.5q0 65 20 117t52 87t84 63.5t103 46t122 35.5l170 43q60 15 83.5 33.5t23.5 48.5q0 34 -25 55t-55 27t-66 6q-77 0 -122.5 -33t-59.5 -111l-321 53q38 174 165 254t361 80q50 0 93 -3.5t92.5 -14t89 -28t77 -47.5 t62.5 -70t40 -98t15 -130v-420zM508 219q83 0 155 64.5t72 177.5l-239 -80q-45 -15 -69 -32.5t-24 -49.5q0 -37 30 -58.5t75 -21.5z" glyph-name="uni1EA9" horiz-adv-x="1174" unicode="ẩ"/><glyph d="M680 2143q-68 0 -68 -125h-188q0 126 66.5 204.5t181.5 78.5q106 0 170 -60q11 -11 31 -34t34 -33t33 -10q59 0 59 125h191q0 -124 -65 -203.5t-185 -79.5q-64 0 -101.5 18.5t-68.5 51.5q-4 5 -20 23.5t-22 24t-19.5 12.5t-28.5 7zM684 1898h205l237 -301h-217l-123 136 l-122 -136h-218zM1174 0l-95 272h-588l-94 -272h-387l541 1470h469l541 -1470h-387zM600 586h370l-185 532z" glyph-name="uni1EAA" horiz-adv-x="1571" unicode="Ẫ"/><glyph d="M496 1788q-57 0 -57 -125h-164q0 127 57.5 205.5t157.5 78.5q60 0 107 -29t77 -77q21 -31 45 -31q54 0 54 125h166q0 -125 -56.5 -204.5t-159.5 -79.5q-118 0 -184 106q-19 31 -43 31zM586 1370l-122 -135h-218l238 301h205l237 -301h-217zM1061 268q0 -151 24 -237v-31 h-333l-22 109q-53 -65 -146 -97t-193 -32q-51 0 -97 8.5t-90.5 30t-76 54t-51 84t-19.5 117.5q0 65 20 117t52 87t84 63.5t103 46t122 35.5l170 43q60 15 83.5 33.5t23.5 48.5q0 34 -25 55t-55 27t-66 6q-77 0 -122.5 -33t-59.5 -111l-321 53q38 174 165 254t361 80 q50 0 93 -3.5t92.5 -14t89 -28t77 -47.5t62.5 -70t40 -98t15 -130v-420zM508 219q83 0 155 64.5t72 177.5l-239 -80q-45 -15 -69 -32.5t-24 -49.5q0 -37 30 -58.5t75 -21.5z" glyph-name="uni1EAB" horiz-adv-x="1174" unicode="ẫ"/><glyph d="M786 1733l-122 -136h-218l238 301h205l237 -301h-217zM1561 0h-387l-95 272h-588l-94 -272h-387l541 1470h469zM600 586h370l-185 532zM788 -117q80 0 138 -57.5t58 -138.5q0 -83 -58 -141t-138 -58q-83 0 -142 58t-59 141q0 81 59 138.5t142 57.5z" glyph-name="uni1EAC" horiz-adv-x="1571" unicode="Ậ"/><glyph d="M586 1370l-122 -135h-218l238 301h205l237 -301h-217zM1061 268q0 -151 24 -237v-31h-333l-22 109q-53 -65 -146 -97t-193 -32q-51 0 -97 8.5t-90.5 30t-76 54t-51 84t-19.5 117.5q0 65 20 117t52 87t84 63.5t103 46t122 35.5l170 43q60 15 83.5 33.5t23.5 48.5 q0 34 -25 55t-55 27t-66 6q-77 0 -122.5 -33t-59.5 -111l-321 53q38 174 165 254t361 80q50 0 93 -3.5t92.5 -14t89 -28t77 -47.5t62.5 -70t40 -98t15 -130v-420zM508 219q83 0 155 64.5t72 177.5l-239 -80q-45 -15 -69 -32.5t-24 -49.5q0 -37 30 -58.5t75 -21.5zM659 -117 q80 0 138 -57.5t58 -138.5q0 -83 -58 -141t-138 -58q-83 0 -142 58t-59 141q0 81 59 138.5t142 57.5z" glyph-name="uni1EAD" horiz-adv-x="1174" unicode="ậ"/><glyph d="M1128 2251l-228 -273h-217l271 396zM786 1597q-183 0 -282 72t-99 240h204q0 -148 177 -148q178 0 178 148h205q0 -168 -99.5 -240t-283.5 -72zM1174 0l-95 272h-588l-94 -272h-387l541 1470h469l541 -1470h-387zM600 586h370l-185 532z" glyph-name="uni1EAE" horiz-adv-x="1571" unicode="Ắ"/><glyph d="M926 1931l-228 -272h-217l271 395zM586 1163q-177 0 -278.5 93.5t-101.5 279.5h225q0 -97 38 -153t117 -56q81 0 119.5 56t38.5 153h225q0 -186 -102 -279.5t-281 -93.5zM1061 268q0 -151 24 -237v-31h-333l-22 109q-53 -65 -146 -97t-193 -32q-51 0 -97 8.5t-90.5 30 t-76 54t-51 84t-19.5 117.5q0 65 20 117t52 87t84 63.5t103 46t122 35.5l170 43q60 15 83.5 33.5t23.5 48.5q0 34 -25 55t-55 27t-66 6q-77 0 -122.5 -33t-59.5 -111l-321 53q38 174 165 254t361 80q50 0 93 -3.5t92.5 -14t89 -28t77 -47.5t62.5 -70t40 -98t15 -130v-420z M508 219q83 0 155 64.5t72 177.5l-239 -80q-45 -15 -69 -32.5t-24 -49.5q0 -37 30 -58.5t75 -21.5z" glyph-name="uni1EAF" horiz-adv-x="1174" unicode="ắ"/><glyph d="M896 1978h-217l-227 273l174 123zM786 1597q-183 0 -282 72t-99 240h204q0 -148 177 -148q178 0 178 148h205q0 -168 -99.5 -240t-283.5 -72zM1174 0l-95 272h-588l-94 -272h-387l541 1470h469l541 -1470h-387zM600 586h370l-185 532z" glyph-name="uni1EB0" horiz-adv-x="1571" unicode="Ằ"/><glyph d="M694 1659h-217l-227 272l174 123zM586 1163q-177 0 -278.5 93.5t-101.5 279.5h225q0 -97 38 -153t117 -56q81 0 119.5 56t38.5 153h225q0 -186 -102 -279.5t-281 -93.5zM1061 268q0 -151 24 -237v-31h-333l-22 109q-53 -65 -146 -97t-193 -32q-51 0 -97 8.5t-90.5 30 t-76 54t-51 84t-19.5 117.5q0 65 20 117t52 87t84 63.5t103 46t122 35.5l170 43q60 15 83.5 33.5t23.5 48.5q0 34 -25 55t-55 27t-66 6q-77 0 -122.5 -33t-59.5 -111l-321 53q38 174 165 254t361 80q50 0 93 -3.5t92.5 -14t89 -28t77 -47.5t62.5 -70t40 -98t15 -130v-420z M508 219q83 0 155 64.5t72 177.5l-239 -80q-45 -15 -69 -32.5t-24 -49.5q0 -37 30 -58.5t75 -21.5z" glyph-name="uni1EB1" horiz-adv-x="1174" unicode="ằ"/><glyph d="M765 2208q-49 0 -86 -43l-78 114q74 64 189 64q99 0 151.5 -48.5t52.5 -131.5q0 -72 -34.5 -106.5t-90.5 -51.5v-88h-153v145q106 18 106 88q0 58 -57 58zM786 1597q-183 0 -282 72t-99 240h204q0 -148 177 -148q178 0 178 148h205q0 -168 -99.5 -240t-283.5 -72zM1174 0 l-95 272h-588l-94 -272h-387l541 1470h469l541 -1470h-387zM600 586h370l-185 532z" glyph-name="uni1EB2" horiz-adv-x="1571" unicode="Ẳ"/><glyph d="M563 1898q-49 0 -86 -43l-78 115q73 63 189 63q99 0 151.5 -48t52.5 -132q0 -71 -34.5 -105.5t-90.5 -51.5v-89h-153v146q106 17 106 88q0 57 -57 57zM586 1163q-177 0 -278.5 93.5t-101.5 279.5h225q0 -97 38 -153t117 -56q81 0 119.5 56t38.5 153h225 q0 -186 -102 -279.5t-281 -93.5zM1061 268q0 -151 24 -237v-31h-333l-22 109q-53 -65 -146 -97t-193 -32q-51 0 -97 8.5t-90.5 30t-76 54t-51 84t-19.5 117.5q0 65 20 117t52 87t84 63.5t103 46t122 35.5l170 43q60 15 83.5 33.5t23.5 48.5q0 34 -25 55t-55 27t-66 6 q-77 0 -122.5 -33t-59.5 -111l-321 53q38 174 165 254t361 80q50 0 93 -3.5t92.5 -14t89 -28t77 -47.5t62.5 -70t40 -98t15 -130v-420zM508 219q83 0 155 64.5t72 177.5l-239 -80q-45 -15 -69 -32.5t-24 -49.5q0 -37 30 -58.5t75 -21.5z" glyph-name="uni1EB3" horiz-adv-x="1174" unicode="ẳ"/><glyph d="M682 2136q-68 0 -68 -125h-188q0 126 66.5 204.5t181.5 78.5q106 0 170 -60q11 -11 31 -34t34 -33t33 -10q59 0 59 125h191q0 -124 -65 -203.5t-185 -79.5q-64 0 -101.5 18.5t-68.5 51.5q-4 5 -20 23.5t-22 24t-19.5 12.5t-28.5 7zM786 1597q-183 0 -282 72t-99 240h204 q0 -148 177 -148q178 0 178 148h205q0 -168 -99.5 -240t-283.5 -72zM1174 0l-95 272h-588l-94 -272h-387l541 1470h469l541 -1470h-387zM600 586h370l-185 532z" glyph-name="uni1EB4" horiz-adv-x="1571" unicode="Ẵ"/><glyph d="M496 1788q-57 0 -57 -125h-164q0 127 57.5 205.5t157.5 78.5q60 0 107 -29t77 -77q21 -31 45 -31q54 0 54 125h166q0 -125 -56.5 -204.5t-159.5 -79.5q-118 0 -184 106q-19 31 -43 31zM586 1163q-177 0 -278.5 93.5t-101.5 279.5h225q0 -97 38 -153t117 -56 q81 0 119.5 56t38.5 153h225q0 -186 -102 -279.5t-281 -93.5zM1061 268q0 -151 24 -237v-31h-333l-22 109q-53 -65 -146 -97t-193 -32q-51 0 -97 8.5t-90.5 30t-76 54t-51 84t-19.5 117.5q0 65 20 117t52 87t84 63.5t103 46t122 35.5l170 43q60 15 83.5 33.5t23.5 48.5 q0 34 -25 55t-55 27t-66 6q-77 0 -122.5 -33t-59.5 -111l-321 53q38 174 165 254t361 80q50 0 93 -3.5t92.5 -14t89 -28t77 -47.5t62.5 -70t40 -98t15 -130v-420zM508 219q83 0 155 64.5t72 177.5l-239 -80q-45 -15 -69 -32.5t-24 -49.5q0 -37 30 -58.5t75 -21.5z" glyph-name="uni1EB5" horiz-adv-x="1174" unicode="ẵ"/><glyph d="M786 1597q-183 0 -282 72t-99 240h204q0 -148 177 -148q178 0 178 148h205q0 -168 -99.5 -240t-283.5 -72zM1561 0h-387l-95 272h-588l-94 -272h-387l541 1470h469zM600 586h370l-185 532zM788 -117q80 0 138 -57.5t58 -138.5q0 -83 -58 -141t-138 -58q-83 0 -142 58 t-59 141q0 81 59 138.5t142 57.5z" glyph-name="uni1EB6" horiz-adv-x="1571" unicode="Ặ"/><glyph d="M586 1163q-177 0 -278.5 93.5t-101.5 279.5h225q0 -97 38 -153t117 -56q81 0 119.5 56t38.5 153h225q0 -186 -102 -279.5t-281 -93.5zM1061 268q0 -151 24 -237v-31h-333l-22 109q-53 -65 -146 -97t-193 -32q-51 0 -97 8.5t-90.5 30t-76 54t-51 84t-19.5 117.5 q0 65 20 117t52 87t84 63.5t103 46t122 35.5l170 43q60 15 83.5 33.5t23.5 48.5q0 34 -25 55t-55 27t-66 6q-77 0 -122.5 -33t-59.5 -111l-321 53q38 174 165 254t361 80q50 0 93 -3.5t92.5 -14t89 -28t77 -47.5t62.5 -70t40 -98t15 -130v-420zM508 219q83 0 155 64.5 t72 177.5l-239 -80q-45 -15 -69 -32.5t-24 -49.5q0 -37 30 -58.5t75 -21.5zM659 -117q80 0 138 -57.5t58 -138.5q0 -83 -58 -141t-138 -58q-83 0 -142 58t-59 141q0 81 59 138.5t142 57.5z" glyph-name="uni1EB7" horiz-adv-x="1174" unicode="ặ"/><glyph d="M1057 1139h-512v-240h456v-328h-456v-237h512v-334h-893v1470h893v-331zM623 -117q80 0 138 -57.5t58 -138.5q0 -83 -58 -141t-138 -58q-83 0 -142 58t-59 141q0 81 59 138.5t142 57.5z" glyph-name="uni1EB8" horiz-adv-x="1180" unicode="Ẹ"/><glyph d="M1169 541l-4 -84h-756q11 -95 73 -145t153 -50q143 0 186 113l336 -43q-48 -168 -187 -260t-333 -92q-276 0 -433 144.5t-157 403.5t158 406t420 147q119 0 215.5 -31.5t171 -95t115.5 -169t42 -244.5zM627 829q-170 0 -208 -141h392q-15 68 -64 104.5t-120 36.5z M653 -119q80 0 138 -57.5t58 -138.5q0 -83 -58 -141t-138 -58q-83 0 -142 58t-59 141q0 81 59 138.5t142 57.5z" glyph-name="uni1EB9" horiz-adv-x="1223" unicode="ẹ"/><glyph d="M598 1827q-49 0 -86 -43l-78 114q74 64 189 64q99 0 151.5 -48.5t52.5 -131.5q0 -72 -34.5 -106.5t-90.5 -51.5v-88h-153v145q106 18 106 88q0 58 -57 58zM1057 1139h-512v-240h456v-328h-456v-237h512v-334h-893v1470h893v-331z" glyph-name="uni1EBA" horiz-adv-x="1180" unicode="Ẻ"/><glyph d="M612 1423q-49 0 -86 -43l-78 115q73 63 189 63q99 0 151.5 -48t52.5 -132q0 -72 -34.5 -106t-90.5 -51v-89h-153v146q106 17 106 88q0 57 -57 57zM1169 541l-4 -84h-756q11 -95 73 -145t153 -50q143 0 186 113l336 -43q-48 -168 -187 -260t-333 -92q-276 0 -433 144.5 t-157 403.5t158 406t420 147q119 0 215.5 -31.5t171 -95t115.5 -169t42 -244.5zM627 829q-170 0 -208 -141h392q-15 68 -64 104.5t-120 36.5z" glyph-name="uni1EBB" horiz-adv-x="1223" unicode="ẻ"/><glyph d="M515 1755q-68 0 -68 -125h-188q0 126 66.5 204.5t181.5 78.5q106 0 170 -60q11 -11 31 -34t34 -33t33 -10q59 0 59 125h191q0 -124 -65 -203.5t-185 -79.5q-63 0 -101 18.5t-69 51.5q-4 5 -20 23.5t-22 24t-19.5 12.5t-28.5 7zM1057 1139h-512v-240h456v-328h-456v-237 h512v-334h-893v1470h893v-331z" glyph-name="uni1EBC" horiz-adv-x="1180" unicode="Ẽ"/><glyph d="M545 1313q-57 0 -57 -125h-164q0 127 57.5 205.5t157.5 78.5q60 0 107 -29t77 -77q21 -31 45 -31q54 0 54 125h166q0 -125 -56.5 -204.5t-159.5 -79.5q-118 0 -184 106q-19 31 -43 31zM1169 541l-4 -84h-756q11 -95 73 -145t153 -50q143 0 186 113l336 -43 q-48 -168 -187 -260t-333 -92q-276 0 -433 144.5t-157 403.5t158 406t420 147q119 0 215.5 -31.5t171 -95t115.5 -169t42 -244.5zM627 829q-170 0 -208 -141h392q-15 68 -64 104.5t-120 36.5z" glyph-name="uni1EBD" horiz-adv-x="1223" unicode="ẽ"/><glyph d="M961 2258l-228 -273h-217l271 396zM621 1733l-122 -136h-218l238 301h205l237 -301h-217zM1057 1139h-512v-240h456v-328h-456v-237h512v-334h-893v1470h893v-331z" glyph-name="uni1EBE" horiz-adv-x="1180" unicode="Ế"/><glyph d="M975 1933l-228 -272h-217l271 395zM635 1372l-122 -135h-218l238 301h205l237 -301h-217zM1169 541l-4 -84h-756q11 -95 73 -145t153 -50q143 0 186 113l336 -43q-48 -168 -187 -260t-333 -92q-276 0 -433 144.5t-157 403.5t158 406t420 147q119 0 215.5 -31.5t171 -95 t115.5 -169t42 -244.5zM627 829q-170 0 -208 -141h392q-15 68 -64 104.5t-120 36.5z" glyph-name="uni1EBF" horiz-adv-x="1223" unicode="ế"/><glyph d="M729 1985h-217l-227 273l174 123zM621 1733l-122 -136h-218l238 301h205l237 -301h-217zM1057 1139h-512v-240h456v-328h-456v-237h512v-334h-893v1470h893v-331z" glyph-name="uni1EC0" horiz-adv-x="1180" unicode="Ề"/><glyph d="M743 1661h-217l-227 272l174 123zM635 1372l-122 -135h-218l238 301h205l237 -301h-217zM1169 541l-4 -84h-756q11 -95 73 -145t153 -50q143 0 186 113l336 -43q-48 -168 -187 -260t-333 -92q-276 0 -433 144.5t-157 403.5t158 406t420 147q119 0 215.5 -31.5t171 -95 t115.5 -169t42 -244.5zM627 829q-170 0 -208 -141h392q-15 68 -64 104.5t-120 36.5z" glyph-name="uni1EC1" horiz-adv-x="1223" unicode="ề"/><glyph d="M598 2215q-49 0 -86 -43l-78 114q74 64 189 64q99 0 151.5 -48.5t52.5 -131.5q0 -72 -34.5 -106.5t-90.5 -51.5v-88h-153v145q106 18 106 88q0 58 -57 58zM621 1733l-122 -136h-218l238 301h205l237 -301h-217zM1057 1139h-512v-240h456v-328h-456v-237h512v-334h-893 v1470h893v-331z" glyph-name="uni1EC2" horiz-adv-x="1180" unicode="Ể"/><glyph d="M612 1900q-49 0 -86 -43l-78 115q73 63 189 63q99 0 151.5 -48t52.5 -132q0 -71 -34.5 -105.5t-90.5 -51.5v-89h-153v146q106 17 106 88q0 57 -57 57zM635 1372l-122 -135h-218l238 301h205l237 -301h-217zM1169 541l-4 -84h-756q11 -95 73 -145t153 -50q143 0 186 113 l336 -43q-48 -168 -187 -260t-333 -92q-276 0 -433 144.5t-157 403.5t158 406t420 147q119 0 215.5 -31.5t171 -95t115.5 -169t42 -244.5zM627 829q-170 0 -208 -141h392q-15 68 -64 104.5t-120 36.5z" glyph-name="uni1EC3" horiz-adv-x="1223" unicode="ể"/><glyph d="M515 2143q-68 0 -68 -125h-188q0 126 66.5 204.5t181.5 78.5q106 0 170 -60q11 -11 31 -34t34 -33t33 -10q59 0 59 125h191q0 -124 -65 -203.5t-185 -79.5q-63 0 -101 18.5t-69 51.5q-4 5 -20 23.5t-22 24t-19.5 12.5t-28.5 7zM519 1898h205l237 -301h-217l-123 136 l-122 -136h-218zM1057 1139h-512v-240h456v-328h-456v-237h512v-334h-893v1470h893v-331z" glyph-name="uni1EC4" horiz-adv-x="1180" unicode="Ễ"/><glyph d="M545 1790q-57 0 -57 -125h-164q0 127 57.5 205.5t157.5 78.5q60 0 107 -29t77 -77q21 -31 45 -31q54 0 54 125h166q0 -125 -56.5 -204.5t-159.5 -79.5q-118 0 -184 106q-19 31 -43 31zM635 1372l-122 -135h-218l238 301h205l237 -301h-217zM1169 541l-4 -84h-756 q11 -95 73 -145t153 -50q143 0 186 113l336 -43q-48 -168 -187 -260t-333 -92q-276 0 -433 144.5t-157 403.5t158 406t420 147q119 0 215.5 -31.5t171 -95t115.5 -169t42 -244.5zM627 829q-170 0 -208 -141h392q-15 68 -64 104.5t-120 36.5z" glyph-name="uni1EC5" horiz-adv-x="1223" unicode="ễ"/><glyph d="M621 1733l-122 -136h-218l238 301h205l237 -301h-217zM1057 1139h-512v-240h456v-328h-456v-237h512v-334h-893v1470h893v-331zM623 -117q80 0 138 -57.5t58 -138.5q0 -83 -58 -141t-138 -58q-83 0 -142 58t-59 141q0 81 59 138.5t142 57.5z" glyph-name="uni1EC6" horiz-adv-x="1180" unicode="Ệ"/><glyph d="M635 1372l-122 -135h-218l238 301h205l237 -301h-217zM1169 541l-4 -84h-756q11 -95 73 -145t153 -50q143 0 186 113l336 -43q-48 -168 -187 -260t-333 -92q-276 0 -433 144.5t-157 403.5t158 406t420 147q119 0 215.5 -31.5t171 -95t115.5 -169t42 -244.5zM627 829 q-170 0 -208 -141h392q-15 68 -64 104.5t-120 36.5zM653 -119q80 0 138 -57.5t58 -138.5q0 -83 -58 -141t-138 -58q-83 0 -142 58t-59 141q0 81 59 138.5t142 57.5z" glyph-name="uni1EC7" horiz-adv-x="1223" unicode="ệ"/><glyph d="M280 1536v145q106 18 106 88q0 58 -57 58q-49 0 -86 -43l-78 114q74 64 189 64q99 0 151.5 -48.5t52.5 -131.5q0 -72 -34.5 -106.5t-90.5 -51.5v-88h-153zM164 0v1470h381v-1470h-381z" glyph-name="uni1EC8" horiz-adv-x="709" unicode="Ỉ"/><glyph d="M243 1130v146q106 17 106 88q0 57 -57 57q-49 0 -86 -43l-78 115q73 63 189 63q99 0 151.5 -48t52.5 -132q0 -72 -34.5 -106t-90.5 -51v-89h-153zM131 0v1059h367v-1059h-367z" glyph-name="uni1EC9" horiz-adv-x="629" unicode="ỉ"/><glyph d="M164 0v1470h381v-1470h-381zM354 -512q-83 0 -142 58t-59 141q0 81 59 138.5t142 57.5q80 0 138 -57.5t58 -138.5q0 -83 -58 -141t-138 -58z" glyph-name="uni1ECA" horiz-adv-x="709" unicode="Ị"/><glyph d="M317 1161q-83 0 -142 58t-59 141q0 81 59 138.5t142 57.5q80 0 138 -57.5t58 -138.5q0 -83 -58 -141t-138 -58zM131 0v1059h367v-1059h-367zM317 -512q-83 0 -142 58t-59 141q0 81 59 138.5t142 57.5q80 0 138 -57.5t58 -138.5q0 -83 -58 -141t-138 -58z" glyph-name="uni1ECB" horiz-adv-x="629" unicode="ị"/><glyph d="M829 -20q-221 0 -394 93.5t-271 266t-98 395.5q0 225 98 397.5t271 265.5t394 93t394.5 -93t271.5 -265.5t98 -397.5q0 -223 -98 -395.5t-271.5 -266t-394.5 -93.5zM829 326q170 0 279 111.5t109 297.5t-109.5 298t-278.5 112t-277 -112t-108 -298t108 -297.5t277 -111.5 zM831 -512q-83 0 -142 58t-59 141q0 81 59 138.5t142 57.5q80 0 138 -57.5t58 -138.5q0 -83 -58 -141t-138 -58z" glyph-name="uni1ECC" horiz-adv-x="1659" unicode="Ọ"/><glyph d="M653 -20q-274 0 -441 146t-167 404q0 171 77 296t213.5 189t317.5 64q277 0 444 -145.5t167 -403.5t-167.5 -404t-443.5 -146zM649 264q116 0 184 73.5t68 192.5q0 120 -68 193.5t-184 73.5q-109 0 -175 -74t-66 -193t66 -192.5t175 -73.5zM655 -512q-83 0 -142 58 t-59 141q0 81 59 138.5t142 57.5q80 0 138 -57.5t58 -138.5q0 -83 -58 -141t-138 -58z" glyph-name="uni1ECD" horiz-adv-x="1309" unicode="ọ"/><glyph d="M757 1536v145q106 18 106 88q0 58 -57 58q-49 0 -86 -43l-78 114q74 64 189 64q99 0 151.5 -48.5t52.5 -131.5q0 -72 -34.5 -106.5t-90.5 -51.5v-88h-153zM829 -20q-221 0 -394 93.5t-271 266t-98 395.5q0 225 98 397.5t271 265.5t394 93t394.5 -93t271.5 -265.5 t98 -397.5q0 -223 -98 -395.5t-271.5 -266t-394.5 -93.5zM829 326q170 0 279 111.5t109 297.5t-109.5 298t-278.5 112t-277 -112t-108 -298t108 -297.5t277 -111.5z" glyph-name="uni1ECE" horiz-adv-x="1659" unicode="Ỏ"/><glyph d="M581 1128v146q106 17 106 88q0 57 -57 57q-49 0 -86 -43l-78 115q73 63 189 63q99 0 151.5 -48t52.5 -132q0 -72 -34.5 -106t-90.5 -51v-89h-153zM653 -20q-274 0 -441 146t-167 404q0 171 77 296t213.5 189t317.5 64q277 0 444 -145.5t167 -403.5t-167.5 -404 t-443.5 -146zM649 264q116 0 184 73.5t68 192.5q0 120 -68 193.5t-184 73.5q-109 0 -175 -74t-66 -193t66 -192.5t175 -73.5z" glyph-name="uni1ECF" horiz-adv-x="1309" unicode="ỏ"/><glyph d="M724 1985l271 396l174 -123l-228 -273h-217zM707 1597h-218l238 301h205l237 -301h-217l-123 136zM829 -20q-221 0 -394 93.5t-271 266t-98 395.5q0 225 98 397.5t271 265.5t394 93t394.5 -93t271.5 -265.5t98 -397.5q0 -223 -98 -395.5t-271.5 -266t-394.5 -93.5z M829 326q170 0 279 111.5t109 297.5t-109.5 298t-278.5 112t-277 -112t-108 -298t108 -297.5t277 -111.5z" glyph-name="uni1ED0" horiz-adv-x="1659" unicode="Ố"/><glyph d="M548 1657l271 395l174 -123l-228 -272h-217zM531 1233h-218l238 301h205l237 -301h-217l-123 135zM653 -20q-274 0 -441 146t-167 404q0 171 77 296t213.5 189t317.5 64q277 0 444 -145.5t167 -403.5t-167.5 -404t-443.5 -146zM649 264q116 0 184 73.5t68 192.5 q0 120 -68 193.5t-184 73.5q-109 0 -175 -74t-66 -193t66 -192.5t175 -73.5z" glyph-name="uni1ED1" horiz-adv-x="1309" unicode="ố"/><glyph d="M720 1985l-227 273l174 123l270 -396h-217zM707 1597h-218l238 301h205l237 -301h-217l-123 136zM829 -20q-221 0 -394 93.5t-271 266t-98 395.5q0 225 98 397.5t271 265.5t394 93t394.5 -93t271.5 -265.5t98 -397.5q0 -223 -98 -395.5t-271.5 -266t-394.5 -93.5z M829 326q170 0 279 111.5t109 297.5t-109.5 298t-278.5 112t-277 -112t-108 -298t108 -297.5t277 -111.5z" glyph-name="uni1ED2" horiz-adv-x="1659" unicode="Ồ"/><glyph d="M544 1657l-227 272l174 123l270 -395h-217zM531 1233h-218l238 301h205l237 -301h-217l-123 135zM653 -20q-274 0 -441 146t-167 404q0 171 77 296t213.5 189t317.5 64q277 0 444 -145.5t167 -403.5t-167.5 -404t-443.5 -146zM649 264q116 0 184 73.5t68 192.5 q0 120 -68 193.5t-184 73.5q-109 0 -175 -74t-66 -193t66 -192.5t175 -73.5z" glyph-name="uni1ED3" horiz-adv-x="1309" unicode="ồ"/><glyph d="M757 1924v145q106 18 106 88q0 58 -57 58q-49 0 -86 -43l-78 114q74 64 189 64q99 0 151.5 -48.5t52.5 -131.5q0 -72 -34.5 -106.5t-90.5 -51.5v-88h-153zM707 1597h-218l238 301h205l237 -301h-217l-123 136zM829 -20q-221 0 -394 93.5t-271 266t-98 395.5 q0 225 98 397.5t271 265.5t394 93t394.5 -93t271.5 -265.5t98 -397.5q0 -223 -98 -395.5t-271.5 -266t-394.5 -93.5zM829 326q170 0 279 111.5t109 297.5t-109.5 298t-278.5 112t-277 -112t-108 -298t108 -297.5t277 -111.5z" glyph-name="uni1ED4" horiz-adv-x="1659" unicode="Ổ"/><glyph d="M581 1605v146q106 17 106 88q0 57 -57 57q-49 0 -86 -43l-78 115q73 63 189 63q99 0 151.5 -48t52.5 -132q0 -71 -34.5 -105.5t-90.5 -51.5v-89h-153zM531 1233h-218l238 301h205l237 -301h-217l-123 135zM653 -20q-274 0 -441 146t-167 404q0 171 77 296t213.5 189 t317.5 64q277 0 444 -145.5t167 -403.5t-167.5 -404t-443.5 -146zM649 264q116 0 184 73.5t68 192.5q0 120 -68 193.5t-184 73.5q-109 0 -175 -74t-66 -193t66 -192.5t175 -73.5z" glyph-name="uni1ED5" horiz-adv-x="1309" unicode="ổ"/><glyph d="M983 2006q-63 0 -101 18.5t-69 51.5q-4 5 -20 23.5t-22 24t-19.5 12.5t-28.5 7q-68 0 -68 -125h-188q0 126 66.5 204.5t181.5 78.5q106 0 170 -60q11 -11 31 -34t34 -33t33 -10q59 0 59 125h191q0 -124 -65 -203.5t-185 -79.5zM707 1597h-218l238 301h205l237 -301h-217 l-123 136zM829 -20q-221 0 -394 93.5t-271 266t-98 395.5q0 225 98 397.5t271 265.5t394 93t394.5 -93t271.5 -265.5t98 -397.5q0 -223 -98 -395.5t-271.5 -266t-394.5 -93.5zM829 326q170 0 279 111.5t109 297.5t-109.5 298t-278.5 112t-277 -112t-108 -298t108 -297.5 t277 -111.5z" glyph-name="uni1ED6" horiz-adv-x="1659" unicode="Ỗ"/><glyph d="M790 1649q-118 0 -184 106q-19 31 -43 31q-57 0 -57 -125h-164q0 127 57.5 205.5t157.5 78.5q60 0 107 -29t77 -77q21 -31 45 -31q54 0 54 125h166q0 -125 -56.5 -204.5t-159.5 -79.5zM531 1233h-218l238 301h205l237 -301h-217l-123 135zM653 -20q-274 0 -441 146 t-167 404q0 171 77 296t213.5 189t317.5 64q277 0 444 -145.5t167 -403.5t-167.5 -404t-443.5 -146zM649 264q116 0 184 73.5t68 192.5q0 120 -68 193.5t-184 73.5q-109 0 -175 -74t-66 -193t66 -192.5t175 -73.5z" glyph-name="uni1ED7" horiz-adv-x="1309" unicode="ỗ"/><glyph d="M707 1597h-218l238 301h205l237 -301h-217l-123 136zM829 -20q-221 0 -394 93.5t-271 266t-98 395.5q0 225 98 397.5t271 265.5t394 93t394.5 -93t271.5 -265.5t98 -397.5q0 -223 -98 -395.5t-271.5 -266t-394.5 -93.5zM829 326q170 0 279 111.5t109 297.5t-109.5 298 t-278.5 112t-277 -112t-108 -298t108 -297.5t277 -111.5zM831 -512q-83 0 -142 58t-59 141q0 81 59 138.5t142 57.5q80 0 138 -57.5t58 -138.5q0 -83 -58 -141t-138 -58z" glyph-name="uni1ED8" horiz-adv-x="1659" unicode="Ộ"/><glyph d="M531 1233h-218l238 301h205l237 -301h-217l-123 135zM653 -20q-274 0 -441 146t-167 404q0 171 77 296t213.5 189t317.5 64q277 0 444 -145.5t167 -403.5t-167.5 -404t-443.5 -146zM649 264q116 0 184 73.5t68 192.5q0 120 -68 193.5t-184 73.5q-109 0 -175 -74t-66 -193 t66 -192.5t175 -73.5zM655 -512q-83 0 -142 58t-59 141q0 81 59 138.5t142 57.5q80 0 138 -57.5t58 -138.5q0 -83 -58 -141t-138 -58z" glyph-name="uni1ED9" horiz-adv-x="1309" unicode="ộ"/><glyph d="M1169 1870l-228 -273h-217l271 396zM1505 1582h162v-204q0 -220 -182 -230q108 -178 108 -413q0 -223 -98 -395.5t-271.5 -266t-394.5 -93.5t-394 93.5t-271 266t-98 395.5q0 225 98 397.5t271 265.5t394 93q301 0 505 -168q41 -17 73 -17q58 0 78 25.5t20 107.5v143z M829 326q170 0 279 111.5t109 297.5t-109.5 298t-278.5 112t-277 -112t-108 -298t108 -297.5t277 -111.5z" glyph-name="uni1EDA" horiz-adv-x="1659" unicode="Ớ"/><glyph d="M993 1452l-228 -272h-217l271 395zM1180 1240h162v-204q0 -197 -146 -225q68 -122 68 -281q0 -258 -167.5 -404t-443.5 -146q-274 0 -441 146t-167 404q0 171 77 296t213.5 189t317.5 64q242 0 402 -112q15 -3 27 -3q58 0 78 25.5t20 107.5v143zM649 264q116 0 184 73.5 t68 192.5q0 120 -68 193.5t-184 73.5q-109 0 -175 -74t-66 -193t66 -192.5t175 -73.5z" glyph-name="uni1EDB" horiz-adv-x="1309" unicode="ớ"/><glyph d="M937 1597h-217l-227 273l174 123zM1505 1582h162v-204q0 -220 -182 -230q108 -178 108 -413q0 -223 -98 -395.5t-271.5 -266t-394.5 -93.5t-394 93.5t-271 266t-98 395.5q0 225 98 397.5t271 265.5t394 93q301 0 505 -168q41 -17 73 -17q58 0 78 25.5t20 107.5v143z M829 326q170 0 279 111.5t109 297.5t-109.5 298t-278.5 112t-277 -112t-108 -298t108 -297.5t277 -111.5z" glyph-name="uni1EDC" horiz-adv-x="1659" unicode="Ờ"/><glyph d="M761 1180h-217l-227 272l174 123zM1180 1240h162v-204q0 -197 -146 -225q68 -122 68 -281q0 -258 -167.5 -404t-443.5 -146q-274 0 -441 146t-167 404q0 171 77 296t213.5 189t317.5 64q242 0 402 -112q15 -3 27 -3q58 0 78 25.5t20 107.5v143zM649 264q116 0 184 73.5 t68 192.5q0 120 -68 193.5t-184 73.5q-109 0 -175 -74t-66 -193t66 -192.5t175 -73.5z" glyph-name="uni1EDD" horiz-adv-x="1309" unicode="ờ"/><glyph d="M806 1827q-49 0 -86 -43l-78 114q74 64 189 64q99 0 151.5 -48.5t52.5 -131.5q0 -72 -34.5 -106.5t-90.5 -51.5v-88h-153v145q106 18 106 88q0 58 -57 58zM1505 1582h162v-204q0 -220 -182 -230q108 -178 108 -413q0 -223 -98 -395.5t-271.5 -266t-394.5 -93.5t-394 93.5 t-271 266t-98 395.5q0 225 98 397.5t271 265.5t394 93q301 0 505 -168q41 -17 73 -17q58 0 78 25.5t20 107.5v143zM829 326q170 0 279 111.5t109 297.5t-109.5 298t-278.5 112t-277 -112t-108 -298t108 -297.5t277 -111.5z" glyph-name="uni1EDE" horiz-adv-x="1659" unicode="Ở"/><glyph d="M630 1419q-49 0 -86 -43l-78 115q73 63 189 63q99 0 151.5 -48t52.5 -132q0 -72 -34.5 -106t-90.5 -51v-89h-153v146q106 17 106 88q0 57 -57 57zM1180 1240h162v-204q0 -197 -146 -225q68 -122 68 -281q0 -258 -167.5 -404t-443.5 -146q-274 0 -441 146t-167 404 q0 171 77 296t213.5 189t317.5 64q242 0 402 -112q15 -3 27 -3q58 0 78 25.5t20 107.5v143zM649 264q116 0 184 73.5t68 192.5q0 120 -68 193.5t-184 73.5q-109 0 -175 -74t-66 -193t66 -192.5t175 -73.5z" glyph-name="uni1EDF" horiz-adv-x="1309" unicode="ở"/><glyph d="M723 1755q-68 0 -68 -125h-188q0 126 66.5 204.5t181.5 78.5q106 0 170 -60q11 -11 31 -34t34 -33t33 -10q59 0 59 125h191q0 -124 -65 -203.5t-185 -79.5q-63 0 -101 18.5t-69 51.5q-4 5 -20 23.5t-22 24t-19.5 12.5t-28.5 7zM1505 1582h162v-204q0 -220 -182 -230 q108 -178 108 -413q0 -223 -98 -395.5t-271.5 -266t-394.5 -93.5t-394 93.5t-271 266t-98 395.5q0 225 98 397.5t271 265.5t394 93q301 0 505 -168q41 -17 73 -17q58 0 78 25.5t20 107.5v143zM829 326q170 0 279 111.5t109 297.5t-109.5 298t-278.5 112t-277 -112t-108 -298 t108 -297.5t277 -111.5z" glyph-name="uni1EE0" horiz-adv-x="1659" unicode="Ỡ"/><glyph d="M563 1309q-57 0 -57 -125h-164q0 127 57.5 205.5t157.5 78.5q60 0 107 -29t77 -77q21 -31 45 -31q54 0 54 125h166q0 -125 -56.5 -204.5t-159.5 -79.5q-118 0 -184 106q-19 31 -43 31zM1180 1240h162v-204q0 -197 -146 -225q68 -122 68 -281q0 -258 -167.5 -404 t-443.5 -146q-274 0 -441 146t-167 404q0 171 77 296t213.5 189t317.5 64q242 0 402 -112q15 -3 27 -3q58 0 78 25.5t20 107.5v143zM649 264q116 0 184 73.5t68 192.5q0 120 -68 193.5t-184 73.5q-109 0 -175 -74t-66 -193t66 -192.5t175 -73.5z" glyph-name="uni1EE1" horiz-adv-x="1309" unicode="ỡ"/><glyph d="M1505 1582h162v-204q0 -220 -182 -230q108 -178 108 -413q0 -223 -98 -395.5t-271.5 -266t-394.5 -93.5t-394 93.5t-271 266t-98 395.5q0 225 98 397.5t271 265.5t394 93q301 0 505 -168q41 -17 73 -17q58 0 78 25.5t20 107.5v143zM829 326q170 0 279 111.5t109 297.5 t-109.5 298t-278.5 112t-277 -112t-108 -298t108 -297.5t277 -111.5zM831 -117q80 0 138 -57.5t58 -138.5q0 -83 -58 -141t-138 -58q-83 0 -142 58t-59 141q0 81 59 138.5t142 57.5z" glyph-name="uni1EE2" horiz-adv-x="1659" unicode="Ợ"/><glyph d="M1180 1240h162v-204q0 -197 -146 -225q68 -122 68 -281q0 -258 -167.5 -404t-443.5 -146q-274 0 -441 146t-167 404q0 171 77 296t213.5 189t317.5 64q242 0 402 -112q15 -3 27 -3q58 0 78 25.5t20 107.5v143zM649 264q116 0 184 73.5t68 192.5q0 120 -68 193.5 t-184 73.5q-109 0 -175 -74t-66 -193t66 -192.5t175 -73.5zM655 -117q80 0 138 -57.5t58 -138.5q0 -83 -58 -141t-138 -58q-83 0 -142 58t-59 141q0 81 59 138.5t142 57.5z" glyph-name="uni1EE3" horiz-adv-x="1309" unicode="ợ"/><glyph d="M735 -20q-130 0 -236.5 31t-190 95t-129.5 172.5t-46 253.5v938h381v-886q0 -271 221 -271t221 271v886h381v-938q0 -145 -46 -253.5t-129.5 -172.5t-190 -95t-236.5 -31zM737 -512q-83 0 -142 58t-59 141q0 81 59 138.5t142 57.5q80 0 138 -57.5t58 -138.5 q0 -83 -58 -141t-138 -58z" glyph-name="uni1EE4" horiz-adv-x="1470" unicode="Ụ"/><glyph d="M858 1059h365v-1059h-344l-10 122q-59 -68 -149 -105t-200 -37q-204 0 -307.5 95t-103.5 271v713h366v-635q0 -82 45.5 -119t118.5 -37q217 0 219 238v553zM680 -117q80 0 138 -57.5t58 -138.5q0 -83 -58 -141t-138 -58q-83 0 -142 58t-59 141q0 81 59 138.5t142 57.5z" glyph-name="uni1EE5" horiz-adv-x="1354" unicode="ụ"/><glyph d="M663 1536v145q106 18 106 88q0 58 -57 58q-49 0 -86 -43l-78 114q74 64 189 64q99 0 151.5 -48.5t52.5 -131.5q0 -72 -34.5 -106.5t-90.5 -51.5v-88h-153zM735 -20q-130 0 -236.5 31t-190 95t-129.5 172.5t-46 253.5v938h381v-886q0 -271 221 -271t221 271v886h381v-938 q0 -145 -46 -253.5t-129.5 -172.5t-190 -95t-236.5 -31z" glyph-name="uni1EE6" horiz-adv-x="1470" unicode="Ủ"/><glyph d="M655 1421q-49 0 -86 -43l-78 115q73 63 189 63q99 0 151.5 -48t52.5 -132q0 -72 -34.5 -106t-90.5 -51v-89h-153v146q106 17 106 88q0 57 -57 57zM858 1059h365v-1059h-344l-10 122q-59 -68 -149 -105t-200 -37q-204 0 -307.5 95t-103.5 271v713h366v-635 q0 -82 45.5 -119t118.5 -37q217 0 219 238v553z" glyph-name="uni1EE7" horiz-adv-x="1354" unicode="ủ"/><glyph d="M1075 1870l-228 -273h-217l271 396zM1485 1672h162v-204q0 -230 -196 -230q-53 0 -114 21v-727q0 -145 -46 -253.5t-129.5 -172.5t-190 -95t-236.5 -31t-236.5 31t-190 95t-129.5 172.5t-46 253.5v938h381v-886q0 -271 221 -271t221 271v886h381v-65q26 -9 50 -9 q58 0 78 25.5t20 107.5v143z" glyph-name="uni1EE8" horiz-adv-x="1470" unicode="Ứ"/><glyph d="M1018 1454l-228 -272h-217l271 395zM1356 1261h162v-204q0 -230 -196 -230q-47 0 -99 16v-843h-344l-10 122q-59 -68 -149 -105t-200 -37q-204 0 -307.5 95t-103.5 271v713h366v-635q0 -82 45.5 -119t118.5 -37q217 0 219 238v553h365v-70q19 -4 35 -4q58 0 78 25.5 t20 107.5v143z" glyph-name="uni1EE9" horiz-adv-x="1354" unicode="ứ"/><glyph d="M843 1597h-217l-227 273l174 123zM1485 1672h162v-204q0 -230 -196 -230q-53 0 -114 21v-727q0 -145 -46 -253.5t-129.5 -172.5t-190 -95t-236.5 -31t-236.5 31t-190 95t-129.5 172.5t-46 253.5v938h381v-886q0 -271 221 -271t221 271v886h381v-65q26 -9 50 -9 q58 0 78 25.5t20 107.5v143z" glyph-name="uni1EEA" horiz-adv-x="1470" unicode="Ừ"/><glyph d="M786 1182h-217l-227 272l174 123zM1356 1261h162v-204q0 -230 -196 -230q-47 0 -99 16v-843h-344l-10 122q-59 -68 -149 -105t-200 -37q-204 0 -307.5 95t-103.5 271v713h366v-635q0 -82 45.5 -119t118.5 -37q217 0 219 238v553h365v-70q19 -4 35 -4q58 0 78 25.5 t20 107.5v143z" glyph-name="uni1EEB" horiz-adv-x="1354" unicode="ừ"/><glyph d="M712 1827q-49 0 -86 -43l-78 114q74 64 189 64q99 0 151.5 -48.5t52.5 -131.5q0 -72 -34.5 -106.5t-90.5 -51.5v-88h-153v145q106 18 106 88q0 58 -57 58zM1485 1672h162v-204q0 -230 -196 -230q-53 0 -114 21v-727q0 -145 -46 -253.5t-129.5 -172.5t-190 -95t-236.5 -31 t-236.5 31t-190 95t-129.5 172.5t-46 253.5v938h381v-886q0 -271 221 -271t221 271v886h381v-65q26 -9 50 -9q58 0 78 25.5t20 107.5v143z" glyph-name="uni1EEC" horiz-adv-x="1470" unicode="Ử"/><glyph d="M655 1421q-49 0 -86 -43l-78 115q73 63 189 63q99 0 151.5 -48t52.5 -132q0 -72 -34.5 -106t-90.5 -51v-89h-153v146q106 17 106 88q0 57 -57 57zM1356 1261h162v-204q0 -230 -196 -230q-47 0 -99 16v-843h-344l-10 122q-59 -68 -149 -105t-200 -37q-204 0 -307.5 95 t-103.5 271v713h366v-635q0 -82 45.5 -119t118.5 -37q217 0 219 238v553h365v-70q19 -4 35 -4q58 0 78 25.5t20 107.5v143z" glyph-name="uni1EED" horiz-adv-x="1354" unicode="ử"/><glyph d="M629 1755q-68 0 -68 -125h-188q0 126 66.5 204.5t181.5 78.5q106 0 170 -60q11 -11 31 -34t34 -33t33 -10q59 0 59 125h191q0 -124 -65 -203.5t-185 -79.5q-63 0 -101 18.5t-69 51.5q-4 5 -20 23.5t-22 24t-19.5 12.5t-28.5 7zM1485 1672h162v-204q0 -230 -196 -230 q-53 0 -114 21v-727q0 -145 -46 -253.5t-129.5 -172.5t-190 -95t-236.5 -31t-236.5 31t-190 95t-129.5 172.5t-46 253.5v938h381v-886q0 -271 221 -271t221 271v886h381v-65q26 -9 50 -9q58 0 78 25.5t20 107.5v143z" glyph-name="uni1EEE" horiz-adv-x="1470" unicode="Ữ"/><glyph d="M588 1311q-57 0 -57 -125h-164q0 127 57.5 205.5t157.5 78.5q60 0 107 -29t77 -77q21 -31 45 -31q54 0 54 125h166q0 -125 -56.5 -204.5t-159.5 -79.5q-118 0 -184 106q-19 31 -43 31zM1356 1261h162v-204q0 -230 -196 -230q-47 0 -99 16v-843h-344l-10 122 q-59 -68 -149 -105t-200 -37q-204 0 -307.5 95t-103.5 271v713h366v-635q0 -82 45.5 -119t118.5 -37q217 0 219 238v553h365v-70q19 -4 35 -4q58 0 78 25.5t20 107.5v143z" glyph-name="uni1EEF" horiz-adv-x="1354" unicode="ữ"/><glyph d="M1485 1672h162v-204q0 -230 -196 -230q-53 0 -114 21v-727q0 -145 -46 -253.5t-129.5 -172.5t-190 -95t-236.5 -31t-236.5 31t-190 95t-129.5 172.5t-46 253.5v938h381v-886q0 -271 221 -271t221 271v886h381v-65q26 -9 50 -9q58 0 78 25.5t20 107.5v143zM737 -117 q80 0 138 -57.5t58 -138.5q0 -83 -58 -141t-138 -58q-83 0 -142 58t-59 141q0 81 59 138.5t142 57.5z" glyph-name="uni1EF0" horiz-adv-x="1470" unicode="Ự"/><glyph d="M1356 1261h162v-204q0 -230 -196 -230q-47 0 -99 16v-843h-344l-10 122q-59 -68 -149 -105t-200 -37q-204 0 -307.5 95t-103.5 271v713h366v-635q0 -82 45.5 -119t118.5 -37q217 0 219 238v553h365v-70q19 -4 35 -4q58 0 78 25.5t20 107.5v143zM680 -117q80 0 138 -57.5 t58 -138.5q0 -83 -58 -141t-138 -58q-83 0 -142 58t-59 141q0 81 59 138.5t142 57.5z" glyph-name="uni1EF1" horiz-adv-x="1354" unicode="ự"/><glyph d="M782 1597h-217l-227 273l174 123zM1350 1470l-484 -767v-703h-381v697l-487 773h418l258 -434l260 434h416z" glyph-name="Ygrave" horiz-adv-x="1348" unicode="Ỳ"/><glyph d="M710 1182h-217l-227 272l174 123zM848 1059h371l-678 -1557h-367l259 554l-449 1003h395l224 -618z" glyph-name="ygrave" horiz-adv-x="1202" unicode="ỳ"/><glyph d="M485 0v697l-487 773h418l258 -434l260 434h416l-484 -767v-703h-381zM678 -117q80 0 138 -57.5t58 -138.5q0 -83 -58 -141t-138 -58q-83 0 -142 58t-59 141q0 81 59 138.5t142 57.5z" glyph-name="uni1EF4" horiz-adv-x="1348" unicode="Ỵ"/><glyph d="M848 1059h371l-678 -1557h-367l259 554l-449 1003h395l224 -618zM1053 -117q80 0 138 -57.5t58 -138.5q0 -83 -58 -141t-138 -58q-83 0 -142 58t-59 141q0 81 59 138.5t142 57.5z" glyph-name="uni1EF5" horiz-adv-x="1202" unicode="ỵ"/><glyph d="M651 1827q-49 0 -86 -43l-78 114q74 64 189 64q99 0 151.5 -48.5t52.5 -131.5q0 -72 -34.5 -106.5t-90.5 -51.5v-88h-153v145q106 18 106 88q0 58 -57 58zM1350 1470l-484 -767v-703h-381v697l-487 773h418l258 -434l260 434h416z" glyph-name="uni1EF6" horiz-adv-x="1348" unicode="Ỷ"/><glyph d="M579 1421q-49 0 -86 -43l-78 115q73 63 189 63q99 0 151.5 -48t52.5 -132q0 -72 -34.5 -106t-90.5 -51v-89h-153v146q106 17 106 88q0 57 -57 57zM848 1059h371l-678 -1557h-367l259 554l-449 1003h395l224 -618z" glyph-name="uni1EF7" horiz-adv-x="1202" unicode="ỷ"/><glyph d="M568 1755q-68 0 -68 -125h-188q0 126 66.5 204.5t181.5 78.5q106 0 170 -60q11 -11 31 -34t34 -33t33 -10q59 0 59 125h191q0 -124 -65 -203.5t-185 -79.5q-64 0 -101.5 18.5t-68.5 51.5q-4 5 -20 23.5t-22 24t-19.5 12.5t-28.5 7zM1350 1470l-484 -767v-703h-381v697 l-487 773h418l258 -434l260 434h416z" glyph-name="uni1EF8" horiz-adv-x="1348" unicode="Ỹ"/><glyph d="M512 1311q-57 0 -57 -125h-164q0 127 57.5 205.5t157.5 78.5q60 0 107 -29t77 -77q21 -31 45 -31q54 0 54 125h166q0 -125 -56.5 -204.5t-159.5 -79.5q-118 0 -184 106q-19 31 -43 31zM848 1059h371l-678 -1557h-367l259 554l-449 1003h395l224 -618z" glyph-name="uni1EF9" horiz-adv-x="1202" unicode="ỹ"/><glyph d="M129 379v307h1024v-307h-1024z" glyph-name="endash" horiz-adv-x="1282" unicode="–"/><glyph d="M129 379v307h2048v-307h-2048z" glyph-name="emdash" horiz-adv-x="2306" unicode="—"/><glyph d="M285 1471h258l-127 -676h-372z" glyph-name="quoteleft" horiz-adv-x="635" unicode="‘"/><glyph d="M350 794h-258l127 676h372z" glyph-name="quoteright" horiz-adv-x="635" unicode="’"/><glyph d="M350 -373h-258l127 676h372z" glyph-name="quotesinglbase" horiz-adv-x="635" unicode="‚"/><glyph d="M285 1471h258l-127 -676h-372zM803 1471h258l-127 -676h-372z" glyph-name="quotedblleft" horiz-adv-x="1153" unicode="“"/><glyph d="M350 794h-258l127 676h372zM868 794h-258l127 676h372z" glyph-name="quotedblright" horiz-adv-x="1153" unicode="”"/><glyph d="M350 -373h-258l127 676h372zM856 -373h-258l127 676h372z" glyph-name="quotedblbase" horiz-adv-x="1141" unicode="„"/><glyph d="M930 1137v-228h-330v-1159h-229v1159h-322v228h322v333h229v-333h330z" glyph-name="dagger" horiz-adv-x="979" unicode="†"/><glyph d="M975 909h-330v-577h330v-228h-330v-354h-229v354h-322v228h322v577h-322v228h322v333h229v-333h330v-228z" glyph-name="daggerdbl" horiz-adv-x="1069" unicode="‡"/><glyph d="M473 311q-151 0 -260 106.5t-109 260.5q0 149 110 259t259 110q148 0 257.5 -110t109.5 -259q0 -154 -109 -260.5t-258 -106.5z" glyph-name="bullet" horiz-adv-x="944" unicode="•"/><glyph d="M330 -20q-80 0 -138.5 58t-58.5 138q0 82 58.5 140.5t138.5 58.5q81 0 139.5 -58.5t58.5 -140.5q0 -80 -58.5 -138t-139.5 -58zM1053 -20q-80 0 -138.5 58t-58.5 138q0 82 58.5 140.5t138.5 58.5q81 0 139.5 -58.5t58.5 -140.5q0 -80 -58.5 -138t-139.5 -58zM1774 -20 q-80 0 -138.5 58t-58.5 138q0 82 58.5 140.5t138.5 58.5q81 0 139.5 -58.5t58.5 -140.5q0 -80 -58.5 -138t-139.5 -58z" glyph-name="ellipsis" horiz-adv-x="2105" unicode="…"/><glyph d="M432 754q-154 0 -261.5 107.5t-107.5 260.5q0 152 108.5 260.5t260.5 108.5q153 0 261 -108t108 -261q0 -152 -108 -260t-261 -108zM379 0l760 1470h297l-762 -1470h-295zM432 989q58 0 95.5 38t37.5 95q0 55 -39.5 94t-93.5 39q-56 0 -94.5 -38t-38.5 -95 q0 -56 38.5 -94.5t94.5 -38.5zM1391 -16q-155 0 -263 107t-108 261t108.5 261.5t262.5 107.5q152 0 259 -107.5t107 -261.5q0 -152 -107.5 -260t-258.5 -108zM2228 -16q-155 0 -262.5 107t-107.5 261t108 261.5t262 107.5q152 0 259.5 -107.5t107.5 -261.5 q0 -152 -107.5 -260t-259.5 -108zM1391 221q55 0 94 38t39 93q0 54 -40 93.5t-93 39.5q-57 0 -96.5 -38t-39.5 -95q0 -55 39.5 -93t96.5 -38zM2228 221q56 0 94.5 38t38.5 93q0 54 -39.5 93.5t-93.5 39.5q-57 0 -96 -38t-39 -95q0 -55 39 -93t96 -38z" glyph-name="perthousand" horiz-adv-x="2658" unicode="‰"/><glyph d="M334 305l-311 377l311 377h287l-312 -377l312 -377h-287z" glyph-name="guilsinglleft" horiz-adv-x="655" unicode="‹"/><glyph d="M35 305l311 377l-311 377h287l311 -377l-311 -377h-287z" glyph-name="guilsinglright" horiz-adv-x="655" unicode="›"/><glyph d="M-287 0l830 1470h221l-830 -1470h-221z" glyph-name="fraction" horiz-adv-x="477" unicode="⁄"/><glyph d="M866 322q205 0 277 210l327 -194q-90 -165 -246 -261.5t-356 -96.5q-235 0 -405 134.5t-227 383.5h-138v186h114q-1 17 -1 53t1 54h-114v186h139q57 248 226.5 381t404.5 133q201 0 356.5 -95t245.5 -259l-327 -195q-70 211 -277 211q-182 0 -245 -176h337v-186h-369 q-1 -17 -1 -54q0 -36 1 -53h369v-186h-337q63 -176 245 -176z" glyph-name="Euro" horiz-adv-x="1544" unicode="€"/><glyph d="M637 -14q-331 0 -406 288q0 13 -2 19q-76 -55 -96 -66l-90 174q150 108 178 129v439q0 268 114 406t310 138q86 0 152.5 -29.5t106.5 -81t60.5 -117t20.5 -142.5q0 -168 -105 -325t-317 -339l4 -71q5 -66 47 -106t111 -40q72 0 141.5 49t124.5 125l142 -149 q-47 -84 -106.5 -144.5t-125.5 -93.5t-130.5 -48t-133.5 -15zM565 776q87 95 138 197t51 180q0 129 -86 129q-103 0 -103 -272v-234z" glyph-name="uni2113" horiz-adv-x="1176" unicode="ℓ"/><glyph d="M1231 585v951h383v-1536h-402l-634 959v-959h-381v1536h399zM2324 391q-252 0 -408.5 152t-156.5 399q0 246 156 397.5t409 151.5q252 0 408 -151.5t156 -397.5q0 -247 -156.5 -399t-407.5 -152zM2320 1188q-92 0 -142 -64t-50 -182t50 -182t142 -64q95 0 147 64t52 182 t-52 182t-147 64zM1862 0v229h923v-229h-923z" glyph-name="uni2116" horiz-adv-x="2984" unicode="№"/><glyph d="M90 1389v147h477v-147h-155v-568h-166v568h-156zM1231 1536h174v-715h-164v441l-203 -334l-204 336v-443h-166v715h180l189 -321z" glyph-name="trademark" horiz-adv-x="1602" unicode="™"/><glyph d="M961 -18q-178 0 -340 62t-279.5 167.5t-186.5 250.5t-69 304q0 215 117 397t318.5 287.5t439.5 105.5q179 0 341 -62.5t279.5 -168t186.5 -252t69 -307.5v-21h-1417q-12 0 -12 -8v-430q0 -24 18 -49q106 -109 245 -171t292 -62q167 0 313.5 69.5t251.5 192.5h125 q-119 -141 -301.5 -223t-390.5 -82zM420 788h1087q9 0 9 15v430q0 33 -21 51q-106 105 -243.5 165t-288.5 60t-289 -61.5t-246 -169.5q-20 -23 -20 -53v-422q0 -15 12 -15z" glyph-name="estimated" horiz-adv-x="1892" unicode="℮"/><glyph d="M311 1462q96 23 185.5 21.5t171.5 -33.5t152 -82.5t126.5 -125t95.5 -161.5t58.5 -192t15.5 -217q-9 -308 -172 -492t-422 -184q-129 0 -229 48t-154 133.5t-63 203t45 256.5q85 225 257.5 330.5t365.5 61.5q-55 126 -164 176.5t-269 4.5v252zM795 672q3 48 1 105 q-121 61 -222.5 1.5t-153.5 -221.5q-26 -87 -25 -150t24.5 -103.5t55 -59.5t66.5 -19q39 0 78 24t77 74t65 140.5t34 208.5z" glyph-name="partialdiff" horiz-adv-x="1219" unicode="∂"/><glyph d="M725 -16q-216 0 -383 135l-90 -90l-94 94l90 90q-135 167 -135 383q0 166 82 307t223 223t307 82q216 0 383 -135l90 90l94 -94l-90 -90q135 -169 135 -383q0 -166 -82 -307t-223 -223t-307 -82zM453 418l450 450q-80 52 -178 52q-135 0 -229.5 -94.5t-94.5 -229.5 q0 -98 52 -178zM725 272q135 0 229.5 94.5t94.5 229.5q0 98 -52 178l-450 -450q80 -52 178 -52z" glyph-name="emptyset" horiz-adv-x="1448" unicode="∅"/><glyph d="M223 0v1149h-104v321h1485v-321h-105v-1149h-319v1149h-633v-1149h-324z" glyph-name="product" horiz-adv-x="1722" unicode="∏"/><glyph d="M90 0v223l565 543l-565 543v227h1221v-274h-744l496 -496l-496 -496h744v-270h-1221z" glyph-name="summation" horiz-adv-x="1411" unicode="∑"/><glyph d="M195 578v270h962v-270h-962z" glyph-name="minus" horiz-adv-x="1352" unicode="−"/><glyph d="M432 0l-205 631h-161v303h376l162 -492l522 1094h332l-739 -1536h-287z" glyph-name="radical" horiz-adv-x="1491" unicode="√"/><glyph d="M463 242q-148 0 -241.5 98t-98.5 256q5 158 98.5 256t241.5 98q183 0 375 -186q192 186 374 186q156 0 245 -93t93 -261q-4 -168 -93 -261t-245 -93q-182 0 -374 186q-192 -186 -375 -186zM463 471q96 0 221 125q-125 125 -221 125q-48 0 -80.5 -34.5t-32.5 -90.5 t32.5 -90.5t80.5 -34.5zM1212 471q50 0 80.5 32.5t30.5 92.5t-30.5 92.5t-80.5 32.5q-92 0 -223 -125q131 -125 223 -125z" glyph-name="infinity" horiz-adv-x="1679" unicode="∞"/><glyph d="M51 -457v340q72 0 113 7.5t65 31t31.5 57.5t7.5 95v1061q0 155 106 255.5t265 100.5q70 0 141 -22t117 -68l-123 -273q-50 50 -94 50q-33 0 -50.5 -26.5t-17.5 -94.5v-1020q0 -226 -157.5 -360t-403.5 -134z" glyph-name="integral" horiz-adv-x="932" unicode="∫"/><glyph d="M879 698q-31 0 -62 5.5t-54.5 13t-48.5 21.5t-40.5 24t-36 27.5t-29 26t-24 24.5t-17.5 18q-31 31 -69 31q-101 0 -111 -178h-252q6 199 100 315.5t267 116.5q83 0 147 -33.5t127 -114.5q1 -1 6 -7t7 -8.5t7.5 -8.5t9.5 -8.5t10.5 -7t12 -6.5t13.5 -3.5t16 -1.5 q43 0 70.5 44.5t34.5 129.5h247q-5 -122 -41.5 -214.5t-111 -149t-178.5 -56.5zM879 164q-25 0 -50 3.5t-45.5 9t-41.5 15t-36.5 17.5t-33.5 21t-28.5 21t-25 22t-20.5 20t-18 19t-13 14q-17 17 -31.5 23t-37.5 5q-56 -4 -81 -49t-30 -129h-252q6 201 101.5 317.5 t265.5 116.5q78 0 141 -33.5t133 -113.5q1 -1 7 -8.5t9.5 -11.5t11.5 -11.5t15.5 -11.5t17.5 -7t21 -3q44 0 71 44t34 132h247q-8 -187 -92.5 -304.5t-238.5 -117.5z" glyph-name="approxequal" horiz-adv-x="1343" unicode="≈"/><glyph d="M119 0l176 348h-137v270h274l96 189h-370v270h508l141 279h268l-141 -279h186v-270h-323l-97 -189h420v-270h-557l-176 -348h-268z" glyph-name="notequal" horiz-adv-x="1257" unicode="≠"/><glyph d="M1239 1552v-299l-822 -337l822 -338v-302l-1130 478v325zM109 0v225h1130v-225h-1130z" glyph-name="lessequal" horiz-adv-x="1376" unicode="≤"/><glyph d="M137 1552l1131 -473v-325l-1131 -478v302l822 338l-822 337v299zM137 0v225h1131v-225h-1131z" glyph-name="greaterequal" horiz-adv-x="1376" unicode="≥"/><glyph d="M653 106l-618 617l618 618l617 -616zM653 506l217 219l-217 217l-219 -219z" glyph-name="lozenge" horiz-adv-x="1307" unicode="◊"/><glyph d="M866 0q-158 0 -302 62t-248 166t-166 248t-62 302t62 302.5t166 248.5t248 165.5t302 61.5q127 0 246 -39t214.5 -111t167.5 -168t111.5 -214.5t39.5 -245.5q0 -211 -104.5 -390t-284 -283.5t-390.5 -104.5zM866 74q143 0 273.5 56t225 150.5t150.5 224.5t56 273 q0 191 -94.5 353.5t-257 257t-353.5 94.5q-143 0 -273 -56t-224.5 -150.5t-150.5 -225t-56 -273.5t56 -273t150.5 -224.5t224.5 -150.5t273 -56zM1274 444q-15 0 -25 13l-297 295q-10 12 -10 27t10 26l297 297q11 10 26 10t25 -10q11 -11 11 -26.5t-11 -26.5l-270 -271 l270 -270q24 -22 0 -51q-10 -13 -26 -13zM459 444q-16 0 -26.5 11t-10.5 26v594q0 16 10.5 26.5t26.5 10.5q15 0 26 -10.5t11 -26.5v-594q0 -15 -11 -26t-26 -11zM866 444q-15 0 -26 11t-11 26v594q0 16 11 26.5t26 10.5q16 0 26.5 -10.5t10.5 -26.5v-594q0 -15 -10.5 -26 t-26.5 -11zM569 741q-15 0 -26 11t-11 26q0 16 11 26.5t26 10.5h187q15 0 26 -10.5t11 -26.5q0 -15 -11 -26t-26 -11h-187z" glyph-name="uniF8FF" horiz-adv-x="1733" unicode=""/><glyph d="M836 -20q-229 0 -404 93.5t-270.5 264t-95.5 393.5q0 226 98 399.5t271 267t394 93.5q219 0 391.5 -92t270.5 -256l-334 -178q-48 100 -132.5 150t-195.5 50q-170 0 -276.5 -112.5t-106.5 -311.5q0 -197 108.5 -316.5t311.5 -119.5q129 0 216 53t106 170h-342v301h698 q12 -91 12 -172q0 -145 -41.5 -262t-110.5 -193t-163 -127t-194.5 -73t-210.5 -22z" glyph-name="G.ss02" horiz-adv-x="1618"/><glyph d="M825 1597q-183 0 -282 72t-99 240h204q0 -148 177 -148q178 0 178 148h205q0 -168 -99.5 -240t-283.5 -72zM836 -20q-229 0 -404 93.5t-270.5 264t-95.5 393.5q0 226 98 399.5t271 267t394 93.5q219 0 391.5 -92t270.5 -256l-334 -178q-48 100 -132.5 150t-195.5 50 q-170 0 -276.5 -112.5t-106.5 -311.5q0 -197 108.5 -316.5t311.5 -119.5q129 0 216 53t106 170h-342v301h698q12 -91 12 -172q0 -145 -41.5 -262t-110.5 -193t-163 -127t-194.5 -73t-210.5 -22z" glyph-name="Gbreve.ss02" horiz-adv-x="1618"/><glyph d="M836 -20q-229 0 -404 93.5t-270.5 264t-95.5 393.5q0 226 98 399.5t271 267t394 93.5q219 0 391.5 -92t270.5 -256l-334 -178q-48 100 -132.5 150t-195.5 50q-170 0 -276.5 -112.5t-106.5 -311.5q0 -197 108.5 -316.5t311.5 -119.5q129 0 216 53t106 170h-342v301h698 q12 -91 12 -172q0 -145 -41.5 -262t-110.5 -193t-163 -127t-194.5 -73t-210.5 -22zM669 -584l-174 82l172 379h313z" glyph-name="Gcommaaccent.ss02" horiz-adv-x="1618"/><glyph d="M827 1536q-83 0 -142 58t-59 141q0 81 59 138.5t142 57.5q80 0 138 -57.5t58 -138.5q0 -83 -58 -141t-138 -58zM836 -20q-229 0 -404 93.5t-270.5 264t-95.5 393.5q0 226 98 399.5t271 267t394 93.5q219 0 391.5 -92t270.5 -256l-334 -178q-48 100 -132.5 150t-195.5 50 q-170 0 -276.5 -112.5t-106.5 -311.5q0 -197 108.5 -316.5t311.5 -119.5q129 0 216 53t106 170h-342v301h698q12 -91 12 -172q0 -145 -41.5 -262t-110.5 -193t-163 -127t-194.5 -73t-210.5 -22z" glyph-name="Gdotaccent.ss02" horiz-adv-x="1618"/><glyph d="M836 -20q-229 0 -404 93.5t-270.5 264t-95.5 393.5q0 226 98 399.5t271 267t394 93.5q219 0 391.5 -92t270.5 -256l-334 -178q-48 100 -132.5 150t-195.5 50q-170 0 -276.5 -112.5t-106.5 -311.5q0 -197 108.5 -316.5t311.5 -119.5q129 0 216 53t106 170h-342v301h698 q12 -91 12 -172q0 -145 -41.5 -262t-110.5 -193t-163 -127t-194.5 -73t-210.5 -22z" glyph-name="G.ss03" horiz-adv-x="1618"/><glyph d="M825 1597q-183 0 -282 72t-99 240h204q0 -148 177 -148q178 0 178 148h205q0 -168 -99.5 -240t-283.5 -72zM836 -20q-229 0 -404 93.5t-270.5 264t-95.5 393.5q0 226 98 399.5t271 267t394 93.5q219 0 391.5 -92t270.5 -256l-334 -178q-48 100 -132.5 150t-195.5 50 q-170 0 -276.5 -112.5t-106.5 -311.5q0 -197 108.5 -316.5t311.5 -119.5q129 0 216 53t106 170h-342v301h698q12 -91 12 -172q0 -145 -41.5 -262t-110.5 -193t-163 -127t-194.5 -73t-210.5 -22z" glyph-name="Gbreve.ss03" horiz-adv-x="1618"/><glyph d="M836 -20q-229 0 -404 93.5t-270.5 264t-95.5 393.5q0 226 98 399.5t271 267t394 93.5q219 0 391.5 -92t270.5 -256l-334 -178q-48 100 -132.5 150t-195.5 50q-170 0 -276.5 -112.5t-106.5 -311.5q0 -197 108.5 -316.5t311.5 -119.5q129 0 216 53t106 170h-342v301h698 q12 -91 12 -172q0 -145 -41.5 -262t-110.5 -193t-163 -127t-194.5 -73t-210.5 -22zM669 -584l-174 82l172 379h313z" glyph-name="Gcommaaccent.ss03" horiz-adv-x="1618"/><glyph d="M827 1536q-83 0 -142 58t-59 141q0 81 59 138.5t142 57.5q80 0 138 -57.5t58 -138.5q0 -83 -58 -141t-138 -58zM836 -20q-229 0 -404 93.5t-270.5 264t-95.5 393.5q0 226 98 399.5t271 267t394 93.5q219 0 391.5 -92t270.5 -256l-334 -178q-48 100 -132.5 150t-195.5 50 q-170 0 -276.5 -112.5t-106.5 -311.5q0 -197 108.5 -316.5t311.5 -119.5q129 0 216 53t106 170h-342v301h698q12 -91 12 -172q0 -145 -41.5 -262t-110.5 -193t-163 -127t-194.5 -73t-210.5 -22z" glyph-name="Gdotaccent.ss03" horiz-adv-x="1618"/><glyph d="M317 1161q-83 0 -142 58t-59 141q0 81 59 138.5t142 57.5q80 0 138 -57.5t58 -138.5q0 -83 -58 -141t-138 -58zM131 0v1059h367v-1059h-367z" glyph-name="i.loclTRK" horiz-adv-x="629"/><glyph d="M1159 1059v-248h-136q26 -67 26 -147q0 -76 -25 -137t-67 -101t-101.5 -67t-125 -38.5t-140.5 -11.5q-102 0 -192 23q-11 -27 -11 -45q0 -55 79 -76q42 -12 204 -26q18 -2 32 -3q55 -5 98 -10.5t92 -17t85.5 -26t71.5 -38.5t57 -54t35.5 -72.5t13.5 -94.5 q0 -94 -42.5 -166t-118.5 -115.5t-175 -65.5t-219 -22q-247 0 -389.5 83t-142.5 208q0 105 105 209q-99 71 -99 205q0 146 107 247q-89 95 -89 236q0 123 67.5 214t172.5 134t231 43q82 0 160 -20h436zM578 561q67 0 102 36t35 93q0 58 -35.5 95.5t-101.5 37.5 q-67 0 -103.5 -37.5t-36.5 -97.5q0 -57 35.5 -92t104.5 -35zM803 -186q0 26 -18 43t-55.5 26.5t-80.5 14.5t-106 10q-19 1 -29 2q-67 5 -118 13q-21 -33 -21 -62q0 -56 72.5 -89.5t197.5 -33.5q158 0 158 76z" glyph-name="g.ss01" horiz-adv-x="1192"/><glyph d="M594 1163q-177 0 -278.5 93.5t-101.5 279.5h225q0 -97 38 -153t117 -56q81 0 119.5 56t38.5 153h225q0 -186 -102 -279.5t-281 -93.5zM1159 1059v-248h-136q26 -67 26 -147q0 -76 -25 -137t-67 -101t-101.5 -67t-125 -38.5t-140.5 -11.5q-102 0 -192 23q-11 -27 -11 -45 q0 -55 79 -76q42 -12 204 -26q18 -2 32 -3q55 -5 98 -10.5t92 -17t85.5 -26t71.5 -38.5t57 -54t35.5 -72.5t13.5 -94.5q0 -94 -42.5 -166t-118.5 -115.5t-175 -65.5t-219 -22q-247 0 -389.5 83t-142.5 208q0 105 105 209q-99 71 -99 205q0 146 107 247q-89 95 -89 236 q0 123 67.5 214t172.5 134t231 43q82 0 160 -20h436zM578 561q67 0 102 36t35 93q0 58 -35.5 95.5t-101.5 37.5q-67 0 -103.5 -37.5t-36.5 -97.5q0 -57 35.5 -92t104.5 -35zM803 -186q0 26 -18 43t-55.5 26.5t-80.5 14.5t-106 10q-19 1 -29 2q-67 5 -118 13q-21 -33 -21 -62 q0 -56 72.5 -89.5t197.5 -33.5q158 0 158 76z" glyph-name="gbreve.ss01" horiz-adv-x="1192"/><glyph d="M852 1537l-127 -342h-372l241 342h258zM1159 1059v-248h-136q26 -67 26 -147q0 -76 -25 -137t-67 -101t-101.5 -67t-125 -38.5t-140.5 -11.5q-102 0 -192 23q-11 -27 -11 -45q0 -55 79 -76q42 -12 204 -26q18 -2 32 -3q55 -5 98 -10.5t92 -17t85.5 -26t71.5 -38.5t57 -54 t35.5 -72.5t13.5 -94.5q0 -94 -42.5 -166t-118.5 -115.5t-175 -65.5t-219 -22q-247 0 -389.5 83t-142.5 208q0 105 105 209q-99 71 -99 205q0 146 107 247q-89 95 -89 236q0 123 67.5 214t172.5 134t231 43q82 0 160 -20h436zM578 561q67 0 102 36t35 93q0 58 -35.5 95.5 t-101.5 37.5q-67 0 -103.5 -37.5t-36.5 -97.5q0 -57 35.5 -92t104.5 -35zM803 -186q0 26 -18 43t-55.5 26.5t-80.5 14.5t-106 10q-19 1 -29 2q-67 5 -118 13q-21 -33 -21 -62q0 -56 72.5 -89.5t197.5 -33.5q158 0 158 76z" glyph-name="gcommaaccent.ss01" horiz-adv-x="1192"/><glyph d="M596 1161q-83 0 -142 58t-59 141q0 81 59 138.5t142 57.5q80 0 138 -57.5t58 -138.5q0 -83 -58 -141t-138 -58zM1159 1059v-248h-136q26 -67 26 -147q0 -76 -25 -137t-67 -101t-101.5 -67t-125 -38.5t-140.5 -11.5q-102 0 -192 23q-11 -27 -11 -45q0 -55 79 -76 q42 -12 204 -26q18 -2 32 -3q55 -5 98 -10.5t92 -17t85.5 -26t71.5 -38.5t57 -54t35.5 -72.5t13.5 -94.5q0 -94 -42.5 -166t-118.5 -115.5t-175 -65.5t-219 -22q-247 0 -389.5 83t-142.5 208q0 105 105 209q-99 71 -99 205q0 146 107 247q-89 95 -89 236q0 123 67.5 214 t172.5 134t231 43q82 0 160 -20h436zM578 561q67 0 102 36t35 93q0 58 -35.5 95.5t-101.5 37.5q-67 0 -103.5 -37.5t-36.5 -97.5q0 -57 35.5 -92t104.5 -35zM803 -186q0 26 -18 43t-55.5 26.5t-80.5 14.5t-106 10q-19 1 -29 2q-67 5 -118 13q-21 -33 -21 -62 q0 -56 72.5 -89.5t197.5 -33.5q158 0 158 76z" glyph-name="gdotaccent.ss01" horiz-adv-x="1192"/><glyph d="M883 1059h344v-1059h-344l-8 101q-42 -62 -124.5 -95t-183.5 -33q-106 0 -200 37.5t-165 106.5t-112 174.5t-41 234.5t41 235t112 174.5t165 106t200 37.5q107 0 192 -36t124 -104v120zM653 272q104 0 172 68t68 186t-67.5 186t-172.5 68q-104 0 -171.5 -68t-67.5 -186 t67.5 -186t171.5 -68z" glyph-name="a.ss02" horiz-adv-x="1358"/><glyph d="M1020 1454l-228 -272h-217l271 395zM883 1059h344v-1059h-344l-8 101q-42 -62 -124.5 -95t-183.5 -33q-106 0 -200 37.5t-165 106.5t-112 174.5t-41 234.5t41 235t112 174.5t165 106t200 37.5q107 0 192 -36t124 -104v120zM653 272q104 0 172 68t68 186t-67.5 186 t-172.5 68q-104 0 -171.5 -68t-67.5 -186t67.5 -186t171.5 -68z" glyph-name="aacute.ss02" horiz-adv-x="1358"/><glyph d="M680 1163q-177 0 -278.5 93.5t-101.5 279.5h225q0 -97 38 -153t117 -56q81 0 119.5 56t38.5 153h225q0 -186 -102 -279.5t-281 -93.5zM883 1059h344v-1059h-344l-8 101q-42 -62 -124.5 -95t-183.5 -33q-106 0 -200 37.5t-165 106.5t-112 174.5t-41 234.5t41 235 t112 174.5t165 106t200 37.5q107 0 192 -36t124 -104v120zM653 272q104 0 172 68t68 186t-67.5 186t-172.5 68q-104 0 -171.5 -68t-67.5 -186t67.5 -186t171.5 -68z" glyph-name="abreve.ss02" horiz-adv-x="1358"/><glyph d="M1020 1931l-228 -272h-217l271 395zM680 1163q-177 0 -278.5 93.5t-101.5 279.5h225q0 -97 38 -153t117 -56q81 0 119.5 56t38.5 153h225q0 -186 -102 -279.5t-281 -93.5zM883 1059h344v-1059h-344l-8 101q-42 -62 -124.5 -95t-183.5 -33q-106 0 -200 37.5t-165 106.5 t-112 174.5t-41 234.5t41 235t112 174.5t165 106t200 37.5q107 0 192 -36t124 -104v120zM653 272q104 0 172 68t68 186t-67.5 186t-172.5 68q-104 0 -171.5 -68t-67.5 -186t67.5 -186t171.5 -68z" glyph-name="uni1EAF.ss02" horiz-adv-x="1358"/><glyph d="M680 1163q-177 0 -278.5 93.5t-101.5 279.5h225q0 -97 38 -153t117 -56q81 0 119.5 56t38.5 153h225q0 -186 -102 -279.5t-281 -93.5zM883 1059h344v-1059h-344l-8 101q-42 -62 -124.5 -95t-183.5 -33q-106 0 -200 37.5t-165 106.5t-112 174.5t-41 234.5t41 235 t112 174.5t165 106t200 37.5q107 0 192 -36t124 -104v120zM653 272q104 0 172 68t68 186t-67.5 186t-172.5 68q-104 0 -171.5 -68t-67.5 -186t67.5 -186t171.5 -68zM682 -117q80 0 138 -57.5t58 -138.5q0 -83 -58 -141t-138 -58q-83 0 -142 58t-59 141q0 81 59 138.5 t142 57.5z" glyph-name="uni1EB7.ss02" horiz-adv-x="1358"/><glyph d="M788 1659h-217l-227 272l174 123zM680 1163q-177 0 -278.5 93.5t-101.5 279.5h225q0 -97 38 -153t117 -56q81 0 119.5 56t38.5 153h225q0 -186 -102 -279.5t-281 -93.5zM883 1059h344v-1059h-344l-8 101q-42 -62 -124.5 -95t-183.5 -33q-106 0 -200 37.5t-165 106.5 t-112 174.5t-41 234.5t41 235t112 174.5t165 106t200 37.5q107 0 192 -36t124 -104v120zM653 272q104 0 172 68t68 186t-67.5 186t-172.5 68q-104 0 -171.5 -68t-67.5 -186t67.5 -186t171.5 -68z" glyph-name="uni1EB1.ss02" horiz-adv-x="1358"/><glyph d="M657 1898q-49 0 -86 -43l-78 115q73 63 189 63q99 0 151.5 -48t52.5 -132q0 -71 -34.5 -105.5t-90.5 -51.5v-89h-153v146q106 17 106 88q0 57 -57 57zM680 1163q-177 0 -278.5 93.5t-101.5 279.5h225q0 -97 38 -153t117 -56q81 0 119.5 56t38.5 153h225 q0 -186 -102 -279.5t-281 -93.5zM883 1059h344v-1059h-344l-8 101q-42 -62 -124.5 -95t-183.5 -33q-106 0 -200 37.5t-165 106.5t-112 174.5t-41 234.5t41 235t112 174.5t165 106t200 37.5q107 0 192 -36t124 -104v120zM653 272q104 0 172 68t68 186t-67.5 186t-172.5 68 q-104 0 -171.5 -68t-67.5 -186t67.5 -186t171.5 -68z" glyph-name="uni1EB3.ss02" horiz-adv-x="1358"/><glyph d="M590 1788q-57 0 -57 -125h-164q0 127 57.5 205.5t157.5 78.5q60 0 107 -29t77 -77q21 -31 45 -31q54 0 54 125h166q0 -125 -56.5 -204.5t-159.5 -79.5q-118 0 -184 106q-19 31 -43 31zM680 1163q-177 0 -278.5 93.5t-101.5 279.5h225q0 -97 38 -153t117 -56 q81 0 119.5 56t38.5 153h225q0 -186 -102 -279.5t-281 -93.5zM883 1059h344v-1059h-344l-8 101q-42 -62 -124.5 -95t-183.5 -33q-106 0 -200 37.5t-165 106.5t-112 174.5t-41 234.5t41 235t112 174.5t165 106t200 37.5q107 0 192 -36t124 -104v120zM653 272q104 0 172 68 t68 186t-67.5 186t-172.5 68q-104 0 -171.5 -68t-67.5 -186t67.5 -186t171.5 -68z" glyph-name="uni1EB5.ss02" horiz-adv-x="1358"/><glyph d="M783 1235h-205l-237 301h217l122 -135l123 135h217zM883 1059h344v-1059h-344l-8 101q-42 -62 -124.5 -95t-183.5 -33q-106 0 -200 37.5t-165 106.5t-112 174.5t-41 234.5t41 235t112 174.5t165 106t200 37.5q107 0 192 -36t124 -104v120zM653 272q104 0 172 68t68 186 t-67.5 186t-172.5 68q-104 0 -171.5 -68t-67.5 -186t67.5 -186t171.5 -68z" glyph-name="uni01CE.ss02" horiz-adv-x="1358"/><glyph d="M680 1370l-122 -135h-218l238 301h205l237 -301h-217zM883 1059h344v-1059h-344l-8 101q-42 -62 -124.5 -95t-183.5 -33q-106 0 -200 37.5t-165 106.5t-112 174.5t-41 234.5t41 235t112 174.5t165 106t200 37.5q107 0 192 -36t124 -104v120zM653 272q104 0 172 68t68 186 t-67.5 186t-172.5 68q-104 0 -171.5 -68t-67.5 -186t67.5 -186t171.5 -68z" glyph-name="acircumflex.ss02" horiz-adv-x="1358"/><glyph d="M1020 1931l-228 -272h-217l271 395zM680 1370l-122 -135h-218l238 301h205l237 -301h-217zM883 1059h344v-1059h-344l-8 101q-42 -62 -124.5 -95t-183.5 -33q-106 0 -200 37.5t-165 106.5t-112 174.5t-41 234.5t41 235t112 174.5t165 106t200 37.5q107 0 192 -36 t124 -104v120zM653 272q104 0 172 68t68 186t-67.5 186t-172.5 68q-104 0 -171.5 -68t-67.5 -186t67.5 -186t171.5 -68z" glyph-name="uni1EA5.ss02" horiz-adv-x="1358"/><glyph d="M680 1370l-122 -135h-218l238 301h205l237 -301h-217zM883 1059h344v-1059h-344l-8 101q-42 -62 -124.5 -95t-183.5 -33q-106 0 -200 37.5t-165 106.5t-112 174.5t-41 234.5t41 235t112 174.5t165 106t200 37.5q107 0 192 -36t124 -104v120zM653 272q104 0 172 68t68 186 t-67.5 186t-172.5 68q-104 0 -171.5 -68t-67.5 -186t67.5 -186t171.5 -68zM682 -117q80 0 138 -57.5t58 -138.5q0 -83 -58 -141t-138 -58q-83 0 -142 58t-59 141q0 81 59 138.5t142 57.5z" glyph-name="uni1EAD.ss02" horiz-adv-x="1358"/><glyph d="M788 1659h-217l-227 272l174 123zM680 1370l-122 -135h-218l238 301h205l237 -301h-217zM883 1059h344v-1059h-344l-8 101q-42 -62 -124.5 -95t-183.5 -33q-106 0 -200 37.5t-165 106.5t-112 174.5t-41 234.5t41 235t112 174.5t165 106t200 37.5q107 0 192 -36t124 -104 v120zM653 272q104 0 172 68t68 186t-67.5 186t-172.5 68q-104 0 -171.5 -68t-67.5 -186t67.5 -186t171.5 -68z" glyph-name="uni1EA7.ss02" horiz-adv-x="1358"/><glyph d="M657 1898q-49 0 -86 -43l-78 115q73 63 189 63q99 0 151.5 -48t52.5 -132q0 -71 -34.5 -105.5t-90.5 -51.5v-89h-153v146q106 17 106 88q0 57 -57 57zM680 1370l-122 -135h-218l238 301h205l237 -301h-217zM883 1059h344v-1059h-344l-8 101q-42 -62 -124.5 -95 t-183.5 -33q-106 0 -200 37.5t-165 106.5t-112 174.5t-41 234.5t41 235t112 174.5t165 106t200 37.5q107 0 192 -36t124 -104v120zM653 272q104 0 172 68t68 186t-67.5 186t-172.5 68q-104 0 -171.5 -68t-67.5 -186t67.5 -186t171.5 -68z" glyph-name="uni1EA9.ss02" horiz-adv-x="1358"/><glyph d="M590 1788q-57 0 -57 -125h-164q0 127 57.5 205.5t157.5 78.5q60 0 107 -29t77 -77q21 -31 45 -31q54 0 54 125h166q0 -125 -56.5 -204.5t-159.5 -79.5q-118 0 -184 106q-19 31 -43 31zM680 1370l-122 -135h-218l238 301h205l237 -301h-217zM883 1059h344v-1059h-344 l-8 101q-42 -62 -124.5 -95t-183.5 -33q-106 0 -200 37.5t-165 106.5t-112 174.5t-41 234.5t41 235t112 174.5t165 106t200 37.5q107 0 192 -36t124 -104v120zM653 272q104 0 172 68t68 186t-67.5 186t-172.5 68q-104 0 -171.5 -68t-67.5 -186t67.5 -186t171.5 -68z" glyph-name="uni1EAB.ss02" horiz-adv-x="1358"/><glyph d="M447 1161q-83 0 -142 58t-59 141q0 81 59 138.5t142 57.5q80 0 138 -57.5t58 -138.5q0 -83 -58 -141t-138 -58zM916 1161q-83 0 -142 58t-59 141q0 81 59 138.5t142 57.5q80 0 138 -57.5t58 -138.5q0 -83 -58 -141t-138 -58zM883 1059h344v-1059h-344l-8 101 q-42 -62 -124.5 -95t-183.5 -33q-106 0 -200 37.5t-165 106.5t-112 174.5t-41 234.5t41 235t112 174.5t165 106t200 37.5q107 0 192 -36t124 -104v120zM653 272q104 0 172 68t68 186t-67.5 186t-172.5 68q-104 0 -171.5 -68t-67.5 -186t67.5 -186t171.5 -68z" glyph-name="adieresis.ss02" horiz-adv-x="1358"/><glyph d="M883 1059h344v-1059h-344l-8 101q-42 -62 -124.5 -95t-183.5 -33q-106 0 -200 37.5t-165 106.5t-112 174.5t-41 234.5t41 235t112 174.5t165 106t200 37.5q107 0 192 -36t124 -104v120zM653 272q104 0 172 68t68 186t-67.5 186t-172.5 68q-104 0 -171.5 -68t-67.5 -186 t67.5 -186t171.5 -68zM682 -117q80 0 138 -57.5t58 -138.5q0 -83 -58 -141t-138 -58q-83 0 -142 58t-59 141q0 81 59 138.5t142 57.5z" glyph-name="uni1EA1.ss02" horiz-adv-x="1358"/><glyph d="M788 1182h-217l-227 272l174 123zM883 1059h344v-1059h-344l-8 101q-42 -62 -124.5 -95t-183.5 -33q-106 0 -200 37.5t-165 106.5t-112 174.5t-41 234.5t41 235t112 174.5t165 106t200 37.5q107 0 192 -36t124 -104v120zM653 272q104 0 172 68t68 186t-67.5 186 t-172.5 68q-104 0 -171.5 -68t-67.5 -186t67.5 -186t171.5 -68z" glyph-name="agrave.ss02" horiz-adv-x="1358"/><glyph d="M657 1421q-49 0 -86 -43l-78 115q73 63 189 63q99 0 151.5 -48t52.5 -132q0 -72 -34.5 -106t-90.5 -51v-89h-153v146q106 17 106 88q0 57 -57 57zM883 1059h344v-1059h-344l-8 101q-42 -62 -124.5 -95t-183.5 -33q-106 0 -200 37.5t-165 106.5t-112 174.5t-41 234.5 t41 235t112 174.5t165 106t200 37.5q107 0 192 -36t124 -104v120zM653 272q104 0 172 68t68 186t-67.5 186t-172.5 68q-104 0 -171.5 -68t-67.5 -186t67.5 -186t171.5 -68z" glyph-name="uni1EA3.ss02" horiz-adv-x="1358"/><glyph d="M1018 1419v-209h-676v209h676zM883 1059h344v-1059h-344l-8 101q-42 -62 -124.5 -95t-183.5 -33q-106 0 -200 37.5t-165 106.5t-112 174.5t-41 234.5t41 235t112 174.5t165 106t200 37.5q107 0 192 -36t124 -104v120zM653 272q104 0 172 68t68 186t-67.5 186t-172.5 68 q-104 0 -171.5 -68t-67.5 -186t67.5 -186t171.5 -68z" glyph-name="amacron.ss02" horiz-adv-x="1358"/><glyph d="M1227 0q-70 -59 -122 -120t-52 -95q0 -31 49 -31q32 0 68 13t57 34v-219q-78 -33 -168 -33q-87 0 -146 30.5t-59 88.5q0 64 64.5 151.5t167.5 180.5h-203l-8 101q-42 -62 -124.5 -95t-183.5 -33q-106 0 -200 37.5t-165 106.5t-112 174.5t-41 234.5t41 235t112 174.5 t165 106t200 37.5q107 0 192 -36t124 -104v120h344v-1059zM653 272q104 0 172 68t68 186t-67.5 186t-172.5 68q-104 0 -171.5 -68t-67.5 -186t67.5 -186t171.5 -68z" glyph-name="aogonek.ss02" horiz-adv-x="1358"/><glyph d="M680 1157q-108 0 -184 76.5t-76 183.5q0 105 76 180.5t184 75.5q106 0 181 -75.5t75 -180.5q0 -107 -75 -183.5t-181 -76.5zM680 1532q-47 0 -79 -34.5t-32 -80.5q0 -51 31 -82.5t80 -31.5q48 0 80 31.5t32 82.5q0 46 -33 80.5t-79 34.5zM883 1059h344v-1059h-344l-8 101 q-42 -62 -124.5 -95t-183.5 -33q-106 0 -200 37.5t-165 106.5t-112 174.5t-41 234.5t41 235t112 174.5t165 106t200 37.5q107 0 192 -36t124 -104v120zM653 272q104 0 172 68t68 186t-67.5 186t-172.5 68q-104 0 -171.5 -68t-67.5 -186t67.5 -186t171.5 -68z" glyph-name="aring.ss02" horiz-adv-x="1358"/><glyph d="M590 1311q-57 0 -57 -125h-164q0 127 57.5 205.5t157.5 78.5q60 0 107 -29t77 -77q21 -31 45 -31q54 0 54 125h166q0 -125 -56.5 -204.5t-159.5 -79.5q-118 0 -184 106q-19 31 -43 31zM883 1059h344v-1059h-344l-8 101q-42 -62 -124.5 -95t-183.5 -33q-106 0 -200 37.5 t-165 106.5t-112 174.5t-41 234.5t41 235t112 174.5t165 106t200 37.5q107 0 192 -36t124 -104v120zM653 272q104 0 172 68t68 186t-67.5 186t-172.5 68q-104 0 -171.5 -68t-67.5 -186t67.5 -186t171.5 -68z" glyph-name="atilde.ss02" horiz-adv-x="1358"/><glyph d="M217 0v782h-209v277h209v47q0 80 14.5 142.5t40 107.5t66.5 77.5t86.5 52t108.5 31t124 15.5t140 4v-287h-9q-25 0 -38.5 -0.5t-38.5 -3t-40 -7.5t-34 -15.5t-29.5 -25.5t-18 -38t-7.5 -53v-47h196q103 0 154 43.5t51 140.5v150h309v-334h203v-277h-203v-385 q0 -66 27 -95.5t82 -29.5h88v-272h-219q-169 0 -258.5 92.5t-89.5 263.5v426h-340v-782h-365z" glyph-name="f_t" horiz-adv-x="1569"/><glyph d="M559 0q-168 0 -258 92.5t-90 263.5v426h-203v277h80q164 0 164 143v150h330v-293h268q164 0 164 143v150h329v-293h203v-277h-203v-385q0 -66 27 -95.5t82 -29.5h88v-272h-219q-168 0 -258 92.5t-90 263.5v426h-391v-385q0 -66 26.5 -95.5t81.5 -29.5h88v-272h-219z" glyph-name="t_t" horiz-adv-x="1620"/><glyph d="M383 -381q-157 0 -251.5 129.5t-94.5 343.5t94.5 343.5t251.5 129.5t252.5 -129.5t95.5 -343.5t-95.5 -343.5t-252.5 -129.5zM385 -176q63 0 100 70.5t37 197.5t-37 197.5t-100 70.5t-100 -70.5t-37 -197.5t37 -197.5t100 -70.5z" glyph-name="zero.subs" horiz-adv-x="766"/><glyph d="M184 553h191v-922h-205v733l-176 -137v193z" glyph-name="one.subs" horiz-adv-x="479"/><glyph d="M276 -209h396v-160h-635v195q110 63 190 121.5t124 102t70 86t33 70t7 56.5q0 44 -10.5 73.5t-28 43t-35.5 18t-39 2.5q-110 -10 -98 -145h-215q-6 134 88 223.5t239 89.5q136 0 218 -79t82 -205q0 -136 -99 -269.5t-287 -222.5z" glyph-name="two.subs" horiz-adv-x="721"/><glyph d="M540 134q126 -70 126 -214q0 -127 -92.5 -214t-235.5 -87q-136 0 -228 77t-92 193h201q4 -53 38.5 -77.5t86.5 -24.5q121 0 121 123q0 62 -32 90.5t-101 28.5h-53v155h38q59 0 87 27.5t28 87.5q0 107 -98 107q-102 0 -109 -117h-194q0 126 84.5 201t214.5 75 q126 0 205 -71.5t79 -186.5q0 -110 -74 -173z" glyph-name="three.subs" horiz-adv-x="696"/><glyph d="M705 -23v-151h-95v-195h-198v195h-414v184l342 543h270v-576h95zM159 -23h253v426z" glyph-name="four.subs" horiz-adv-x="737"/><glyph d="M391 231q174 0 253 -79.5t79 -217.5q0 -146 -94.5 -228.5t-237.5 -82.5q-153 0 -252.5 81.5t-99.5 236.5h207q0 -77 40 -114.5t101 -37.5t96 37t35 102q0 75 -40 108.5t-128 33.5h-297l105 485h534v-168h-391l-32 -156h122z" glyph-name="five.subs" horiz-adv-x="766"/><glyph d="M391 262q116 0 208.5 -95.5t92.5 -219.5q0 -103 -52 -179t-130 -111.5t-168 -35.5q-89 0 -165.5 34.5t-127.5 110t-51 179.5q0 94 74 198l293 410h243l-233 -292q5 1 16 1zM342 -184q60 0 105 36.5t45 98.5q0 65 -44 102t-104 37q-59 0 -101 -36.5t-42 -102.5 q0 -65 41 -100t100 -35z" glyph-name="six.subs" horiz-adv-x="698"/><glyph d="M14 553h639v-154l-403 -768h-238l398 729h-396v193z" glyph-name="seven.subs" horiz-adv-x="639"/><glyph d="M571 139q123 -80 123 -227q0 -125 -94.5 -209t-239.5 -84q-142 0 -235.5 84t-93.5 209q0 72 32 130.5t90 96.5q-67 61 -67 180q0 106 78 176t198 70q119 0 197 -70t78 -176q0 -118 -66 -180zM362 401q-44 0 -72 -29t-28 -73q0 -42 28 -71t72 -29t72.5 29t28.5 71 q0 45 -28 73.5t-73 28.5zM360 -201q56 0 92.5 39.5t36.5 95.5q0 57 -36 93t-93 36q-55 0 -89.5 -36t-34.5 -93q0 -56 35 -95.5t89 -39.5z" glyph-name="eight.subs" horiz-adv-x="725"/><glyph d="M356 563q89 0 165.5 -34.5t127.5 -109.5t51 -179q0 -96 -73 -199l-293 -410h-244l233 292q-5 -1 -16 -1q-116 0 -208.5 96t-92.5 220q0 103 52 178.5t130 111t168 35.5zM354 94q59 0 101.5 36.5t42.5 102.5t-41.5 101t-100.5 35t-104 -36.5t-45 -99.5q0 -65 44 -102 t103 -37z" glyph-name="nine.subs" horiz-adv-x="700"/><glyph d="M383 -12q-157 0 -251.5 129.5t-94.5 343.5q0 213 94.5 343t251.5 130t252.5 -130t95.5 -343q0 -214 -95.5 -343.5t-252.5 -129.5zM385 193q63 0 100 70.5t37 197.5t-37 197.5t-100 70.5t-100 -70.5t-37 -197.5t37 -197.5t100 -70.5z" glyph-name="zero.dnom" horiz-adv-x="766"/><glyph d="M184 922h191v-922h-205v733l-176 -137v192z" glyph-name="one.dnom" horiz-adv-x="479"/><glyph d="M278 160h394v-160h-635v195q110 63 190 121.5t124 102t70 86t33 70t7 56.5q0 44 -10.5 73.5t-28 43t-35.5 18t-39 2.5q-110 -10 -98 -145h-215q-6 134 88 223.5t239 89.5q136 0 218 -79.5t82 -205.5q0 -135 -99 -268.5t-285 -222.5z" glyph-name="two.dnom" horiz-adv-x="721"/><glyph d="M541 503q125 -71 125 -214q0 -127 -92.5 -214t-235.5 -87q-136 0 -228 77t-92 193h201q4 -53 38.5 -77.5t86.5 -24.5q121 0 121 123q0 61 -32 89.5t-101 28.5h-53v156h38q59 0 87 27.5t28 87.5q0 106 -98 106q-47 0 -76 -25.5t-33 -91.5h-194q0 126 84.5 201.5 t214.5 75.5q126 0 205 -71.5t79 -186.5q0 -109 -73 -173z" glyph-name="three.dnom" horiz-adv-x="696"/><glyph d="M705 346v-151h-95v-195h-198v195h-414v184l342 543h270v-576h95zM159 346h253v426z" glyph-name="four.dnom" horiz-adv-x="737"/><glyph d="M391 600q174 0 253 -79.5t79 -217.5q0 -147 -94.5 -229t-237.5 -82q-153 0 -252.5 81t-99.5 236h207q0 -76 40 -113.5t101 -37.5t96 37t35 102q0 75 -40 108t-128 33h-297l105 486h534v-168h-391l-32 -156h122z" glyph-name="five.dnom" horiz-adv-x="766"/><glyph d="M391 631q116 0 208.5 -96t92.5 -220q0 -103 -52 -178.5t-130 -111t-168 -35.5q-89 0 -165.5 34.5t-127.5 109.5t-51 179q0 95 74 199l293 410h243l-233 -292q5 1 16 1zM342 184q60 0 105 36.5t45 98.5q0 66 -44 103t-104 37q-59 0 -101 -36.5t-42 -103.5q0 -65 41 -100 t100 -35z" glyph-name="six.dnom" horiz-adv-x="698"/><glyph d="M14 922h639v-154l-403 -768h-238l399 729h-397v193z" glyph-name="seven.dnom" horiz-adv-x="639"/><glyph d="M571 508q123 -80 123 -227q0 -125 -94.5 -209t-239.5 -84q-142 0 -235.5 84t-93.5 209q0 146 122 226q-67 61 -67 181q0 105 78 175.5t198 70.5q119 0 197 -70.5t78 -175.5q0 -118 -66 -180zM362 770q-44 0 -72 -29t-28 -73q0 -43 28 -72t72 -29t72.5 29t28.5 72 q0 45 -28 73.5t-73 28.5zM360 168q56 0 92.5 39.5t36.5 95.5q0 57 -36 93t-93 36q-55 0 -89.5 -36t-34.5 -93q0 -56 35 -95.5t89 -39.5z" glyph-name="eight.dnom" horiz-adv-x="725"/><glyph d="M356 932q89 0 165.5 -34.5t127.5 -110t51 -179.5q0 -95 -73 -198l-293 -410h-244l233 292q-5 -1 -16 -1q-116 0 -208.5 95.5t-92.5 219.5q0 103 52 179t130 111.5t168 35.5zM354 463q59 0 101.5 36.5t42.5 102.5q0 65 -41.5 100t-100.5 35t-104 -36.5t-45 -98.5 q0 -65 44 -102t103 -37z" glyph-name="nine.dnom" horiz-adv-x="700"/><glyph d="M383 545q-157 0 -251.5 129.5t-94.5 343.5t94.5 343.5t251.5 129.5t252.5 -129.5t95.5 -343.5t-95.5 -343.5t-252.5 -129.5zM385 750q63 0 100 70.5t37 197.5t-37 197.5t-100 70.5t-100 -70.5t-37 -197.5t37 -197.5t100 -70.5z" glyph-name="zero.numr" horiz-adv-x="766"/><glyph d="M186 1470h191v-921h-207l2 733l-176 -137l-2 192z" glyph-name="one.numr" horiz-adv-x="481"/><glyph d="M277 715h395v-160h-635v195q110 63 190 121.5t124 102t70 86t33 70t7 56.5q0 44 -10.5 73.5t-28 43t-35.5 18t-39 2.5q-110 -10 -98 -145h-215q-6 134 88 223.5t239 89.5q136 0 218 -79.5t82 -205.5q0 -135 -99 -268.5t-286 -222.5z" glyph-name="two.numr" horiz-adv-x="721"/><glyph d="M538 1059q128 -69 128 -213q0 -126 -92.5 -213.5t-233.5 -87.5q-138 0 -230 76.5t-92 193.5h215q0 -102 107 -102q115 0 115 125q0 60 -34.5 88t-109.5 28h-32v156h18q67 0 96 27.5t29 89.5q0 52 -24.5 78t-65.5 26q-46 0 -69 -25t-23 -92h-209q0 127 84 202t217 75 q125 0 203.5 -72t78.5 -188q0 -110 -76 -172z" glyph-name="three.numr" horiz-adv-x="696"/><glyph d="M705 895v-152h-95v-194h-198v194h-414v185l342 542h270v-575h95zM159 895h253v425z" glyph-name="four.numr" horiz-adv-x="737"/><glyph d="M391 1147q174 0 253 -79.5t79 -217.5q0 -147 -94.5 -229t-237.5 -82q-153 0 -252.5 81t-99.5 236h207q0 -76 40 -113.5t101 -37.5t96 37t35 102q0 75 -40 108t-128 33h-297l105 485h534v-167h-391l-32 -156h122z" glyph-name="five.numr" horiz-adv-x="766"/><glyph d="M391 1180q116 0 208.5 -96t92.5 -220q0 -103 -52 -178.5t-130 -111t-168 -35.5q-89 0 -165.5 34.5t-127.5 109.5t-51 179q0 95 74 199l293 409h243l-232 -291q4 1 15 1zM342 733q60 0 105 36.5t45 98.5q0 66 -44 103t-104 37q-59 0 -101 -36.5t-42 -103.5q0 -65 41 -100 t100 -35z" glyph-name="six.numr" horiz-adv-x="698"/><glyph d="M14 1470h639v-153l-403 -768h-238l399 729h-397v192z" glyph-name="seven.numr" horiz-adv-x="639"/><glyph d="M571 1065q123 -80 123 -227q0 -125 -94.5 -209t-239.5 -84q-142 0 -235.5 84t-93.5 209q0 146 122 226q-67 61 -67 181q0 105 78 175.5t198 70.5q119 0 197 -70.5t78 -175.5q0 -118 -66 -180zM362 1327q-44 0 -72 -29t-28 -73q0 -43 28 -72t72 -29t72.5 29t28.5 72 q0 45 -28 73.5t-73 28.5zM360 725q56 0 92.5 39.5t36.5 95.5q0 57 -36 93t-93 36q-55 0 -89.5 -36t-34.5 -93q0 -56 35 -95.5t89 -39.5z" glyph-name="eight.numr" horiz-adv-x="725"/><glyph d="M356 1491q89 0 165.5 -34.5t127.5 -110t51 -179.5q0 -95 -73 -198l-293 -410h-244l233 292q-5 -1 -16 -1q-116 0 -208.5 95.5t-92.5 219.5q0 103 52 179t130 111.5t168 35.5zM354 1022q59 0 101.5 36.5t42.5 102.5q0 65 -41.5 100t-100.5 35t-104 -36.5t-45 -98.5 q0 -65 44 -102t103 -37z" glyph-name="nine.numr" horiz-adv-x="698"/><glyph d="M383 971q-157 0 -251.5 129.5t-94.5 343.5t94.5 343.5t251.5 129.5t252.5 -129.5t95.5 -343.5t-95.5 -343.5t-252.5 -129.5zM385 1176q63 0 100 70.5t37 197.5t-37 197.5t-100 70.5t-100 -70.5t-37 -197.5t37 -197.5t100 -70.5z" glyph-name="zero.sups" horiz-adv-x="766"/><glyph d="M186 1905h191v-922h-207l2 733l-176 -137l-2 193z" glyph-name="one.sups" horiz-adv-x="481"/><glyph d="M277 1143h395v-160h-635v195q110 63 190 121.5t124 102t70 86t33 70t7 56.5q0 44 -10.5 73.5t-28 43t-35.5 18t-39 2.5q-110 -10 -98 -145h-215q-6 134 88 223.5t239 89.5q136 0 218 -79.5t82 -205.5q0 -135 -99 -268.5t-286 -222.5z" glyph-name="two.sups" horiz-adv-x="721"/><glyph d="M538 1485q128 -69 128 -213q0 -126 -92.5 -213.5t-233.5 -87.5q-138 0 -230 76.5t-92 193.5h215q0 -102 107 -102q115 0 115 125q0 60 -34.5 88t-109.5 28h-32v156h18q67 0 96 27.5t29 89.5q0 52 -24.5 78t-65.5 26q-46 0 -69 -25t-23 -92h-209q0 127 84 202t217 75 q125 0 203.5 -72t78.5 -188q0 -110 -76 -172z" glyph-name="three.sups" horiz-adv-x="696"/><glyph d="M705 1329v-151h-95v-195h-198v195h-414v184l342 543h270v-576h95zM159 1329h253v426z" glyph-name="four.sups" horiz-adv-x="737"/><glyph d="M391 1583q174 0 253 -79.5t79 -217.5q0 -147 -94.5 -229t-237.5 -82q-153 0 -252.5 81t-99.5 236h207q0 -76 40 -113.5t101 -37.5t96 37t35 102q0 75 -40 108t-128 33h-297l105 486h534v-168h-391l-32 -156h122z" glyph-name="five.sups" horiz-adv-x="766"/><glyph d="M391 1614q116 0 208.5 -96t92.5 -220q0 -103 -52 -178.5t-130 -111t-168 -35.5q-89 0 -165.5 34.5t-127.5 109.5t-51 179q0 95 74 199l293 410h243l-233 -292q5 1 16 1zM342 1167q60 0 105 36.5t45 99.5q0 65 -44 102t-104 37q-59 0 -101 -36.5t-42 -102.5t41 -101 t100 -35z" glyph-name="six.sups" horiz-adv-x="698"/><glyph d="M14 1905h639v-154l-403 -768h-238l399 729h-397v193z" glyph-name="seven.sups" horiz-adv-x="639"/><glyph d="M571 1491q123 -80 123 -227q0 -125 -94.5 -209t-239.5 -84q-142 0 -235.5 84t-93.5 209q0 146 122 226q-67 61 -67 181q0 105 78 175.5t198 70.5q119 0 197 -70.5t78 -175.5q0 -118 -66 -180zM362 1753q-44 0 -72 -29t-28 -73q0 -43 28 -72t72 -29t72.5 29t28.5 72 q0 45 -28 73.5t-73 28.5zM360 1151q56 0 92.5 39.5t36.5 95.5q0 57 -36 93t-93 36q-55 0 -89.5 -36t-34.5 -93q0 -56 35 -95.5t89 -39.5z" glyph-name="eight.sups" horiz-adv-x="725"/><glyph d="M356 1915q89 0 165.5 -34.5t127.5 -110t51 -179.5q0 -95 -73 -198l-293 -410h-244l233 292q-5 -1 -16 -1q-116 0 -208.5 95.5t-92.5 219.5q0 103 52 179t130 111.5t168 35.5zM354 1446q59 0 101.5 36.5t42.5 102.5q0 65 -41.5 100t-100.5 35t-104 -36.5t-45 -98.5 q0 -65 44 -102t103 -37z" glyph-name="nine.sups" horiz-adv-x="700"/><glyph d="M-747 1536q-83 0 -142 58t-59 141q0 81 59 138.5t142 57.5q80 0 138 -57.5t58 -138.5q0 -83 -58 -141t-138 -58zM-278 1536q-83 0 -142 58t-59 141q0 81 59 138.5t142 57.5q80 0 138 -57.5t58 -138.5q0 -83 -58 -141t-138 -58z" glyph-name="uni0308.case"/><glyph d="M-278 1536q-83 0 -142 58t-59 141q0 81 59 138.5t142 57.5q80 0 138 -57.5t58 -138.5q0 -83 -58 -141t-138 -58z" glyph-name="uni0307.case"/><glyph d="M-229 1597l-227 273l174 123l270 -396h-217z" glyph-name="gravecomb.case"/><glyph d="M-477 1597l271 396l174 -123l-228 -273h-217z" glyph-name="acutecomb.case"/><glyph d="M-867 1597l271 396l174 -123l-228 -273h-217zM-478 1597l271 396l174 -123l-228 -273h-217z" glyph-name="uni030B.case"/><glyph d="M-483 1597h-218l238 301h205l237 -301h-217l-123 136z" glyph-name="uni0302.case"/><glyph d="M-465 1597l-237 301h217l122 -135l123 135h217l-237 -301h-205z" glyph-name="uni030C.case"/><glyph d="M-454 1597q-183 0 -282 72t-99 240h204q0 -148 177 -148q178 0 178 148h205q0 -168 -99.5 -240t-283.5 -72z" glyph-name="uni0306.case"/><glyph d="M-325 1597q-108 0 -184 76.5t-76 184.5q0 105 76 180.5t184 75.5q105 0 180.5 -75.5t75.5 -180.5q0 -108 -75 -184.5t-181 -76.5zM-325 1743q48 0 80 31.5t32 83.5q0 45 -33 79.5t-79 34.5q-47 0 -79 -34.5t-32 -79.5q0 -52 31 -83.5t80 -31.5z" glyph-name="uni030A.case"/><glyph d="M-330 1618q-64 0 -101.5 18.5t-68.5 51.5q-4 5 -20 23.5t-22 24t-19.5 12.5t-28.5 7q-68 0 -68 -125h-188q0 126 66.5 204.5t181.5 78.5q106 0 170 -60q11 -11 31 -34t34 -33t33 -10q59 0 59 125h191q0 -124 -65 -203.5t-185 -79.5z" glyph-name="tildecomb.case"/><glyph d="M-803 1597v209h676v-209h-676z" glyph-name="uni0304.case"/><glyph d="M-354 1536v145q106 18 106 88q0 58 -57 58q-49 0 -86 -43l-78 114q74 64 189 64q99 0 151.5 -48.5t52.5 -131.5q0 -72 -34.5 -106.5t-90.5 -51.5v-88h-153z" glyph-name="hookabovecomb.case"/><glyph d="M-326 1939h258l-127 -342h-373z" glyph-name="uni0312.case"/><glyph d="M-1215 -31l1114 1600l135 -80l-1114 -1600z" glyph-name="uni0338.case"/><glyph d="M-554 1659l271 395l174 -123l-228 -272h-217zM-449 1163q-177 0 -278.5 93.5t-101.5 279.5h225q0 -97 38 -153t117 -56q81 0 119.5 56t38.5 153h225q0 -186 -102 -279.5t-281 -93.5z" glyph-name="uni03060301"/><glyph d="M-558 1659l-227 272l174 123l270 -395h-217zM-449 1163q-177 0 -278.5 93.5t-101.5 279.5h225q0 -97 38 -153t117 -56q81 0 119.5 56t38.5 153h225q0 -186 -102 -279.5t-281 -93.5z" glyph-name="uni03060300"/><glyph d="M-521 1607v146q106 17 106 88q0 57 -57 57q-49 0 -86 -43l-78 115q73 63 189 63q99 0 151.5 -48t52.5 -132q0 -71 -34.5 -105.5t-90.5 -51.5v-89h-153zM-449 1163q-177 0 -278.5 93.5t-101.5 279.5h225q0 -97 38 -153t117 -56q81 0 119.5 56t38.5 153h225 q0 -186 -102 -279.5t-281 -93.5z" glyph-name="uni03060309"/><glyph d="M-312 1651q-118 0 -184 106q-19 31 -43 31q-57 0 -57 -125h-164q0 127 57.5 205.5t157.5 78.5q60 0 107 -29t77 -77q21 -31 45 -31q54 0 54 125h166q0 -125 -56.5 -204.5t-159.5 -79.5zM-449 1163q-177 0 -278.5 93.5t-101.5 279.5h225q0 -97 38 -153t117 -56 q81 0 119.5 56t38.5 153h225q0 -186 -102 -279.5t-281 -93.5z" glyph-name="uni03060303"/><glyph d="M-466 1659l271 395l174 -123l-228 -272h-217zM-483 1235h-218l238 301h205l237 -301h-217l-123 135z" glyph-name="uni03020301"/><glyph d="M-470 1659l-227 272l174 123l270 -395h-217zM-483 1235h-218l238 301h205l237 -301h-217l-123 135z" glyph-name="uni03020300"/><glyph d="M-433 1607v146q106 17 106 88q0 57 -57 57q-49 0 -86 -43l-78 115q73 63 189 63q99 0 151.5 -48t52.5 -132q0 -71 -34.5 -105.5t-90.5 -51.5v-89h-153zM-483 1235h-218l238 301h205l237 -301h-217l-123 135z" glyph-name="uni03020309"/><glyph d="M-224 1651q-118 0 -184 106q-19 31 -43 31q-57 0 -57 -125h-164q0 127 57.5 205.5t157.5 78.5q60 0 107 -29t77 -77q21 -31 45 -31q54 0 54 125h166q0 -125 -56.5 -204.5t-159.5 -79.5zM-483 1235h-218l238 301h205l237 -301h-217l-123 135z" glyph-name="uni03020303"/><glyph d="M-557 1978l271 396l174 -123l-228 -273h-217zM-454 1597q-183 0 -282 72t-99 240h204q0 -148 177 -148q178 0 178 148h205q0 -168 -99.5 -240t-283.5 -72z" glyph-name="uni03060301.case"/><glyph d="M-561 1978l-227 273l174 123l270 -396h-217zM-454 1597q-183 0 -282 72t-99 240h204q0 -148 177 -148q178 0 178 148h205q0 -168 -99.5 -240t-283.5 -72z" glyph-name="uni03060300.case"/><glyph d="M-524 1917v145q106 18 106 88q0 58 -57 58q-49 0 -86 -43l-78 114q74 64 189 64q99 0 151.5 -48.5t52.5 -131.5q0 -72 -34.5 -106.5t-90.5 -51.5v-88h-153zM-454 1597q-183 0 -282 72t-99 240h204q0 -148 177 -148q178 0 178 148h205q0 -168 -99.5 -240t-283.5 -72z" glyph-name="uni03060309.case"/><glyph d="M-298 1999q-64 0 -101.5 18.5t-68.5 51.5q-4 5 -20 23.5t-22 24t-19.5 12.5t-28.5 7q-68 0 -68 -125h-188q0 126 66.5 204.5t181.5 78.5q106 0 170 -60q11 -11 31 -34t34 -33t33 -10q59 0 59 125h191q0 -124 -65 -203.5t-185 -79.5zM-454 1597q-183 0 -282 72t-99 240 h204q0 -148 177 -148q178 0 178 148h205q0 -168 -99.5 -240t-283.5 -72z" glyph-name="uni03060303.case"/><glyph d="M-466 1985l271 396l174 -123l-228 -273h-217zM-483 1597h-218l238 301h205l237 -301h-217l-123 136z" glyph-name="uni03020301.case"/><glyph d="M-470 1985l-227 273l174 123l270 -396h-217zM-483 1597h-218l238 301h205l237 -301h-217l-123 136z" glyph-name="uni03020300.case"/><glyph d="M-433 1924v145q106 18 106 88q0 58 -57 58q-49 0 -86 -43l-78 114q74 64 189 64q99 0 151.5 -48.5t52.5 -131.5q0 -72 -34.5 -106.5t-90.5 -51.5v-88h-153zM-483 1597h-218l238 301h205l237 -301h-217l-123 136z" glyph-name="uni03020309.case"/><glyph d="M-207 2006q-63 0 -101 18.5t-69 51.5q-4 5 -20 23.5t-22 24t-19.5 12.5t-28.5 7q-68 0 -68 -125h-188q0 126 66.5 204.5t181.5 78.5q106 0 170 -60q11 -11 31 -34t34 -33t33 -10q59 0 59 125h191q0 -124 -65 -203.5t-185 -79.5zM-483 1597h-218l238 301h205l237 -301 h-217l-123 136z" glyph-name="uni03020303.case"/></font>
</defs>
</svg>
